%TF.GenerationSoftware,KiCad,Pcbnew,(6.0.5)*%
%TF.CreationDate,2024-04-12T21:31:27+02:00*%
%TF.ProjectId,TUSB2046-FS-HUB,54555342-3230-4343-962d-46532d485542,rev?*%
%TF.SameCoordinates,Original*%
%TF.FileFunction,Legend,Bot*%
%TF.FilePolarity,Positive*%
%FSLAX46Y46*%
G04 Gerber Fmt 4.6, Leading zero omitted, Abs format (unit mm)*
G04 Created by KiCad (PCBNEW (6.0.5)) date 2024-04-12 21:31:27*
%MOMM*%
%LPD*%
G01*
G04 APERTURE LIST*
%ADD10R,1.524000X1.524000*%
%ADD11C,1.524000*%
%ADD12C,3.500000*%
%ADD13C,6.400000*%
%ADD14C,1.500000*%
%ADD15R,1.700000X1.700000*%
%ADD16O,1.700000X1.700000*%
%ADD17C,0.900000*%
G04 APERTURE END LIST*
%LPC*%
D10*
%TO.C,J5*%
X149000000Y-122022500D03*
D11*
X151500000Y-122022500D03*
X153500000Y-122022500D03*
X156000000Y-122022500D03*
D12*
X159070000Y-124732500D03*
X145930000Y-124732500D03*
%TD*%
D13*
%TO.C,H1*%
X176000000Y-54000000D03*
%TD*%
%TO.C,H4*%
X129000000Y-54000000D03*
%TD*%
%TO.C,H3*%
X129000000Y-131000000D03*
%TD*%
D14*
%TO.C,Y1*%
X150050000Y-79700000D03*
X154930000Y-79700000D03*
%TD*%
D10*
%TO.C,J4*%
X167022500Y-117250000D03*
D11*
X167022500Y-114750000D03*
X167022500Y-112750000D03*
X167022500Y-110250000D03*
D12*
X169732500Y-107180000D03*
X169732500Y-120320000D03*
%TD*%
D13*
%TO.C,H2*%
X176000000Y-131000000D03*
%TD*%
D15*
%TO.C,J6*%
X160800000Y-106975000D03*
D16*
X160800000Y-109515000D03*
X160800000Y-112055000D03*
%TD*%
D10*
%TO.C,J2*%
X156000000Y-62977500D03*
D11*
X153500000Y-62977500D03*
X151500000Y-62977500D03*
X149000000Y-62977500D03*
D12*
X145930000Y-60267500D03*
X159070000Y-60267500D03*
%TD*%
D15*
%TO.C,J7*%
X146800000Y-110560000D03*
D16*
X146800000Y-113100000D03*
X146800000Y-115640000D03*
%TD*%
D17*
%TO.C,J1*%
X130925000Y-90300000D03*
X130925000Y-94700000D03*
%TD*%
D10*
%TO.C,J3*%
X167022500Y-74750000D03*
D11*
X167022500Y-72250000D03*
X167022500Y-70250000D03*
X167022500Y-67750000D03*
D12*
X169732500Y-77820000D03*
X169732500Y-64680000D03*
%TD*%
D15*
%TO.C,J9*%
X172400000Y-81960000D03*
D16*
X172400000Y-84500000D03*
X172400000Y-87040000D03*
%TD*%
D15*
%TO.C,J8*%
X157200000Y-68360000D03*
D16*
X157200000Y-70900000D03*
X157200000Y-73440000D03*
%TD*%
M02*
