M48
; DRILL file {KiCad (6.0.5)} date Fri Apr 12 21:33:08 2024
; FORMAT={-:-/ absolute / metric / decimal}
; #@! TF.CreationDate,2024-04-12T21:33:08+02:00
; #@! TF.GenerationSoftware,Kicad,Pcbnew,(6.0.5)
; #@! TF.FileFunction,Plated,1,4,PTH
FMAT,2
METRIC
; #@! TA.AperFunction,Plated,PTH,ViaDrill
T1C0.300
; #@! TA.AperFunction,Plated,PTH,ViaDrill
T2C0.500
; #@! TA.AperFunction,Plated,PTH,ComponentDrill
T3C0.800
; #@! TA.AperFunction,Plated,PTH,ComponentDrill
T4C0.920
; #@! TA.AperFunction,Plated,PTH,ComponentDrill
T5C1.000
; #@! TA.AperFunction,Plated,PTH,ComponentDrill
T6C2.300
; #@! TA.AperFunction,Plated,PTH,ComponentDrill
T7C3.200
%
G90
G05
T1
X140.8Y-94.5
X142.3Y-93.6
X142.5Y-91.75
X144.1Y-87.5
X146.8Y-91.3
X147.7Y-96.1
X147.75Y-98.25
X149.5Y-94.1
X149.8Y-102.0
X150.5Y-86.9
X150.5Y-107.5
X152.5Y-83.6
X152.9Y-89.6
X153.5Y-105.8
X153.5Y-107.75
X153.5Y-116.0
X154.5Y-87.0
X157.0Y-96.75
X158.6Y-86.1
X163.0Y-82.75
X163.8Y-72.7
X164.8Y-79.8
X165.9Y-91.3
T2
X128.0Y-86.25
X128.0Y-98.75
X129.75Y-70.5
X129.75Y-72.0
X129.75Y-113.0
X129.75Y-114.5
X133.5Y-86.25
X133.5Y-98.75
X135.0Y-90.0
X135.5Y-94.5
X140.25Y-70.5
X140.25Y-72.0
X140.25Y-113.0
X140.25Y-114.5
X145.8Y-65.9
X163.7Y-121.3
X164.2Y-64.7
X168.5Y-98.2
X169.5Y-90.2
X171.3Y-96.6
X173.1Y-92.5
X174.2Y-96.8
X177.0Y-89.9
X177.0Y-95.1
T3
X150.05Y-79.7
X154.93Y-79.7
T4
X149.0Y-62.977
X149.0Y-122.022
X151.5Y-62.977
X151.5Y-122.022
X153.5Y-62.977
X153.5Y-122.022
X156.0Y-62.977
X156.0Y-122.022
X167.022Y-67.75
X167.022Y-70.25
X167.022Y-72.25
X167.022Y-74.75
X167.022Y-110.25
X167.022Y-112.75
X167.022Y-114.75
X167.022Y-117.25
T5
X146.8Y-110.56
X146.8Y-113.1
X146.8Y-115.64
X157.2Y-68.36
X157.2Y-70.9
X157.2Y-73.44
X160.8Y-106.975
X160.8Y-109.515
X160.8Y-112.055
X172.4Y-81.96
X172.4Y-84.5
X172.4Y-87.04
T6
X145.93Y-60.267
X145.93Y-124.732
X159.07Y-60.267
X159.07Y-124.732
X169.732Y-64.68
X169.732Y-77.82
X169.732Y-107.18
X169.732Y-120.32
T7
X129.0Y-54.0
X129.0Y-131.0
X176.0Y-54.0
X176.0Y-131.0
T0
M30
