%TF.GenerationSoftware,KiCad,Pcbnew,(6.0.5)*%
%TF.CreationDate,2024-04-12T21:31:27+02:00*%
%TF.ProjectId,TUSB2046-FS-HUB,54555342-3230-4343-962d-46532d485542,rev?*%
%TF.SameCoordinates,Original*%
%TF.FileFunction,Copper,L4,Bot*%
%TF.FilePolarity,Positive*%
%FSLAX46Y46*%
G04 Gerber Fmt 4.6, Leading zero omitted, Abs format (unit mm)*
G04 Created by KiCad (PCBNEW (6.0.5)) date 2024-04-12 21:31:27*
%MOMM*%
%LPD*%
G01*
G04 APERTURE LIST*
%TA.AperFunction,ComponentPad*%
%ADD10R,1.524000X1.524000*%
%TD*%
%TA.AperFunction,ComponentPad*%
%ADD11C,1.524000*%
%TD*%
%TA.AperFunction,ComponentPad*%
%ADD12C,3.500000*%
%TD*%
%TA.AperFunction,ComponentPad*%
%ADD13C,6.400000*%
%TD*%
%TA.AperFunction,ComponentPad*%
%ADD14C,1.500000*%
%TD*%
%TA.AperFunction,ComponentPad*%
%ADD15R,1.700000X1.700000*%
%TD*%
%TA.AperFunction,ComponentPad*%
%ADD16O,1.700000X1.700000*%
%TD*%
%TA.AperFunction,ViaPad*%
%ADD17C,0.560000*%
%TD*%
%TA.AperFunction,ViaPad*%
%ADD18C,0.760000*%
%TD*%
G04 APERTURE END LIST*
D10*
%TO.P,J5,1,VBUS*%
%TO.N,+5V*%
X149000000Y-122022500D03*
D11*
%TO.P,J5,2,D-*%
%TO.N,Net-(J5-Pad2)*%
X151500000Y-122022500D03*
%TO.P,J5,3,D+*%
%TO.N,Net-(J5-Pad3)*%
X153500000Y-122022500D03*
%TO.P,J5,4,GND*%
%TO.N,GND*%
X156000000Y-122022500D03*
D12*
%TO.P,J5,5,Shield*%
X159070000Y-124732500D03*
X145930000Y-124732500D03*
%TD*%
D13*
%TO.P,H1,1,1*%
%TO.N,GND*%
X176000000Y-54000000D03*
%TD*%
%TO.P,H4,1,1*%
%TO.N,GND*%
X129000000Y-54000000D03*
%TD*%
%TO.P,H3,1,1*%
%TO.N,GND*%
X129000000Y-131000000D03*
%TD*%
D14*
%TO.P,Y1,1,1*%
%TO.N,/XTAL1*%
X150050000Y-79700000D03*
%TO.P,Y1,2,2*%
%TO.N,Net-(C13-Pad1)*%
X154930000Y-79700000D03*
%TD*%
D10*
%TO.P,J4,1,VBUS*%
%TO.N,+5V*%
X167022500Y-117250000D03*
D11*
%TO.P,J4,2,D-*%
%TO.N,Net-(R5-Pad2)*%
X167022500Y-114750000D03*
%TO.P,J4,3,D+*%
%TO.N,Net-(J4-Pad3)*%
X167022500Y-112750000D03*
%TO.P,J4,4,GND*%
%TO.N,GND*%
X167022500Y-110250000D03*
D12*
%TO.P,J4,5,Shield*%
X169732500Y-107180000D03*
X169732500Y-120320000D03*
%TD*%
D13*
%TO.P,H2,1,1*%
%TO.N,GND*%
X176000000Y-131000000D03*
%TD*%
D15*
%TO.P,J6,1,Pin_1*%
%TO.N,Net-(J6-Pad1)*%
X160800000Y-106975000D03*
D16*
%TO.P,J6,2,Pin_2*%
%TO.N,Net-(J6-Pad2)*%
X160800000Y-109515000D03*
%TO.P,J6,3,Pin_3*%
%TO.N,GND*%
X160800000Y-112055000D03*
%TD*%
D10*
%TO.P,J2,1,VBUS*%
%TO.N,+5V*%
X156000000Y-62977500D03*
D11*
%TO.P,J2,2,D-*%
%TO.N,Net-(J2-Pad2)*%
X153500000Y-62977500D03*
%TO.P,J2,3,D+*%
%TO.N,Net-(J2-Pad3)*%
X151500000Y-62977500D03*
%TO.P,J2,4,GND*%
%TO.N,GND*%
X149000000Y-62977500D03*
D12*
%TO.P,J2,5,Shield*%
X145930000Y-60267500D03*
X159070000Y-60267500D03*
%TD*%
D15*
%TO.P,J7,1,Pin_1*%
%TO.N,Net-(J7-Pad1)*%
X146800000Y-110560000D03*
D16*
%TO.P,J7,2,Pin_2*%
%TO.N,Net-(J7-Pad2)*%
X146800000Y-113100000D03*
%TO.P,J7,3,Pin_3*%
%TO.N,GND*%
X146800000Y-115640000D03*
%TD*%
D10*
%TO.P,J3,1,VBUS*%
%TO.N,+5V*%
X167022500Y-74750000D03*
D11*
%TO.P,J3,2,D-*%
%TO.N,Net-(J3-Pad2)*%
X167022500Y-72250000D03*
%TO.P,J3,3,D+*%
%TO.N,Net-(J3-Pad3)*%
X167022500Y-70250000D03*
%TO.P,J3,4,GND*%
%TO.N,GND*%
X167022500Y-67750000D03*
D12*
%TO.P,J3,5,Shield*%
X169732500Y-77820000D03*
X169732500Y-64680000D03*
%TD*%
D15*
%TO.P,J9,1,Pin_1*%
%TO.N,Net-(J9-Pad1)*%
X172400000Y-81960000D03*
D16*
%TO.P,J9,2,Pin_2*%
%TO.N,Net-(J9-Pad2)*%
X172400000Y-84500000D03*
%TO.P,J9,3,Pin_3*%
%TO.N,GND*%
X172400000Y-87040000D03*
%TD*%
D15*
%TO.P,J8,1,Pin_1*%
%TO.N,Net-(J8-Pad1)*%
X157200000Y-68360000D03*
D16*
%TO.P,J8,2,Pin_2*%
%TO.N,Net-(J8-Pad2)*%
X157200000Y-70900000D03*
%TO.P,J8,3,Pin_3*%
%TO.N,GND*%
X157200000Y-73440000D03*
%TD*%
D17*
%TO.N,GND*%
X150500000Y-107500000D03*
X147750000Y-98250000D03*
X153500000Y-116000000D03*
X153500000Y-107750000D03*
X157000000Y-96750000D03*
X163000000Y-82750000D03*
D18*
X129750000Y-114500000D03*
X174200000Y-96800000D03*
D17*
X163800000Y-72700000D03*
D18*
X135500000Y-94500000D03*
D17*
X142300000Y-93600000D03*
X149500000Y-94100000D03*
D18*
X129750000Y-113000000D03*
X133500000Y-86250000D03*
X163700000Y-121300000D03*
D17*
X152500000Y-83600000D03*
D18*
X169500000Y-90200000D03*
X128000000Y-98750000D03*
X129750000Y-70500000D03*
X128000000Y-86250000D03*
X168500000Y-98200000D03*
D17*
X158600000Y-86100000D03*
X142500000Y-91750000D03*
X152900000Y-89600000D03*
X150500000Y-86900000D03*
D18*
X133500000Y-98750000D03*
X129750000Y-72000000D03*
D17*
X164800000Y-79800000D03*
D18*
%TO.N,+5V*%
X164200000Y-64700000D03*
X140250000Y-72000000D03*
X140250000Y-114500000D03*
X171300000Y-96600000D03*
X135000000Y-90000000D03*
X145800000Y-65900000D03*
X140250000Y-113000000D03*
X140250000Y-70500000D03*
D17*
%TO.N,+3V3*%
X146800000Y-91300000D03*
D18*
X177000000Y-95100000D03*
X173100000Y-92500000D03*
D17*
X153500000Y-105800000D03*
X165900000Y-91300000D03*
X144100000Y-87500000D03*
X149800000Y-102000000D03*
X140800000Y-94500000D03*
X147700000Y-96100000D03*
X154500000Y-87000000D03*
D18*
X177000000Y-89900000D03*
%TD*%
%TA.AperFunction,Conductor*%
%TO.N,+5V*%
G36*
X174227076Y-50528502D02*
G01*
X174273569Y-50582158D01*
X174283673Y-50652432D01*
X174254179Y-50717012D01*
X174216158Y-50746767D01*
X174146147Y-50782439D01*
X174146140Y-50782443D01*
X174143206Y-50783938D01*
X173817207Y-50995643D01*
X173515124Y-51240266D01*
X173240266Y-51515124D01*
X172995643Y-51817207D01*
X172783938Y-52143206D01*
X172782443Y-52146140D01*
X172782439Y-52146147D01*
X172608966Y-52486607D01*
X172607468Y-52489547D01*
X172468167Y-52852438D01*
X172367562Y-53227901D01*
X172306754Y-53611824D01*
X172286411Y-54000000D01*
X172306754Y-54388176D01*
X172367562Y-54772099D01*
X172468167Y-55147562D01*
X172607468Y-55510453D01*
X172608966Y-55513393D01*
X172720468Y-55732227D01*
X172783938Y-55856794D01*
X172995643Y-56182793D01*
X173240266Y-56484876D01*
X173515124Y-56759734D01*
X173817207Y-57004357D01*
X174143205Y-57216062D01*
X174146139Y-57217557D01*
X174146146Y-57217561D01*
X174486607Y-57391034D01*
X174489547Y-57392532D01*
X174852438Y-57531833D01*
X175227901Y-57632438D01*
X175431793Y-57664732D01*
X175608576Y-57692732D01*
X175608584Y-57692733D01*
X175611824Y-57693246D01*
X176000000Y-57713589D01*
X176388176Y-57693246D01*
X176391416Y-57692733D01*
X176391424Y-57692732D01*
X176568207Y-57664732D01*
X176772099Y-57632438D01*
X177147562Y-57531833D01*
X177510453Y-57392532D01*
X177513393Y-57391034D01*
X177853854Y-57217561D01*
X177853861Y-57217557D01*
X177856795Y-57216062D01*
X178182793Y-57004357D01*
X178484876Y-56759734D01*
X178759734Y-56484876D01*
X179004357Y-56182793D01*
X179216062Y-55856794D01*
X179253233Y-55783842D01*
X179301981Y-55732227D01*
X179370896Y-55715161D01*
X179438098Y-55738062D01*
X179482250Y-55793659D01*
X179491500Y-55841045D01*
X179491500Y-129158955D01*
X179471498Y-129227076D01*
X179417842Y-129273569D01*
X179347568Y-129283673D01*
X179282988Y-129254179D01*
X179253233Y-129216158D01*
X179217561Y-129146147D01*
X179217557Y-129146140D01*
X179216062Y-129143206D01*
X179004357Y-128817207D01*
X178759734Y-128515124D01*
X178484876Y-128240266D01*
X178182793Y-127995643D01*
X177856795Y-127783938D01*
X177853861Y-127782443D01*
X177853854Y-127782439D01*
X177513393Y-127608966D01*
X177510453Y-127607468D01*
X177147562Y-127468167D01*
X176772099Y-127367562D01*
X176568207Y-127335268D01*
X176391424Y-127307268D01*
X176391416Y-127307267D01*
X176388176Y-127306754D01*
X176000000Y-127286411D01*
X175611824Y-127306754D01*
X175608584Y-127307267D01*
X175608576Y-127307268D01*
X175431793Y-127335268D01*
X175227901Y-127367562D01*
X174852438Y-127468167D01*
X174489547Y-127607468D01*
X174486607Y-127608966D01*
X174146147Y-127782439D01*
X174146140Y-127782443D01*
X174143206Y-127783938D01*
X173817207Y-127995643D01*
X173515124Y-128240266D01*
X173240266Y-128515124D01*
X172995643Y-128817207D01*
X172783938Y-129143206D01*
X172782443Y-129146140D01*
X172782439Y-129146147D01*
X172712366Y-129283673D01*
X172607468Y-129489547D01*
X172468167Y-129852438D01*
X172367562Y-130227901D01*
X172306754Y-130611824D01*
X172286411Y-131000000D01*
X172306754Y-131388176D01*
X172367562Y-131772099D01*
X172468167Y-132147562D01*
X172607468Y-132510453D01*
X172608966Y-132513393D01*
X172624290Y-132543467D01*
X172783938Y-132856794D01*
X172995643Y-133182793D01*
X173240266Y-133484876D01*
X173515124Y-133759734D01*
X173817207Y-134004357D01*
X174143205Y-134216062D01*
X174146139Y-134217557D01*
X174146146Y-134217561D01*
X174216157Y-134253233D01*
X174267772Y-134301981D01*
X174284838Y-134370896D01*
X174261937Y-134438098D01*
X174206340Y-134482250D01*
X174158954Y-134491500D01*
X130841046Y-134491500D01*
X130772925Y-134471498D01*
X130726432Y-134417842D01*
X130716328Y-134347568D01*
X130745822Y-134282988D01*
X130783843Y-134253233D01*
X130853854Y-134217561D01*
X130853861Y-134217557D01*
X130856795Y-134216062D01*
X131182793Y-134004357D01*
X131484876Y-133759734D01*
X131759734Y-133484876D01*
X132004357Y-133182793D01*
X132216062Y-132856794D01*
X132375711Y-132543467D01*
X132391034Y-132513393D01*
X132392532Y-132510453D01*
X132531833Y-132147562D01*
X132632438Y-131772099D01*
X132693246Y-131388176D01*
X132713589Y-131000000D01*
X132693246Y-130611824D01*
X132632438Y-130227901D01*
X132531833Y-129852438D01*
X132392532Y-129489547D01*
X132287634Y-129283673D01*
X132217561Y-129146147D01*
X132217557Y-129146140D01*
X132216062Y-129143206D01*
X132004357Y-128817207D01*
X131759734Y-128515124D01*
X131484876Y-128240266D01*
X131182793Y-127995643D01*
X130856795Y-127783938D01*
X130853861Y-127782443D01*
X130853854Y-127782439D01*
X130513393Y-127608966D01*
X130510453Y-127607468D01*
X130147562Y-127468167D01*
X129772099Y-127367562D01*
X129568207Y-127335268D01*
X129391424Y-127307268D01*
X129391416Y-127307267D01*
X129388176Y-127306754D01*
X129000000Y-127286411D01*
X128611824Y-127306754D01*
X128608584Y-127307267D01*
X128608576Y-127307268D01*
X128431793Y-127335268D01*
X128227901Y-127367562D01*
X127852438Y-127468167D01*
X127489547Y-127607468D01*
X127486607Y-127608966D01*
X127146147Y-127782439D01*
X127146140Y-127782443D01*
X127143206Y-127783938D01*
X126817207Y-127995643D01*
X126515124Y-128240266D01*
X126240266Y-128515124D01*
X125995643Y-128817207D01*
X125783938Y-129143206D01*
X125782443Y-129146140D01*
X125782439Y-129146147D01*
X125746767Y-129216158D01*
X125698019Y-129267773D01*
X125629104Y-129284839D01*
X125561902Y-129261938D01*
X125517750Y-129206341D01*
X125508500Y-129158955D01*
X125508500Y-124732500D01*
X143666654Y-124732500D01*
X143686017Y-125027926D01*
X143743776Y-125318297D01*
X143838941Y-125598645D01*
X143969885Y-125864173D01*
X144134367Y-126110338D01*
X144137081Y-126113432D01*
X144137085Y-126113438D01*
X144326864Y-126329838D01*
X144329573Y-126332927D01*
X144332662Y-126335636D01*
X144549062Y-126525415D01*
X144549068Y-126525419D01*
X144552162Y-126528133D01*
X144555588Y-126530422D01*
X144555593Y-126530426D01*
X144739405Y-126653244D01*
X144798327Y-126692615D01*
X144802026Y-126694439D01*
X144802031Y-126694442D01*
X144938313Y-126761648D01*
X145063855Y-126823559D01*
X145067760Y-126824884D01*
X145067761Y-126824885D01*
X145340290Y-126917396D01*
X145340294Y-126917397D01*
X145344203Y-126918724D01*
X145348247Y-126919528D01*
X145348253Y-126919530D01*
X145630535Y-126975680D01*
X145630541Y-126975681D01*
X145634574Y-126976483D01*
X145638679Y-126976752D01*
X145638686Y-126976753D01*
X145925881Y-126995576D01*
X145930000Y-126995846D01*
X145934119Y-126995576D01*
X146221314Y-126976753D01*
X146221321Y-126976752D01*
X146225426Y-126976483D01*
X146229459Y-126975681D01*
X146229465Y-126975680D01*
X146511747Y-126919530D01*
X146511753Y-126919528D01*
X146515797Y-126918724D01*
X146519706Y-126917397D01*
X146519710Y-126917396D01*
X146792239Y-126824885D01*
X146792240Y-126824884D01*
X146796145Y-126823559D01*
X146921687Y-126761648D01*
X147057969Y-126694442D01*
X147057974Y-126694439D01*
X147061673Y-126692615D01*
X147120595Y-126653244D01*
X147304407Y-126530426D01*
X147304412Y-126530422D01*
X147307838Y-126528133D01*
X147310932Y-126525419D01*
X147310938Y-126525415D01*
X147527338Y-126335636D01*
X147530427Y-126332927D01*
X147533136Y-126329838D01*
X147722915Y-126113438D01*
X147722919Y-126113432D01*
X147725633Y-126110338D01*
X147890115Y-125864173D01*
X148021059Y-125598645D01*
X148116224Y-125318297D01*
X148173983Y-125027926D01*
X148193346Y-124732500D01*
X156806654Y-124732500D01*
X156826017Y-125027926D01*
X156883776Y-125318297D01*
X156978941Y-125598645D01*
X157109885Y-125864173D01*
X157274367Y-126110338D01*
X157277081Y-126113432D01*
X157277085Y-126113438D01*
X157466864Y-126329838D01*
X157469573Y-126332927D01*
X157472662Y-126335636D01*
X157689062Y-126525415D01*
X157689068Y-126525419D01*
X157692162Y-126528133D01*
X157695588Y-126530422D01*
X157695593Y-126530426D01*
X157879405Y-126653244D01*
X157938327Y-126692615D01*
X157942026Y-126694439D01*
X157942031Y-126694442D01*
X158078313Y-126761648D01*
X158203855Y-126823559D01*
X158207760Y-126824884D01*
X158207761Y-126824885D01*
X158480290Y-126917396D01*
X158480294Y-126917397D01*
X158484203Y-126918724D01*
X158488247Y-126919528D01*
X158488253Y-126919530D01*
X158770535Y-126975680D01*
X158770541Y-126975681D01*
X158774574Y-126976483D01*
X158778679Y-126976752D01*
X158778686Y-126976753D01*
X159065881Y-126995576D01*
X159070000Y-126995846D01*
X159074119Y-126995576D01*
X159361314Y-126976753D01*
X159361321Y-126976752D01*
X159365426Y-126976483D01*
X159369459Y-126975681D01*
X159369465Y-126975680D01*
X159651747Y-126919530D01*
X159651753Y-126919528D01*
X159655797Y-126918724D01*
X159659706Y-126917397D01*
X159659710Y-126917396D01*
X159932239Y-126824885D01*
X159932240Y-126824884D01*
X159936145Y-126823559D01*
X160061687Y-126761648D01*
X160197969Y-126694442D01*
X160197974Y-126694439D01*
X160201673Y-126692615D01*
X160260595Y-126653244D01*
X160444407Y-126530426D01*
X160444412Y-126530422D01*
X160447838Y-126528133D01*
X160450932Y-126525419D01*
X160450938Y-126525415D01*
X160667338Y-126335636D01*
X160670427Y-126332927D01*
X160673136Y-126329838D01*
X160862915Y-126113438D01*
X160862919Y-126113432D01*
X160865633Y-126110338D01*
X161030115Y-125864173D01*
X161161059Y-125598645D01*
X161256224Y-125318297D01*
X161313983Y-125027926D01*
X161333346Y-124732500D01*
X161313983Y-124437074D01*
X161256224Y-124146703D01*
X161161059Y-123866355D01*
X161030115Y-123600827D01*
X160865633Y-123354662D01*
X160862919Y-123351568D01*
X160862915Y-123351562D01*
X160673136Y-123135162D01*
X160670427Y-123132073D01*
X160519231Y-122999477D01*
X160450938Y-122939585D01*
X160450932Y-122939581D01*
X160447838Y-122936867D01*
X160444412Y-122934578D01*
X160444407Y-122934574D01*
X160205106Y-122774679D01*
X160201673Y-122772385D01*
X160197974Y-122770561D01*
X160197969Y-122770558D01*
X159983279Y-122664685D01*
X159936145Y-122641441D01*
X159932239Y-122640115D01*
X159659710Y-122547604D01*
X159659706Y-122547603D01*
X159655797Y-122546276D01*
X159651753Y-122545472D01*
X159651747Y-122545470D01*
X159369465Y-122489320D01*
X159369459Y-122489319D01*
X159365426Y-122488517D01*
X159361321Y-122488248D01*
X159361314Y-122488247D01*
X159074119Y-122469424D01*
X159070000Y-122469154D01*
X159065881Y-122469424D01*
X158778686Y-122488247D01*
X158778679Y-122488248D01*
X158774574Y-122488517D01*
X158770541Y-122489319D01*
X158770535Y-122489320D01*
X158488253Y-122545470D01*
X158488247Y-122545472D01*
X158484203Y-122546276D01*
X158480294Y-122547603D01*
X158480290Y-122547604D01*
X158207761Y-122640115D01*
X158203855Y-122641441D01*
X158156721Y-122664685D01*
X157942031Y-122770558D01*
X157942026Y-122770561D01*
X157938327Y-122772385D01*
X157934894Y-122774679D01*
X157695593Y-122934574D01*
X157695588Y-122934578D01*
X157692162Y-122936867D01*
X157689068Y-122939581D01*
X157689062Y-122939585D01*
X157620769Y-122999477D01*
X157469573Y-123132073D01*
X157466864Y-123135162D01*
X157277085Y-123351562D01*
X157277081Y-123351568D01*
X157274367Y-123354662D01*
X157109885Y-123600827D01*
X156978941Y-123866355D01*
X156883776Y-124146703D01*
X156826017Y-124437074D01*
X156806654Y-124732500D01*
X148193346Y-124732500D01*
X148173983Y-124437074D01*
X148116224Y-124146703D01*
X148021059Y-123866355D01*
X147890115Y-123600827D01*
X147725633Y-123354662D01*
X147722919Y-123351568D01*
X147722915Y-123351562D01*
X147705829Y-123332080D01*
X147691723Y-123301674D01*
X147678479Y-123296742D01*
X147659200Y-123278910D01*
X147533136Y-123135162D01*
X147530427Y-123132073D01*
X147379231Y-122999477D01*
X147310938Y-122939585D01*
X147310932Y-122939581D01*
X147307838Y-122936867D01*
X147304412Y-122934578D01*
X147304407Y-122934574D01*
X147146656Y-122829169D01*
X147730001Y-122829169D01*
X147730371Y-122835990D01*
X147735895Y-122886852D01*
X147739521Y-122902104D01*
X147784676Y-123022554D01*
X147793214Y-123038149D01*
X147854758Y-123120267D01*
X147862507Y-123141008D01*
X147868050Y-123142600D01*
X147876126Y-123148176D01*
X147984351Y-123229286D01*
X147999946Y-123237824D01*
X148120394Y-123282978D01*
X148135649Y-123286605D01*
X148186514Y-123292131D01*
X148193328Y-123292500D01*
X148656885Y-123292500D01*
X148672124Y-123288025D01*
X148673329Y-123286635D01*
X148675000Y-123278952D01*
X148675000Y-123274384D01*
X149325000Y-123274384D01*
X149329475Y-123289623D01*
X149330865Y-123290828D01*
X149338548Y-123292499D01*
X149806669Y-123292499D01*
X149813490Y-123292129D01*
X149864352Y-123286605D01*
X149879604Y-123282979D01*
X150000054Y-123237824D01*
X150015649Y-123229286D01*
X150117724Y-123152785D01*
X150130285Y-123140224D01*
X150206786Y-123038149D01*
X150215324Y-123022554D01*
X150260478Y-122902106D01*
X150264105Y-122886851D01*
X150266869Y-122861414D01*
X150294112Y-122795852D01*
X150352475Y-122755426D01*
X150423429Y-122752972D01*
X150484447Y-122789268D01*
X150495340Y-122802746D01*
X150523023Y-122842281D01*
X150680219Y-122999477D01*
X150684727Y-123002634D01*
X150684730Y-123002636D01*
X150713176Y-123022554D01*
X150862323Y-123126988D01*
X150867305Y-123129311D01*
X150867310Y-123129314D01*
X151058822Y-123218617D01*
X151063804Y-123220940D01*
X151069112Y-123222362D01*
X151069114Y-123222363D01*
X151094951Y-123229286D01*
X151278537Y-123278478D01*
X151500000Y-123297853D01*
X151721463Y-123278478D01*
X151905049Y-123229286D01*
X151930886Y-123222363D01*
X151930888Y-123222362D01*
X151936196Y-123220940D01*
X151941178Y-123218617D01*
X152132690Y-123129314D01*
X152132695Y-123129311D01*
X152137677Y-123126988D01*
X152286824Y-123022554D01*
X152315270Y-123002636D01*
X152315273Y-123002634D01*
X152319781Y-122999477D01*
X152410905Y-122908353D01*
X152473217Y-122874327D01*
X152544032Y-122879392D01*
X152589095Y-122908353D01*
X152680219Y-122999477D01*
X152684727Y-123002634D01*
X152684730Y-123002636D01*
X152713176Y-123022554D01*
X152862323Y-123126988D01*
X152867305Y-123129311D01*
X152867310Y-123129314D01*
X153058822Y-123218617D01*
X153063804Y-123220940D01*
X153069112Y-123222362D01*
X153069114Y-123222363D01*
X153094951Y-123229286D01*
X153278537Y-123278478D01*
X153500000Y-123297853D01*
X153721463Y-123278478D01*
X153905049Y-123229286D01*
X153930886Y-123222363D01*
X153930888Y-123222362D01*
X153936196Y-123220940D01*
X153941178Y-123218617D01*
X154132690Y-123129314D01*
X154132695Y-123129311D01*
X154137677Y-123126988D01*
X154286824Y-123022554D01*
X154315270Y-123002636D01*
X154315273Y-123002634D01*
X154319781Y-122999477D01*
X154476977Y-122842281D01*
X154524313Y-122774679D01*
X154601331Y-122664685D01*
X154601332Y-122664683D01*
X154604488Y-122660176D01*
X154606811Y-122655194D01*
X154606814Y-122655189D01*
X154635805Y-122593017D01*
X154682723Y-122539732D01*
X154751000Y-122520271D01*
X154818960Y-122540813D01*
X154864195Y-122593017D01*
X154893186Y-122655189D01*
X154893189Y-122655194D01*
X154895512Y-122660176D01*
X154898668Y-122664683D01*
X154898669Y-122664685D01*
X154975688Y-122774679D01*
X155023023Y-122842281D01*
X155180219Y-122999477D01*
X155184727Y-123002634D01*
X155184730Y-123002636D01*
X155213176Y-123022554D01*
X155362323Y-123126988D01*
X155367305Y-123129311D01*
X155367310Y-123129314D01*
X155558822Y-123218617D01*
X155563804Y-123220940D01*
X155569112Y-123222362D01*
X155569114Y-123222363D01*
X155594951Y-123229286D01*
X155778537Y-123278478D01*
X156000000Y-123297853D01*
X156221463Y-123278478D01*
X156405049Y-123229286D01*
X156430886Y-123222363D01*
X156430888Y-123222362D01*
X156436196Y-123220940D01*
X156441178Y-123218617D01*
X156632690Y-123129314D01*
X156632695Y-123129311D01*
X156637677Y-123126988D01*
X156786824Y-123022554D01*
X156815270Y-123002636D01*
X156815273Y-123002634D01*
X156819781Y-122999477D01*
X156976977Y-122842281D01*
X157024313Y-122774679D01*
X157101331Y-122664685D01*
X157101332Y-122664683D01*
X157104488Y-122660176D01*
X157106811Y-122655194D01*
X157106814Y-122655189D01*
X157196117Y-122463678D01*
X157196118Y-122463677D01*
X157198440Y-122458696D01*
X157255978Y-122243963D01*
X157275353Y-122022500D01*
X157255978Y-121801037D01*
X157198440Y-121586304D01*
X157160148Y-121504187D01*
X157106814Y-121389811D01*
X157106811Y-121389806D01*
X157104488Y-121384824D01*
X157045094Y-121300000D01*
X162806606Y-121300000D01*
X162807296Y-121306565D01*
X162815048Y-121380315D01*
X162826129Y-121485747D01*
X162828169Y-121492025D01*
X162828169Y-121492026D01*
X162832472Y-121505268D01*
X162883844Y-121663376D01*
X162887147Y-121669098D01*
X162887148Y-121669099D01*
X162905530Y-121700938D01*
X162977229Y-121825124D01*
X162981647Y-121830031D01*
X162981648Y-121830032D01*
X163063041Y-121920427D01*
X163102203Y-121963921D01*
X163253303Y-122073702D01*
X163259331Y-122076386D01*
X163259333Y-122076387D01*
X163352632Y-122117926D01*
X163423926Y-122149668D01*
X163515270Y-122169084D01*
X163600158Y-122187128D01*
X163600163Y-122187128D01*
X163606615Y-122188500D01*
X163793385Y-122188500D01*
X163799837Y-122187128D01*
X163799842Y-122187128D01*
X163884730Y-122169084D01*
X163976074Y-122149668D01*
X164047368Y-122117926D01*
X164140667Y-122076387D01*
X164140669Y-122076386D01*
X164146697Y-122073702D01*
X164297797Y-121963921D01*
X164336960Y-121920427D01*
X164418352Y-121830032D01*
X164418353Y-121830031D01*
X164422771Y-121825124D01*
X164494470Y-121700938D01*
X164512852Y-121669099D01*
X164512853Y-121669098D01*
X164516156Y-121663376D01*
X164567528Y-121505268D01*
X164571831Y-121492026D01*
X164571831Y-121492025D01*
X164573871Y-121485747D01*
X164584953Y-121380315D01*
X164592704Y-121306565D01*
X164593394Y-121300000D01*
X164573871Y-121114253D01*
X164516156Y-120936624D01*
X164505411Y-120918012D01*
X164426074Y-120780597D01*
X164422771Y-120774876D01*
X164411196Y-120762021D01*
X164302212Y-120640982D01*
X164302210Y-120640981D01*
X164297797Y-120636079D01*
X164146697Y-120526298D01*
X164140669Y-120523614D01*
X164140667Y-120523613D01*
X163982105Y-120453017D01*
X163982104Y-120453017D01*
X163976074Y-120450332D01*
X163884729Y-120430916D01*
X163799842Y-120412872D01*
X163799837Y-120412872D01*
X163793385Y-120411500D01*
X163606615Y-120411500D01*
X163600163Y-120412872D01*
X163600158Y-120412872D01*
X163515271Y-120430916D01*
X163423926Y-120450332D01*
X163417896Y-120453017D01*
X163417895Y-120453017D01*
X163259333Y-120523613D01*
X163259331Y-120523614D01*
X163253303Y-120526298D01*
X163102203Y-120636079D01*
X163097790Y-120640981D01*
X163097788Y-120640982D01*
X162988804Y-120762021D01*
X162977229Y-120774876D01*
X162973926Y-120780597D01*
X162894590Y-120918012D01*
X162883844Y-120936624D01*
X162826129Y-121114253D01*
X162806606Y-121300000D01*
X157045094Y-121300000D01*
X157018385Y-121261856D01*
X156980136Y-121207230D01*
X156980134Y-121207227D01*
X156976977Y-121202719D01*
X156819781Y-121045523D01*
X156815273Y-121042366D01*
X156815270Y-121042364D01*
X156673233Y-120942909D01*
X156637677Y-120918012D01*
X156632695Y-120915689D01*
X156632690Y-120915686D01*
X156441178Y-120826383D01*
X156441177Y-120826382D01*
X156436196Y-120824060D01*
X156430888Y-120822638D01*
X156430886Y-120822637D01*
X156365051Y-120804997D01*
X156221463Y-120766522D01*
X156000000Y-120747147D01*
X155778537Y-120766522D01*
X155634949Y-120804997D01*
X155569114Y-120822637D01*
X155569112Y-120822638D01*
X155563804Y-120824060D01*
X155558823Y-120826382D01*
X155558822Y-120826383D01*
X155367311Y-120915686D01*
X155367306Y-120915689D01*
X155362324Y-120918012D01*
X155357817Y-120921168D01*
X155357815Y-120921169D01*
X155184730Y-121042364D01*
X155184727Y-121042366D01*
X155180219Y-121045523D01*
X155023023Y-121202719D01*
X155019866Y-121207227D01*
X155019864Y-121207230D01*
X154981615Y-121261856D01*
X154895512Y-121384824D01*
X154893189Y-121389806D01*
X154893186Y-121389811D01*
X154864195Y-121451983D01*
X154817277Y-121505268D01*
X154749000Y-121524729D01*
X154681040Y-121504187D01*
X154635805Y-121451983D01*
X154606814Y-121389811D01*
X154606811Y-121389806D01*
X154604488Y-121384824D01*
X154518385Y-121261856D01*
X154480136Y-121207230D01*
X154480134Y-121207227D01*
X154476977Y-121202719D01*
X154319781Y-121045523D01*
X154315273Y-121042366D01*
X154315270Y-121042364D01*
X154173233Y-120942909D01*
X154137677Y-120918012D01*
X154132695Y-120915689D01*
X154132690Y-120915686D01*
X153941178Y-120826383D01*
X153941177Y-120826382D01*
X153936196Y-120824060D01*
X153930888Y-120822638D01*
X153930886Y-120822637D01*
X153865051Y-120804997D01*
X153721463Y-120766522D01*
X153500000Y-120747147D01*
X153278537Y-120766522D01*
X153134949Y-120804997D01*
X153069114Y-120822637D01*
X153069112Y-120822638D01*
X153063804Y-120824060D01*
X153058823Y-120826382D01*
X153058822Y-120826383D01*
X152867311Y-120915686D01*
X152867306Y-120915689D01*
X152862324Y-120918012D01*
X152857817Y-120921168D01*
X152857815Y-120921169D01*
X152684730Y-121042364D01*
X152684727Y-121042366D01*
X152680219Y-121045523D01*
X152589095Y-121136647D01*
X152526783Y-121170673D01*
X152455968Y-121165608D01*
X152410905Y-121136647D01*
X152319781Y-121045523D01*
X152315273Y-121042366D01*
X152315270Y-121042364D01*
X152173233Y-120942909D01*
X152137677Y-120918012D01*
X152132695Y-120915689D01*
X152132690Y-120915686D01*
X151941178Y-120826383D01*
X151941177Y-120826382D01*
X151936196Y-120824060D01*
X151930888Y-120822638D01*
X151930886Y-120822637D01*
X151865051Y-120804997D01*
X151721463Y-120766522D01*
X151500000Y-120747147D01*
X151278537Y-120766522D01*
X151134949Y-120804997D01*
X151069114Y-120822637D01*
X151069112Y-120822638D01*
X151063804Y-120824060D01*
X151058823Y-120826382D01*
X151058822Y-120826383D01*
X150867311Y-120915686D01*
X150867306Y-120915689D01*
X150862324Y-120918012D01*
X150857817Y-120921168D01*
X150857815Y-120921169D01*
X150684730Y-121042364D01*
X150684727Y-121042366D01*
X150680219Y-121045523D01*
X150523023Y-121202719D01*
X150519865Y-121207229D01*
X150519860Y-121207235D01*
X150495344Y-121242248D01*
X150439887Y-121286577D01*
X150369268Y-121293886D01*
X150305908Y-121261856D01*
X150269922Y-121200655D01*
X150266868Y-121183584D01*
X150264105Y-121158148D01*
X150260479Y-121142896D01*
X150215324Y-121022446D01*
X150206786Y-121006851D01*
X150130285Y-120904776D01*
X150117724Y-120892215D01*
X150015649Y-120815714D01*
X150000054Y-120807176D01*
X149879606Y-120762022D01*
X149864351Y-120758395D01*
X149813486Y-120752869D01*
X149806672Y-120752500D01*
X149343115Y-120752500D01*
X149327876Y-120756975D01*
X149326671Y-120758365D01*
X149325000Y-120766048D01*
X149325000Y-123274384D01*
X148675000Y-123274384D01*
X148675000Y-122365615D01*
X148670525Y-122350376D01*
X148669135Y-122349171D01*
X148661452Y-122347500D01*
X147748116Y-122347500D01*
X147732877Y-122351975D01*
X147731672Y-122353365D01*
X147730001Y-122361048D01*
X147730001Y-122829169D01*
X147146656Y-122829169D01*
X147065106Y-122774679D01*
X147061673Y-122772385D01*
X147057974Y-122770561D01*
X147057969Y-122770558D01*
X146843279Y-122664685D01*
X146796145Y-122641441D01*
X146792239Y-122640115D01*
X146519710Y-122547604D01*
X146519706Y-122547603D01*
X146515797Y-122546276D01*
X146511753Y-122545472D01*
X146511747Y-122545470D01*
X146229465Y-122489320D01*
X146229459Y-122489319D01*
X146225426Y-122488517D01*
X146221321Y-122488248D01*
X146221314Y-122488247D01*
X145934119Y-122469424D01*
X145930000Y-122469154D01*
X145925881Y-122469424D01*
X145638686Y-122488247D01*
X145638679Y-122488248D01*
X145634574Y-122488517D01*
X145630541Y-122489319D01*
X145630535Y-122489320D01*
X145348253Y-122545470D01*
X145348247Y-122545472D01*
X145344203Y-122546276D01*
X145340294Y-122547603D01*
X145340290Y-122547604D01*
X145067761Y-122640115D01*
X145063855Y-122641441D01*
X145016721Y-122664685D01*
X144802031Y-122770558D01*
X144802026Y-122770561D01*
X144798327Y-122772385D01*
X144794894Y-122774679D01*
X144555593Y-122934574D01*
X144555588Y-122934578D01*
X144552162Y-122936867D01*
X144549068Y-122939581D01*
X144549062Y-122939585D01*
X144480769Y-122999477D01*
X144329573Y-123132073D01*
X144326864Y-123135162D01*
X144137085Y-123351562D01*
X144137081Y-123351568D01*
X144134367Y-123354662D01*
X143969885Y-123600827D01*
X143838941Y-123866355D01*
X143743776Y-124146703D01*
X143686017Y-124437074D01*
X143666654Y-124732500D01*
X125508500Y-124732500D01*
X125508500Y-121679385D01*
X147730000Y-121679385D01*
X147734475Y-121694624D01*
X147735865Y-121695829D01*
X147743548Y-121697500D01*
X148656885Y-121697500D01*
X148672124Y-121693025D01*
X148673329Y-121691635D01*
X148675000Y-121683952D01*
X148675000Y-120770616D01*
X148670525Y-120755377D01*
X148669135Y-120754172D01*
X148661452Y-120752501D01*
X148193331Y-120752501D01*
X148186510Y-120752871D01*
X148135648Y-120758395D01*
X148120396Y-120762021D01*
X147999946Y-120807176D01*
X147984351Y-120815714D01*
X147882276Y-120892215D01*
X147869715Y-120904776D01*
X147793214Y-121006851D01*
X147784676Y-121022446D01*
X147739522Y-121142894D01*
X147735895Y-121158149D01*
X147730369Y-121209014D01*
X147730000Y-121215828D01*
X147730000Y-121679385D01*
X125508500Y-121679385D01*
X125508500Y-120320000D01*
X167469154Y-120320000D01*
X167469424Y-120324119D01*
X167482930Y-120530179D01*
X167488517Y-120615426D01*
X167489319Y-120619459D01*
X167489320Y-120619465D01*
X167528357Y-120815714D01*
X167546276Y-120905797D01*
X167547603Y-120909706D01*
X167547604Y-120909710D01*
X167617037Y-121114253D01*
X167641441Y-121186145D01*
X167652719Y-121209014D01*
X167739419Y-121384824D01*
X167772385Y-121451673D01*
X167799348Y-121492026D01*
X167927589Y-121683952D01*
X167936867Y-121697838D01*
X167939581Y-121700932D01*
X167939585Y-121700938D01*
X168007805Y-121778727D01*
X168132073Y-121920427D01*
X168135162Y-121923136D01*
X168351562Y-122112915D01*
X168351568Y-122112919D01*
X168354662Y-122115633D01*
X168358088Y-122117922D01*
X168358093Y-122117926D01*
X168405599Y-122149668D01*
X168600827Y-122280115D01*
X168604526Y-122281939D01*
X168604531Y-122281942D01*
X168737470Y-122347500D01*
X168866355Y-122411059D01*
X168870260Y-122412384D01*
X168870261Y-122412385D01*
X169142790Y-122504896D01*
X169142794Y-122504897D01*
X169146703Y-122506224D01*
X169150747Y-122507028D01*
X169150753Y-122507030D01*
X169433035Y-122563180D01*
X169433041Y-122563181D01*
X169437074Y-122563983D01*
X169441179Y-122564252D01*
X169441186Y-122564253D01*
X169728381Y-122583076D01*
X169732500Y-122583346D01*
X169736619Y-122583076D01*
X170023814Y-122564253D01*
X170023821Y-122564252D01*
X170027926Y-122563983D01*
X170031959Y-122563181D01*
X170031965Y-122563180D01*
X170314247Y-122507030D01*
X170314253Y-122507028D01*
X170318297Y-122506224D01*
X170322206Y-122504897D01*
X170322210Y-122504896D01*
X170594739Y-122412385D01*
X170594740Y-122412384D01*
X170598645Y-122411059D01*
X170727530Y-122347500D01*
X170860469Y-122281942D01*
X170860474Y-122281939D01*
X170864173Y-122280115D01*
X171059401Y-122149668D01*
X171106907Y-122117926D01*
X171106912Y-122117922D01*
X171110338Y-122115633D01*
X171113432Y-122112919D01*
X171113438Y-122112915D01*
X171329838Y-121923136D01*
X171332927Y-121920427D01*
X171457195Y-121778727D01*
X171525415Y-121700938D01*
X171525419Y-121700932D01*
X171528133Y-121697838D01*
X171537412Y-121683952D01*
X171665652Y-121492026D01*
X171692615Y-121451673D01*
X171725582Y-121384824D01*
X171812281Y-121209014D01*
X171823559Y-121186145D01*
X171847963Y-121114253D01*
X171917396Y-120909710D01*
X171917397Y-120909706D01*
X171918724Y-120905797D01*
X171936643Y-120815714D01*
X171975680Y-120619465D01*
X171975681Y-120619459D01*
X171976483Y-120615426D01*
X171982071Y-120530179D01*
X171995576Y-120324119D01*
X171995846Y-120320000D01*
X171976483Y-120024574D01*
X171918724Y-119734203D01*
X171823559Y-119453855D01*
X171692615Y-119188327D01*
X171528133Y-118942162D01*
X171525419Y-118939068D01*
X171525415Y-118939062D01*
X171335636Y-118722662D01*
X171332927Y-118719573D01*
X171329838Y-118716864D01*
X171113438Y-118527085D01*
X171113432Y-118527081D01*
X171110338Y-118524367D01*
X171106912Y-118522078D01*
X171106907Y-118522074D01*
X170867606Y-118362179D01*
X170864173Y-118359885D01*
X170860474Y-118358061D01*
X170860469Y-118358058D01*
X170673081Y-118265649D01*
X170598645Y-118228941D01*
X170594739Y-118227615D01*
X170322210Y-118135104D01*
X170322206Y-118135103D01*
X170318297Y-118133776D01*
X170314253Y-118132972D01*
X170314247Y-118132970D01*
X170031965Y-118076820D01*
X170031959Y-118076819D01*
X170027926Y-118076017D01*
X170023821Y-118075748D01*
X170023814Y-118075747D01*
X169736619Y-118056924D01*
X169732500Y-118056654D01*
X169728381Y-118056924D01*
X169441186Y-118075747D01*
X169441179Y-118075748D01*
X169437074Y-118076017D01*
X169433041Y-118076819D01*
X169433035Y-118076820D01*
X169150753Y-118132970D01*
X169150747Y-118132972D01*
X169146703Y-118133776D01*
X169142794Y-118135103D01*
X169142790Y-118135104D01*
X168870261Y-118227615D01*
X168866355Y-118228941D01*
X168791919Y-118265649D01*
X168604531Y-118358058D01*
X168604526Y-118358061D01*
X168600827Y-118359885D01*
X168597394Y-118362179D01*
X168358093Y-118522074D01*
X168358088Y-118522078D01*
X168354662Y-118524367D01*
X168351568Y-118527081D01*
X168351562Y-118527085D01*
X168332080Y-118544171D01*
X168301674Y-118558277D01*
X168296742Y-118571521D01*
X168278910Y-118590800D01*
X168132073Y-118719573D01*
X168129364Y-118722662D01*
X167939585Y-118939062D01*
X167939581Y-118939068D01*
X167936867Y-118942162D01*
X167772385Y-119188327D01*
X167641441Y-119453855D01*
X167546276Y-119734203D01*
X167488517Y-120024574D01*
X167469154Y-120320000D01*
X125508500Y-120320000D01*
X125508500Y-118056669D01*
X165752501Y-118056669D01*
X165752871Y-118063490D01*
X165758395Y-118114352D01*
X165762021Y-118129604D01*
X165807176Y-118250054D01*
X165815714Y-118265649D01*
X165892215Y-118367724D01*
X165904776Y-118380285D01*
X166006851Y-118456786D01*
X166022446Y-118465324D01*
X166142894Y-118510478D01*
X166158149Y-118514105D01*
X166209014Y-118519631D01*
X166215828Y-118520000D01*
X166679385Y-118520000D01*
X166694624Y-118515525D01*
X166695829Y-118514135D01*
X166697500Y-118506452D01*
X166697500Y-118501884D01*
X167347500Y-118501884D01*
X167351975Y-118517123D01*
X167353365Y-118518328D01*
X167361048Y-118519999D01*
X167829169Y-118519999D01*
X167835990Y-118519629D01*
X167886852Y-118514105D01*
X167902104Y-118510479D01*
X168022554Y-118465324D01*
X168038149Y-118456786D01*
X168120267Y-118395242D01*
X168141008Y-118387493D01*
X168142600Y-118381950D01*
X168148176Y-118373874D01*
X168229286Y-118265649D01*
X168237824Y-118250054D01*
X168282978Y-118129606D01*
X168286605Y-118114351D01*
X168292131Y-118063486D01*
X168292500Y-118056672D01*
X168292500Y-117593115D01*
X168288025Y-117577876D01*
X168286635Y-117576671D01*
X168278952Y-117575000D01*
X167365615Y-117575000D01*
X167350376Y-117579475D01*
X167349171Y-117580865D01*
X167347500Y-117588548D01*
X167347500Y-118501884D01*
X166697500Y-118501884D01*
X166697500Y-117593115D01*
X166693025Y-117577876D01*
X166691635Y-117576671D01*
X166683952Y-117575000D01*
X165770616Y-117575000D01*
X165755377Y-117579475D01*
X165754172Y-117580865D01*
X165752501Y-117588548D01*
X165752501Y-118056669D01*
X125508500Y-118056669D01*
X125508500Y-115606695D01*
X145437251Y-115606695D01*
X145437548Y-115611848D01*
X145437548Y-115611851D01*
X145448789Y-115806798D01*
X145450110Y-115829715D01*
X145451247Y-115834761D01*
X145451248Y-115834767D01*
X145461607Y-115880732D01*
X145499222Y-116047639D01*
X145583266Y-116254616D01*
X145699987Y-116445088D01*
X145846250Y-116613938D01*
X146018126Y-116756632D01*
X146211000Y-116869338D01*
X146419692Y-116949030D01*
X146424760Y-116950061D01*
X146424763Y-116950062D01*
X146532017Y-116971883D01*
X146638597Y-116993567D01*
X146643772Y-116993757D01*
X146643774Y-116993757D01*
X146856673Y-117001564D01*
X146856677Y-117001564D01*
X146861837Y-117001753D01*
X146866957Y-117001097D01*
X146866959Y-117001097D01*
X147078288Y-116974025D01*
X147078289Y-116974025D01*
X147083416Y-116973368D01*
X147088366Y-116971883D01*
X147292429Y-116910661D01*
X147292434Y-116910659D01*
X147297384Y-116909174D01*
X147497994Y-116810896D01*
X147679860Y-116681173D01*
X147838096Y-116523489D01*
X147847757Y-116510045D01*
X147965435Y-116346277D01*
X147968453Y-116342077D01*
X148039990Y-116197333D01*
X148065136Y-116146453D01*
X148065137Y-116146451D01*
X148067430Y-116141811D01*
X148113882Y-115988921D01*
X152706588Y-115988921D01*
X152723851Y-116164976D01*
X152779689Y-116332831D01*
X152783338Y-116338856D01*
X152850038Y-116448990D01*
X152871327Y-116484143D01*
X152876218Y-116489208D01*
X152876219Y-116489209D01*
X152950301Y-116565923D01*
X152994211Y-116611394D01*
X153142234Y-116708257D01*
X153308038Y-116769919D01*
X153315019Y-116770850D01*
X153315021Y-116770851D01*
X153363221Y-116777282D01*
X153483382Y-116793315D01*
X153490393Y-116792677D01*
X153490397Y-116792677D01*
X153652532Y-116777921D01*
X153659553Y-116777282D01*
X153666255Y-116775104D01*
X153666257Y-116775104D01*
X153821095Y-116724794D01*
X153821098Y-116724793D01*
X153827794Y-116722617D01*
X153833845Y-116719010D01*
X153973691Y-116635646D01*
X153973693Y-116635645D01*
X153979743Y-116632038D01*
X154107848Y-116510045D01*
X154205742Y-116362702D01*
X154248619Y-116249829D01*
X154266060Y-116203916D01*
X154266061Y-116203911D01*
X154268560Y-116197333D01*
X154277060Y-116136857D01*
X154292629Y-116026079D01*
X154292629Y-116026073D01*
X154293180Y-116022156D01*
X154293489Y-116000000D01*
X154273770Y-115824204D01*
X154215594Y-115657145D01*
X154121852Y-115507126D01*
X154059264Y-115444099D01*
X154002166Y-115386601D01*
X154002162Y-115386598D01*
X153997203Y-115381604D01*
X153986359Y-115374722D01*
X153853797Y-115290595D01*
X153853793Y-115290593D01*
X153847843Y-115286817D01*
X153800113Y-115269821D01*
X153687829Y-115229838D01*
X153687824Y-115229837D01*
X153681194Y-115227476D01*
X153674206Y-115226643D01*
X153674203Y-115226642D01*
X153576922Y-115215042D01*
X153505540Y-115206530D01*
X153498537Y-115207266D01*
X153498536Y-115207266D01*
X153450862Y-115212277D01*
X153329610Y-115225021D01*
X153322944Y-115227290D01*
X153322941Y-115227291D01*
X153168816Y-115279760D01*
X153168813Y-115279761D01*
X153162149Y-115282030D01*
X153011479Y-115374722D01*
X152885090Y-115498492D01*
X152789263Y-115647187D01*
X152786854Y-115653807D01*
X152786853Y-115653808D01*
X152768861Y-115703240D01*
X152728760Y-115813417D01*
X152706588Y-115988921D01*
X148113882Y-115988921D01*
X148132370Y-115928069D01*
X148161529Y-115706590D01*
X148161611Y-115703240D01*
X148163074Y-115643365D01*
X148163074Y-115643361D01*
X148163156Y-115640000D01*
X148144852Y-115417361D01*
X148090431Y-115200702D01*
X148001354Y-114995840D01*
X147880014Y-114808277D01*
X147826986Y-114750000D01*
X165747147Y-114750000D01*
X165766522Y-114971463D01*
X165767946Y-114976776D01*
X165820872Y-115174297D01*
X165824060Y-115186196D01*
X165826382Y-115191177D01*
X165826383Y-115191178D01*
X165915686Y-115382689D01*
X165915689Y-115382694D01*
X165918012Y-115387676D01*
X165921168Y-115392183D01*
X165921169Y-115392185D01*
X166005835Y-115513100D01*
X166045523Y-115569781D01*
X166202719Y-115726977D01*
X166207228Y-115730134D01*
X166207235Y-115730140D01*
X166242248Y-115754656D01*
X166286577Y-115810113D01*
X166293886Y-115880732D01*
X166261856Y-115944092D01*
X166200655Y-115980078D01*
X166183584Y-115983132D01*
X166158148Y-115985895D01*
X166142896Y-115989521D01*
X166022446Y-116034676D01*
X166006851Y-116043214D01*
X165904776Y-116119715D01*
X165892215Y-116132276D01*
X165815714Y-116234351D01*
X165807176Y-116249946D01*
X165762022Y-116370394D01*
X165758395Y-116385649D01*
X165752870Y-116436505D01*
X165752500Y-116443328D01*
X165752500Y-116906885D01*
X165756975Y-116922124D01*
X165758365Y-116923329D01*
X165766048Y-116925000D01*
X168274384Y-116925000D01*
X168289623Y-116920525D01*
X168290828Y-116919135D01*
X168292499Y-116911452D01*
X168292499Y-116443331D01*
X168292129Y-116436505D01*
X168286605Y-116385648D01*
X168282979Y-116370396D01*
X168237824Y-116249946D01*
X168229286Y-116234351D01*
X168152785Y-116132276D01*
X168140224Y-116119715D01*
X168038149Y-116043214D01*
X168022554Y-116034676D01*
X167902106Y-115989522D01*
X167886851Y-115985895D01*
X167861414Y-115983131D01*
X167795852Y-115955888D01*
X167755426Y-115897525D01*
X167752972Y-115826571D01*
X167789268Y-115765553D01*
X167802751Y-115754656D01*
X167842281Y-115726977D01*
X167999477Y-115569781D01*
X168039166Y-115513100D01*
X168123831Y-115392185D01*
X168123832Y-115392183D01*
X168126988Y-115387676D01*
X168129311Y-115382694D01*
X168129314Y-115382689D01*
X168218617Y-115191178D01*
X168218618Y-115191177D01*
X168220940Y-115186196D01*
X168224129Y-115174297D01*
X168277054Y-114976776D01*
X168278478Y-114971463D01*
X168297853Y-114750000D01*
X168278478Y-114528537D01*
X168236479Y-114371797D01*
X168222363Y-114319114D01*
X168222362Y-114319112D01*
X168220940Y-114313804D01*
X168218617Y-114308822D01*
X168129314Y-114117311D01*
X168129311Y-114117306D01*
X168126988Y-114112324D01*
X168097374Y-114070031D01*
X168002636Y-113934730D01*
X168002634Y-113934727D01*
X167999477Y-113930219D01*
X167908353Y-113839095D01*
X167874327Y-113776783D01*
X167879392Y-113705968D01*
X167908353Y-113660905D01*
X167999477Y-113569781D01*
X168027310Y-113530032D01*
X168123831Y-113392185D01*
X168123832Y-113392183D01*
X168126988Y-113387676D01*
X168129311Y-113382694D01*
X168129314Y-113382689D01*
X168218617Y-113191178D01*
X168218618Y-113191177D01*
X168220940Y-113186196D01*
X168224843Y-113171632D01*
X168254336Y-113061562D01*
X168278478Y-112971463D01*
X168297853Y-112750000D01*
X168278478Y-112528537D01*
X168228782Y-112343069D01*
X168222363Y-112319114D01*
X168222362Y-112319112D01*
X168220940Y-112313804D01*
X168201734Y-112272617D01*
X168129314Y-112117311D01*
X168129311Y-112117306D01*
X168126988Y-112112324D01*
X168089206Y-112058365D01*
X168002636Y-111934730D01*
X168002634Y-111934727D01*
X167999477Y-111930219D01*
X167842281Y-111773023D01*
X167837773Y-111769866D01*
X167837770Y-111769864D01*
X167762005Y-111716813D01*
X167660177Y-111645512D01*
X167655195Y-111643189D01*
X167655190Y-111643186D01*
X167593017Y-111614195D01*
X167539732Y-111567278D01*
X167520271Y-111499001D01*
X167540813Y-111431041D01*
X167593017Y-111385805D01*
X167655190Y-111356814D01*
X167655195Y-111356811D01*
X167660177Y-111354488D01*
X167762005Y-111283187D01*
X167837770Y-111230136D01*
X167837773Y-111230134D01*
X167842281Y-111226977D01*
X167999477Y-111069781D01*
X168005017Y-111061870D01*
X168123831Y-110892185D01*
X168123832Y-110892183D01*
X168126988Y-110887676D01*
X168129311Y-110882694D01*
X168129314Y-110882689D01*
X168218617Y-110691178D01*
X168218618Y-110691177D01*
X168220940Y-110686196D01*
X168224081Y-110674476D01*
X168240003Y-110615051D01*
X168278478Y-110471463D01*
X168297853Y-110250000D01*
X168278478Y-110028537D01*
X168220940Y-109813804D01*
X168167661Y-109699547D01*
X168129314Y-109617311D01*
X168129311Y-109617306D01*
X168126988Y-109612324D01*
X168123638Y-109607540D01*
X168002636Y-109434730D01*
X168002634Y-109434727D01*
X167999477Y-109430219D01*
X167842281Y-109273023D01*
X167837773Y-109269866D01*
X167837770Y-109269864D01*
X167740136Y-109201500D01*
X167660177Y-109145512D01*
X167655195Y-109143189D01*
X167655190Y-109143186D01*
X167463678Y-109053883D01*
X167463677Y-109053882D01*
X167458696Y-109051560D01*
X167453388Y-109050138D01*
X167453386Y-109050137D01*
X167387551Y-109032497D01*
X167243963Y-108994022D01*
X167022500Y-108974647D01*
X166801037Y-108994022D01*
X166657449Y-109032497D01*
X166591614Y-109050137D01*
X166591612Y-109050138D01*
X166586304Y-109051560D01*
X166581323Y-109053882D01*
X166581322Y-109053883D01*
X166389811Y-109143186D01*
X166389806Y-109143189D01*
X166384824Y-109145512D01*
X166380317Y-109148668D01*
X166380315Y-109148669D01*
X166207230Y-109269864D01*
X166207227Y-109269866D01*
X166202719Y-109273023D01*
X166045523Y-109430219D01*
X166042366Y-109434727D01*
X166042364Y-109434730D01*
X165921362Y-109607540D01*
X165918012Y-109612324D01*
X165915689Y-109617306D01*
X165915686Y-109617311D01*
X165877339Y-109699547D01*
X165824060Y-109813804D01*
X165766522Y-110028537D01*
X165747147Y-110250000D01*
X165766522Y-110471463D01*
X165804997Y-110615051D01*
X165820920Y-110674476D01*
X165824060Y-110686196D01*
X165826382Y-110691177D01*
X165826383Y-110691178D01*
X165915686Y-110882689D01*
X165915689Y-110882694D01*
X165918012Y-110887676D01*
X165921168Y-110892183D01*
X165921169Y-110892185D01*
X166039984Y-111061870D01*
X166045523Y-111069781D01*
X166202719Y-111226977D01*
X166207227Y-111230134D01*
X166207230Y-111230136D01*
X166282995Y-111283187D01*
X166384823Y-111354488D01*
X166389805Y-111356811D01*
X166389810Y-111356814D01*
X166451983Y-111385805D01*
X166505268Y-111432722D01*
X166524729Y-111500999D01*
X166504187Y-111568959D01*
X166451983Y-111614195D01*
X166389811Y-111643186D01*
X166389806Y-111643189D01*
X166384824Y-111645512D01*
X166380317Y-111648668D01*
X166380315Y-111648669D01*
X166207230Y-111769864D01*
X166207227Y-111769866D01*
X166202719Y-111773023D01*
X166045523Y-111930219D01*
X166042366Y-111934727D01*
X166042364Y-111934730D01*
X165955794Y-112058365D01*
X165918012Y-112112324D01*
X165915689Y-112117306D01*
X165915686Y-112117311D01*
X165843266Y-112272617D01*
X165824060Y-112313804D01*
X165822638Y-112319112D01*
X165822637Y-112319114D01*
X165816218Y-112343069D01*
X165766522Y-112528537D01*
X165747147Y-112750000D01*
X165766522Y-112971463D01*
X165790664Y-113061562D01*
X165820158Y-113171632D01*
X165824060Y-113186196D01*
X165826382Y-113191177D01*
X165826383Y-113191178D01*
X165915686Y-113382689D01*
X165915689Y-113382694D01*
X165918012Y-113387676D01*
X165921168Y-113392183D01*
X165921169Y-113392185D01*
X166017691Y-113530032D01*
X166045523Y-113569781D01*
X166136647Y-113660905D01*
X166170673Y-113723217D01*
X166165608Y-113794032D01*
X166136647Y-113839095D01*
X166045523Y-113930219D01*
X166042366Y-113934727D01*
X166042364Y-113934730D01*
X165947626Y-114070031D01*
X165918012Y-114112324D01*
X165915689Y-114117306D01*
X165915686Y-114117311D01*
X165826383Y-114308822D01*
X165824060Y-114313804D01*
X165822638Y-114319112D01*
X165822637Y-114319114D01*
X165808521Y-114371797D01*
X165766522Y-114528537D01*
X165747147Y-114750000D01*
X147826986Y-114750000D01*
X147729670Y-114643051D01*
X147725619Y-114639852D01*
X147725615Y-114639848D01*
X147558414Y-114507800D01*
X147558410Y-114507798D01*
X147554359Y-114504598D01*
X147513053Y-114481796D01*
X147463084Y-114431364D01*
X147448312Y-114361921D01*
X147473428Y-114295516D01*
X147500780Y-114268909D01*
X147544603Y-114237650D01*
X147679860Y-114141173D01*
X147838096Y-113983489D01*
X147879175Y-113926322D01*
X147965435Y-113806277D01*
X147968453Y-113802077D01*
X147982813Y-113773023D01*
X148065136Y-113606453D01*
X148065137Y-113606451D01*
X148067430Y-113601811D01*
X148123713Y-113416564D01*
X148130865Y-113393023D01*
X148130865Y-113393021D01*
X148132370Y-113388069D01*
X148161529Y-113166590D01*
X148163156Y-113100000D01*
X148144852Y-112877361D01*
X148090431Y-112660702D01*
X148001354Y-112455840D01*
X147927049Y-112340982D01*
X147882822Y-112272617D01*
X147882820Y-112272614D01*
X147880014Y-112268277D01*
X147876532Y-112264450D01*
X147732798Y-112106488D01*
X147701746Y-112042642D01*
X147704240Y-112021695D01*
X159437251Y-112021695D01*
X159437548Y-112026848D01*
X159437548Y-112026851D01*
X159443011Y-112121590D01*
X159450110Y-112244715D01*
X159451247Y-112249761D01*
X159451248Y-112249767D01*
X159455420Y-112268277D01*
X159499222Y-112462639D01*
X159537461Y-112556811D01*
X159568925Y-112634297D01*
X159583266Y-112669616D01*
X159585965Y-112674020D01*
X159693626Y-112849707D01*
X159699987Y-112860088D01*
X159846250Y-113028938D01*
X160018126Y-113171632D01*
X160211000Y-113284338D01*
X160419692Y-113364030D01*
X160424760Y-113365061D01*
X160424763Y-113365062D01*
X160511403Y-113382689D01*
X160638597Y-113408567D01*
X160643772Y-113408757D01*
X160643774Y-113408757D01*
X160856673Y-113416564D01*
X160856677Y-113416564D01*
X160861837Y-113416753D01*
X160866957Y-113416097D01*
X160866959Y-113416097D01*
X161078288Y-113389025D01*
X161078289Y-113389025D01*
X161083416Y-113388368D01*
X161102345Y-113382689D01*
X161292429Y-113325661D01*
X161292434Y-113325659D01*
X161297384Y-113324174D01*
X161497994Y-113225896D01*
X161679860Y-113096173D01*
X161838096Y-112938489D01*
X161897594Y-112855689D01*
X161965435Y-112761277D01*
X161968453Y-112757077D01*
X162029135Y-112634297D01*
X162065136Y-112561453D01*
X162065137Y-112561451D01*
X162067430Y-112556811D01*
X162099900Y-112449940D01*
X162130865Y-112348023D01*
X162130865Y-112348021D01*
X162132370Y-112343069D01*
X162161529Y-112121590D01*
X162161742Y-112112872D01*
X162163074Y-112058365D01*
X162163074Y-112058361D01*
X162163156Y-112055000D01*
X162144852Y-111832361D01*
X162090431Y-111615702D01*
X162001354Y-111410840D01*
X161961906Y-111349862D01*
X161882822Y-111227617D01*
X161882820Y-111227614D01*
X161880014Y-111223277D01*
X161729670Y-111058051D01*
X161725619Y-111054852D01*
X161725615Y-111054848D01*
X161558414Y-110922800D01*
X161558410Y-110922798D01*
X161554359Y-110919598D01*
X161513053Y-110896796D01*
X161463084Y-110846364D01*
X161448312Y-110776921D01*
X161473428Y-110710516D01*
X161500780Y-110683909D01*
X161544603Y-110652650D01*
X161679860Y-110556173D01*
X161838096Y-110398489D01*
X161897594Y-110315689D01*
X161965435Y-110221277D01*
X161968453Y-110217077D01*
X162067430Y-110016811D01*
X162127495Y-109819114D01*
X162130865Y-109808023D01*
X162130865Y-109808021D01*
X162132370Y-109803069D01*
X162161529Y-109581590D01*
X162163156Y-109515000D01*
X162144852Y-109292361D01*
X162090431Y-109075702D01*
X162001354Y-108870840D01*
X161880014Y-108683277D01*
X161876532Y-108679450D01*
X161732798Y-108521488D01*
X161701746Y-108457642D01*
X161710141Y-108387143D01*
X161755317Y-108332375D01*
X161781761Y-108318706D01*
X161888297Y-108278767D01*
X161896705Y-108275615D01*
X162013261Y-108188261D01*
X162100615Y-108071705D01*
X162151745Y-107935316D01*
X162158500Y-107873134D01*
X162158500Y-107180000D01*
X167469154Y-107180000D01*
X167469424Y-107184119D01*
X167484042Y-107407145D01*
X167488517Y-107475426D01*
X167489319Y-107479459D01*
X167489320Y-107479465D01*
X167545470Y-107761747D01*
X167546276Y-107765797D01*
X167547603Y-107769706D01*
X167547604Y-107769710D01*
X167618350Y-107978120D01*
X167641441Y-108046145D01*
X167671119Y-108106326D01*
X167763332Y-108293315D01*
X167772385Y-108311673D01*
X167774679Y-108315106D01*
X167926737Y-108542677D01*
X167936867Y-108557838D01*
X167939581Y-108560932D01*
X167939585Y-108560938D01*
X168129364Y-108777338D01*
X168132073Y-108780427D01*
X168135162Y-108783136D01*
X168351562Y-108972915D01*
X168351568Y-108972919D01*
X168354662Y-108975633D01*
X168358088Y-108977922D01*
X168358093Y-108977926D01*
X168497320Y-109070954D01*
X168600827Y-109140115D01*
X168604526Y-109141939D01*
X168604531Y-109141942D01*
X168725303Y-109201500D01*
X168866355Y-109271059D01*
X168870260Y-109272384D01*
X168870261Y-109272385D01*
X169142790Y-109364896D01*
X169142794Y-109364897D01*
X169146703Y-109366224D01*
X169150747Y-109367028D01*
X169150753Y-109367030D01*
X169433035Y-109423180D01*
X169433041Y-109423181D01*
X169437074Y-109423983D01*
X169441179Y-109424252D01*
X169441186Y-109424253D01*
X169728381Y-109443076D01*
X169732500Y-109443346D01*
X169736619Y-109443076D01*
X170023814Y-109424253D01*
X170023821Y-109424252D01*
X170027926Y-109423983D01*
X170031959Y-109423181D01*
X170031965Y-109423180D01*
X170314247Y-109367030D01*
X170314253Y-109367028D01*
X170318297Y-109366224D01*
X170322206Y-109364897D01*
X170322210Y-109364896D01*
X170594739Y-109272385D01*
X170594740Y-109272384D01*
X170598645Y-109271059D01*
X170739697Y-109201500D01*
X170860469Y-109141942D01*
X170860474Y-109141939D01*
X170864173Y-109140115D01*
X170967680Y-109070954D01*
X171106907Y-108977926D01*
X171106912Y-108977922D01*
X171110338Y-108975633D01*
X171113432Y-108972919D01*
X171113438Y-108972915D01*
X171329838Y-108783136D01*
X171332927Y-108780427D01*
X171335636Y-108777338D01*
X171525415Y-108560938D01*
X171525419Y-108560932D01*
X171528133Y-108557838D01*
X171538264Y-108542677D01*
X171690321Y-108315106D01*
X171692615Y-108311673D01*
X171701669Y-108293315D01*
X171793881Y-108106326D01*
X171823559Y-108046145D01*
X171846650Y-107978120D01*
X171917396Y-107769710D01*
X171917397Y-107769706D01*
X171918724Y-107765797D01*
X171919530Y-107761747D01*
X171975680Y-107479465D01*
X171975681Y-107479459D01*
X171976483Y-107475426D01*
X171980959Y-107407145D01*
X171995576Y-107184119D01*
X171995846Y-107180000D01*
X171986709Y-107040595D01*
X171976753Y-106888686D01*
X171976752Y-106888679D01*
X171976483Y-106884574D01*
X171975142Y-106877829D01*
X171919530Y-106598253D01*
X171919528Y-106598247D01*
X171918724Y-106594203D01*
X171909648Y-106567464D01*
X171824885Y-106317761D01*
X171824884Y-106317760D01*
X171823559Y-106313855D01*
X171692615Y-106048327D01*
X171636922Y-105964976D01*
X171530426Y-105805593D01*
X171530422Y-105805588D01*
X171528133Y-105802162D01*
X171525419Y-105799068D01*
X171525415Y-105799062D01*
X171335636Y-105582662D01*
X171332927Y-105579573D01*
X171200916Y-105463802D01*
X171113438Y-105387085D01*
X171113432Y-105387081D01*
X171110338Y-105384367D01*
X171106912Y-105382078D01*
X171106907Y-105382074D01*
X170867606Y-105222179D01*
X170864173Y-105219885D01*
X170860474Y-105218061D01*
X170860469Y-105218058D01*
X170724187Y-105150852D01*
X170598645Y-105088941D01*
X170424533Y-105029838D01*
X170322210Y-104995104D01*
X170322206Y-104995103D01*
X170318297Y-104993776D01*
X170314253Y-104992972D01*
X170314247Y-104992970D01*
X170031965Y-104936820D01*
X170031959Y-104936819D01*
X170027926Y-104936017D01*
X170023821Y-104935748D01*
X170023814Y-104935747D01*
X169736619Y-104916924D01*
X169732500Y-104916654D01*
X169728381Y-104916924D01*
X169441186Y-104935747D01*
X169441179Y-104935748D01*
X169437074Y-104936017D01*
X169433041Y-104936819D01*
X169433035Y-104936820D01*
X169150753Y-104992970D01*
X169150747Y-104992972D01*
X169146703Y-104993776D01*
X169142794Y-104995103D01*
X169142790Y-104995104D01*
X169040467Y-105029838D01*
X168866355Y-105088941D01*
X168740813Y-105150852D01*
X168604531Y-105218058D01*
X168604526Y-105218061D01*
X168600827Y-105219885D01*
X168597394Y-105222179D01*
X168358093Y-105382074D01*
X168358088Y-105382078D01*
X168354662Y-105384367D01*
X168351568Y-105387081D01*
X168351562Y-105387085D01*
X168264084Y-105463802D01*
X168132073Y-105579573D01*
X168129364Y-105582662D01*
X167939585Y-105799062D01*
X167939581Y-105799068D01*
X167936867Y-105802162D01*
X167934578Y-105805588D01*
X167934574Y-105805593D01*
X167828078Y-105964976D01*
X167772385Y-106048327D01*
X167641441Y-106313855D01*
X167640116Y-106317760D01*
X167640115Y-106317761D01*
X167555353Y-106567464D01*
X167546276Y-106594203D01*
X167545472Y-106598247D01*
X167545470Y-106598253D01*
X167489859Y-106877829D01*
X167488517Y-106884574D01*
X167488248Y-106888679D01*
X167488247Y-106888686D01*
X167478291Y-107040595D01*
X167469154Y-107180000D01*
X162158500Y-107180000D01*
X162158500Y-106076866D01*
X162151745Y-106014684D01*
X162100615Y-105878295D01*
X162013261Y-105761739D01*
X161896705Y-105674385D01*
X161760316Y-105623255D01*
X161698134Y-105616500D01*
X159901866Y-105616500D01*
X159839684Y-105623255D01*
X159703295Y-105674385D01*
X159586739Y-105761739D01*
X159499385Y-105878295D01*
X159448255Y-106014684D01*
X159441500Y-106076866D01*
X159441500Y-107873134D01*
X159448255Y-107935316D01*
X159499385Y-108071705D01*
X159586739Y-108188261D01*
X159703295Y-108275615D01*
X159711704Y-108278767D01*
X159711705Y-108278768D01*
X159820451Y-108319535D01*
X159877216Y-108362176D01*
X159901916Y-108428738D01*
X159886709Y-108498087D01*
X159867316Y-108524568D01*
X159740629Y-108657138D01*
X159614743Y-108841680D01*
X159520688Y-109044305D01*
X159460989Y-109259570D01*
X159437251Y-109481695D01*
X159437548Y-109486848D01*
X159437548Y-109486851D01*
X159447639Y-109661866D01*
X159450110Y-109704715D01*
X159451247Y-109709761D01*
X159451248Y-109709767D01*
X159471119Y-109797939D01*
X159499222Y-109922639D01*
X159583266Y-110129616D01*
X159699987Y-110320088D01*
X159846250Y-110488938D01*
X160018126Y-110631632D01*
X160088595Y-110672811D01*
X160091445Y-110674476D01*
X160140169Y-110726114D01*
X160153240Y-110795897D01*
X160126509Y-110861669D01*
X160086055Y-110895027D01*
X160073607Y-110901507D01*
X160069474Y-110904610D01*
X160069471Y-110904612D01*
X160045247Y-110922800D01*
X159894965Y-111035635D01*
X159740629Y-111197138D01*
X159737715Y-111201410D01*
X159737714Y-111201411D01*
X159722798Y-111223277D01*
X159614743Y-111381680D01*
X159579254Y-111458134D01*
X159528592Y-111567278D01*
X159520688Y-111584305D01*
X159460989Y-111799570D01*
X159437251Y-112021695D01*
X147704240Y-112021695D01*
X147710141Y-111972143D01*
X147755317Y-111917375D01*
X147781761Y-111903706D01*
X147888297Y-111863767D01*
X147896705Y-111860615D01*
X148013261Y-111773261D01*
X148100615Y-111656705D01*
X148151745Y-111520316D01*
X148158500Y-111458134D01*
X148158500Y-109661866D01*
X148151745Y-109599684D01*
X148100615Y-109463295D01*
X148013261Y-109346739D01*
X147896705Y-109259385D01*
X147760316Y-109208255D01*
X147698134Y-109201500D01*
X145901866Y-109201500D01*
X145839684Y-109208255D01*
X145703295Y-109259385D01*
X145586739Y-109346739D01*
X145499385Y-109463295D01*
X145448255Y-109599684D01*
X145441500Y-109661866D01*
X145441500Y-111458134D01*
X145448255Y-111520316D01*
X145499385Y-111656705D01*
X145586739Y-111773261D01*
X145703295Y-111860615D01*
X145711704Y-111863767D01*
X145711705Y-111863768D01*
X145820451Y-111904535D01*
X145877216Y-111947176D01*
X145901916Y-112013738D01*
X145886709Y-112083087D01*
X145867316Y-112109568D01*
X145740629Y-112242138D01*
X145737715Y-112246410D01*
X145737714Y-112246411D01*
X145679193Y-112332200D01*
X145614743Y-112426680D01*
X145520688Y-112629305D01*
X145460989Y-112844570D01*
X145437251Y-113066695D01*
X145437548Y-113071848D01*
X145437548Y-113071851D01*
X145449650Y-113281731D01*
X145450110Y-113289715D01*
X145451247Y-113294761D01*
X145451248Y-113294767D01*
X145458211Y-113325661D01*
X145499222Y-113507639D01*
X145583266Y-113714616D01*
X145585965Y-113719020D01*
X145659547Y-113839095D01*
X145699987Y-113905088D01*
X145846250Y-114073938D01*
X146018126Y-114216632D01*
X146088595Y-114257811D01*
X146091445Y-114259476D01*
X146140169Y-114311114D01*
X146153240Y-114380897D01*
X146126509Y-114446669D01*
X146086055Y-114480027D01*
X146073607Y-114486507D01*
X146069474Y-114489610D01*
X146069471Y-114489612D01*
X145899100Y-114617530D01*
X145894965Y-114620635D01*
X145740629Y-114782138D01*
X145737715Y-114786410D01*
X145737714Y-114786411D01*
X145685212Y-114863376D01*
X145614743Y-114966680D01*
X145520688Y-115169305D01*
X145460989Y-115384570D01*
X145437251Y-115606695D01*
X125508500Y-115606695D01*
X125508500Y-114500000D01*
X128856606Y-114500000D01*
X128876129Y-114685747D01*
X128933844Y-114863376D01*
X129027229Y-115025124D01*
X129152203Y-115163921D01*
X129157542Y-115167800D01*
X129242930Y-115229838D01*
X129303303Y-115273702D01*
X129309331Y-115276386D01*
X129309333Y-115276387D01*
X129341245Y-115290595D01*
X129473926Y-115349668D01*
X129565271Y-115369084D01*
X129650158Y-115387128D01*
X129650163Y-115387128D01*
X129656615Y-115388500D01*
X129843385Y-115388500D01*
X129849837Y-115387128D01*
X129849842Y-115387128D01*
X129934729Y-115369084D01*
X130026074Y-115349668D01*
X130158755Y-115290595D01*
X130190667Y-115276387D01*
X130190669Y-115276386D01*
X130196697Y-115273702D01*
X130257071Y-115229838D01*
X130342458Y-115167800D01*
X130347797Y-115163921D01*
X130472771Y-115025124D01*
X130566156Y-114863376D01*
X130623871Y-114685747D01*
X130643394Y-114500000D01*
X130629919Y-114371797D01*
X130624561Y-114320817D01*
X130624561Y-114320816D01*
X130623871Y-114314253D01*
X130609784Y-114270896D01*
X130568198Y-114142909D01*
X130566156Y-114136624D01*
X130552127Y-114112324D01*
X130476074Y-113980597D01*
X130472771Y-113974876D01*
X130432562Y-113930219D01*
X130347797Y-113836079D01*
X130349539Y-113834510D01*
X130317923Y-113783204D01*
X130319266Y-113712220D01*
X130349386Y-113665352D01*
X130347797Y-113663921D01*
X130468352Y-113530032D01*
X130468353Y-113530031D01*
X130472771Y-113525124D01*
X130540065Y-113408567D01*
X130562852Y-113369099D01*
X130562853Y-113369098D01*
X130566156Y-113363376D01*
X130623871Y-113185747D01*
X130632884Y-113100000D01*
X130642704Y-113006565D01*
X130643394Y-113000000D01*
X130630504Y-112877361D01*
X130624561Y-112820817D01*
X130624561Y-112820816D01*
X130623871Y-112814253D01*
X130605294Y-112757077D01*
X130568198Y-112642909D01*
X130566156Y-112636624D01*
X130561931Y-112629305D01*
X130476074Y-112480597D01*
X130472771Y-112474876D01*
X130451716Y-112451492D01*
X130352212Y-112340982D01*
X130352210Y-112340981D01*
X130347797Y-112336079D01*
X130310281Y-112308822D01*
X130202039Y-112230179D01*
X130202038Y-112230178D01*
X130196697Y-112226298D01*
X130190669Y-112223614D01*
X130190667Y-112223613D01*
X130032105Y-112153017D01*
X130032104Y-112153017D01*
X130026074Y-112150332D01*
X129934729Y-112130916D01*
X129849842Y-112112872D01*
X129849837Y-112112872D01*
X129843385Y-112111500D01*
X129656615Y-112111500D01*
X129650163Y-112112872D01*
X129650158Y-112112872D01*
X129565271Y-112130916D01*
X129473926Y-112150332D01*
X129467896Y-112153017D01*
X129467895Y-112153017D01*
X129309333Y-112223613D01*
X129309331Y-112223614D01*
X129303303Y-112226298D01*
X129297962Y-112230178D01*
X129297961Y-112230179D01*
X129189719Y-112308822D01*
X129152203Y-112336079D01*
X129147790Y-112340981D01*
X129147788Y-112340982D01*
X129048284Y-112451492D01*
X129027229Y-112474876D01*
X129023926Y-112480597D01*
X128938070Y-112629305D01*
X128933844Y-112636624D01*
X128931802Y-112642909D01*
X128894707Y-112757077D01*
X128876129Y-112814253D01*
X128875439Y-112820816D01*
X128875439Y-112820817D01*
X128869496Y-112877361D01*
X128856606Y-113000000D01*
X128857296Y-113006565D01*
X128867117Y-113100000D01*
X128876129Y-113185747D01*
X128933844Y-113363376D01*
X128937147Y-113369098D01*
X128937148Y-113369099D01*
X128959935Y-113408567D01*
X129027229Y-113525124D01*
X129031647Y-113530031D01*
X129031648Y-113530032D01*
X129152203Y-113663921D01*
X129150461Y-113665490D01*
X129182077Y-113716796D01*
X129180734Y-113787780D01*
X129150614Y-113834648D01*
X129152203Y-113836079D01*
X129067439Y-113930219D01*
X129027229Y-113974876D01*
X129023926Y-113980597D01*
X128947874Y-114112324D01*
X128933844Y-114136624D01*
X128931802Y-114142909D01*
X128890217Y-114270896D01*
X128876129Y-114314253D01*
X128875439Y-114320816D01*
X128875439Y-114320817D01*
X128870081Y-114371797D01*
X128856606Y-114500000D01*
X125508500Y-114500000D01*
X125508500Y-107488921D01*
X149706588Y-107488921D01*
X149723851Y-107664976D01*
X149779689Y-107832831D01*
X149783338Y-107838856D01*
X149844812Y-107940361D01*
X149871327Y-107984143D01*
X149876218Y-107989208D01*
X149876219Y-107989209D01*
X149896340Y-108010045D01*
X149994211Y-108111394D01*
X150142234Y-108208257D01*
X150308038Y-108269919D01*
X150315019Y-108270850D01*
X150315021Y-108270851D01*
X150350727Y-108275615D01*
X150483382Y-108293315D01*
X150490393Y-108292677D01*
X150490397Y-108292677D01*
X150652532Y-108277921D01*
X150659553Y-108277282D01*
X150666255Y-108275104D01*
X150666257Y-108275104D01*
X150821095Y-108224794D01*
X150821098Y-108224793D01*
X150827794Y-108222617D01*
X150833845Y-108219010D01*
X150973691Y-108135646D01*
X150973693Y-108135645D01*
X150979743Y-108132038D01*
X151107848Y-108010045D01*
X151205742Y-107862702D01*
X151240137Y-107772156D01*
X151252762Y-107738921D01*
X152706588Y-107738921D01*
X152723851Y-107914976D01*
X152726075Y-107921661D01*
X152726075Y-107921662D01*
X152734615Y-107947333D01*
X152779689Y-108082831D01*
X152783338Y-108088856D01*
X152864347Y-108222617D01*
X152871327Y-108234143D01*
X152876218Y-108239208D01*
X152876219Y-108239209D01*
X152927568Y-108292383D01*
X152994211Y-108361394D01*
X153142234Y-108458257D01*
X153308038Y-108519919D01*
X153315019Y-108520850D01*
X153315021Y-108520851D01*
X153363221Y-108527282D01*
X153483382Y-108543315D01*
X153490393Y-108542677D01*
X153490397Y-108542677D01*
X153652532Y-108527921D01*
X153659553Y-108527282D01*
X153666255Y-108525104D01*
X153666257Y-108525104D01*
X153821095Y-108474794D01*
X153821098Y-108474793D01*
X153827794Y-108472617D01*
X153833845Y-108469010D01*
X153973691Y-108385646D01*
X153973693Y-108385645D01*
X153979743Y-108382038D01*
X154107848Y-108260045D01*
X154205742Y-108112702D01*
X154252653Y-107989209D01*
X154266060Y-107953916D01*
X154266061Y-107953911D01*
X154268560Y-107947333D01*
X154278988Y-107873134D01*
X154292629Y-107776079D01*
X154292629Y-107776073D01*
X154293180Y-107772156D01*
X154293489Y-107750000D01*
X154273770Y-107574204D01*
X154215594Y-107407145D01*
X154121852Y-107257126D01*
X154049353Y-107184119D01*
X154002166Y-107136601D01*
X154002162Y-107136598D01*
X153997203Y-107131604D01*
X153986359Y-107124722D01*
X153853797Y-107040595D01*
X153853793Y-107040593D01*
X153847843Y-107036817D01*
X153781238Y-107013100D01*
X153687829Y-106979838D01*
X153687824Y-106979837D01*
X153681194Y-106977476D01*
X153674206Y-106976643D01*
X153674203Y-106976642D01*
X153576922Y-106965042D01*
X153505540Y-106956530D01*
X153498537Y-106957266D01*
X153498536Y-106957266D01*
X153450862Y-106962277D01*
X153329610Y-106975021D01*
X153322944Y-106977290D01*
X153322941Y-106977291D01*
X153168816Y-107029760D01*
X153168813Y-107029761D01*
X153162149Y-107032030D01*
X153011479Y-107124722D01*
X152885090Y-107248492D01*
X152789263Y-107397187D01*
X152786854Y-107403807D01*
X152786853Y-107403808D01*
X152743778Y-107522156D01*
X152728760Y-107563417D01*
X152706588Y-107738921D01*
X151252762Y-107738921D01*
X151266060Y-107703916D01*
X151266061Y-107703911D01*
X151268560Y-107697333D01*
X151274093Y-107657967D01*
X151292629Y-107526079D01*
X151292629Y-107526073D01*
X151293180Y-107522156D01*
X151293489Y-107500000D01*
X151273770Y-107324204D01*
X151215594Y-107157145D01*
X151121852Y-107007126D01*
X151004236Y-106888686D01*
X151002166Y-106886601D01*
X151002162Y-106886598D01*
X150997203Y-106881604D01*
X150986359Y-106874722D01*
X150853797Y-106790595D01*
X150853793Y-106790593D01*
X150847843Y-106786817D01*
X150818269Y-106776286D01*
X150687829Y-106729838D01*
X150687824Y-106729837D01*
X150681194Y-106727476D01*
X150674206Y-106726643D01*
X150674203Y-106726642D01*
X150576922Y-106715042D01*
X150505540Y-106706530D01*
X150498537Y-106707266D01*
X150498536Y-106707266D01*
X150450862Y-106712277D01*
X150329610Y-106725021D01*
X150322944Y-106727290D01*
X150322941Y-106727291D01*
X150168816Y-106779760D01*
X150168813Y-106779761D01*
X150162149Y-106782030D01*
X150011479Y-106874722D01*
X150001419Y-106884574D01*
X149904139Y-106979838D01*
X149885090Y-106998492D01*
X149789263Y-107147187D01*
X149786854Y-107153807D01*
X149786853Y-107153808D01*
X149778819Y-107175881D01*
X149728760Y-107313417D01*
X149706588Y-107488921D01*
X125508500Y-107488921D01*
X125508500Y-105788921D01*
X152706588Y-105788921D01*
X152723851Y-105964976D01*
X152779689Y-106132831D01*
X152871327Y-106284143D01*
X152876218Y-106289208D01*
X152876219Y-106289209D01*
X152896340Y-106310045D01*
X152994211Y-106411394D01*
X153142234Y-106508257D01*
X153308038Y-106569919D01*
X153315019Y-106570850D01*
X153315021Y-106570851D01*
X153363221Y-106577282D01*
X153483382Y-106593315D01*
X153490393Y-106592677D01*
X153490397Y-106592677D01*
X153652532Y-106577921D01*
X153659553Y-106577282D01*
X153666255Y-106575104D01*
X153666257Y-106575104D01*
X153821095Y-106524794D01*
X153821098Y-106524793D01*
X153827794Y-106522617D01*
X153833845Y-106519010D01*
X153973691Y-106435646D01*
X153973693Y-106435645D01*
X153979743Y-106432038D01*
X154107848Y-106310045D01*
X154205742Y-106162702D01*
X154249189Y-106048327D01*
X154266060Y-106003916D01*
X154266061Y-106003911D01*
X154268560Y-105997333D01*
X154274093Y-105957967D01*
X154292629Y-105826079D01*
X154292629Y-105826073D01*
X154293180Y-105822156D01*
X154293489Y-105800000D01*
X154273770Y-105624204D01*
X154257285Y-105576864D01*
X154217912Y-105463802D01*
X154215594Y-105457145D01*
X154121852Y-105307126D01*
X154035218Y-105219885D01*
X154002166Y-105186601D01*
X154002162Y-105186598D01*
X153997203Y-105181604D01*
X153986359Y-105174722D01*
X153853797Y-105090595D01*
X153853793Y-105090593D01*
X153847843Y-105086817D01*
X153818269Y-105076286D01*
X153687829Y-105029838D01*
X153687824Y-105029837D01*
X153681194Y-105027476D01*
X153674206Y-105026643D01*
X153674203Y-105026642D01*
X153576922Y-105015042D01*
X153505540Y-105006530D01*
X153498537Y-105007266D01*
X153498536Y-105007266D01*
X153450862Y-105012277D01*
X153329610Y-105025021D01*
X153322944Y-105027290D01*
X153322941Y-105027291D01*
X153168816Y-105079760D01*
X153168813Y-105079761D01*
X153162149Y-105082030D01*
X153011479Y-105174722D01*
X152885090Y-105298492D01*
X152789263Y-105447187D01*
X152786854Y-105453807D01*
X152786853Y-105453808D01*
X152742064Y-105576864D01*
X152728760Y-105613417D01*
X152706588Y-105788921D01*
X125508500Y-105788921D01*
X125508500Y-101988921D01*
X149006588Y-101988921D01*
X149023851Y-102164976D01*
X149079689Y-102332831D01*
X149171327Y-102484143D01*
X149176218Y-102489208D01*
X149176219Y-102489209D01*
X149196340Y-102510045D01*
X149294211Y-102611394D01*
X149442234Y-102708257D01*
X149608038Y-102769919D01*
X149615019Y-102770850D01*
X149615021Y-102770851D01*
X149663221Y-102777282D01*
X149783382Y-102793315D01*
X149790393Y-102792677D01*
X149790397Y-102792677D01*
X149952532Y-102777921D01*
X149959553Y-102777282D01*
X149966255Y-102775104D01*
X149966257Y-102775104D01*
X150121095Y-102724794D01*
X150121098Y-102724793D01*
X150127794Y-102722617D01*
X150133845Y-102719010D01*
X150273691Y-102635646D01*
X150273693Y-102635645D01*
X150279743Y-102632038D01*
X150407848Y-102510045D01*
X150505742Y-102362702D01*
X150534747Y-102286345D01*
X150566060Y-102203916D01*
X150566061Y-102203911D01*
X150568560Y-102197333D01*
X150593180Y-102022156D01*
X150593489Y-102000000D01*
X150573770Y-101824204D01*
X150515594Y-101657145D01*
X150421852Y-101507126D01*
X150359264Y-101444099D01*
X150302166Y-101386601D01*
X150302162Y-101386598D01*
X150297203Y-101381604D01*
X150286359Y-101374722D01*
X150153797Y-101290595D01*
X150153793Y-101290593D01*
X150147843Y-101286817D01*
X150118269Y-101276286D01*
X149987829Y-101229838D01*
X149987824Y-101229837D01*
X149981194Y-101227476D01*
X149974206Y-101226643D01*
X149974203Y-101226642D01*
X149876922Y-101215042D01*
X149805540Y-101206530D01*
X149798537Y-101207266D01*
X149798536Y-101207266D01*
X149750862Y-101212277D01*
X149629610Y-101225021D01*
X149622944Y-101227290D01*
X149622941Y-101227291D01*
X149468816Y-101279760D01*
X149468813Y-101279761D01*
X149462149Y-101282030D01*
X149311479Y-101374722D01*
X149185090Y-101498492D01*
X149089263Y-101647187D01*
X149086854Y-101653807D01*
X149086853Y-101653808D01*
X149031169Y-101806798D01*
X149028760Y-101813417D01*
X149006588Y-101988921D01*
X125508500Y-101988921D01*
X125508500Y-98750000D01*
X127106606Y-98750000D01*
X127126129Y-98935747D01*
X127183844Y-99113376D01*
X127277229Y-99275124D01*
X127402203Y-99413921D01*
X127553303Y-99523702D01*
X127559331Y-99526386D01*
X127559333Y-99526387D01*
X127717895Y-99596983D01*
X127723926Y-99599668D01*
X127815270Y-99619084D01*
X127900158Y-99637128D01*
X127900163Y-99637128D01*
X127906615Y-99638500D01*
X128093385Y-99638500D01*
X128099837Y-99637128D01*
X128099842Y-99637128D01*
X128184729Y-99619084D01*
X128276074Y-99599668D01*
X128282105Y-99596983D01*
X128440667Y-99526387D01*
X128440669Y-99526386D01*
X128446697Y-99523702D01*
X128597797Y-99413921D01*
X128722771Y-99275124D01*
X128816156Y-99113376D01*
X128873871Y-98935747D01*
X128893394Y-98750000D01*
X132606606Y-98750000D01*
X132626129Y-98935747D01*
X132683844Y-99113376D01*
X132777229Y-99275124D01*
X132902203Y-99413921D01*
X133053303Y-99523702D01*
X133059331Y-99526386D01*
X133059333Y-99526387D01*
X133217895Y-99596983D01*
X133223926Y-99599668D01*
X133315270Y-99619084D01*
X133400158Y-99637128D01*
X133400163Y-99637128D01*
X133406615Y-99638500D01*
X133593385Y-99638500D01*
X133599837Y-99637128D01*
X133599842Y-99637128D01*
X133684729Y-99619084D01*
X133776074Y-99599668D01*
X133782105Y-99596983D01*
X133940667Y-99526387D01*
X133940669Y-99526386D01*
X133946697Y-99523702D01*
X134097797Y-99413921D01*
X134222771Y-99275124D01*
X134316156Y-99113376D01*
X134373871Y-98935747D01*
X134393394Y-98750000D01*
X134373871Y-98564253D01*
X134316156Y-98386624D01*
X134230880Y-98238921D01*
X146956588Y-98238921D01*
X146973851Y-98414976D01*
X147029689Y-98582831D01*
X147121327Y-98734143D01*
X147126218Y-98739208D01*
X147126219Y-98739209D01*
X147146340Y-98760045D01*
X147244211Y-98861394D01*
X147392234Y-98958257D01*
X147558038Y-99019919D01*
X147565019Y-99020850D01*
X147565021Y-99020851D01*
X147613221Y-99027282D01*
X147733382Y-99043315D01*
X147740393Y-99042677D01*
X147740397Y-99042677D01*
X147902532Y-99027921D01*
X147909553Y-99027282D01*
X147916255Y-99025104D01*
X147916257Y-99025104D01*
X148071095Y-98974794D01*
X148071098Y-98974793D01*
X148077794Y-98972617D01*
X148083845Y-98969010D01*
X148223691Y-98885646D01*
X148223693Y-98885645D01*
X148229743Y-98882038D01*
X148357848Y-98760045D01*
X148455742Y-98612702D01*
X148484747Y-98536345D01*
X148516060Y-98453916D01*
X148516061Y-98453911D01*
X148518560Y-98447333D01*
X148543180Y-98272156D01*
X148543489Y-98250000D01*
X148537881Y-98200000D01*
X167606606Y-98200000D01*
X167626129Y-98385747D01*
X167683844Y-98563376D01*
X167777229Y-98725124D01*
X167781647Y-98730031D01*
X167781648Y-98730032D01*
X167799628Y-98750000D01*
X167902203Y-98863921D01*
X167907542Y-98867800D01*
X168001063Y-98935747D01*
X168053303Y-98973702D01*
X168059331Y-98976386D01*
X168059333Y-98976387D01*
X168217895Y-99046983D01*
X168223926Y-99049668D01*
X168315270Y-99069084D01*
X168400158Y-99087128D01*
X168400163Y-99087128D01*
X168406615Y-99088500D01*
X168593385Y-99088500D01*
X168599837Y-99087128D01*
X168599842Y-99087128D01*
X168684730Y-99069084D01*
X168776074Y-99049668D01*
X168782105Y-99046983D01*
X168940667Y-98976387D01*
X168940669Y-98976386D01*
X168946697Y-98973702D01*
X168998938Y-98935747D01*
X169092458Y-98867800D01*
X169097797Y-98863921D01*
X169200373Y-98750000D01*
X169218352Y-98730032D01*
X169218353Y-98730031D01*
X169222771Y-98725124D01*
X169316156Y-98563376D01*
X169373871Y-98385747D01*
X169393394Y-98200000D01*
X169373871Y-98014253D01*
X169316156Y-97836624D01*
X169222771Y-97674876D01*
X169182050Y-97629651D01*
X169102212Y-97540982D01*
X169102210Y-97540981D01*
X169097797Y-97536079D01*
X169012745Y-97474285D01*
X168952039Y-97430179D01*
X168952038Y-97430178D01*
X168946697Y-97426298D01*
X168940669Y-97423614D01*
X168940667Y-97423613D01*
X168782105Y-97353017D01*
X168782104Y-97353017D01*
X168776074Y-97350332D01*
X168680571Y-97330032D01*
X168599842Y-97312872D01*
X168599837Y-97312872D01*
X168593385Y-97311500D01*
X168406615Y-97311500D01*
X168400163Y-97312872D01*
X168400158Y-97312872D01*
X168319429Y-97330032D01*
X168223926Y-97350332D01*
X168217896Y-97353017D01*
X168217895Y-97353017D01*
X168059333Y-97423613D01*
X168059331Y-97423614D01*
X168053303Y-97426298D01*
X168047962Y-97430178D01*
X168047961Y-97430179D01*
X167987255Y-97474285D01*
X167902203Y-97536079D01*
X167897790Y-97540981D01*
X167897788Y-97540982D01*
X167817950Y-97629651D01*
X167777229Y-97674876D01*
X167683844Y-97836624D01*
X167626129Y-98014253D01*
X167606606Y-98200000D01*
X148537881Y-98200000D01*
X148523770Y-98074204D01*
X148465594Y-97907145D01*
X148371852Y-97757126D01*
X148266504Y-97651040D01*
X148252166Y-97636601D01*
X148252162Y-97636598D01*
X148247203Y-97631604D01*
X148236359Y-97624722D01*
X148103797Y-97540595D01*
X148103793Y-97540593D01*
X148097843Y-97536817D01*
X148050388Y-97519919D01*
X147937829Y-97479838D01*
X147937824Y-97479837D01*
X147931194Y-97477476D01*
X147924206Y-97476643D01*
X147924203Y-97476642D01*
X147817521Y-97463921D01*
X147755540Y-97456530D01*
X147748537Y-97457266D01*
X147748536Y-97457266D01*
X147715741Y-97460713D01*
X147579610Y-97475021D01*
X147572944Y-97477290D01*
X147572941Y-97477291D01*
X147418816Y-97529760D01*
X147418813Y-97529761D01*
X147412149Y-97532030D01*
X147261479Y-97624722D01*
X147135090Y-97748492D01*
X147039263Y-97897187D01*
X147036854Y-97903807D01*
X147036853Y-97903808D01*
X147011446Y-97973613D01*
X146978760Y-98063417D01*
X146956588Y-98238921D01*
X134230880Y-98238921D01*
X134222771Y-98224876D01*
X134206284Y-98206565D01*
X134102212Y-98090982D01*
X134102210Y-98090981D01*
X134097797Y-98086079D01*
X134007972Y-98020817D01*
X133952039Y-97980179D01*
X133952038Y-97980178D01*
X133946697Y-97976298D01*
X133940669Y-97973614D01*
X133940667Y-97973613D01*
X133782105Y-97903017D01*
X133782104Y-97903017D01*
X133776074Y-97900332D01*
X133684729Y-97880916D01*
X133599842Y-97862872D01*
X133599837Y-97862872D01*
X133593385Y-97861500D01*
X133406615Y-97861500D01*
X133400163Y-97862872D01*
X133400158Y-97862872D01*
X133315271Y-97880916D01*
X133223926Y-97900332D01*
X133217896Y-97903017D01*
X133217895Y-97903017D01*
X133059333Y-97973613D01*
X133059331Y-97973614D01*
X133053303Y-97976298D01*
X133047962Y-97980178D01*
X133047961Y-97980179D01*
X132992028Y-98020817D01*
X132902203Y-98086079D01*
X132897790Y-98090981D01*
X132897788Y-98090982D01*
X132793716Y-98206565D01*
X132777229Y-98224876D01*
X132683844Y-98386624D01*
X132626129Y-98564253D01*
X132606606Y-98750000D01*
X128893394Y-98750000D01*
X128873871Y-98564253D01*
X128816156Y-98386624D01*
X128722771Y-98224876D01*
X128706284Y-98206565D01*
X128602212Y-98090982D01*
X128602210Y-98090981D01*
X128597797Y-98086079D01*
X128507972Y-98020817D01*
X128452039Y-97980179D01*
X128452038Y-97980178D01*
X128446697Y-97976298D01*
X128440669Y-97973614D01*
X128440667Y-97973613D01*
X128282105Y-97903017D01*
X128282104Y-97903017D01*
X128276074Y-97900332D01*
X128184729Y-97880916D01*
X128099842Y-97862872D01*
X128099837Y-97862872D01*
X128093385Y-97861500D01*
X127906615Y-97861500D01*
X127900163Y-97862872D01*
X127900158Y-97862872D01*
X127815271Y-97880916D01*
X127723926Y-97900332D01*
X127717896Y-97903017D01*
X127717895Y-97903017D01*
X127559333Y-97973613D01*
X127559331Y-97973614D01*
X127553303Y-97976298D01*
X127547962Y-97980178D01*
X127547961Y-97980179D01*
X127492028Y-98020817D01*
X127402203Y-98086079D01*
X127397790Y-98090981D01*
X127397788Y-98090982D01*
X127293716Y-98206565D01*
X127277229Y-98224876D01*
X127183844Y-98386624D01*
X127126129Y-98564253D01*
X127106606Y-98750000D01*
X125508500Y-98750000D01*
X125508500Y-96088921D01*
X146906588Y-96088921D01*
X146923851Y-96264976D01*
X146979689Y-96432831D01*
X146993790Y-96456114D01*
X147065308Y-96574204D01*
X147071327Y-96584143D01*
X147076218Y-96589208D01*
X147076219Y-96589209D01*
X147094340Y-96607974D01*
X147194211Y-96711394D01*
X147342234Y-96808257D01*
X147508038Y-96869919D01*
X147515019Y-96870850D01*
X147515021Y-96870851D01*
X147563221Y-96877282D01*
X147683382Y-96893315D01*
X147690393Y-96892677D01*
X147690397Y-96892677D01*
X147852532Y-96877921D01*
X147859553Y-96877282D01*
X147866255Y-96875104D01*
X147866257Y-96875104D01*
X148021095Y-96824794D01*
X148021098Y-96824793D01*
X148027794Y-96822617D01*
X148033845Y-96819010D01*
X148168197Y-96738921D01*
X156206588Y-96738921D01*
X156223851Y-96914976D01*
X156279689Y-97082831D01*
X156283338Y-97088856D01*
X156324663Y-97157091D01*
X156371327Y-97234143D01*
X156376218Y-97239208D01*
X156376219Y-97239209D01*
X156396340Y-97260045D01*
X156494211Y-97361394D01*
X156642234Y-97458257D01*
X156808038Y-97519919D01*
X156815019Y-97520850D01*
X156815021Y-97520851D01*
X156863221Y-97527282D01*
X156983382Y-97543315D01*
X156990393Y-97542677D01*
X156990397Y-97542677D01*
X157152532Y-97527921D01*
X157159553Y-97527282D01*
X157166255Y-97525104D01*
X157166257Y-97525104D01*
X157321095Y-97474794D01*
X157321098Y-97474793D01*
X157327794Y-97472617D01*
X157342382Y-97463921D01*
X157473691Y-97385646D01*
X157473693Y-97385645D01*
X157479743Y-97382038D01*
X157607848Y-97260045D01*
X157705742Y-97112702D01*
X157753968Y-96985747D01*
X157766060Y-96953916D01*
X157766061Y-96953911D01*
X157768560Y-96947333D01*
X157776283Y-96892383D01*
X157789267Y-96800000D01*
X173306606Y-96800000D01*
X173326129Y-96985747D01*
X173383844Y-97163376D01*
X173477229Y-97325124D01*
X173481647Y-97330031D01*
X173481648Y-97330032D01*
X173596211Y-97457266D01*
X173602203Y-97463921D01*
X173607542Y-97467800D01*
X173701520Y-97536079D01*
X173753303Y-97573702D01*
X173759331Y-97576386D01*
X173759333Y-97576387D01*
X173883353Y-97631604D01*
X173923926Y-97649668D01*
X174015271Y-97669084D01*
X174100158Y-97687128D01*
X174100163Y-97687128D01*
X174106615Y-97688500D01*
X174293385Y-97688500D01*
X174299837Y-97687128D01*
X174299842Y-97687128D01*
X174384729Y-97669084D01*
X174476074Y-97649668D01*
X174516647Y-97631604D01*
X174640667Y-97576387D01*
X174640669Y-97576386D01*
X174646697Y-97573702D01*
X174698481Y-97536079D01*
X174792458Y-97467800D01*
X174797797Y-97463921D01*
X174803790Y-97457266D01*
X174918352Y-97330032D01*
X174918353Y-97330031D01*
X174922771Y-97325124D01*
X175016156Y-97163376D01*
X175073871Y-96985747D01*
X175093394Y-96800000D01*
X175073871Y-96614253D01*
X175063133Y-96581203D01*
X175018198Y-96442909D01*
X175016156Y-96436624D01*
X174922771Y-96274876D01*
X174797797Y-96136079D01*
X174732890Y-96088921D01*
X174652039Y-96030179D01*
X174652038Y-96030178D01*
X174646697Y-96026298D01*
X174640669Y-96023614D01*
X174640667Y-96023613D01*
X174482105Y-95953017D01*
X174482104Y-95953017D01*
X174476074Y-95950332D01*
X174384730Y-95930916D01*
X174299842Y-95912872D01*
X174299837Y-95912872D01*
X174293385Y-95911500D01*
X174106615Y-95911500D01*
X174100163Y-95912872D01*
X174100158Y-95912872D01*
X174015270Y-95930916D01*
X173923926Y-95950332D01*
X173917896Y-95953017D01*
X173917895Y-95953017D01*
X173759333Y-96023613D01*
X173759331Y-96023614D01*
X173753303Y-96026298D01*
X173747962Y-96030178D01*
X173747961Y-96030179D01*
X173667110Y-96088921D01*
X173602203Y-96136079D01*
X173477229Y-96274876D01*
X173383844Y-96436624D01*
X173381802Y-96442909D01*
X173336868Y-96581203D01*
X173326129Y-96614253D01*
X173306606Y-96800000D01*
X157789267Y-96800000D01*
X157792629Y-96776079D01*
X157792629Y-96776073D01*
X157793180Y-96772156D01*
X157793489Y-96750000D01*
X157773770Y-96574204D01*
X157715594Y-96407145D01*
X157621852Y-96257126D01*
X157506516Y-96140982D01*
X157502166Y-96136601D01*
X157502162Y-96136598D01*
X157497203Y-96131604D01*
X157486359Y-96124722D01*
X157353797Y-96040595D01*
X157353793Y-96040593D01*
X157347843Y-96036817D01*
X157310762Y-96023613D01*
X157187829Y-95979838D01*
X157187824Y-95979837D01*
X157181194Y-95977476D01*
X157174206Y-95976643D01*
X157174203Y-95976642D01*
X157076922Y-95965042D01*
X157005540Y-95956530D01*
X156998537Y-95957266D01*
X156998536Y-95957266D01*
X156950862Y-95962277D01*
X156829610Y-95975021D01*
X156822944Y-95977290D01*
X156822941Y-95977291D01*
X156668816Y-96029760D01*
X156668813Y-96029761D01*
X156662149Y-96032030D01*
X156511479Y-96124722D01*
X156385090Y-96248492D01*
X156289263Y-96397187D01*
X156286854Y-96403807D01*
X156286853Y-96403808D01*
X156231169Y-96556798D01*
X156228760Y-96563417D01*
X156206588Y-96738921D01*
X148168197Y-96738921D01*
X148173691Y-96735646D01*
X148173693Y-96735645D01*
X148179743Y-96732038D01*
X148307848Y-96610045D01*
X148405742Y-96462702D01*
X148434747Y-96386345D01*
X148466060Y-96303916D01*
X148466061Y-96303911D01*
X148468560Y-96297333D01*
X148491150Y-96136601D01*
X148492629Y-96126079D01*
X148492629Y-96126073D01*
X148493180Y-96122156D01*
X148493489Y-96100000D01*
X148473770Y-95924204D01*
X148415594Y-95757145D01*
X148329678Y-95619651D01*
X148325585Y-95613100D01*
X148321852Y-95607126D01*
X148252557Y-95537346D01*
X148202166Y-95486601D01*
X148202162Y-95486598D01*
X148197203Y-95481604D01*
X148186359Y-95474722D01*
X148053797Y-95390595D01*
X148053793Y-95390593D01*
X148047843Y-95386817D01*
X148018269Y-95376286D01*
X147887829Y-95329838D01*
X147887824Y-95329837D01*
X147881194Y-95327476D01*
X147874206Y-95326643D01*
X147874203Y-95326642D01*
X147776922Y-95315042D01*
X147705540Y-95306530D01*
X147698537Y-95307266D01*
X147698536Y-95307266D01*
X147650862Y-95312277D01*
X147529610Y-95325021D01*
X147522944Y-95327290D01*
X147522941Y-95327291D01*
X147368816Y-95379760D01*
X147368813Y-95379761D01*
X147362149Y-95382030D01*
X147211479Y-95474722D01*
X147148285Y-95536607D01*
X147101480Y-95582442D01*
X147085090Y-95598492D01*
X146989263Y-95747187D01*
X146986854Y-95753807D01*
X146986853Y-95753808D01*
X146983172Y-95763921D01*
X146928760Y-95913417D01*
X146906588Y-96088921D01*
X125508500Y-96088921D01*
X125508500Y-94747064D01*
X129962707Y-94747064D01*
X129982497Y-94877921D01*
X129988985Y-94920817D01*
X129991825Y-94939599D01*
X129994028Y-94945585D01*
X129994029Y-94945591D01*
X130056860Y-95116360D01*
X130056862Y-95116365D01*
X130059063Y-95122346D01*
X130161674Y-95287840D01*
X130295466Y-95429322D01*
X130300696Y-95432984D01*
X130300697Y-95432985D01*
X130370133Y-95481604D01*
X130454975Y-95541011D01*
X130460838Y-95543548D01*
X130627825Y-95615810D01*
X130627829Y-95615811D01*
X130633684Y-95618345D01*
X130639931Y-95619650D01*
X130639934Y-95619651D01*
X130819557Y-95657176D01*
X130819562Y-95657177D01*
X130824293Y-95658165D01*
X130830685Y-95658500D01*
X130973663Y-95658500D01*
X131042951Y-95651462D01*
X131112378Y-95644410D01*
X131112379Y-95644410D01*
X131118727Y-95643765D01*
X131199843Y-95618345D01*
X131298451Y-95587444D01*
X131298456Y-95587442D01*
X131304541Y-95585535D01*
X131391475Y-95537346D01*
X131469271Y-95494223D01*
X131469274Y-95494221D01*
X131474850Y-95491130D01*
X131479691Y-95486981D01*
X131479695Y-95486978D01*
X131617855Y-95368560D01*
X131622698Y-95364409D01*
X131634133Y-95349668D01*
X131730995Y-95224794D01*
X131742046Y-95210547D01*
X131745073Y-95204397D01*
X131825200Y-95041556D01*
X131828018Y-95035829D01*
X131829628Y-95029649D01*
X131875492Y-94853575D01*
X131875492Y-94853572D01*
X131877102Y-94847393D01*
X131882958Y-94735646D01*
X131886959Y-94659317D01*
X131886959Y-94659313D01*
X131887293Y-94652936D01*
X131864164Y-94500000D01*
X134606606Y-94500000D01*
X134607296Y-94506565D01*
X134611486Y-94546425D01*
X134626129Y-94685747D01*
X134628169Y-94692025D01*
X134628169Y-94692026D01*
X134634462Y-94711394D01*
X134683844Y-94863376D01*
X134687147Y-94869098D01*
X134687148Y-94869099D01*
X134765134Y-95004174D01*
X134777229Y-95025124D01*
X134781647Y-95030031D01*
X134781648Y-95030032D01*
X134869651Y-95127768D01*
X134902203Y-95163921D01*
X134907542Y-95167800D01*
X134973325Y-95215594D01*
X135053303Y-95273702D01*
X135059331Y-95276386D01*
X135059333Y-95276387D01*
X135179387Y-95329838D01*
X135223926Y-95349668D01*
X135312805Y-95368560D01*
X135400158Y-95387128D01*
X135400163Y-95387128D01*
X135406615Y-95388500D01*
X135593385Y-95388500D01*
X135599837Y-95387128D01*
X135599842Y-95387128D01*
X135687195Y-95368560D01*
X135776074Y-95349668D01*
X135820613Y-95329838D01*
X135940667Y-95276387D01*
X135940669Y-95276386D01*
X135946697Y-95273702D01*
X136026676Y-95215594D01*
X136092458Y-95167800D01*
X136097797Y-95163921D01*
X136130350Y-95127768D01*
X136218352Y-95030032D01*
X136218353Y-95030031D01*
X136222771Y-95025124D01*
X136234866Y-95004174D01*
X136312852Y-94869099D01*
X136312853Y-94869098D01*
X136316156Y-94863376D01*
X136365538Y-94711394D01*
X136371831Y-94692026D01*
X136371831Y-94692025D01*
X136373871Y-94685747D01*
X136388515Y-94546425D01*
X136392704Y-94506565D01*
X136393394Y-94500000D01*
X136392230Y-94488921D01*
X140006588Y-94488921D01*
X140023851Y-94664976D01*
X140026075Y-94671661D01*
X140026075Y-94671662D01*
X140032295Y-94690361D01*
X140079689Y-94832831D01*
X140171327Y-94984143D01*
X140176218Y-94989208D01*
X140176219Y-94989209D01*
X140196340Y-95010045D01*
X140294211Y-95111394D01*
X140442234Y-95208257D01*
X140608038Y-95269919D01*
X140615019Y-95270850D01*
X140615021Y-95270851D01*
X140656513Y-95276387D01*
X140783382Y-95293315D01*
X140790393Y-95292677D01*
X140790397Y-95292677D01*
X140952532Y-95277921D01*
X140959553Y-95277282D01*
X140966255Y-95275104D01*
X140966257Y-95275104D01*
X141121095Y-95224794D01*
X141121098Y-95224793D01*
X141127794Y-95222617D01*
X141139575Y-95215594D01*
X141273691Y-95135646D01*
X141273693Y-95135645D01*
X141279743Y-95132038D01*
X141313386Y-95100000D01*
X176106606Y-95100000D01*
X176107296Y-95106565D01*
X176119723Y-95224794D01*
X176126129Y-95285747D01*
X176128169Y-95292025D01*
X176128169Y-95292026D01*
X176140455Y-95329838D01*
X176183844Y-95463376D01*
X176187147Y-95469098D01*
X176187148Y-95469099D01*
X176259007Y-95593563D01*
X176277229Y-95625124D01*
X176281647Y-95630031D01*
X176281648Y-95630032D01*
X176387136Y-95747187D01*
X176402203Y-95763921D01*
X176553303Y-95873702D01*
X176559331Y-95876386D01*
X176559333Y-95876387D01*
X176717895Y-95946983D01*
X176723926Y-95949668D01*
X176815271Y-95969084D01*
X176900158Y-95987128D01*
X176900163Y-95987128D01*
X176906615Y-95988500D01*
X177093385Y-95988500D01*
X177099837Y-95987128D01*
X177099842Y-95987128D01*
X177184730Y-95969084D01*
X177276074Y-95949668D01*
X177282105Y-95946983D01*
X177440667Y-95876387D01*
X177440669Y-95876386D01*
X177446697Y-95873702D01*
X177597797Y-95763921D01*
X177612865Y-95747187D01*
X177718352Y-95630032D01*
X177718353Y-95630031D01*
X177722771Y-95625124D01*
X177740993Y-95593563D01*
X177812852Y-95469099D01*
X177812853Y-95469098D01*
X177816156Y-95463376D01*
X177859545Y-95329838D01*
X177871831Y-95292026D01*
X177871831Y-95292025D01*
X177873871Y-95285747D01*
X177880278Y-95224794D01*
X177892704Y-95106565D01*
X177893394Y-95100000D01*
X177873871Y-94914253D01*
X177861859Y-94877282D01*
X177818198Y-94742909D01*
X177816156Y-94736624D01*
X177801590Y-94711394D01*
X177726074Y-94580597D01*
X177722771Y-94574876D01*
X177702720Y-94552607D01*
X177602212Y-94440982D01*
X177602210Y-94440981D01*
X177597797Y-94436079D01*
X177516870Y-94377282D01*
X177452039Y-94330179D01*
X177452038Y-94330178D01*
X177446697Y-94326298D01*
X177440669Y-94323614D01*
X177440667Y-94323613D01*
X177282105Y-94253017D01*
X177282104Y-94253017D01*
X177276074Y-94250332D01*
X177184729Y-94230916D01*
X177099842Y-94212872D01*
X177099837Y-94212872D01*
X177093385Y-94211500D01*
X176906615Y-94211500D01*
X176900163Y-94212872D01*
X176900158Y-94212872D01*
X176815271Y-94230916D01*
X176723926Y-94250332D01*
X176717896Y-94253017D01*
X176717895Y-94253017D01*
X176559333Y-94323613D01*
X176559331Y-94323614D01*
X176553303Y-94326298D01*
X176547962Y-94330178D01*
X176547961Y-94330179D01*
X176483130Y-94377282D01*
X176402203Y-94436079D01*
X176397790Y-94440981D01*
X176397788Y-94440982D01*
X176297280Y-94552607D01*
X176277229Y-94574876D01*
X176273926Y-94580597D01*
X176198411Y-94711394D01*
X176183844Y-94736624D01*
X176181802Y-94742909D01*
X176138142Y-94877282D01*
X176126129Y-94914253D01*
X176106606Y-95100000D01*
X141313386Y-95100000D01*
X141407848Y-95010045D01*
X141505742Y-94862702D01*
X141549669Y-94747064D01*
X141566060Y-94703916D01*
X141566061Y-94703911D01*
X141568560Y-94697333D01*
X141584468Y-94584143D01*
X141592629Y-94526079D01*
X141592629Y-94526073D01*
X141593180Y-94522156D01*
X141593332Y-94511278D01*
X141593434Y-94503962D01*
X141593434Y-94503958D01*
X141593489Y-94500000D01*
X141581418Y-94392383D01*
X141574555Y-94331200D01*
X141574554Y-94331198D01*
X141573770Y-94324204D01*
X141571454Y-94317553D01*
X141571366Y-94317166D01*
X141575777Y-94246307D01*
X141617798Y-94189081D01*
X141684087Y-94163658D01*
X141753597Y-94178109D01*
X141784871Y-94201723D01*
X141789313Y-94206323D01*
X141789318Y-94206327D01*
X141794211Y-94211394D01*
X141942234Y-94308257D01*
X142108038Y-94369919D01*
X142115019Y-94370850D01*
X142115021Y-94370851D01*
X142163221Y-94377282D01*
X142283382Y-94393315D01*
X142290393Y-94392677D01*
X142290397Y-94392677D01*
X142452532Y-94377921D01*
X142459553Y-94377282D01*
X142466255Y-94375104D01*
X142466257Y-94375104D01*
X142621095Y-94324794D01*
X142621098Y-94324793D01*
X142627794Y-94322617D01*
X142643227Y-94313417D01*
X142773691Y-94235646D01*
X142773693Y-94235645D01*
X142779743Y-94232038D01*
X142907848Y-94110045D01*
X142921883Y-94088921D01*
X148706588Y-94088921D01*
X148723851Y-94264976D01*
X148726075Y-94271661D01*
X148726075Y-94271662D01*
X148738249Y-94308257D01*
X148779689Y-94432831D01*
X148792757Y-94454409D01*
X148865715Y-94574876D01*
X148871327Y-94584143D01*
X148876218Y-94589208D01*
X148876219Y-94589209D01*
X148943921Y-94659317D01*
X148994211Y-94711394D01*
X149142234Y-94808257D01*
X149308038Y-94869919D01*
X149315019Y-94870850D01*
X149315021Y-94870851D01*
X149363221Y-94877282D01*
X149483382Y-94893315D01*
X149490393Y-94892677D01*
X149490397Y-94892677D01*
X149652532Y-94877921D01*
X149659553Y-94877282D01*
X149666255Y-94875104D01*
X149666257Y-94875104D01*
X149821095Y-94824794D01*
X149821098Y-94824793D01*
X149827794Y-94822617D01*
X149833845Y-94819010D01*
X149973691Y-94735646D01*
X149973693Y-94735645D01*
X149979743Y-94732038D01*
X150107848Y-94610045D01*
X150205742Y-94462702D01*
X150238190Y-94377282D01*
X150266060Y-94303916D01*
X150266061Y-94303911D01*
X150268560Y-94297333D01*
X150269540Y-94290361D01*
X150292629Y-94126079D01*
X150292629Y-94126073D01*
X150293180Y-94122156D01*
X150293489Y-94100000D01*
X150273770Y-93924204D01*
X150215594Y-93757145D01*
X150121852Y-93607126D01*
X150059264Y-93544099D01*
X150002166Y-93486601D01*
X150002162Y-93486598D01*
X149997203Y-93481604D01*
X149986359Y-93474722D01*
X149853797Y-93390595D01*
X149853793Y-93390593D01*
X149847843Y-93386817D01*
X149818269Y-93376286D01*
X149687829Y-93329838D01*
X149687824Y-93329837D01*
X149681194Y-93327476D01*
X149674206Y-93326643D01*
X149674203Y-93326642D01*
X149576922Y-93315042D01*
X149505540Y-93306530D01*
X149498537Y-93307266D01*
X149498536Y-93307266D01*
X149450862Y-93312277D01*
X149329610Y-93325021D01*
X149322944Y-93327290D01*
X149322941Y-93327291D01*
X149168816Y-93379760D01*
X149168813Y-93379761D01*
X149162149Y-93382030D01*
X149011479Y-93474722D01*
X148999349Y-93486601D01*
X148894864Y-93588921D01*
X148885090Y-93598492D01*
X148789263Y-93747187D01*
X148786854Y-93753807D01*
X148786853Y-93753808D01*
X148764776Y-93814465D01*
X148728760Y-93913417D01*
X148706588Y-94088921D01*
X142921883Y-94088921D01*
X143005742Y-93962702D01*
X143050539Y-93844774D01*
X143066060Y-93803916D01*
X143066061Y-93803911D01*
X143068560Y-93797333D01*
X143070711Y-93782030D01*
X143092629Y-93626079D01*
X143092629Y-93626073D01*
X143093180Y-93622156D01*
X143093390Y-93607126D01*
X143093434Y-93603962D01*
X143093434Y-93603958D01*
X143093489Y-93600000D01*
X143073770Y-93424204D01*
X143060751Y-93386817D01*
X143017912Y-93263802D01*
X143015594Y-93257145D01*
X142921852Y-93107126D01*
X142845294Y-93030032D01*
X142802166Y-92986601D01*
X142802162Y-92986598D01*
X142797203Y-92981604D01*
X142786359Y-92974722D01*
X142653797Y-92890595D01*
X142653793Y-92890593D01*
X142647843Y-92886817D01*
X142564363Y-92857091D01*
X142487829Y-92829838D01*
X142487824Y-92829837D01*
X142481194Y-92827476D01*
X142474206Y-92826643D01*
X142474203Y-92826642D01*
X142376922Y-92815042D01*
X142305540Y-92806530D01*
X142298537Y-92807266D01*
X142298536Y-92807266D01*
X142250862Y-92812277D01*
X142129610Y-92825021D01*
X142122944Y-92827290D01*
X142122941Y-92827291D01*
X141968816Y-92879760D01*
X141968813Y-92879761D01*
X141962149Y-92882030D01*
X141811479Y-92974722D01*
X141685090Y-93098492D01*
X141589263Y-93247187D01*
X141586854Y-93253807D01*
X141586853Y-93253808D01*
X141531169Y-93406798D01*
X141528760Y-93413417D01*
X141506588Y-93588921D01*
X141523851Y-93764976D01*
X141526074Y-93771658D01*
X141526074Y-93771659D01*
X141526794Y-93773822D01*
X141526846Y-93775289D01*
X141527539Y-93778548D01*
X141526966Y-93778670D01*
X141529314Y-93844774D01*
X141493075Y-93905825D01*
X141429582Y-93937592D01*
X141358993Y-93929989D01*
X141317829Y-93902374D01*
X141297203Y-93881604D01*
X141286359Y-93874722D01*
X141153797Y-93790595D01*
X141153793Y-93790593D01*
X141147843Y-93786817D01*
X141111349Y-93773822D01*
X140987829Y-93729838D01*
X140987824Y-93729837D01*
X140981194Y-93727476D01*
X140974206Y-93726643D01*
X140974203Y-93726642D01*
X140876922Y-93715042D01*
X140805540Y-93706530D01*
X140798537Y-93707266D01*
X140798536Y-93707266D01*
X140750862Y-93712277D01*
X140629610Y-93725021D01*
X140622944Y-93727290D01*
X140622941Y-93727291D01*
X140468816Y-93779760D01*
X140468813Y-93779761D01*
X140462149Y-93782030D01*
X140311479Y-93874722D01*
X140272369Y-93913022D01*
X140203364Y-93980597D01*
X140185090Y-93998492D01*
X140089263Y-94147187D01*
X140086854Y-94153807D01*
X140086853Y-94153808D01*
X140051721Y-94250332D01*
X140028760Y-94313417D01*
X140006588Y-94488921D01*
X136392230Y-94488921D01*
X136373871Y-94314253D01*
X136368374Y-94297333D01*
X136318198Y-94142909D01*
X136316156Y-94136624D01*
X136241391Y-94007126D01*
X136226074Y-93980597D01*
X136222771Y-93974876D01*
X136215693Y-93967015D01*
X136102212Y-93840982D01*
X136102210Y-93840981D01*
X136097797Y-93836079D01*
X136068048Y-93814465D01*
X135952039Y-93730179D01*
X135952038Y-93730178D01*
X135946697Y-93726298D01*
X135940669Y-93723614D01*
X135940667Y-93723613D01*
X135782105Y-93653017D01*
X135782104Y-93653017D01*
X135776074Y-93650332D01*
X135684730Y-93630916D01*
X135599842Y-93612872D01*
X135599837Y-93612872D01*
X135593385Y-93611500D01*
X135406615Y-93611500D01*
X135400163Y-93612872D01*
X135400158Y-93612872D01*
X135315270Y-93630916D01*
X135223926Y-93650332D01*
X135217896Y-93653017D01*
X135217895Y-93653017D01*
X135059333Y-93723613D01*
X135059331Y-93723614D01*
X135053303Y-93726298D01*
X135047962Y-93730178D01*
X135047961Y-93730179D01*
X134931952Y-93814465D01*
X134902203Y-93836079D01*
X134897790Y-93840981D01*
X134897788Y-93840982D01*
X134784307Y-93967015D01*
X134777229Y-93974876D01*
X134773926Y-93980597D01*
X134758610Y-94007126D01*
X134683844Y-94136624D01*
X134681802Y-94142909D01*
X134631627Y-94297333D01*
X134626129Y-94314253D01*
X134606606Y-94500000D01*
X131864164Y-94500000D01*
X131862488Y-94488921D01*
X131859130Y-94466715D01*
X131859130Y-94466714D01*
X131858175Y-94460401D01*
X131855972Y-94454415D01*
X131855971Y-94454409D01*
X131793140Y-94283640D01*
X131793138Y-94283635D01*
X131790937Y-94277654D01*
X131706373Y-94141266D01*
X131691688Y-94117582D01*
X131691687Y-94117581D01*
X131688326Y-94112160D01*
X131586435Y-94004412D01*
X131558919Y-93975315D01*
X131554534Y-93970678D01*
X131533735Y-93956114D01*
X131427323Y-93881604D01*
X131395025Y-93858989D01*
X131333119Y-93832200D01*
X131222175Y-93784190D01*
X131222171Y-93784189D01*
X131216316Y-93781655D01*
X131210069Y-93780350D01*
X131210066Y-93780349D01*
X131030443Y-93742824D01*
X131030438Y-93742823D01*
X131025707Y-93741835D01*
X131019315Y-93741500D01*
X130876337Y-93741500D01*
X130820349Y-93747187D01*
X130737622Y-93755590D01*
X130737621Y-93755590D01*
X130731273Y-93756235D01*
X130675152Y-93773822D01*
X130551549Y-93812556D01*
X130551544Y-93812558D01*
X130545459Y-93814465D01*
X130513465Y-93832200D01*
X130380729Y-93905777D01*
X130380726Y-93905779D01*
X130375150Y-93908870D01*
X130370309Y-93913019D01*
X130370305Y-93913022D01*
X130232145Y-94031440D01*
X130227302Y-94035591D01*
X130107954Y-94189453D01*
X130105138Y-94195176D01*
X130105136Y-94195179D01*
X130043315Y-94320817D01*
X130021982Y-94364171D01*
X130020373Y-94370349D01*
X130020372Y-94370351D01*
X129981862Y-94518195D01*
X129972898Y-94552607D01*
X129972564Y-94558986D01*
X129965679Y-94690361D01*
X129962707Y-94747064D01*
X125508500Y-94747064D01*
X125508500Y-91738921D01*
X141706588Y-91738921D01*
X141723851Y-91914976D01*
X141779689Y-92082831D01*
X141871327Y-92234143D01*
X141876218Y-92239208D01*
X141876219Y-92239209D01*
X141896340Y-92260045D01*
X141994211Y-92361394D01*
X142142234Y-92458257D01*
X142308038Y-92519919D01*
X142315019Y-92520850D01*
X142315021Y-92520851D01*
X142363221Y-92527282D01*
X142483382Y-92543315D01*
X142490393Y-92542677D01*
X142490397Y-92542677D01*
X142652532Y-92527921D01*
X142659553Y-92527282D01*
X142666255Y-92525104D01*
X142666257Y-92525104D01*
X142743519Y-92500000D01*
X172206606Y-92500000D01*
X172226129Y-92685747D01*
X172283844Y-92863376D01*
X172287147Y-92869098D01*
X172287148Y-92869099D01*
X172299559Y-92890595D01*
X172377229Y-93025124D01*
X172381647Y-93030031D01*
X172381648Y-93030032D01*
X172448621Y-93104412D01*
X172502203Y-93163921D01*
X172653303Y-93273702D01*
X172659331Y-93276386D01*
X172659333Y-93276387D01*
X172779387Y-93329838D01*
X172823926Y-93349668D01*
X172915270Y-93369084D01*
X173000158Y-93387128D01*
X173000163Y-93387128D01*
X173006615Y-93388500D01*
X173193385Y-93388500D01*
X173199837Y-93387128D01*
X173199842Y-93387128D01*
X173284730Y-93369084D01*
X173376074Y-93349668D01*
X173420613Y-93329838D01*
X173540667Y-93276387D01*
X173540669Y-93276386D01*
X173546697Y-93273702D01*
X173697797Y-93163921D01*
X173751380Y-93104412D01*
X173818352Y-93030032D01*
X173818353Y-93030031D01*
X173822771Y-93025124D01*
X173900441Y-92890595D01*
X173912852Y-92869099D01*
X173912853Y-92869098D01*
X173916156Y-92863376D01*
X173973871Y-92685747D01*
X173993394Y-92500000D01*
X173973871Y-92314253D01*
X173916156Y-92136624D01*
X173822771Y-91974876D01*
X173818352Y-91969968D01*
X173702212Y-91840982D01*
X173702210Y-91840981D01*
X173697797Y-91836079D01*
X173618024Y-91778120D01*
X173552039Y-91730179D01*
X173552038Y-91730178D01*
X173546697Y-91726298D01*
X173540669Y-91723614D01*
X173540667Y-91723613D01*
X173382105Y-91653017D01*
X173382104Y-91653017D01*
X173376074Y-91650332D01*
X173262284Y-91626145D01*
X173199842Y-91612872D01*
X173199837Y-91612872D01*
X173193385Y-91611500D01*
X173006615Y-91611500D01*
X173000163Y-91612872D01*
X173000158Y-91612872D01*
X172937716Y-91626145D01*
X172823926Y-91650332D01*
X172817896Y-91653017D01*
X172817895Y-91653017D01*
X172659333Y-91723613D01*
X172659331Y-91723614D01*
X172653303Y-91726298D01*
X172647962Y-91730178D01*
X172647961Y-91730179D01*
X172581976Y-91778120D01*
X172502203Y-91836079D01*
X172497790Y-91840981D01*
X172497788Y-91840982D01*
X172381648Y-91969968D01*
X172377229Y-91974876D01*
X172283844Y-92136624D01*
X172226129Y-92314253D01*
X172206606Y-92500000D01*
X142743519Y-92500000D01*
X142821095Y-92474794D01*
X142821098Y-92474793D01*
X142827794Y-92472617D01*
X142833845Y-92469010D01*
X142973691Y-92385646D01*
X142973693Y-92385645D01*
X142979743Y-92382038D01*
X143107848Y-92260045D01*
X143205742Y-92112702D01*
X143239962Y-92022617D01*
X143266060Y-91953916D01*
X143266061Y-91953911D01*
X143268560Y-91947333D01*
X143270710Y-91932038D01*
X143292629Y-91776079D01*
X143292629Y-91776073D01*
X143293180Y-91772156D01*
X143293489Y-91750000D01*
X143273770Y-91574204D01*
X143215594Y-91407145D01*
X143141720Y-91288921D01*
X146006588Y-91288921D01*
X146023851Y-91464976D01*
X146079689Y-91632831D01*
X146083338Y-91638856D01*
X146161669Y-91768195D01*
X146171327Y-91784143D01*
X146176218Y-91789208D01*
X146176219Y-91789209D01*
X146196340Y-91810045D01*
X146294211Y-91911394D01*
X146442234Y-92008257D01*
X146608038Y-92069919D01*
X146615019Y-92070850D01*
X146615021Y-92070851D01*
X146654699Y-92076145D01*
X146783382Y-92093315D01*
X146790393Y-92092677D01*
X146790397Y-92092677D01*
X146952532Y-92077921D01*
X146959553Y-92077282D01*
X146966255Y-92075104D01*
X146966257Y-92075104D01*
X147121095Y-92024794D01*
X147121098Y-92024793D01*
X147127794Y-92022617D01*
X147133845Y-92019010D01*
X147273691Y-91935646D01*
X147273693Y-91935645D01*
X147279743Y-91932038D01*
X147407848Y-91810045D01*
X147505742Y-91662702D01*
X147543457Y-91563417D01*
X147566060Y-91503916D01*
X147566061Y-91503911D01*
X147568560Y-91497333D01*
X147580300Y-91413802D01*
X147592629Y-91326079D01*
X147592629Y-91326073D01*
X147593180Y-91322156D01*
X147593489Y-91300000D01*
X147592246Y-91288921D01*
X165106588Y-91288921D01*
X165123851Y-91464976D01*
X165179689Y-91632831D01*
X165183338Y-91638856D01*
X165261669Y-91768195D01*
X165271327Y-91784143D01*
X165276218Y-91789208D01*
X165276219Y-91789209D01*
X165296340Y-91810045D01*
X165394211Y-91911394D01*
X165542234Y-92008257D01*
X165708038Y-92069919D01*
X165715019Y-92070850D01*
X165715021Y-92070851D01*
X165754699Y-92076145D01*
X165883382Y-92093315D01*
X165890393Y-92092677D01*
X165890397Y-92092677D01*
X166052532Y-92077921D01*
X166059553Y-92077282D01*
X166066255Y-92075104D01*
X166066257Y-92075104D01*
X166221095Y-92024794D01*
X166221098Y-92024793D01*
X166227794Y-92022617D01*
X166233845Y-92019010D01*
X166373691Y-91935646D01*
X166373693Y-91935645D01*
X166379743Y-91932038D01*
X166507848Y-91810045D01*
X166605742Y-91662702D01*
X166643457Y-91563417D01*
X166666060Y-91503916D01*
X166666061Y-91503911D01*
X166668560Y-91497333D01*
X166680300Y-91413802D01*
X166692629Y-91326079D01*
X166692629Y-91326073D01*
X166693180Y-91322156D01*
X166693489Y-91300000D01*
X166673770Y-91124204D01*
X166662253Y-91091130D01*
X166639114Y-91024685D01*
X166615594Y-90957145D01*
X166521852Y-90807126D01*
X166443046Y-90727768D01*
X166402166Y-90686601D01*
X166402162Y-90686598D01*
X166397203Y-90681604D01*
X166391255Y-90677829D01*
X166253797Y-90590595D01*
X166253793Y-90590593D01*
X166247843Y-90586817D01*
X166182013Y-90563376D01*
X166087829Y-90529838D01*
X166087824Y-90529837D01*
X166081194Y-90527476D01*
X166074206Y-90526643D01*
X166074203Y-90526642D01*
X165976922Y-90515042D01*
X165905540Y-90506530D01*
X165898537Y-90507266D01*
X165898536Y-90507266D01*
X165850862Y-90512277D01*
X165729610Y-90525021D01*
X165722944Y-90527290D01*
X165722941Y-90527291D01*
X165568816Y-90579760D01*
X165568813Y-90579761D01*
X165562149Y-90582030D01*
X165411479Y-90674722D01*
X165285090Y-90798492D01*
X165189263Y-90947187D01*
X165186854Y-90953807D01*
X165186853Y-90953808D01*
X165158035Y-91032985D01*
X165128760Y-91113417D01*
X165106588Y-91288921D01*
X147592246Y-91288921D01*
X147573770Y-91124204D01*
X147562253Y-91091130D01*
X147539114Y-91024685D01*
X147515594Y-90957145D01*
X147421852Y-90807126D01*
X147343046Y-90727768D01*
X147302166Y-90686601D01*
X147302162Y-90686598D01*
X147297203Y-90681604D01*
X147291255Y-90677829D01*
X147153797Y-90590595D01*
X147153793Y-90590593D01*
X147147843Y-90586817D01*
X147082013Y-90563376D01*
X146987829Y-90529838D01*
X146987824Y-90529837D01*
X146981194Y-90527476D01*
X146974206Y-90526643D01*
X146974203Y-90526642D01*
X146876922Y-90515042D01*
X146805540Y-90506530D01*
X146798537Y-90507266D01*
X146798536Y-90507266D01*
X146750862Y-90512277D01*
X146629610Y-90525021D01*
X146622944Y-90527290D01*
X146622941Y-90527291D01*
X146468816Y-90579760D01*
X146468813Y-90579761D01*
X146462149Y-90582030D01*
X146311479Y-90674722D01*
X146185090Y-90798492D01*
X146089263Y-90947187D01*
X146086854Y-90953807D01*
X146086853Y-90953808D01*
X146058035Y-91032985D01*
X146028760Y-91113417D01*
X146006588Y-91288921D01*
X143141720Y-91288921D01*
X143121852Y-91257126D01*
X143050759Y-91185535D01*
X143002166Y-91136601D01*
X143002162Y-91136598D01*
X142997203Y-91131604D01*
X142986359Y-91124722D01*
X142853797Y-91040595D01*
X142853793Y-91040593D01*
X142847843Y-91036817D01*
X142813772Y-91024685D01*
X142687829Y-90979838D01*
X142687824Y-90979837D01*
X142681194Y-90977476D01*
X142674206Y-90976643D01*
X142674203Y-90976642D01*
X142576922Y-90965042D01*
X142505540Y-90956530D01*
X142498537Y-90957266D01*
X142498536Y-90957266D01*
X142450862Y-90962277D01*
X142329610Y-90975021D01*
X142322944Y-90977290D01*
X142322941Y-90977291D01*
X142168816Y-91029760D01*
X142168813Y-91029761D01*
X142162149Y-91032030D01*
X142011479Y-91124722D01*
X141992255Y-91143548D01*
X141918464Y-91215810D01*
X141885090Y-91248492D01*
X141789263Y-91397187D01*
X141786854Y-91403807D01*
X141786853Y-91403808D01*
X141767141Y-91457967D01*
X141728760Y-91563417D01*
X141706588Y-91738921D01*
X125508500Y-91738921D01*
X125508500Y-90347064D01*
X129962707Y-90347064D01*
X129975255Y-90430032D01*
X129989992Y-90527476D01*
X129991825Y-90539599D01*
X129994028Y-90545585D01*
X129994029Y-90545591D01*
X130056860Y-90716360D01*
X130056862Y-90716365D01*
X130059063Y-90722346D01*
X130076854Y-90751040D01*
X130149249Y-90867800D01*
X130161674Y-90887840D01*
X130295466Y-91029322D01*
X130300696Y-91032984D01*
X130300697Y-91032985D01*
X130377808Y-91086978D01*
X130454975Y-91141011D01*
X130460838Y-91143548D01*
X130627825Y-91215810D01*
X130627829Y-91215811D01*
X130633684Y-91218345D01*
X130639931Y-91219650D01*
X130639934Y-91219651D01*
X130819557Y-91257176D01*
X130819562Y-91257177D01*
X130824293Y-91258165D01*
X130830685Y-91258500D01*
X130973663Y-91258500D01*
X131042951Y-91251462D01*
X131112378Y-91244410D01*
X131112379Y-91244410D01*
X131118727Y-91243765D01*
X131199843Y-91218345D01*
X131298451Y-91187444D01*
X131298456Y-91187442D01*
X131304541Y-91185535D01*
X131446585Y-91106798D01*
X131469271Y-91094223D01*
X131469274Y-91094221D01*
X131474850Y-91091130D01*
X131479691Y-91086981D01*
X131479695Y-91086978D01*
X131617855Y-90968560D01*
X131622698Y-90964409D01*
X131742046Y-90810547D01*
X131750404Y-90793563D01*
X131825200Y-90641556D01*
X131828018Y-90635829D01*
X131845400Y-90569099D01*
X131875492Y-90453575D01*
X131875492Y-90453572D01*
X131877102Y-90447393D01*
X131887293Y-90252936D01*
X131861766Y-90084143D01*
X131859130Y-90066715D01*
X131859130Y-90066714D01*
X131858175Y-90060401D01*
X131855972Y-90054415D01*
X131855971Y-90054409D01*
X131793140Y-89883640D01*
X131793138Y-89883635D01*
X131790937Y-89877654D01*
X131725219Y-89771662D01*
X131691688Y-89717582D01*
X131691687Y-89717581D01*
X131688326Y-89712160D01*
X131571785Y-89588921D01*
X152106588Y-89588921D01*
X152123851Y-89764976D01*
X152126075Y-89771661D01*
X152126075Y-89771662D01*
X152131993Y-89789453D01*
X152179689Y-89932831D01*
X152271327Y-90084143D01*
X152276218Y-90089208D01*
X152276219Y-90089209D01*
X152296340Y-90110045D01*
X152394211Y-90211394D01*
X152542234Y-90308257D01*
X152708038Y-90369919D01*
X152715019Y-90370850D01*
X152715021Y-90370851D01*
X152763221Y-90377282D01*
X152883382Y-90393315D01*
X152890393Y-90392677D01*
X152890397Y-90392677D01*
X153052532Y-90377921D01*
X153059553Y-90377282D01*
X153066255Y-90375104D01*
X153066257Y-90375104D01*
X153221095Y-90324794D01*
X153221098Y-90324793D01*
X153227794Y-90322617D01*
X153233845Y-90319010D01*
X153373691Y-90235646D01*
X153373693Y-90235645D01*
X153379743Y-90232038D01*
X153413386Y-90200000D01*
X168606606Y-90200000D01*
X168607296Y-90206565D01*
X168621393Y-90340683D01*
X168626129Y-90385747D01*
X168683844Y-90563376D01*
X168687147Y-90569098D01*
X168687148Y-90569099D01*
X168699559Y-90590595D01*
X168777229Y-90725124D01*
X168781647Y-90730031D01*
X168781648Y-90730032D01*
X168854145Y-90810547D01*
X168902203Y-90863921D01*
X168907542Y-90867800D01*
X169046226Y-90968560D01*
X169053303Y-90973702D01*
X169059331Y-90976386D01*
X169059333Y-90976387D01*
X169217895Y-91046983D01*
X169223926Y-91049668D01*
X169315270Y-91069084D01*
X169400158Y-91087128D01*
X169400163Y-91087128D01*
X169406615Y-91088500D01*
X169593385Y-91088500D01*
X169599837Y-91087128D01*
X169599842Y-91087128D01*
X169684729Y-91069084D01*
X169776074Y-91049668D01*
X169782105Y-91046983D01*
X169940667Y-90976387D01*
X169940669Y-90976386D01*
X169946697Y-90973702D01*
X169953775Y-90968560D01*
X170092458Y-90867800D01*
X170097797Y-90863921D01*
X170145856Y-90810547D01*
X170218352Y-90730032D01*
X170218353Y-90730031D01*
X170222771Y-90725124D01*
X170300441Y-90590595D01*
X170312852Y-90569099D01*
X170312853Y-90569098D01*
X170316156Y-90563376D01*
X170373871Y-90385747D01*
X170378608Y-90340683D01*
X170392704Y-90206565D01*
X170393394Y-90200000D01*
X170381217Y-90084143D01*
X170374561Y-90020817D01*
X170374561Y-90020816D01*
X170373871Y-90014253D01*
X170359607Y-89970351D01*
X170336748Y-89900000D01*
X176106606Y-89900000D01*
X176107296Y-89906565D01*
X176119305Y-90020817D01*
X176126129Y-90085747D01*
X176183844Y-90263376D01*
X176277229Y-90425124D01*
X176281647Y-90430031D01*
X176281648Y-90430032D01*
X176385699Y-90545591D01*
X176402203Y-90563921D01*
X176407542Y-90567800D01*
X176433717Y-90586817D01*
X176553303Y-90673702D01*
X176559331Y-90676386D01*
X176559333Y-90676387D01*
X176717895Y-90746983D01*
X176723926Y-90749668D01*
X176815271Y-90769084D01*
X176900158Y-90787128D01*
X176900163Y-90787128D01*
X176906615Y-90788500D01*
X177093385Y-90788500D01*
X177099837Y-90787128D01*
X177099842Y-90787128D01*
X177184729Y-90769084D01*
X177276074Y-90749668D01*
X177282105Y-90746983D01*
X177440667Y-90676387D01*
X177440669Y-90676386D01*
X177446697Y-90673702D01*
X177566284Y-90586817D01*
X177592458Y-90567800D01*
X177597797Y-90563921D01*
X177614302Y-90545591D01*
X177718352Y-90430032D01*
X177718353Y-90430031D01*
X177722771Y-90425124D01*
X177816156Y-90263376D01*
X177873871Y-90085747D01*
X177880696Y-90020817D01*
X177892704Y-89906565D01*
X177893394Y-89900000D01*
X177881775Y-89789453D01*
X177874561Y-89720817D01*
X177874561Y-89720816D01*
X177873871Y-89714253D01*
X177816156Y-89536624D01*
X177802530Y-89513022D01*
X177726074Y-89380597D01*
X177722771Y-89374876D01*
X177718352Y-89369968D01*
X177602212Y-89240982D01*
X177602210Y-89240981D01*
X177597797Y-89236079D01*
X177446697Y-89126298D01*
X177440669Y-89123614D01*
X177440667Y-89123613D01*
X177282105Y-89053017D01*
X177282104Y-89053017D01*
X177276074Y-89050332D01*
X177184730Y-89030916D01*
X177099842Y-89012872D01*
X177099837Y-89012872D01*
X177093385Y-89011500D01*
X176906615Y-89011500D01*
X176900163Y-89012872D01*
X176900158Y-89012872D01*
X176815270Y-89030916D01*
X176723926Y-89050332D01*
X176717896Y-89053017D01*
X176717895Y-89053017D01*
X176559333Y-89123613D01*
X176559331Y-89123614D01*
X176553303Y-89126298D01*
X176402203Y-89236079D01*
X176397790Y-89240981D01*
X176397788Y-89240982D01*
X176281648Y-89369968D01*
X176277229Y-89374876D01*
X176273926Y-89380597D01*
X176197471Y-89513022D01*
X176183844Y-89536624D01*
X176126129Y-89714253D01*
X176125439Y-89720816D01*
X176125439Y-89720817D01*
X176118225Y-89789453D01*
X176106606Y-89900000D01*
X170336748Y-89900000D01*
X170318198Y-89842909D01*
X170316156Y-89836624D01*
X170293472Y-89797333D01*
X170226074Y-89680597D01*
X170222771Y-89674876D01*
X170191939Y-89640634D01*
X170102212Y-89540982D01*
X170102210Y-89540981D01*
X170097797Y-89536079D01*
X169946697Y-89426298D01*
X169940669Y-89423614D01*
X169940667Y-89423613D01*
X169782105Y-89353017D01*
X169782104Y-89353017D01*
X169776074Y-89350332D01*
X169684729Y-89330916D01*
X169599842Y-89312872D01*
X169599837Y-89312872D01*
X169593385Y-89311500D01*
X169406615Y-89311500D01*
X169400163Y-89312872D01*
X169400158Y-89312872D01*
X169315270Y-89330916D01*
X169223926Y-89350332D01*
X169217896Y-89353017D01*
X169217895Y-89353017D01*
X169059333Y-89423613D01*
X169059331Y-89423614D01*
X169053303Y-89426298D01*
X168902203Y-89536079D01*
X168897790Y-89540981D01*
X168897788Y-89540982D01*
X168808061Y-89640634D01*
X168777229Y-89674876D01*
X168773926Y-89680597D01*
X168706529Y-89797333D01*
X168683844Y-89836624D01*
X168681802Y-89842909D01*
X168640394Y-89970351D01*
X168626129Y-90014253D01*
X168625439Y-90020816D01*
X168625439Y-90020817D01*
X168618783Y-90084143D01*
X168606606Y-90200000D01*
X153413386Y-90200000D01*
X153507848Y-90110045D01*
X153605742Y-89962702D01*
X153638049Y-89877654D01*
X153666060Y-89803916D01*
X153666061Y-89803911D01*
X153668560Y-89797333D01*
X153669540Y-89790361D01*
X153692629Y-89626079D01*
X153692629Y-89626073D01*
X153693180Y-89622156D01*
X153693489Y-89600000D01*
X153673770Y-89424204D01*
X153658585Y-89380597D01*
X153617912Y-89263802D01*
X153615594Y-89257145D01*
X153521852Y-89107126D01*
X153428254Y-89012872D01*
X153402166Y-88986601D01*
X153402162Y-88986598D01*
X153397203Y-88981604D01*
X153386359Y-88974722D01*
X153253797Y-88890595D01*
X153253793Y-88890593D01*
X153247843Y-88886817D01*
X153218269Y-88876286D01*
X153087829Y-88829838D01*
X153087824Y-88829837D01*
X153081194Y-88827476D01*
X153074206Y-88826643D01*
X153074203Y-88826642D01*
X152976922Y-88815042D01*
X152905540Y-88806530D01*
X152898537Y-88807266D01*
X152898536Y-88807266D01*
X152850862Y-88812277D01*
X152729610Y-88825021D01*
X152722944Y-88827290D01*
X152722941Y-88827291D01*
X152568816Y-88879760D01*
X152568813Y-88879761D01*
X152562149Y-88882030D01*
X152411479Y-88974722D01*
X152285090Y-89098492D01*
X152189263Y-89247187D01*
X152186854Y-89253807D01*
X152186853Y-89253808D01*
X152140320Y-89381655D01*
X152128760Y-89413417D01*
X152106588Y-89588921D01*
X131571785Y-89588921D01*
X131554534Y-89570678D01*
X131505122Y-89536079D01*
X131400259Y-89462654D01*
X131395025Y-89458989D01*
X131319480Y-89426298D01*
X131222175Y-89384190D01*
X131222171Y-89384189D01*
X131216316Y-89381655D01*
X131210069Y-89380350D01*
X131210066Y-89380349D01*
X131030443Y-89342824D01*
X131030438Y-89342823D01*
X131025707Y-89341835D01*
X131019315Y-89341500D01*
X130876337Y-89341500D01*
X130807049Y-89348538D01*
X130737622Y-89355590D01*
X130737621Y-89355590D01*
X130731273Y-89356235D01*
X130687451Y-89369968D01*
X130551549Y-89412556D01*
X130551544Y-89412558D01*
X130545459Y-89414465D01*
X130469713Y-89456452D01*
X130380729Y-89505777D01*
X130380726Y-89505779D01*
X130375150Y-89508870D01*
X130370309Y-89513019D01*
X130370305Y-89513022D01*
X130307311Y-89567015D01*
X130227302Y-89635591D01*
X130107954Y-89789453D01*
X130105138Y-89795176D01*
X130105136Y-89795179D01*
X130024800Y-89958444D01*
X130021982Y-89964171D01*
X130020373Y-89970349D01*
X130020372Y-89970351D01*
X129983985Y-90110045D01*
X129972898Y-90152607D01*
X129972564Y-90158986D01*
X129964741Y-90308257D01*
X129962707Y-90347064D01*
X125508500Y-90347064D01*
X125508500Y-87488921D01*
X143306588Y-87488921D01*
X143323851Y-87664976D01*
X143379689Y-87832831D01*
X143383338Y-87838856D01*
X143434594Y-87923489D01*
X143471327Y-87984143D01*
X143476218Y-87989208D01*
X143476219Y-87989209D01*
X143496340Y-88010045D01*
X143594211Y-88111394D01*
X143742234Y-88208257D01*
X143908038Y-88269919D01*
X143915019Y-88270850D01*
X143915021Y-88270851D01*
X143963221Y-88277282D01*
X144083382Y-88293315D01*
X144090393Y-88292677D01*
X144090397Y-88292677D01*
X144252532Y-88277921D01*
X144259553Y-88277282D01*
X144266255Y-88275104D01*
X144266257Y-88275104D01*
X144421095Y-88224794D01*
X144421098Y-88224793D01*
X144427794Y-88222617D01*
X144443637Y-88213173D01*
X144573691Y-88135646D01*
X144573693Y-88135645D01*
X144579743Y-88132038D01*
X144707848Y-88010045D01*
X144805742Y-87862702D01*
X144838190Y-87777282D01*
X144866060Y-87703916D01*
X144866061Y-87703911D01*
X144868560Y-87697333D01*
X144874564Y-87654616D01*
X144892629Y-87526079D01*
X144892629Y-87526073D01*
X144893180Y-87522156D01*
X144893489Y-87500000D01*
X144873770Y-87324204D01*
X144815594Y-87157145D01*
X144721852Y-87007126D01*
X144633540Y-86918195D01*
X144604470Y-86888921D01*
X149706588Y-86888921D01*
X149723851Y-87064976D01*
X149726075Y-87071661D01*
X149726075Y-87071662D01*
X149735848Y-87101040D01*
X149779689Y-87232831D01*
X149783338Y-87238856D01*
X149840368Y-87333023D01*
X149871327Y-87384143D01*
X149876218Y-87389208D01*
X149876219Y-87389209D01*
X149896340Y-87410045D01*
X149994211Y-87511394D01*
X150142234Y-87608257D01*
X150308038Y-87669919D01*
X150315019Y-87670850D01*
X150315021Y-87670851D01*
X150363221Y-87677282D01*
X150483382Y-87693315D01*
X150490393Y-87692677D01*
X150490397Y-87692677D01*
X150652532Y-87677921D01*
X150659553Y-87677282D01*
X150666255Y-87675104D01*
X150666257Y-87675104D01*
X150821095Y-87624794D01*
X150821098Y-87624793D01*
X150827794Y-87622617D01*
X150846621Y-87611394D01*
X150973691Y-87535646D01*
X150973693Y-87535645D01*
X150979743Y-87532038D01*
X151107848Y-87410045D01*
X151205742Y-87262702D01*
X151245527Y-87157967D01*
X151266060Y-87103916D01*
X151266061Y-87103911D01*
X151268560Y-87097333D01*
X151278531Y-87026387D01*
X151283797Y-86988921D01*
X153706588Y-86988921D01*
X153723851Y-87164976D01*
X153779689Y-87332831D01*
X153783338Y-87338856D01*
X153826452Y-87410045D01*
X153871327Y-87484143D01*
X153876218Y-87489208D01*
X153876219Y-87489209D01*
X153922232Y-87536857D01*
X153994211Y-87611394D01*
X154142234Y-87708257D01*
X154308038Y-87769919D01*
X154315019Y-87770850D01*
X154315021Y-87770851D01*
X154363221Y-87777282D01*
X154483382Y-87793315D01*
X154490393Y-87792677D01*
X154490397Y-87792677D01*
X154652532Y-87777921D01*
X154659553Y-87777282D01*
X154666255Y-87775104D01*
X154666257Y-87775104D01*
X154821095Y-87724794D01*
X154821098Y-87724793D01*
X154827794Y-87722617D01*
X154833845Y-87719010D01*
X154973691Y-87635646D01*
X154973693Y-87635645D01*
X154979743Y-87632038D01*
X155107848Y-87510045D01*
X155205742Y-87362702D01*
X155234747Y-87286345D01*
X155266060Y-87203916D01*
X155266061Y-87203911D01*
X155268560Y-87197333D01*
X155276829Y-87138500D01*
X155292629Y-87026079D01*
X155292629Y-87026073D01*
X155293180Y-87022156D01*
X155293396Y-87006695D01*
X171037251Y-87006695D01*
X171037548Y-87011848D01*
X171037548Y-87011851D01*
X171046377Y-87164976D01*
X171050110Y-87229715D01*
X171051247Y-87234761D01*
X171051248Y-87234767D01*
X171073392Y-87333023D01*
X171099222Y-87447639D01*
X171137461Y-87541811D01*
X171165716Y-87611394D01*
X171183266Y-87654616D01*
X171206410Y-87692383D01*
X171288379Y-87826145D01*
X171299987Y-87845088D01*
X171446250Y-88013938D01*
X171618126Y-88156632D01*
X171811000Y-88269338D01*
X171815825Y-88271180D01*
X171815826Y-88271181D01*
X171871349Y-88292383D01*
X172019692Y-88349030D01*
X172024760Y-88350061D01*
X172024763Y-88350062D01*
X172132017Y-88371883D01*
X172238597Y-88393567D01*
X172243772Y-88393757D01*
X172243774Y-88393757D01*
X172456673Y-88401564D01*
X172456677Y-88401564D01*
X172461837Y-88401753D01*
X172466957Y-88401097D01*
X172466959Y-88401097D01*
X172678288Y-88374025D01*
X172678289Y-88374025D01*
X172683416Y-88373368D01*
X172688366Y-88371883D01*
X172892429Y-88310661D01*
X172892434Y-88310659D01*
X172897384Y-88309174D01*
X173097994Y-88210896D01*
X173279860Y-88081173D01*
X173438096Y-87923489D01*
X173497594Y-87840689D01*
X173565435Y-87746277D01*
X173568453Y-87742077D01*
X173579854Y-87719010D01*
X173665136Y-87546453D01*
X173665137Y-87546451D01*
X173667430Y-87541811D01*
X173707464Y-87410045D01*
X173730865Y-87333023D01*
X173730865Y-87333021D01*
X173732370Y-87328069D01*
X173761529Y-87106590D01*
X173761926Y-87090361D01*
X173763074Y-87043365D01*
X173763074Y-87043361D01*
X173763156Y-87040000D01*
X173744852Y-86817361D01*
X173690431Y-86600702D01*
X173601354Y-86395840D01*
X173527727Y-86282030D01*
X173482822Y-86212617D01*
X173482820Y-86212614D01*
X173480014Y-86208277D01*
X173329670Y-86043051D01*
X173325619Y-86039852D01*
X173325615Y-86039848D01*
X173158414Y-85907800D01*
X173158410Y-85907798D01*
X173154359Y-85904598D01*
X173113053Y-85881796D01*
X173063084Y-85831364D01*
X173048312Y-85761921D01*
X173073428Y-85695516D01*
X173100780Y-85668909D01*
X173144603Y-85637650D01*
X173279860Y-85541173D01*
X173438096Y-85383489D01*
X173478945Y-85326642D01*
X173565435Y-85206277D01*
X173568453Y-85202077D01*
X173667430Y-85001811D01*
X173732370Y-84788069D01*
X173761529Y-84566590D01*
X173763156Y-84500000D01*
X173744852Y-84277361D01*
X173690431Y-84060702D01*
X173601354Y-83855840D01*
X173480014Y-83668277D01*
X173476532Y-83664450D01*
X173332798Y-83506488D01*
X173301746Y-83442642D01*
X173310141Y-83372143D01*
X173355317Y-83317375D01*
X173381761Y-83303706D01*
X173488297Y-83263767D01*
X173496705Y-83260615D01*
X173613261Y-83173261D01*
X173700615Y-83056705D01*
X173751745Y-82920316D01*
X173758500Y-82858134D01*
X173758500Y-81061866D01*
X173751745Y-80999684D01*
X173700615Y-80863295D01*
X173613261Y-80746739D01*
X173496705Y-80659385D01*
X173360316Y-80608255D01*
X173298134Y-80601500D01*
X171501866Y-80601500D01*
X171439684Y-80608255D01*
X171303295Y-80659385D01*
X171186739Y-80746739D01*
X171099385Y-80863295D01*
X171048255Y-80999684D01*
X171041500Y-81061866D01*
X171041500Y-82858134D01*
X171048255Y-82920316D01*
X171099385Y-83056705D01*
X171186739Y-83173261D01*
X171303295Y-83260615D01*
X171311704Y-83263767D01*
X171311705Y-83263768D01*
X171420451Y-83304535D01*
X171477216Y-83347176D01*
X171501916Y-83413738D01*
X171486709Y-83483087D01*
X171467316Y-83509568D01*
X171384784Y-83595933D01*
X171340629Y-83642138D01*
X171214743Y-83826680D01*
X171120688Y-84029305D01*
X171060989Y-84244570D01*
X171037251Y-84466695D01*
X171037548Y-84471848D01*
X171037548Y-84471851D01*
X171043011Y-84566590D01*
X171050110Y-84689715D01*
X171051247Y-84694761D01*
X171051248Y-84694767D01*
X171071119Y-84782939D01*
X171099222Y-84907639D01*
X171183266Y-85114616D01*
X171299987Y-85305088D01*
X171446250Y-85473938D01*
X171618126Y-85616632D01*
X171688595Y-85657811D01*
X171691445Y-85659476D01*
X171740169Y-85711114D01*
X171753240Y-85780897D01*
X171726509Y-85846669D01*
X171686055Y-85880027D01*
X171673607Y-85886507D01*
X171669474Y-85889610D01*
X171669471Y-85889612D01*
X171628456Y-85920407D01*
X171494965Y-86020635D01*
X171340629Y-86182138D01*
X171337715Y-86186410D01*
X171337714Y-86186411D01*
X171308090Y-86229838D01*
X171214743Y-86366680D01*
X171120688Y-86569305D01*
X171060989Y-86784570D01*
X171037251Y-87006695D01*
X155293396Y-87006695D01*
X155293434Y-87003962D01*
X155293434Y-87003958D01*
X155293489Y-87000000D01*
X155273770Y-86824204D01*
X155266873Y-86804397D01*
X155217912Y-86663802D01*
X155215594Y-86657145D01*
X155121852Y-86507126D01*
X155054057Y-86438856D01*
X155002166Y-86386601D01*
X155002162Y-86386598D01*
X154997203Y-86381604D01*
X154981085Y-86371375D01*
X154853797Y-86290595D01*
X154853793Y-86290593D01*
X154847843Y-86286817D01*
X154803514Y-86271032D01*
X154687829Y-86229838D01*
X154687824Y-86229837D01*
X154681194Y-86227476D01*
X154674206Y-86226643D01*
X154674203Y-86226642D01*
X154576922Y-86215042D01*
X154505540Y-86206530D01*
X154498537Y-86207266D01*
X154498536Y-86207266D01*
X154450862Y-86212277D01*
X154329610Y-86225021D01*
X154322944Y-86227290D01*
X154322941Y-86227291D01*
X154168816Y-86279760D01*
X154168813Y-86279761D01*
X154162149Y-86282030D01*
X154011479Y-86374722D01*
X153885090Y-86498492D01*
X153789263Y-86647187D01*
X153786854Y-86653807D01*
X153786853Y-86653808D01*
X153732043Y-86804397D01*
X153728760Y-86813417D01*
X153706588Y-86988921D01*
X151283797Y-86988921D01*
X151292629Y-86926079D01*
X151292629Y-86926073D01*
X151293180Y-86922156D01*
X151293489Y-86900000D01*
X151273770Y-86724204D01*
X151215594Y-86557145D01*
X151121852Y-86407126D01*
X151012823Y-86297333D01*
X151002166Y-86286601D01*
X151002162Y-86286598D01*
X150997203Y-86281604D01*
X150981537Y-86271662D01*
X150853797Y-86190595D01*
X150853793Y-86190593D01*
X150847843Y-86186817D01*
X150818269Y-86176286D01*
X150687829Y-86129838D01*
X150687824Y-86129837D01*
X150681194Y-86127476D01*
X150674206Y-86126643D01*
X150674203Y-86126642D01*
X150576922Y-86115042D01*
X150505540Y-86106530D01*
X150498537Y-86107266D01*
X150498536Y-86107266D01*
X150450862Y-86112277D01*
X150329610Y-86125021D01*
X150322944Y-86127290D01*
X150322941Y-86127291D01*
X150168816Y-86179760D01*
X150168813Y-86179761D01*
X150162149Y-86182030D01*
X150011479Y-86274722D01*
X149999349Y-86286601D01*
X149897233Y-86386601D01*
X149885090Y-86398492D01*
X149789263Y-86547187D01*
X149786854Y-86553807D01*
X149786853Y-86553808D01*
X149781213Y-86569305D01*
X149728760Y-86713417D01*
X149706588Y-86888921D01*
X144604470Y-86888921D01*
X144602166Y-86886601D01*
X144602162Y-86886598D01*
X144597203Y-86881604D01*
X144586359Y-86874722D01*
X144453797Y-86790595D01*
X144453793Y-86790593D01*
X144447843Y-86786817D01*
X144398939Y-86769403D01*
X144287829Y-86729838D01*
X144287824Y-86729837D01*
X144281194Y-86727476D01*
X144274206Y-86726643D01*
X144274203Y-86726642D01*
X144176922Y-86715042D01*
X144105540Y-86706530D01*
X144098537Y-86707266D01*
X144098536Y-86707266D01*
X144059262Y-86711394D01*
X143929610Y-86725021D01*
X143922944Y-86727290D01*
X143922941Y-86727291D01*
X143768816Y-86779760D01*
X143768813Y-86779761D01*
X143762149Y-86782030D01*
X143611479Y-86874722D01*
X143567086Y-86918195D01*
X143494864Y-86988921D01*
X143485090Y-86998492D01*
X143389263Y-87147187D01*
X143386854Y-87153807D01*
X143386853Y-87153808D01*
X143359225Y-87229715D01*
X143328760Y-87313417D01*
X143306588Y-87488921D01*
X125508500Y-87488921D01*
X125508500Y-86250000D01*
X127106606Y-86250000D01*
X127107296Y-86256565D01*
X127122836Y-86404412D01*
X127126129Y-86435747D01*
X127128169Y-86442025D01*
X127128169Y-86442026D01*
X127149321Y-86507126D01*
X127183844Y-86613376D01*
X127187147Y-86619098D01*
X127187148Y-86619099D01*
X127242662Y-86715252D01*
X127277229Y-86775124D01*
X127281647Y-86780031D01*
X127281648Y-86780032D01*
X127386123Y-86896062D01*
X127402203Y-86913921D01*
X127407542Y-86917800D01*
X127538711Y-87013100D01*
X127553303Y-87023702D01*
X127559331Y-87026386D01*
X127559333Y-87026387D01*
X127646006Y-87064976D01*
X127723926Y-87099668D01*
X127815270Y-87119084D01*
X127900158Y-87137128D01*
X127900163Y-87137128D01*
X127906615Y-87138500D01*
X128093385Y-87138500D01*
X128099837Y-87137128D01*
X128099842Y-87137128D01*
X128184730Y-87119084D01*
X128276074Y-87099668D01*
X128353994Y-87064976D01*
X128440667Y-87026387D01*
X128440669Y-87026386D01*
X128446697Y-87023702D01*
X128461290Y-87013100D01*
X128592458Y-86917800D01*
X128597797Y-86913921D01*
X128613878Y-86896062D01*
X128718352Y-86780032D01*
X128718353Y-86780031D01*
X128722771Y-86775124D01*
X128757338Y-86715252D01*
X128812852Y-86619099D01*
X128812853Y-86619098D01*
X128816156Y-86613376D01*
X128850679Y-86507126D01*
X128871831Y-86442026D01*
X128871831Y-86442025D01*
X128873871Y-86435747D01*
X128877165Y-86404412D01*
X128892704Y-86256565D01*
X128893394Y-86250000D01*
X132606606Y-86250000D01*
X132607296Y-86256565D01*
X132622836Y-86404412D01*
X132626129Y-86435747D01*
X132628169Y-86442025D01*
X132628169Y-86442026D01*
X132649321Y-86507126D01*
X132683844Y-86613376D01*
X132687147Y-86619098D01*
X132687148Y-86619099D01*
X132742662Y-86715252D01*
X132777229Y-86775124D01*
X132781647Y-86780031D01*
X132781648Y-86780032D01*
X132886123Y-86896062D01*
X132902203Y-86913921D01*
X132907542Y-86917800D01*
X133038711Y-87013100D01*
X133053303Y-87023702D01*
X133059331Y-87026386D01*
X133059333Y-87026387D01*
X133146006Y-87064976D01*
X133223926Y-87099668D01*
X133315270Y-87119084D01*
X133400158Y-87137128D01*
X133400163Y-87137128D01*
X133406615Y-87138500D01*
X133593385Y-87138500D01*
X133599837Y-87137128D01*
X133599842Y-87137128D01*
X133684730Y-87119084D01*
X133776074Y-87099668D01*
X133853994Y-87064976D01*
X133940667Y-87026387D01*
X133940669Y-87026386D01*
X133946697Y-87023702D01*
X133961290Y-87013100D01*
X134092458Y-86917800D01*
X134097797Y-86913921D01*
X134113878Y-86896062D01*
X134218352Y-86780032D01*
X134218353Y-86780031D01*
X134222771Y-86775124D01*
X134257338Y-86715252D01*
X134312852Y-86619099D01*
X134312853Y-86619098D01*
X134316156Y-86613376D01*
X134350679Y-86507126D01*
X134371831Y-86442026D01*
X134371831Y-86442025D01*
X134373871Y-86435747D01*
X134377165Y-86404412D01*
X134392704Y-86256565D01*
X134393394Y-86250000D01*
X134376464Y-86088921D01*
X157806588Y-86088921D01*
X157823851Y-86264976D01*
X157826075Y-86271661D01*
X157826075Y-86271662D01*
X157832295Y-86290361D01*
X157879689Y-86432831D01*
X157883338Y-86438856D01*
X157962341Y-86569305D01*
X157971327Y-86584143D01*
X157976218Y-86589208D01*
X157976219Y-86589209D01*
X157993487Y-86607091D01*
X158094211Y-86711394D01*
X158242234Y-86808257D01*
X158408038Y-86869919D01*
X158415019Y-86870850D01*
X158415021Y-86870851D01*
X158463221Y-86877282D01*
X158583382Y-86893315D01*
X158590393Y-86892677D01*
X158590397Y-86892677D01*
X158752532Y-86877921D01*
X158759553Y-86877282D01*
X158766255Y-86875104D01*
X158766257Y-86875104D01*
X158921095Y-86824794D01*
X158921098Y-86824793D01*
X158927794Y-86822617D01*
X158945031Y-86812342D01*
X159073691Y-86735646D01*
X159073693Y-86735645D01*
X159079743Y-86732038D01*
X159207848Y-86610045D01*
X159305742Y-86462702D01*
X159340564Y-86371032D01*
X159366060Y-86303916D01*
X159366061Y-86303911D01*
X159368560Y-86297333D01*
X159372168Y-86271662D01*
X159392629Y-86126079D01*
X159392629Y-86126073D01*
X159393180Y-86122156D01*
X159393489Y-86100000D01*
X159373770Y-85924204D01*
X159366943Y-85904598D01*
X159347893Y-85849897D01*
X159315594Y-85757145D01*
X159221852Y-85607126D01*
X159152739Y-85537529D01*
X159102166Y-85486601D01*
X159102162Y-85486598D01*
X159097203Y-85481604D01*
X159091255Y-85477829D01*
X158953797Y-85390595D01*
X158953793Y-85390593D01*
X158947843Y-85386817D01*
X158876745Y-85361500D01*
X158787829Y-85329838D01*
X158787824Y-85329837D01*
X158781194Y-85327476D01*
X158774206Y-85326643D01*
X158774203Y-85326642D01*
X158676922Y-85315042D01*
X158605540Y-85306530D01*
X158598537Y-85307266D01*
X158598536Y-85307266D01*
X158550862Y-85312277D01*
X158429610Y-85325021D01*
X158422944Y-85327290D01*
X158422941Y-85327291D01*
X158268816Y-85379760D01*
X158268813Y-85379761D01*
X158262149Y-85382030D01*
X158111479Y-85474722D01*
X158099349Y-85486601D01*
X157997766Y-85586079D01*
X157985090Y-85598492D01*
X157889263Y-85747187D01*
X157886854Y-85753807D01*
X157886853Y-85753808D01*
X157831970Y-85904598D01*
X157828760Y-85913417D01*
X157806588Y-86088921D01*
X134376464Y-86088921D01*
X134373871Y-86064253D01*
X134316156Y-85886624D01*
X134222771Y-85724876D01*
X134172378Y-85668909D01*
X134102212Y-85590982D01*
X134102210Y-85590981D01*
X134097797Y-85586079D01*
X134040116Y-85544171D01*
X133952039Y-85480179D01*
X133952038Y-85480178D01*
X133946697Y-85476298D01*
X133940669Y-85473614D01*
X133940667Y-85473613D01*
X133782105Y-85403017D01*
X133782104Y-85403017D01*
X133776074Y-85400332D01*
X133677089Y-85379292D01*
X133599842Y-85362872D01*
X133599837Y-85362872D01*
X133593385Y-85361500D01*
X133406615Y-85361500D01*
X133400163Y-85362872D01*
X133400158Y-85362872D01*
X133322911Y-85379292D01*
X133223926Y-85400332D01*
X133217896Y-85403017D01*
X133217895Y-85403017D01*
X133059333Y-85473613D01*
X133059331Y-85473614D01*
X133053303Y-85476298D01*
X133047962Y-85480178D01*
X133047961Y-85480179D01*
X132959884Y-85544171D01*
X132902203Y-85586079D01*
X132897790Y-85590981D01*
X132897788Y-85590982D01*
X132827622Y-85668909D01*
X132777229Y-85724876D01*
X132683844Y-85886624D01*
X132626129Y-86064253D01*
X132606606Y-86250000D01*
X128893394Y-86250000D01*
X128873871Y-86064253D01*
X128816156Y-85886624D01*
X128722771Y-85724876D01*
X128672378Y-85668909D01*
X128602212Y-85590982D01*
X128602210Y-85590981D01*
X128597797Y-85586079D01*
X128540116Y-85544171D01*
X128452039Y-85480179D01*
X128452038Y-85480178D01*
X128446697Y-85476298D01*
X128440669Y-85473614D01*
X128440667Y-85473613D01*
X128282105Y-85403017D01*
X128282104Y-85403017D01*
X128276074Y-85400332D01*
X128177089Y-85379292D01*
X128099842Y-85362872D01*
X128099837Y-85362872D01*
X128093385Y-85361500D01*
X127906615Y-85361500D01*
X127900163Y-85362872D01*
X127900158Y-85362872D01*
X127822911Y-85379292D01*
X127723926Y-85400332D01*
X127717896Y-85403017D01*
X127717895Y-85403017D01*
X127559333Y-85473613D01*
X127559331Y-85473614D01*
X127553303Y-85476298D01*
X127547962Y-85480178D01*
X127547961Y-85480179D01*
X127459884Y-85544171D01*
X127402203Y-85586079D01*
X127397790Y-85590981D01*
X127397788Y-85590982D01*
X127327622Y-85668909D01*
X127277229Y-85724876D01*
X127183844Y-85886624D01*
X127126129Y-86064253D01*
X127106606Y-86250000D01*
X125508500Y-86250000D01*
X125508500Y-83588921D01*
X151706588Y-83588921D01*
X151723851Y-83764976D01*
X151779689Y-83932831D01*
X151783338Y-83938856D01*
X151860170Y-84065720D01*
X151871327Y-84084143D01*
X151876218Y-84089208D01*
X151876219Y-84089209D01*
X151896340Y-84110045D01*
X151994211Y-84211394D01*
X152142234Y-84308257D01*
X152308038Y-84369919D01*
X152315019Y-84370850D01*
X152315021Y-84370851D01*
X152363221Y-84377282D01*
X152483382Y-84393315D01*
X152490393Y-84392677D01*
X152490397Y-84392677D01*
X152652532Y-84377921D01*
X152659553Y-84377282D01*
X152666255Y-84375104D01*
X152666257Y-84375104D01*
X152821095Y-84324794D01*
X152821098Y-84324793D01*
X152827794Y-84322617D01*
X152833845Y-84319010D01*
X152973691Y-84235646D01*
X152973693Y-84235645D01*
X152979743Y-84232038D01*
X153107848Y-84110045D01*
X153205742Y-83962702D01*
X153255629Y-83831375D01*
X153266060Y-83803916D01*
X153266061Y-83803911D01*
X153268560Y-83797333D01*
X153293180Y-83622156D01*
X153293489Y-83600000D01*
X153273770Y-83424204D01*
X153270126Y-83413738D01*
X153217912Y-83263802D01*
X153215594Y-83257145D01*
X153121852Y-83107126D01*
X153059264Y-83044099D01*
X153002166Y-82986601D01*
X153002162Y-82986598D01*
X152997203Y-82981604D01*
X152986359Y-82974722D01*
X152853797Y-82890595D01*
X152853793Y-82890593D01*
X152847843Y-82886817D01*
X152757696Y-82854717D01*
X152687829Y-82829838D01*
X152687824Y-82829837D01*
X152681194Y-82827476D01*
X152674206Y-82826643D01*
X152674203Y-82826642D01*
X152576922Y-82815042D01*
X152505540Y-82806530D01*
X152498537Y-82807266D01*
X152498536Y-82807266D01*
X152450862Y-82812277D01*
X152329610Y-82825021D01*
X152322944Y-82827290D01*
X152322941Y-82827291D01*
X152168816Y-82879760D01*
X152168813Y-82879761D01*
X152162149Y-82882030D01*
X152011479Y-82974722D01*
X151885090Y-83098492D01*
X151789263Y-83247187D01*
X151786854Y-83253807D01*
X151786853Y-83253808D01*
X151741949Y-83377180D01*
X151728760Y-83413417D01*
X151706588Y-83588921D01*
X125508500Y-83588921D01*
X125508500Y-82738921D01*
X162206588Y-82738921D01*
X162223851Y-82914976D01*
X162279689Y-83082831D01*
X162371327Y-83234143D01*
X162376218Y-83239208D01*
X162376219Y-83239209D01*
X162399934Y-83263767D01*
X162494211Y-83361394D01*
X162642234Y-83458257D01*
X162808038Y-83519919D01*
X162815019Y-83520850D01*
X162815021Y-83520851D01*
X162863221Y-83527282D01*
X162983382Y-83543315D01*
X162990393Y-83542677D01*
X162990397Y-83542677D01*
X163152532Y-83527921D01*
X163159553Y-83527282D01*
X163166255Y-83525104D01*
X163166257Y-83525104D01*
X163321095Y-83474794D01*
X163321098Y-83474793D01*
X163327794Y-83472617D01*
X163333845Y-83469010D01*
X163473691Y-83385646D01*
X163473693Y-83385645D01*
X163479743Y-83382038D01*
X163607848Y-83260045D01*
X163705742Y-83112702D01*
X163734747Y-83036345D01*
X163766060Y-82953916D01*
X163766061Y-82953911D01*
X163768560Y-82947333D01*
X163780619Y-82861531D01*
X163792629Y-82776079D01*
X163792629Y-82776073D01*
X163793180Y-82772156D01*
X163793489Y-82750000D01*
X163773770Y-82574204D01*
X163715594Y-82407145D01*
X163621852Y-82257126D01*
X163559264Y-82194099D01*
X163502166Y-82136601D01*
X163502162Y-82136598D01*
X163497203Y-82131604D01*
X163486359Y-82124722D01*
X163353797Y-82040595D01*
X163353793Y-82040593D01*
X163347843Y-82036817D01*
X163318269Y-82026286D01*
X163187829Y-81979838D01*
X163187824Y-81979837D01*
X163181194Y-81977476D01*
X163174206Y-81976643D01*
X163174203Y-81976642D01*
X163076922Y-81965042D01*
X163005540Y-81956530D01*
X162998537Y-81957266D01*
X162998536Y-81957266D01*
X162950862Y-81962277D01*
X162829610Y-81975021D01*
X162822944Y-81977290D01*
X162822941Y-81977291D01*
X162668816Y-82029760D01*
X162668813Y-82029761D01*
X162662149Y-82032030D01*
X162511479Y-82124722D01*
X162385090Y-82248492D01*
X162289263Y-82397187D01*
X162286854Y-82403807D01*
X162286853Y-82403808D01*
X162231169Y-82556798D01*
X162228760Y-82563417D01*
X162206588Y-82738921D01*
X125508500Y-82738921D01*
X125508500Y-79700000D01*
X148786693Y-79700000D01*
X148805885Y-79919371D01*
X148862880Y-80132076D01*
X148865205Y-80137061D01*
X148953618Y-80326666D01*
X148953621Y-80326671D01*
X148955944Y-80331653D01*
X148959100Y-80336160D01*
X148959101Y-80336162D01*
X149076901Y-80504397D01*
X149082251Y-80512038D01*
X149237962Y-80667749D01*
X149418346Y-80794056D01*
X149617924Y-80887120D01*
X149830629Y-80944115D01*
X150050000Y-80963307D01*
X150269371Y-80944115D01*
X150482076Y-80887120D01*
X150681654Y-80794056D01*
X150862038Y-80667749D01*
X151017749Y-80512038D01*
X151023100Y-80504397D01*
X151140899Y-80336162D01*
X151140900Y-80336160D01*
X151144056Y-80331653D01*
X151146379Y-80326671D01*
X151146382Y-80326666D01*
X151234795Y-80137061D01*
X151237120Y-80132076D01*
X151294115Y-79919371D01*
X151313307Y-79700000D01*
X153666693Y-79700000D01*
X153685885Y-79919371D01*
X153742880Y-80132076D01*
X153745205Y-80137061D01*
X153833618Y-80326666D01*
X153833621Y-80326671D01*
X153835944Y-80331653D01*
X153839100Y-80336160D01*
X153839101Y-80336162D01*
X153956901Y-80504397D01*
X153962251Y-80512038D01*
X154117962Y-80667749D01*
X154298346Y-80794056D01*
X154497924Y-80887120D01*
X154710629Y-80944115D01*
X154930000Y-80963307D01*
X155149371Y-80944115D01*
X155362076Y-80887120D01*
X155561654Y-80794056D01*
X155742038Y-80667749D01*
X155897749Y-80512038D01*
X155903100Y-80504397D01*
X156020899Y-80336162D01*
X156020900Y-80336160D01*
X156024056Y-80331653D01*
X156026379Y-80326671D01*
X156026382Y-80326666D01*
X156114795Y-80137061D01*
X156117120Y-80132076D01*
X156174115Y-79919371D01*
X156185528Y-79788921D01*
X164006588Y-79788921D01*
X164023851Y-79964976D01*
X164026075Y-79971661D01*
X164026075Y-79971662D01*
X164051770Y-80048904D01*
X164079689Y-80132831D01*
X164171327Y-80284143D01*
X164176218Y-80289208D01*
X164176219Y-80289209D01*
X164221561Y-80336162D01*
X164294211Y-80411394D01*
X164442234Y-80508257D01*
X164608038Y-80569919D01*
X164615019Y-80570850D01*
X164615021Y-80570851D01*
X164663221Y-80577282D01*
X164783382Y-80593315D01*
X164790393Y-80592677D01*
X164790397Y-80592677D01*
X164952532Y-80577921D01*
X164959553Y-80577282D01*
X164966255Y-80575104D01*
X164966257Y-80575104D01*
X165121095Y-80524794D01*
X165121098Y-80524793D01*
X165127794Y-80522617D01*
X165145541Y-80512038D01*
X165273691Y-80435646D01*
X165273693Y-80435645D01*
X165279743Y-80432038D01*
X165407848Y-80310045D01*
X165505742Y-80162702D01*
X165535989Y-80083076D01*
X165566060Y-80003916D01*
X165566061Y-80003911D01*
X165568560Y-79997333D01*
X165593180Y-79822156D01*
X165593489Y-79800000D01*
X165573770Y-79624204D01*
X165515594Y-79457145D01*
X165421852Y-79307126D01*
X165316403Y-79200938D01*
X165302166Y-79186601D01*
X165302162Y-79186598D01*
X165297203Y-79181604D01*
X165286359Y-79174722D01*
X165153797Y-79090595D01*
X165153793Y-79090593D01*
X165147843Y-79086817D01*
X165095973Y-79068347D01*
X164987829Y-79029838D01*
X164987824Y-79029837D01*
X164981194Y-79027476D01*
X164974206Y-79026643D01*
X164974203Y-79026642D01*
X164876922Y-79015042D01*
X164805540Y-79006530D01*
X164798537Y-79007266D01*
X164798536Y-79007266D01*
X164750862Y-79012277D01*
X164629610Y-79025021D01*
X164622944Y-79027290D01*
X164622941Y-79027291D01*
X164468816Y-79079760D01*
X164468813Y-79079761D01*
X164462149Y-79082030D01*
X164311479Y-79174722D01*
X164185090Y-79298492D01*
X164089263Y-79447187D01*
X164086854Y-79453807D01*
X164086853Y-79453808D01*
X164031169Y-79606798D01*
X164028760Y-79613417D01*
X164006588Y-79788921D01*
X156185528Y-79788921D01*
X156193307Y-79700000D01*
X156174115Y-79480629D01*
X156117120Y-79267924D01*
X156071939Y-79171032D01*
X156026382Y-79073334D01*
X156026379Y-79073329D01*
X156024056Y-79068347D01*
X155995438Y-79027476D01*
X155900908Y-78892473D01*
X155900906Y-78892470D01*
X155897749Y-78887962D01*
X155742038Y-78732251D01*
X155681474Y-78689843D01*
X155662759Y-78676739D01*
X155561654Y-78605944D01*
X155362076Y-78512880D01*
X155149371Y-78455885D01*
X154930000Y-78436693D01*
X154710629Y-78455885D01*
X154497924Y-78512880D01*
X154404562Y-78556415D01*
X154303334Y-78603618D01*
X154303329Y-78603621D01*
X154298347Y-78605944D01*
X154293840Y-78609100D01*
X154293838Y-78609101D01*
X154122473Y-78729092D01*
X154122470Y-78729094D01*
X154117962Y-78732251D01*
X153962251Y-78887962D01*
X153959094Y-78892470D01*
X153959092Y-78892473D01*
X153864562Y-79027476D01*
X153835944Y-79068347D01*
X153833621Y-79073329D01*
X153833618Y-79073334D01*
X153788061Y-79171032D01*
X153742880Y-79267924D01*
X153685885Y-79480629D01*
X153666693Y-79700000D01*
X151313307Y-79700000D01*
X151294115Y-79480629D01*
X151237120Y-79267924D01*
X151191939Y-79171032D01*
X151146382Y-79073334D01*
X151146379Y-79073329D01*
X151144056Y-79068347D01*
X151115438Y-79027476D01*
X151020908Y-78892473D01*
X151020906Y-78892470D01*
X151017749Y-78887962D01*
X150862038Y-78732251D01*
X150801474Y-78689843D01*
X150782759Y-78676739D01*
X150681654Y-78605944D01*
X150482076Y-78512880D01*
X150269371Y-78455885D01*
X150050000Y-78436693D01*
X149830629Y-78455885D01*
X149617924Y-78512880D01*
X149524562Y-78556415D01*
X149423334Y-78603618D01*
X149423329Y-78603621D01*
X149418347Y-78605944D01*
X149413840Y-78609100D01*
X149413838Y-78609101D01*
X149242473Y-78729092D01*
X149242470Y-78729094D01*
X149237962Y-78732251D01*
X149082251Y-78887962D01*
X149079094Y-78892470D01*
X149079092Y-78892473D01*
X148984562Y-79027476D01*
X148955944Y-79068347D01*
X148953621Y-79073329D01*
X148953618Y-79073334D01*
X148908061Y-79171032D01*
X148862880Y-79267924D01*
X148805885Y-79480629D01*
X148786693Y-79700000D01*
X125508500Y-79700000D01*
X125508500Y-77820000D01*
X167469154Y-77820000D01*
X167488517Y-78115426D01*
X167546276Y-78405797D01*
X167547603Y-78409706D01*
X167547604Y-78409710D01*
X167615288Y-78609101D01*
X167641441Y-78686145D01*
X167772385Y-78951673D01*
X167811756Y-79010595D01*
X167929359Y-79186601D01*
X167936867Y-79197838D01*
X167939581Y-79200932D01*
X167939585Y-79200938D01*
X168025138Y-79298492D01*
X168132073Y-79420427D01*
X168135162Y-79423136D01*
X168351562Y-79612915D01*
X168351568Y-79612919D01*
X168354662Y-79615633D01*
X168358088Y-79617922D01*
X168358093Y-79617926D01*
X168367489Y-79624204D01*
X168600827Y-79780115D01*
X168604526Y-79781939D01*
X168604531Y-79781942D01*
X168740813Y-79849148D01*
X168866355Y-79911059D01*
X168870260Y-79912384D01*
X168870261Y-79912385D01*
X169142790Y-80004896D01*
X169142794Y-80004897D01*
X169146703Y-80006224D01*
X169150747Y-80007028D01*
X169150753Y-80007030D01*
X169433035Y-80063180D01*
X169433041Y-80063181D01*
X169437074Y-80063983D01*
X169441179Y-80064252D01*
X169441186Y-80064253D01*
X169728381Y-80083076D01*
X169732500Y-80083346D01*
X169736619Y-80083076D01*
X170023814Y-80064253D01*
X170023821Y-80064252D01*
X170027926Y-80063983D01*
X170031959Y-80063181D01*
X170031965Y-80063180D01*
X170314247Y-80007030D01*
X170314253Y-80007028D01*
X170318297Y-80006224D01*
X170322206Y-80004897D01*
X170322210Y-80004896D01*
X170594739Y-79912385D01*
X170594740Y-79912384D01*
X170598645Y-79911059D01*
X170724187Y-79849148D01*
X170860469Y-79781942D01*
X170860474Y-79781939D01*
X170864173Y-79780115D01*
X171097511Y-79624204D01*
X171106907Y-79617926D01*
X171106912Y-79617922D01*
X171110338Y-79615633D01*
X171113432Y-79612919D01*
X171113438Y-79612915D01*
X171329838Y-79423136D01*
X171332927Y-79420427D01*
X171439862Y-79298492D01*
X171525415Y-79200938D01*
X171525419Y-79200932D01*
X171528133Y-79197838D01*
X171535642Y-79186601D01*
X171653244Y-79010595D01*
X171692615Y-78951673D01*
X171823559Y-78686145D01*
X171849712Y-78609101D01*
X171917396Y-78409710D01*
X171917397Y-78409706D01*
X171918724Y-78405797D01*
X171976483Y-78115426D01*
X171995846Y-77820000D01*
X171976483Y-77524574D01*
X171918724Y-77234203D01*
X171823559Y-76953855D01*
X171692615Y-76688327D01*
X171528133Y-76442162D01*
X171525419Y-76439068D01*
X171525415Y-76439062D01*
X171335636Y-76222662D01*
X171332927Y-76219573D01*
X171329838Y-76216864D01*
X171113438Y-76027085D01*
X171113432Y-76027081D01*
X171110338Y-76024367D01*
X171106912Y-76022078D01*
X171106907Y-76022074D01*
X170867606Y-75862179D01*
X170864173Y-75859885D01*
X170860474Y-75858061D01*
X170860469Y-75858058D01*
X170673081Y-75765649D01*
X170598645Y-75728941D01*
X170594739Y-75727615D01*
X170322210Y-75635104D01*
X170322206Y-75635103D01*
X170318297Y-75633776D01*
X170314253Y-75632972D01*
X170314247Y-75632970D01*
X170031965Y-75576820D01*
X170031959Y-75576819D01*
X170027926Y-75576017D01*
X170023821Y-75575748D01*
X170023814Y-75575747D01*
X169736619Y-75556924D01*
X169732500Y-75556654D01*
X169728381Y-75556924D01*
X169441186Y-75575747D01*
X169441179Y-75575748D01*
X169437074Y-75576017D01*
X169433041Y-75576819D01*
X169433035Y-75576820D01*
X169150753Y-75632970D01*
X169150747Y-75632972D01*
X169146703Y-75633776D01*
X169142794Y-75635103D01*
X169142790Y-75635104D01*
X168870261Y-75727615D01*
X168866355Y-75728941D01*
X168791919Y-75765649D01*
X168604531Y-75858058D01*
X168604526Y-75858061D01*
X168600827Y-75859885D01*
X168597394Y-75862179D01*
X168358093Y-76022074D01*
X168358088Y-76022078D01*
X168354662Y-76024367D01*
X168351568Y-76027081D01*
X168351562Y-76027085D01*
X168332080Y-76044171D01*
X168301674Y-76058277D01*
X168296742Y-76071521D01*
X168278910Y-76090800D01*
X168132073Y-76219573D01*
X168129364Y-76222662D01*
X167939585Y-76439062D01*
X167939581Y-76439068D01*
X167936867Y-76442162D01*
X167772385Y-76688327D01*
X167641441Y-76953855D01*
X167546276Y-77234203D01*
X167488517Y-77524574D01*
X167469154Y-77820000D01*
X125508500Y-77820000D01*
X125508500Y-75556669D01*
X165752501Y-75556669D01*
X165752871Y-75563490D01*
X165758395Y-75614352D01*
X165762021Y-75629604D01*
X165807176Y-75750054D01*
X165815714Y-75765649D01*
X165892215Y-75867724D01*
X165904776Y-75880285D01*
X166006851Y-75956786D01*
X166022446Y-75965324D01*
X166142894Y-76010478D01*
X166158149Y-76014105D01*
X166209014Y-76019631D01*
X166215828Y-76020000D01*
X166679385Y-76020000D01*
X166694624Y-76015525D01*
X166695829Y-76014135D01*
X166697500Y-76006452D01*
X166697500Y-76001884D01*
X167347500Y-76001884D01*
X167351975Y-76017123D01*
X167353365Y-76018328D01*
X167361048Y-76019999D01*
X167829169Y-76019999D01*
X167835990Y-76019629D01*
X167886852Y-76014105D01*
X167902104Y-76010479D01*
X168022554Y-75965324D01*
X168038149Y-75956786D01*
X168120267Y-75895242D01*
X168141008Y-75887493D01*
X168142600Y-75881950D01*
X168148176Y-75873874D01*
X168229286Y-75765649D01*
X168237824Y-75750054D01*
X168282978Y-75629606D01*
X168286605Y-75614351D01*
X168292131Y-75563486D01*
X168292500Y-75556672D01*
X168292500Y-75093115D01*
X168288025Y-75077876D01*
X168286635Y-75076671D01*
X168278952Y-75075000D01*
X167365615Y-75075000D01*
X167350376Y-75079475D01*
X167349171Y-75080865D01*
X167347500Y-75088548D01*
X167347500Y-76001884D01*
X166697500Y-76001884D01*
X166697500Y-75093115D01*
X166693025Y-75077876D01*
X166691635Y-75076671D01*
X166683952Y-75075000D01*
X165770616Y-75075000D01*
X165755377Y-75079475D01*
X165754172Y-75080865D01*
X165752501Y-75088548D01*
X165752501Y-75556669D01*
X125508500Y-75556669D01*
X125508500Y-73406695D01*
X155837251Y-73406695D01*
X155837548Y-73411848D01*
X155837548Y-73411851D01*
X155844630Y-73534676D01*
X155850110Y-73629715D01*
X155851247Y-73634761D01*
X155851248Y-73634767D01*
X155871119Y-73722939D01*
X155899222Y-73847639D01*
X155983266Y-74054616D01*
X156099987Y-74245088D01*
X156246250Y-74413938D01*
X156418126Y-74556632D01*
X156611000Y-74669338D01*
X156819692Y-74749030D01*
X156824760Y-74750061D01*
X156824763Y-74750062D01*
X156932017Y-74771883D01*
X157038597Y-74793567D01*
X157043772Y-74793757D01*
X157043774Y-74793757D01*
X157256673Y-74801564D01*
X157256677Y-74801564D01*
X157261837Y-74801753D01*
X157266957Y-74801097D01*
X157266959Y-74801097D01*
X157478288Y-74774025D01*
X157478289Y-74774025D01*
X157483416Y-74773368D01*
X157488366Y-74771883D01*
X157692429Y-74710661D01*
X157692434Y-74710659D01*
X157697384Y-74709174D01*
X157897994Y-74610896D01*
X158079860Y-74481173D01*
X158137907Y-74423329D01*
X158234435Y-74327137D01*
X158238096Y-74323489D01*
X158297594Y-74240689D01*
X158365435Y-74146277D01*
X158368453Y-74142077D01*
X158467430Y-73941811D01*
X158525723Y-73749946D01*
X158530865Y-73733023D01*
X158530865Y-73733021D01*
X158532370Y-73728069D01*
X158561529Y-73506590D01*
X158561611Y-73503240D01*
X158563074Y-73443365D01*
X158563074Y-73443361D01*
X158563156Y-73440000D01*
X158544852Y-73217361D01*
X158490431Y-73000702D01*
X158401354Y-72795840D01*
X158351123Y-72718195D01*
X158332185Y-72688921D01*
X163006588Y-72688921D01*
X163023851Y-72864976D01*
X163079689Y-73032831D01*
X163171327Y-73184143D01*
X163176218Y-73189208D01*
X163176219Y-73189209D01*
X163196340Y-73210045D01*
X163294211Y-73311394D01*
X163442234Y-73408257D01*
X163608038Y-73469919D01*
X163615019Y-73470850D01*
X163615021Y-73470851D01*
X163663221Y-73477282D01*
X163783382Y-73493315D01*
X163790393Y-73492677D01*
X163790397Y-73492677D01*
X163952532Y-73477921D01*
X163959553Y-73477282D01*
X163966255Y-73475104D01*
X163966257Y-73475104D01*
X164121095Y-73424794D01*
X164121098Y-73424793D01*
X164127794Y-73422617D01*
X164145854Y-73411851D01*
X164273691Y-73335646D01*
X164273693Y-73335645D01*
X164279743Y-73332038D01*
X164407848Y-73210045D01*
X164505742Y-73062702D01*
X164543004Y-72964610D01*
X164566060Y-72903916D01*
X164566061Y-72903911D01*
X164568560Y-72897333D01*
X164569540Y-72890361D01*
X164592629Y-72726079D01*
X164592629Y-72726073D01*
X164593180Y-72722156D01*
X164593489Y-72700000D01*
X164573770Y-72524204D01*
X164515594Y-72357145D01*
X164448643Y-72250000D01*
X165747147Y-72250000D01*
X165766522Y-72471463D01*
X165804344Y-72612617D01*
X165816778Y-72659018D01*
X165824060Y-72686196D01*
X165826382Y-72691177D01*
X165826383Y-72691178D01*
X165915686Y-72882689D01*
X165915689Y-72882694D01*
X165918012Y-72887676D01*
X165921168Y-72892183D01*
X165921169Y-72892185D01*
X166014969Y-73026145D01*
X166045523Y-73069781D01*
X166202719Y-73226977D01*
X166207228Y-73230134D01*
X166207235Y-73230140D01*
X166242248Y-73254656D01*
X166286577Y-73310113D01*
X166293886Y-73380732D01*
X166261856Y-73444092D01*
X166200655Y-73480078D01*
X166183584Y-73483132D01*
X166158148Y-73485895D01*
X166142896Y-73489521D01*
X166022446Y-73534676D01*
X166006851Y-73543214D01*
X165904776Y-73619715D01*
X165892215Y-73632276D01*
X165815714Y-73734351D01*
X165807176Y-73749946D01*
X165762022Y-73870394D01*
X165758395Y-73885649D01*
X165752869Y-73936514D01*
X165752500Y-73943328D01*
X165752500Y-74406885D01*
X165756975Y-74422124D01*
X165758365Y-74423329D01*
X165766048Y-74425000D01*
X168274384Y-74425000D01*
X168289623Y-74420525D01*
X168290828Y-74419135D01*
X168292499Y-74411452D01*
X168292499Y-73943331D01*
X168292129Y-73936510D01*
X168286605Y-73885648D01*
X168282979Y-73870396D01*
X168237824Y-73749946D01*
X168229286Y-73734351D01*
X168152785Y-73632276D01*
X168140224Y-73619715D01*
X168038149Y-73543214D01*
X168022554Y-73534676D01*
X167902106Y-73489522D01*
X167886851Y-73485895D01*
X167861414Y-73483131D01*
X167795852Y-73455888D01*
X167755426Y-73397525D01*
X167752972Y-73326571D01*
X167789268Y-73265553D01*
X167802751Y-73254656D01*
X167842281Y-73226977D01*
X167999477Y-73069781D01*
X168030032Y-73026145D01*
X168123831Y-72892185D01*
X168123832Y-72892183D01*
X168126988Y-72887676D01*
X168129311Y-72882694D01*
X168129314Y-72882689D01*
X168218617Y-72691178D01*
X168218618Y-72691177D01*
X168220940Y-72686196D01*
X168228223Y-72659018D01*
X168240656Y-72612617D01*
X168278478Y-72471463D01*
X168297853Y-72250000D01*
X168278478Y-72028537D01*
X168220940Y-71813804D01*
X168218617Y-71808822D01*
X168129314Y-71617311D01*
X168129311Y-71617306D01*
X168126988Y-71612324D01*
X168061656Y-71519020D01*
X168002636Y-71434730D01*
X168002634Y-71434727D01*
X167999477Y-71430219D01*
X167908353Y-71339095D01*
X167874327Y-71276783D01*
X167879392Y-71205968D01*
X167908353Y-71160905D01*
X167999477Y-71069781D01*
X168027310Y-71030032D01*
X168123831Y-70892185D01*
X168123832Y-70892183D01*
X168126988Y-70887676D01*
X168129311Y-70882694D01*
X168129314Y-70882689D01*
X168218617Y-70691178D01*
X168218618Y-70691177D01*
X168220940Y-70686196D01*
X168223308Y-70677361D01*
X168270831Y-70500000D01*
X168278478Y-70471463D01*
X168297853Y-70250000D01*
X168278478Y-70028537D01*
X168228667Y-69842642D01*
X168222363Y-69819114D01*
X168222362Y-69819112D01*
X168220940Y-69813804D01*
X168176499Y-69718500D01*
X168129314Y-69617311D01*
X168129311Y-69617306D01*
X168126988Y-69612324D01*
X168099636Y-69573261D01*
X168002636Y-69434730D01*
X168002634Y-69434727D01*
X167999477Y-69430219D01*
X167842281Y-69273023D01*
X167837773Y-69269866D01*
X167837770Y-69269864D01*
X167762005Y-69216813D01*
X167660177Y-69145512D01*
X167655195Y-69143189D01*
X167655190Y-69143186D01*
X167593017Y-69114195D01*
X167539732Y-69067278D01*
X167520271Y-68999001D01*
X167540813Y-68931041D01*
X167593017Y-68885805D01*
X167655190Y-68856814D01*
X167655195Y-68856811D01*
X167660177Y-68854488D01*
X167762005Y-68783187D01*
X167837770Y-68730136D01*
X167837773Y-68730134D01*
X167842281Y-68726977D01*
X167999477Y-68569781D01*
X168126988Y-68387676D01*
X168129311Y-68382694D01*
X168129314Y-68382689D01*
X168218617Y-68191178D01*
X168218618Y-68191177D01*
X168220940Y-68186196D01*
X168278478Y-67971463D01*
X168297853Y-67750000D01*
X168278478Y-67528537D01*
X168220940Y-67313804D01*
X168197387Y-67263295D01*
X168129314Y-67117311D01*
X168129311Y-67117306D01*
X168126988Y-67112324D01*
X168056061Y-67011029D01*
X168002636Y-66934730D01*
X168002634Y-66934727D01*
X167999477Y-66930219D01*
X167842281Y-66773023D01*
X167837773Y-66769866D01*
X167837770Y-66769864D01*
X167762005Y-66716813D01*
X167660177Y-66645512D01*
X167655195Y-66643189D01*
X167655190Y-66643186D01*
X167463678Y-66553883D01*
X167463677Y-66553882D01*
X167458696Y-66551560D01*
X167453388Y-66550138D01*
X167453386Y-66550137D01*
X167387551Y-66532497D01*
X167243963Y-66494022D01*
X167022500Y-66474647D01*
X166801037Y-66494022D01*
X166657449Y-66532497D01*
X166591614Y-66550137D01*
X166591612Y-66550138D01*
X166586304Y-66551560D01*
X166581323Y-66553882D01*
X166581322Y-66553883D01*
X166389811Y-66643186D01*
X166389806Y-66643189D01*
X166384824Y-66645512D01*
X166380317Y-66648668D01*
X166380315Y-66648669D01*
X166207230Y-66769864D01*
X166207227Y-66769866D01*
X166202719Y-66773023D01*
X166045523Y-66930219D01*
X166042366Y-66934727D01*
X166042364Y-66934730D01*
X165988939Y-67011029D01*
X165918012Y-67112324D01*
X165915689Y-67117306D01*
X165915686Y-67117311D01*
X165847613Y-67263295D01*
X165824060Y-67313804D01*
X165766522Y-67528537D01*
X165747147Y-67750000D01*
X165766522Y-67971463D01*
X165824060Y-68186196D01*
X165826382Y-68191177D01*
X165826383Y-68191178D01*
X165915686Y-68382689D01*
X165915689Y-68382694D01*
X165918012Y-68387676D01*
X166045523Y-68569781D01*
X166202719Y-68726977D01*
X166207227Y-68730134D01*
X166207230Y-68730136D01*
X166282995Y-68783187D01*
X166384823Y-68854488D01*
X166389805Y-68856811D01*
X166389810Y-68856814D01*
X166451983Y-68885805D01*
X166505268Y-68932722D01*
X166524729Y-69000999D01*
X166504187Y-69068959D01*
X166451983Y-69114195D01*
X166389811Y-69143186D01*
X166389806Y-69143189D01*
X166384824Y-69145512D01*
X166380317Y-69148668D01*
X166380315Y-69148669D01*
X166207230Y-69269864D01*
X166207227Y-69269866D01*
X166202719Y-69273023D01*
X166045523Y-69430219D01*
X166042366Y-69434727D01*
X166042364Y-69434730D01*
X165945364Y-69573261D01*
X165918012Y-69612324D01*
X165915689Y-69617306D01*
X165915686Y-69617311D01*
X165868501Y-69718500D01*
X165824060Y-69813804D01*
X165822638Y-69819112D01*
X165822637Y-69819114D01*
X165816333Y-69842642D01*
X165766522Y-70028537D01*
X165747147Y-70250000D01*
X165766522Y-70471463D01*
X165774169Y-70500000D01*
X165821693Y-70677361D01*
X165824060Y-70686196D01*
X165826382Y-70691177D01*
X165826383Y-70691178D01*
X165915686Y-70882689D01*
X165915689Y-70882694D01*
X165918012Y-70887676D01*
X165921168Y-70892183D01*
X165921169Y-70892185D01*
X166017691Y-71030032D01*
X166045523Y-71069781D01*
X166136647Y-71160905D01*
X166170673Y-71223217D01*
X166165608Y-71294032D01*
X166136647Y-71339095D01*
X166045523Y-71430219D01*
X166042366Y-71434727D01*
X166042364Y-71434730D01*
X165983344Y-71519020D01*
X165918012Y-71612324D01*
X165915689Y-71617306D01*
X165915686Y-71617311D01*
X165826383Y-71808822D01*
X165824060Y-71813804D01*
X165766522Y-72028537D01*
X165747147Y-72250000D01*
X164448643Y-72250000D01*
X164421852Y-72207126D01*
X164326508Y-72111114D01*
X164302166Y-72086601D01*
X164302162Y-72086598D01*
X164297203Y-72081604D01*
X164286359Y-72074722D01*
X164153797Y-71990595D01*
X164153793Y-71990593D01*
X164147843Y-71986817D01*
X164118269Y-71976286D01*
X163987829Y-71929838D01*
X163987824Y-71929837D01*
X163981194Y-71927476D01*
X163974206Y-71926643D01*
X163974203Y-71926642D01*
X163876922Y-71915042D01*
X163805540Y-71906530D01*
X163798537Y-71907266D01*
X163798536Y-71907266D01*
X163750862Y-71912277D01*
X163629610Y-71925021D01*
X163622944Y-71927290D01*
X163622941Y-71927291D01*
X163468816Y-71979760D01*
X163468813Y-71979761D01*
X163462149Y-71982030D01*
X163311479Y-72074722D01*
X163299349Y-72086601D01*
X163198105Y-72185747D01*
X163185090Y-72198492D01*
X163089263Y-72347187D01*
X163086854Y-72353807D01*
X163086853Y-72353808D01*
X163081288Y-72369099D01*
X163028760Y-72513417D01*
X163006588Y-72688921D01*
X158332185Y-72688921D01*
X158282822Y-72612617D01*
X158282820Y-72612614D01*
X158280014Y-72608277D01*
X158129670Y-72443051D01*
X158125619Y-72439852D01*
X158125615Y-72439848D01*
X157958414Y-72307800D01*
X157958410Y-72307798D01*
X157954359Y-72304598D01*
X157913053Y-72281796D01*
X157863084Y-72231364D01*
X157848312Y-72161921D01*
X157873428Y-72095516D01*
X157900780Y-72068909D01*
X157964828Y-72023224D01*
X158079860Y-71941173D01*
X158113788Y-71907364D01*
X158234435Y-71787137D01*
X158238096Y-71783489D01*
X158297594Y-71700689D01*
X158365435Y-71606277D01*
X158368453Y-71602077D01*
X158467430Y-71401811D01*
X158532370Y-71188069D01*
X158561529Y-70966590D01*
X158563156Y-70900000D01*
X158544852Y-70677361D01*
X158490431Y-70460702D01*
X158401354Y-70255840D01*
X158280014Y-70068277D01*
X158276532Y-70064450D01*
X158132798Y-69906488D01*
X158101746Y-69842642D01*
X158110141Y-69772143D01*
X158155317Y-69717375D01*
X158181761Y-69703706D01*
X158288297Y-69663767D01*
X158296705Y-69660615D01*
X158413261Y-69573261D01*
X158500615Y-69456705D01*
X158551745Y-69320316D01*
X158558500Y-69258134D01*
X158558500Y-67461866D01*
X158551745Y-67399684D01*
X158500615Y-67263295D01*
X158413261Y-67146739D01*
X158296705Y-67059385D01*
X158160316Y-67008255D01*
X158098134Y-67001500D01*
X156301866Y-67001500D01*
X156239684Y-67008255D01*
X156103295Y-67059385D01*
X155986739Y-67146739D01*
X155899385Y-67263295D01*
X155848255Y-67399684D01*
X155841500Y-67461866D01*
X155841500Y-69258134D01*
X155848255Y-69320316D01*
X155899385Y-69456705D01*
X155986739Y-69573261D01*
X156103295Y-69660615D01*
X156111704Y-69663767D01*
X156111705Y-69663768D01*
X156220451Y-69704535D01*
X156277216Y-69747176D01*
X156301916Y-69813738D01*
X156286709Y-69883087D01*
X156267316Y-69909568D01*
X156148391Y-70034016D01*
X156140629Y-70042138D01*
X156014743Y-70226680D01*
X155920688Y-70429305D01*
X155860989Y-70644570D01*
X155837251Y-70866695D01*
X155837548Y-70871848D01*
X155837548Y-70871851D01*
X155848961Y-71069781D01*
X155850110Y-71089715D01*
X155851247Y-71094761D01*
X155851248Y-71094767D01*
X155866833Y-71163921D01*
X155899222Y-71307639D01*
X155983266Y-71514616D01*
X156099987Y-71705088D01*
X156246250Y-71873938D01*
X156418126Y-72016632D01*
X156488595Y-72057811D01*
X156491445Y-72059476D01*
X156540169Y-72111114D01*
X156553240Y-72180897D01*
X156526509Y-72246669D01*
X156486055Y-72280027D01*
X156473607Y-72286507D01*
X156469474Y-72289610D01*
X156469471Y-72289612D01*
X156299100Y-72417530D01*
X156294965Y-72420635D01*
X156140629Y-72582138D01*
X156014743Y-72766680D01*
X155920688Y-72969305D01*
X155860989Y-73184570D01*
X155837251Y-73406695D01*
X125508500Y-73406695D01*
X125508500Y-72000000D01*
X128856606Y-72000000D01*
X128876129Y-72185747D01*
X128878169Y-72192025D01*
X128878169Y-72192026D01*
X128890951Y-72231364D01*
X128933844Y-72363376D01*
X128937147Y-72369098D01*
X128937148Y-72369099D01*
X128977995Y-72439848D01*
X129027229Y-72525124D01*
X129031647Y-72530031D01*
X129031648Y-72530032D01*
X129102101Y-72608277D01*
X129152203Y-72663921D01*
X129157542Y-72667800D01*
X129287749Y-72762401D01*
X129303303Y-72773702D01*
X129309331Y-72776386D01*
X129309333Y-72776387D01*
X129467895Y-72846983D01*
X129473926Y-72849668D01*
X129565270Y-72869084D01*
X129650158Y-72887128D01*
X129650163Y-72887128D01*
X129656615Y-72888500D01*
X129843385Y-72888500D01*
X129849837Y-72887128D01*
X129849842Y-72887128D01*
X129934730Y-72869084D01*
X130026074Y-72849668D01*
X130032105Y-72846983D01*
X130190667Y-72776387D01*
X130190669Y-72776386D01*
X130196697Y-72773702D01*
X130212252Y-72762401D01*
X130342458Y-72667800D01*
X130347797Y-72663921D01*
X130397900Y-72608277D01*
X130468352Y-72530032D01*
X130468353Y-72530031D01*
X130472771Y-72525124D01*
X130522005Y-72439848D01*
X130562852Y-72369099D01*
X130562853Y-72369098D01*
X130566156Y-72363376D01*
X130609049Y-72231364D01*
X130621831Y-72192026D01*
X130621831Y-72192025D01*
X130623871Y-72185747D01*
X130643394Y-72000000D01*
X130642704Y-71993435D01*
X130624561Y-71820817D01*
X130624561Y-71820816D01*
X130623871Y-71814253D01*
X130566156Y-71636624D01*
X130552127Y-71612324D01*
X130476074Y-71480597D01*
X130472771Y-71474876D01*
X130432562Y-71430219D01*
X130347797Y-71336079D01*
X130349539Y-71334510D01*
X130317923Y-71283204D01*
X130319266Y-71212220D01*
X130349386Y-71165352D01*
X130347797Y-71163921D01*
X130468352Y-71030032D01*
X130468353Y-71030031D01*
X130472771Y-71025124D01*
X130508500Y-70963240D01*
X130562852Y-70869099D01*
X130562853Y-70869098D01*
X130566156Y-70863376D01*
X130623871Y-70685747D01*
X130624753Y-70677361D01*
X130642704Y-70506565D01*
X130643394Y-70500000D01*
X130623871Y-70314253D01*
X130566156Y-70136624D01*
X130524487Y-70064450D01*
X130476074Y-69980597D01*
X130472771Y-69974876D01*
X130408099Y-69903051D01*
X130352212Y-69840982D01*
X130352210Y-69840981D01*
X130347797Y-69836079D01*
X130196697Y-69726298D01*
X130190669Y-69723614D01*
X130190667Y-69723613D01*
X130032105Y-69653017D01*
X130032104Y-69653017D01*
X130026074Y-69650332D01*
X129934729Y-69630916D01*
X129849842Y-69612872D01*
X129849837Y-69612872D01*
X129843385Y-69611500D01*
X129656615Y-69611500D01*
X129650163Y-69612872D01*
X129650158Y-69612872D01*
X129565271Y-69630916D01*
X129473926Y-69650332D01*
X129467896Y-69653017D01*
X129467895Y-69653017D01*
X129309333Y-69723613D01*
X129309331Y-69723614D01*
X129303303Y-69726298D01*
X129152203Y-69836079D01*
X129147790Y-69840981D01*
X129147788Y-69840982D01*
X129091901Y-69903051D01*
X129027229Y-69974876D01*
X129023926Y-69980597D01*
X128975514Y-70064450D01*
X128933844Y-70136624D01*
X128876129Y-70314253D01*
X128856606Y-70500000D01*
X128857296Y-70506565D01*
X128875248Y-70677361D01*
X128876129Y-70685747D01*
X128933844Y-70863376D01*
X128937147Y-70869098D01*
X128937148Y-70869099D01*
X128991500Y-70963240D01*
X129027229Y-71025124D01*
X129031647Y-71030031D01*
X129031648Y-71030032D01*
X129152203Y-71163921D01*
X129150461Y-71165490D01*
X129182077Y-71216796D01*
X129180734Y-71287780D01*
X129150614Y-71334648D01*
X129152203Y-71336079D01*
X129067439Y-71430219D01*
X129027229Y-71474876D01*
X129023926Y-71480597D01*
X128947874Y-71612324D01*
X128933844Y-71636624D01*
X128876129Y-71814253D01*
X128875439Y-71820816D01*
X128875439Y-71820817D01*
X128857296Y-71993435D01*
X128856606Y-72000000D01*
X125508500Y-72000000D01*
X125508500Y-64680000D01*
X167469154Y-64680000D01*
X167488517Y-64975426D01*
X167546276Y-65265797D01*
X167641441Y-65546145D01*
X167772385Y-65811673D01*
X167936867Y-66057838D01*
X167939581Y-66060932D01*
X167939585Y-66060938D01*
X168129364Y-66277338D01*
X168132073Y-66280427D01*
X168135162Y-66283136D01*
X168351562Y-66472915D01*
X168351568Y-66472919D01*
X168354662Y-66475633D01*
X168358088Y-66477922D01*
X168358093Y-66477926D01*
X168541905Y-66600744D01*
X168600827Y-66640115D01*
X168604526Y-66641939D01*
X168604531Y-66641942D01*
X168740813Y-66709148D01*
X168866355Y-66771059D01*
X168870260Y-66772384D01*
X168870261Y-66772385D01*
X169142790Y-66864896D01*
X169142794Y-66864897D01*
X169146703Y-66866224D01*
X169150747Y-66867028D01*
X169150753Y-66867030D01*
X169433035Y-66923180D01*
X169433041Y-66923181D01*
X169437074Y-66923983D01*
X169441179Y-66924252D01*
X169441186Y-66924253D01*
X169728381Y-66943076D01*
X169732500Y-66943346D01*
X169736619Y-66943076D01*
X170023814Y-66924253D01*
X170023821Y-66924252D01*
X170027926Y-66923983D01*
X170031959Y-66923181D01*
X170031965Y-66923180D01*
X170314247Y-66867030D01*
X170314253Y-66867028D01*
X170318297Y-66866224D01*
X170322206Y-66864897D01*
X170322210Y-66864896D01*
X170594739Y-66772385D01*
X170594740Y-66772384D01*
X170598645Y-66771059D01*
X170724187Y-66709148D01*
X170860469Y-66641942D01*
X170860474Y-66641939D01*
X170864173Y-66640115D01*
X170923095Y-66600744D01*
X171106907Y-66477926D01*
X171106912Y-66477922D01*
X171110338Y-66475633D01*
X171113432Y-66472919D01*
X171113438Y-66472915D01*
X171329838Y-66283136D01*
X171332927Y-66280427D01*
X171335636Y-66277338D01*
X171525415Y-66060938D01*
X171525419Y-66060932D01*
X171528133Y-66057838D01*
X171692615Y-65811673D01*
X171823559Y-65546145D01*
X171918724Y-65265797D01*
X171976483Y-64975426D01*
X171995846Y-64680000D01*
X171976483Y-64384574D01*
X171949144Y-64247129D01*
X171919530Y-64098253D01*
X171919528Y-64098247D01*
X171918724Y-64094203D01*
X171823559Y-63813855D01*
X171727805Y-63619685D01*
X171694442Y-63552031D01*
X171694439Y-63552026D01*
X171692615Y-63548327D01*
X171643801Y-63475271D01*
X171530426Y-63305593D01*
X171530422Y-63305588D01*
X171528133Y-63302162D01*
X171525419Y-63299068D01*
X171525415Y-63299062D01*
X171335636Y-63082662D01*
X171332927Y-63079573D01*
X171329838Y-63076864D01*
X171113438Y-62887085D01*
X171113432Y-62887081D01*
X171110338Y-62884367D01*
X171106912Y-62882078D01*
X171106907Y-62882074D01*
X170867606Y-62722179D01*
X170864173Y-62719885D01*
X170860474Y-62718061D01*
X170860469Y-62718058D01*
X170690796Y-62634385D01*
X170598645Y-62588941D01*
X170594739Y-62587615D01*
X170322210Y-62495104D01*
X170322206Y-62495103D01*
X170318297Y-62493776D01*
X170314253Y-62492972D01*
X170314247Y-62492970D01*
X170031965Y-62436820D01*
X170031959Y-62436819D01*
X170027926Y-62436017D01*
X170023821Y-62435748D01*
X170023814Y-62435747D01*
X169736619Y-62416924D01*
X169732500Y-62416654D01*
X169728381Y-62416924D01*
X169441186Y-62435747D01*
X169441179Y-62435748D01*
X169437074Y-62436017D01*
X169433041Y-62436819D01*
X169433035Y-62436820D01*
X169150753Y-62492970D01*
X169150747Y-62492972D01*
X169146703Y-62493776D01*
X169142794Y-62495103D01*
X169142790Y-62495104D01*
X168870261Y-62587615D01*
X168866355Y-62588941D01*
X168774204Y-62634385D01*
X168604531Y-62718058D01*
X168604526Y-62718061D01*
X168600827Y-62719885D01*
X168597394Y-62722179D01*
X168358093Y-62882074D01*
X168358088Y-62882078D01*
X168354662Y-62884367D01*
X168351568Y-62887081D01*
X168351562Y-62887085D01*
X168135162Y-63076864D01*
X168132073Y-63079573D01*
X168129364Y-63082662D01*
X167939585Y-63299062D01*
X167939581Y-63299068D01*
X167936867Y-63302162D01*
X167934578Y-63305588D01*
X167934574Y-63305593D01*
X167821199Y-63475271D01*
X167772385Y-63548327D01*
X167770561Y-63552026D01*
X167770558Y-63552031D01*
X167737195Y-63619685D01*
X167641441Y-63813855D01*
X167546276Y-64094203D01*
X167545472Y-64098247D01*
X167545470Y-64098253D01*
X167515857Y-64247129D01*
X167488517Y-64384574D01*
X167469154Y-64680000D01*
X125508500Y-64680000D01*
X125508500Y-62977500D01*
X147724647Y-62977500D01*
X147744022Y-63198963D01*
X147801560Y-63413696D01*
X147803882Y-63418677D01*
X147803883Y-63418678D01*
X147893186Y-63610189D01*
X147893189Y-63610194D01*
X147895512Y-63615176D01*
X147898668Y-63619683D01*
X147898669Y-63619685D01*
X148019861Y-63792765D01*
X148023023Y-63797281D01*
X148180219Y-63954477D01*
X148184727Y-63957634D01*
X148184730Y-63957636D01*
X148213176Y-63977554D01*
X148362323Y-64081988D01*
X148367305Y-64084311D01*
X148367310Y-64084314D01*
X148558822Y-64173617D01*
X148563804Y-64175940D01*
X148569112Y-64177362D01*
X148569114Y-64177363D01*
X148594951Y-64184286D01*
X148778537Y-64233478D01*
X149000000Y-64252853D01*
X149221463Y-64233478D01*
X149405049Y-64184286D01*
X149430886Y-64177363D01*
X149430888Y-64177362D01*
X149436196Y-64175940D01*
X149441178Y-64173617D01*
X149632690Y-64084314D01*
X149632695Y-64084311D01*
X149637677Y-64081988D01*
X149786824Y-63977554D01*
X149815270Y-63957636D01*
X149815273Y-63957634D01*
X149819781Y-63954477D01*
X149976977Y-63797281D01*
X149980140Y-63792765D01*
X150101331Y-63619685D01*
X150101332Y-63619683D01*
X150104488Y-63615176D01*
X150106811Y-63610194D01*
X150106814Y-63610189D01*
X150135805Y-63548017D01*
X150182723Y-63494732D01*
X150251000Y-63475271D01*
X150318960Y-63495813D01*
X150364195Y-63548017D01*
X150393186Y-63610189D01*
X150393189Y-63610194D01*
X150395512Y-63615176D01*
X150398668Y-63619683D01*
X150398669Y-63619685D01*
X150519861Y-63792765D01*
X150523023Y-63797281D01*
X150680219Y-63954477D01*
X150684727Y-63957634D01*
X150684730Y-63957636D01*
X150713176Y-63977554D01*
X150862323Y-64081988D01*
X150867305Y-64084311D01*
X150867310Y-64084314D01*
X151058822Y-64173617D01*
X151063804Y-64175940D01*
X151069112Y-64177362D01*
X151069114Y-64177363D01*
X151094951Y-64184286D01*
X151278537Y-64233478D01*
X151500000Y-64252853D01*
X151721463Y-64233478D01*
X151905049Y-64184286D01*
X151930886Y-64177363D01*
X151930888Y-64177362D01*
X151936196Y-64175940D01*
X151941178Y-64173617D01*
X152132690Y-64084314D01*
X152132695Y-64084311D01*
X152137677Y-64081988D01*
X152286824Y-63977554D01*
X152315270Y-63957636D01*
X152315273Y-63957634D01*
X152319781Y-63954477D01*
X152410905Y-63863353D01*
X152473217Y-63829327D01*
X152544032Y-63834392D01*
X152589095Y-63863353D01*
X152680219Y-63954477D01*
X152684727Y-63957634D01*
X152684730Y-63957636D01*
X152713176Y-63977554D01*
X152862323Y-64081988D01*
X152867305Y-64084311D01*
X152867310Y-64084314D01*
X153058822Y-64173617D01*
X153063804Y-64175940D01*
X153069112Y-64177362D01*
X153069114Y-64177363D01*
X153094951Y-64184286D01*
X153278537Y-64233478D01*
X153500000Y-64252853D01*
X153721463Y-64233478D01*
X153905049Y-64184286D01*
X153930886Y-64177363D01*
X153930888Y-64177362D01*
X153936196Y-64175940D01*
X153941178Y-64173617D01*
X154132690Y-64084314D01*
X154132695Y-64084311D01*
X154137677Y-64081988D01*
X154286824Y-63977554D01*
X154315270Y-63957636D01*
X154315273Y-63957634D01*
X154319781Y-63954477D01*
X154476977Y-63797281D01*
X154480136Y-63792770D01*
X154480140Y-63792765D01*
X154504656Y-63757752D01*
X154560113Y-63713423D01*
X154630732Y-63706114D01*
X154694092Y-63738144D01*
X154730078Y-63799345D01*
X154733132Y-63816416D01*
X154735895Y-63841852D01*
X154739521Y-63857104D01*
X154784676Y-63977554D01*
X154793214Y-63993149D01*
X154869715Y-64095224D01*
X154882276Y-64107785D01*
X154984351Y-64184286D01*
X154999946Y-64192824D01*
X155120394Y-64237978D01*
X155135649Y-64241605D01*
X155186514Y-64247131D01*
X155193328Y-64247500D01*
X155656885Y-64247500D01*
X155672124Y-64243025D01*
X155673329Y-64241635D01*
X155675000Y-64233952D01*
X155675000Y-64229384D01*
X156325000Y-64229384D01*
X156329475Y-64244623D01*
X156330865Y-64245828D01*
X156338548Y-64247499D01*
X156806669Y-64247499D01*
X156813490Y-64247129D01*
X156864352Y-64241605D01*
X156879604Y-64237979D01*
X157000054Y-64192824D01*
X157015649Y-64184286D01*
X157117724Y-64107785D01*
X157130285Y-64095224D01*
X157206786Y-63993149D01*
X157215324Y-63977554D01*
X157260478Y-63857106D01*
X157264105Y-63841851D01*
X157269631Y-63790986D01*
X157270000Y-63784172D01*
X157270000Y-63320615D01*
X157265525Y-63305376D01*
X157264135Y-63304171D01*
X157256452Y-63302500D01*
X156343115Y-63302500D01*
X156327876Y-63306975D01*
X156326671Y-63308365D01*
X156325000Y-63316048D01*
X156325000Y-64229384D01*
X155675000Y-64229384D01*
X155675000Y-62634385D01*
X156325000Y-62634385D01*
X156329475Y-62649624D01*
X156330865Y-62650829D01*
X156338548Y-62652500D01*
X157251884Y-62652500D01*
X157267123Y-62648025D01*
X157268328Y-62646635D01*
X157269999Y-62638952D01*
X157269999Y-62170831D01*
X157269629Y-62164010D01*
X157264105Y-62113148D01*
X157260479Y-62097896D01*
X157215324Y-61977446D01*
X157206786Y-61961851D01*
X157145242Y-61879733D01*
X157137493Y-61858992D01*
X157131950Y-61857400D01*
X157123874Y-61851824D01*
X157015649Y-61770714D01*
X157000054Y-61762176D01*
X156879606Y-61717022D01*
X156864351Y-61713395D01*
X156813486Y-61707869D01*
X156806672Y-61707500D01*
X156343115Y-61707500D01*
X156327876Y-61711975D01*
X156326671Y-61713365D01*
X156325000Y-61721048D01*
X156325000Y-62634385D01*
X155675000Y-62634385D01*
X155675000Y-61725616D01*
X155670525Y-61710377D01*
X155669135Y-61709172D01*
X155661452Y-61707501D01*
X155193331Y-61707501D01*
X155186510Y-61707871D01*
X155135648Y-61713395D01*
X155120396Y-61717021D01*
X154999946Y-61762176D01*
X154984351Y-61770714D01*
X154882276Y-61847215D01*
X154869715Y-61859776D01*
X154793214Y-61961851D01*
X154784676Y-61977446D01*
X154739522Y-62097894D01*
X154735895Y-62113149D01*
X154733131Y-62138586D01*
X154705888Y-62204148D01*
X154647525Y-62244574D01*
X154576571Y-62247028D01*
X154515553Y-62210732D01*
X154504660Y-62197254D01*
X154476977Y-62157719D01*
X154319781Y-62000523D01*
X154315273Y-61997366D01*
X154315270Y-61997364D01*
X154239505Y-61944313D01*
X154137677Y-61873012D01*
X154132695Y-61870689D01*
X154132690Y-61870686D01*
X153941178Y-61781383D01*
X153941177Y-61781382D01*
X153936196Y-61779060D01*
X153930888Y-61777638D01*
X153930886Y-61777637D01*
X153865051Y-61759997D01*
X153721463Y-61721522D01*
X153500000Y-61702147D01*
X153278537Y-61721522D01*
X153134949Y-61759997D01*
X153069114Y-61777637D01*
X153069112Y-61777638D01*
X153063804Y-61779060D01*
X153058823Y-61781382D01*
X153058822Y-61781383D01*
X152867311Y-61870686D01*
X152867306Y-61870689D01*
X152862324Y-61873012D01*
X152857817Y-61876168D01*
X152857815Y-61876169D01*
X152684730Y-61997364D01*
X152684727Y-61997366D01*
X152680219Y-62000523D01*
X152589095Y-62091647D01*
X152526783Y-62125673D01*
X152455968Y-62120608D01*
X152410905Y-62091647D01*
X152319781Y-62000523D01*
X152315273Y-61997366D01*
X152315270Y-61997364D01*
X152239505Y-61944313D01*
X152137677Y-61873012D01*
X152132695Y-61870689D01*
X152132690Y-61870686D01*
X151941178Y-61781383D01*
X151941177Y-61781382D01*
X151936196Y-61779060D01*
X151930888Y-61777638D01*
X151930886Y-61777637D01*
X151865051Y-61759997D01*
X151721463Y-61721522D01*
X151500000Y-61702147D01*
X151278537Y-61721522D01*
X151134949Y-61759997D01*
X151069114Y-61777637D01*
X151069112Y-61777638D01*
X151063804Y-61779060D01*
X151058823Y-61781382D01*
X151058822Y-61781383D01*
X150867311Y-61870686D01*
X150867306Y-61870689D01*
X150862324Y-61873012D01*
X150857817Y-61876168D01*
X150857815Y-61876169D01*
X150684730Y-61997364D01*
X150684727Y-61997366D01*
X150680219Y-62000523D01*
X150523023Y-62157719D01*
X150519866Y-62162227D01*
X150519864Y-62162230D01*
X150460488Y-62247028D01*
X150395512Y-62339824D01*
X150393189Y-62344806D01*
X150393186Y-62344811D01*
X150364195Y-62406983D01*
X150317277Y-62460268D01*
X150249000Y-62479729D01*
X150181040Y-62459187D01*
X150135805Y-62406983D01*
X150106814Y-62344811D01*
X150106811Y-62344806D01*
X150104488Y-62339824D01*
X150039512Y-62247028D01*
X149980136Y-62162230D01*
X149980134Y-62162227D01*
X149976977Y-62157719D01*
X149819781Y-62000523D01*
X149815273Y-61997366D01*
X149815270Y-61997364D01*
X149739505Y-61944313D01*
X149637677Y-61873012D01*
X149632695Y-61870689D01*
X149632690Y-61870686D01*
X149441178Y-61781383D01*
X149441177Y-61781382D01*
X149436196Y-61779060D01*
X149430888Y-61777638D01*
X149430886Y-61777637D01*
X149365051Y-61759997D01*
X149221463Y-61721522D01*
X149000000Y-61702147D01*
X148778537Y-61721522D01*
X148634949Y-61759997D01*
X148569114Y-61777637D01*
X148569112Y-61777638D01*
X148563804Y-61779060D01*
X148558823Y-61781382D01*
X148558822Y-61781383D01*
X148367311Y-61870686D01*
X148367306Y-61870689D01*
X148362324Y-61873012D01*
X148357817Y-61876168D01*
X148357815Y-61876169D01*
X148184730Y-61997364D01*
X148184727Y-61997366D01*
X148180219Y-62000523D01*
X148023023Y-62157719D01*
X148019866Y-62162227D01*
X148019864Y-62162230D01*
X147960488Y-62247028D01*
X147895512Y-62339824D01*
X147893189Y-62344806D01*
X147893186Y-62344811D01*
X147803883Y-62536322D01*
X147801560Y-62541304D01*
X147744022Y-62756037D01*
X147724647Y-62977500D01*
X125508500Y-62977500D01*
X125508500Y-60267500D01*
X143666654Y-60267500D01*
X143686017Y-60562926D01*
X143743776Y-60853297D01*
X143838941Y-61133645D01*
X143969885Y-61399173D01*
X144134367Y-61645338D01*
X144137081Y-61648432D01*
X144137085Y-61648438D01*
X144311409Y-61847215D01*
X144329573Y-61867927D01*
X144332662Y-61870636D01*
X144549062Y-62060415D01*
X144549068Y-62060419D01*
X144552162Y-62063133D01*
X144555588Y-62065422D01*
X144555593Y-62065426D01*
X144687888Y-62153822D01*
X144798327Y-62227615D01*
X144802026Y-62229439D01*
X144802031Y-62229442D01*
X144938313Y-62296648D01*
X145063855Y-62358559D01*
X145067760Y-62359884D01*
X145067761Y-62359885D01*
X145340290Y-62452396D01*
X145340294Y-62452397D01*
X145344203Y-62453724D01*
X145348247Y-62454528D01*
X145348253Y-62454530D01*
X145630535Y-62510680D01*
X145630541Y-62510681D01*
X145634574Y-62511483D01*
X145638679Y-62511752D01*
X145638686Y-62511753D01*
X145925881Y-62530576D01*
X145930000Y-62530846D01*
X145934119Y-62530576D01*
X146221314Y-62511753D01*
X146221321Y-62511752D01*
X146225426Y-62511483D01*
X146229459Y-62510681D01*
X146229465Y-62510680D01*
X146511747Y-62454530D01*
X146511753Y-62454528D01*
X146515797Y-62453724D01*
X146519706Y-62452397D01*
X146519710Y-62452396D01*
X146792239Y-62359885D01*
X146792240Y-62359884D01*
X146796145Y-62358559D01*
X146921687Y-62296648D01*
X147057969Y-62229442D01*
X147057974Y-62229439D01*
X147061673Y-62227615D01*
X147172112Y-62153822D01*
X147304407Y-62065426D01*
X147304412Y-62065422D01*
X147307838Y-62063133D01*
X147310932Y-62060419D01*
X147310938Y-62060415D01*
X147527338Y-61870636D01*
X147530427Y-61867927D01*
X147548591Y-61847215D01*
X147722915Y-61648438D01*
X147722919Y-61648432D01*
X147725633Y-61645338D01*
X147890115Y-61399173D01*
X148021059Y-61133645D01*
X148116224Y-60853297D01*
X148173983Y-60562926D01*
X148193346Y-60267500D01*
X156806654Y-60267500D01*
X156826017Y-60562926D01*
X156883776Y-60853297D01*
X156978941Y-61133645D01*
X157109885Y-61399173D01*
X157274367Y-61645338D01*
X157277081Y-61648432D01*
X157277085Y-61648438D01*
X157294171Y-61667920D01*
X157308277Y-61698326D01*
X157321521Y-61703258D01*
X157340800Y-61721090D01*
X157469573Y-61867927D01*
X157472662Y-61870636D01*
X157689062Y-62060415D01*
X157689068Y-62060419D01*
X157692162Y-62063133D01*
X157695588Y-62065422D01*
X157695593Y-62065426D01*
X157827888Y-62153822D01*
X157938327Y-62227615D01*
X157942026Y-62229439D01*
X157942031Y-62229442D01*
X158078313Y-62296648D01*
X158203855Y-62358559D01*
X158207760Y-62359884D01*
X158207761Y-62359885D01*
X158480290Y-62452396D01*
X158480294Y-62452397D01*
X158484203Y-62453724D01*
X158488247Y-62454528D01*
X158488253Y-62454530D01*
X158770535Y-62510680D01*
X158770541Y-62510681D01*
X158774574Y-62511483D01*
X158778679Y-62511752D01*
X158778686Y-62511753D01*
X159065881Y-62530576D01*
X159070000Y-62530846D01*
X159074119Y-62530576D01*
X159361314Y-62511753D01*
X159361321Y-62511752D01*
X159365426Y-62511483D01*
X159369459Y-62510681D01*
X159369465Y-62510680D01*
X159651747Y-62454530D01*
X159651753Y-62454528D01*
X159655797Y-62453724D01*
X159659706Y-62452397D01*
X159659710Y-62452396D01*
X159932239Y-62359885D01*
X159932240Y-62359884D01*
X159936145Y-62358559D01*
X160061687Y-62296648D01*
X160197969Y-62229442D01*
X160197974Y-62229439D01*
X160201673Y-62227615D01*
X160312112Y-62153822D01*
X160444407Y-62065426D01*
X160444412Y-62065422D01*
X160447838Y-62063133D01*
X160450932Y-62060419D01*
X160450938Y-62060415D01*
X160667338Y-61870636D01*
X160670427Y-61867927D01*
X160688591Y-61847215D01*
X160862915Y-61648438D01*
X160862919Y-61648432D01*
X160865633Y-61645338D01*
X161030115Y-61399173D01*
X161161059Y-61133645D01*
X161256224Y-60853297D01*
X161313983Y-60562926D01*
X161333346Y-60267500D01*
X161313983Y-59972074D01*
X161256224Y-59681703D01*
X161161059Y-59401355D01*
X161030115Y-59135827D01*
X160865633Y-58889662D01*
X160862919Y-58886568D01*
X160862915Y-58886562D01*
X160673136Y-58670162D01*
X160670427Y-58667073D01*
X160667338Y-58664364D01*
X160450938Y-58474585D01*
X160450932Y-58474581D01*
X160447838Y-58471867D01*
X160444412Y-58469578D01*
X160444407Y-58469574D01*
X160205106Y-58309679D01*
X160201673Y-58307385D01*
X160197974Y-58305561D01*
X160197969Y-58305558D01*
X160061687Y-58238352D01*
X159936145Y-58176441D01*
X159932239Y-58175115D01*
X159659710Y-58082604D01*
X159659706Y-58082603D01*
X159655797Y-58081276D01*
X159651753Y-58080472D01*
X159651747Y-58080470D01*
X159369465Y-58024320D01*
X159369459Y-58024319D01*
X159365426Y-58023517D01*
X159361321Y-58023248D01*
X159361314Y-58023247D01*
X159074119Y-58004424D01*
X159070000Y-58004154D01*
X159065881Y-58004424D01*
X158778686Y-58023247D01*
X158778679Y-58023248D01*
X158774574Y-58023517D01*
X158770541Y-58024319D01*
X158770535Y-58024320D01*
X158488253Y-58080470D01*
X158488247Y-58080472D01*
X158484203Y-58081276D01*
X158480294Y-58082603D01*
X158480290Y-58082604D01*
X158207761Y-58175115D01*
X158203855Y-58176441D01*
X158078313Y-58238352D01*
X157942031Y-58305558D01*
X157942026Y-58305561D01*
X157938327Y-58307385D01*
X157934894Y-58309679D01*
X157695593Y-58469574D01*
X157695588Y-58469578D01*
X157692162Y-58471867D01*
X157689068Y-58474581D01*
X157689062Y-58474585D01*
X157472662Y-58664364D01*
X157469573Y-58667073D01*
X157466864Y-58670162D01*
X157277085Y-58886562D01*
X157277081Y-58886568D01*
X157274367Y-58889662D01*
X157109885Y-59135827D01*
X156978941Y-59401355D01*
X156883776Y-59681703D01*
X156826017Y-59972074D01*
X156806654Y-60267500D01*
X148193346Y-60267500D01*
X148173983Y-59972074D01*
X148116224Y-59681703D01*
X148021059Y-59401355D01*
X147890115Y-59135827D01*
X147725633Y-58889662D01*
X147722919Y-58886568D01*
X147722915Y-58886562D01*
X147533136Y-58670162D01*
X147530427Y-58667073D01*
X147527338Y-58664364D01*
X147310938Y-58474585D01*
X147310932Y-58474581D01*
X147307838Y-58471867D01*
X147304412Y-58469578D01*
X147304407Y-58469574D01*
X147065106Y-58309679D01*
X147061673Y-58307385D01*
X147057974Y-58305561D01*
X147057969Y-58305558D01*
X146921687Y-58238352D01*
X146796145Y-58176441D01*
X146792239Y-58175115D01*
X146519710Y-58082604D01*
X146519706Y-58082603D01*
X146515797Y-58081276D01*
X146511753Y-58080472D01*
X146511747Y-58080470D01*
X146229465Y-58024320D01*
X146229459Y-58024319D01*
X146225426Y-58023517D01*
X146221321Y-58023248D01*
X146221314Y-58023247D01*
X145934119Y-58004424D01*
X145930000Y-58004154D01*
X145925881Y-58004424D01*
X145638686Y-58023247D01*
X145638679Y-58023248D01*
X145634574Y-58023517D01*
X145630541Y-58024319D01*
X145630535Y-58024320D01*
X145348253Y-58080470D01*
X145348247Y-58080472D01*
X145344203Y-58081276D01*
X145340294Y-58082603D01*
X145340290Y-58082604D01*
X145067761Y-58175115D01*
X145063855Y-58176441D01*
X144938313Y-58238352D01*
X144802031Y-58305558D01*
X144802026Y-58305561D01*
X144798327Y-58307385D01*
X144794894Y-58309679D01*
X144555593Y-58469574D01*
X144555588Y-58469578D01*
X144552162Y-58471867D01*
X144549068Y-58474581D01*
X144549062Y-58474585D01*
X144332662Y-58664364D01*
X144329573Y-58667073D01*
X144326864Y-58670162D01*
X144137085Y-58886562D01*
X144137081Y-58886568D01*
X144134367Y-58889662D01*
X143969885Y-59135827D01*
X143838941Y-59401355D01*
X143743776Y-59681703D01*
X143686017Y-59972074D01*
X143666654Y-60267500D01*
X125508500Y-60267500D01*
X125508500Y-55841045D01*
X125528502Y-55772924D01*
X125582158Y-55726431D01*
X125652432Y-55716327D01*
X125717012Y-55745821D01*
X125746767Y-55783842D01*
X125783938Y-55856794D01*
X125995643Y-56182793D01*
X126240266Y-56484876D01*
X126515124Y-56759734D01*
X126817207Y-57004357D01*
X127143205Y-57216062D01*
X127146139Y-57217557D01*
X127146146Y-57217561D01*
X127486607Y-57391034D01*
X127489547Y-57392532D01*
X127852438Y-57531833D01*
X128227901Y-57632438D01*
X128431793Y-57664732D01*
X128608576Y-57692732D01*
X128608584Y-57692733D01*
X128611824Y-57693246D01*
X129000000Y-57713589D01*
X129388176Y-57693246D01*
X129391416Y-57692733D01*
X129391424Y-57692732D01*
X129568207Y-57664732D01*
X129772099Y-57632438D01*
X130147562Y-57531833D01*
X130510453Y-57392532D01*
X130513393Y-57391034D01*
X130853854Y-57217561D01*
X130853861Y-57217557D01*
X130856795Y-57216062D01*
X131182793Y-57004357D01*
X131484876Y-56759734D01*
X131759734Y-56484876D01*
X132004357Y-56182793D01*
X132216062Y-55856794D01*
X132279533Y-55732227D01*
X132391034Y-55513393D01*
X132392532Y-55510453D01*
X132531833Y-55147562D01*
X132632438Y-54772099D01*
X132693246Y-54388176D01*
X132713589Y-54000000D01*
X132693246Y-53611824D01*
X132632438Y-53227901D01*
X132531833Y-52852438D01*
X132392532Y-52489547D01*
X132391034Y-52486607D01*
X132217561Y-52146147D01*
X132217557Y-52146140D01*
X132216062Y-52143206D01*
X132004357Y-51817207D01*
X131759734Y-51515124D01*
X131484876Y-51240266D01*
X131182793Y-50995643D01*
X130856795Y-50783938D01*
X130853861Y-50782443D01*
X130853854Y-50782439D01*
X130783843Y-50746767D01*
X130732228Y-50698019D01*
X130715162Y-50629104D01*
X130738063Y-50561902D01*
X130793660Y-50517750D01*
X130841046Y-50508500D01*
X174158955Y-50508500D01*
X174227076Y-50528502D01*
G37*
%TD.AperFunction*%
%TD*%
M02*
