%FSLAX45Y45*%
G04 Gerber Fmt 4.5, Leading zero omitted, Abs format (unit mm)*
G04 Created by KiCad (PCBNEW (6.0.5)) date 2024-04-12 21:33:26*
%MOMM*%
%LPD*%
G01*
G04 APERTURE LIST*
%TA.AperFunction,Profile*%
%ADD10C,0.100000*%
%TD*%
%ADD11C,0.200000*%
%ADD12C,0.030000*%
%ADD13C,0.050000*%
%ADD14C,0.080000*%
%ADD15C,0.092000*%
%ADD16C,0.100000*%
%ADD17C,0.230000*%
%ADD18C,0.320000*%
G04 APERTURE END LIST*
D10*
X18000000Y-13100000D02*
X18000000Y-5400000D01*
X18000000Y-5400000D02*
G75*
G03*
X17600000Y-5000000I-400000J0D01*
G01*
X12500000Y-5400000D02*
X12500000Y-13100000D01*
X12900000Y-13500000D02*
X17600000Y-13500000D01*
X12900000Y-5000000D02*
G75*
G03*
X12500000Y-5400000I0J-400000D01*
G01*
X12500000Y-13100000D02*
G75*
G03*
X12900000Y-13500000I400000J0D01*
G01*
X17600000Y-13500000D02*
G75*
G03*
X18000000Y-13100000I0J400000D01*
G01*
X17600000Y-5000000D02*
X12900000Y-5000000D01*
D11*
D12*
X14065000Y-9435000D02*
X14095000Y-9465000D01*
X14095000Y-9435000D02*
X14065000Y-9465000D01*
X14215000Y-9345000D02*
X14245000Y-9375000D01*
X14245000Y-9345000D02*
X14215000Y-9375000D01*
X14235000Y-9160000D02*
X14265000Y-9190000D01*
X14265000Y-9160000D02*
X14235000Y-9190000D01*
X14395000Y-8735000D02*
X14425000Y-8765000D01*
X14425000Y-8735000D02*
X14395000Y-8765000D01*
X14665000Y-9115000D02*
X14695000Y-9145000D01*
X14695000Y-9115000D02*
X14665000Y-9145000D01*
X14755000Y-9595000D02*
X14785000Y-9625000D01*
X14785000Y-9595000D02*
X14755000Y-9625000D01*
X14760000Y-9810000D02*
X14790000Y-9840000D01*
X14790000Y-9810000D02*
X14760000Y-9840000D01*
X14935000Y-9395000D02*
X14965000Y-9425000D01*
X14965000Y-9395000D02*
X14935000Y-9425000D01*
X14965000Y-10185000D02*
X14995000Y-10215000D01*
X14995000Y-10185000D02*
X14965000Y-10215000D01*
X15035000Y-8675000D02*
X15065000Y-8705000D01*
X15065000Y-8675000D02*
X15035000Y-8705000D01*
X15035000Y-10735000D02*
X15065000Y-10765000D01*
X15065000Y-10735000D02*
X15035000Y-10765000D01*
X15235000Y-8345000D02*
X15265000Y-8375000D01*
X15265000Y-8345000D02*
X15235000Y-8375000D01*
X15275000Y-8945000D02*
X15305000Y-8975000D01*
X15305000Y-8945000D02*
X15275000Y-8975000D01*
X15335000Y-10565000D02*
X15365000Y-10595000D01*
X15365000Y-10565000D02*
X15335000Y-10595000D01*
X15335000Y-10760000D02*
X15365000Y-10790000D01*
X15365000Y-10760000D02*
X15335000Y-10790000D01*
X15335000Y-11585000D02*
X15365000Y-11615000D01*
X15365000Y-11585000D02*
X15335000Y-11615000D01*
X15435000Y-8685000D02*
X15465000Y-8715000D01*
X15465000Y-8685000D02*
X15435000Y-8715000D01*
X15685000Y-9660000D02*
X15715000Y-9690000D01*
X15715000Y-9660000D02*
X15685000Y-9690000D01*
X15845000Y-8595000D02*
X15875000Y-8625000D01*
X15875000Y-8595000D02*
X15845000Y-8625000D01*
X16285000Y-8260000D02*
X16315000Y-8290000D01*
X16315000Y-8260000D02*
X16285000Y-8290000D01*
X16365000Y-7255000D02*
X16395000Y-7285000D01*
X16395000Y-7255000D02*
X16365000Y-7285000D01*
X16465000Y-7965000D02*
X16495000Y-7995000D01*
X16495000Y-7965000D02*
X16465000Y-7995000D01*
X16575000Y-9115000D02*
X16605000Y-9145000D01*
X16605000Y-9115000D02*
X16575000Y-9145000D01*
D13*
X12825000Y-8625000D02*
G75*
G03*
X12825000Y-8625000I-25000J0D01*
G01*
X12825000Y-9875000D02*
G75*
G03*
X12825000Y-9875000I-25000J0D01*
G01*
X13000000Y-7050000D02*
G75*
G03*
X13000000Y-7050000I-25000J0D01*
G01*
X13000000Y-7200000D02*
G75*
G03*
X13000000Y-7200000I-25000J0D01*
G01*
X13000000Y-11300000D02*
G75*
G03*
X13000000Y-11300000I-25000J0D01*
G01*
X13000000Y-11450000D02*
G75*
G03*
X13000000Y-11450000I-25000J0D01*
G01*
X13375000Y-8625000D02*
G75*
G03*
X13375000Y-8625000I-25000J0D01*
G01*
X13375000Y-9875000D02*
G75*
G03*
X13375000Y-9875000I-25000J0D01*
G01*
X13525000Y-9000000D02*
G75*
G03*
X13525000Y-9000000I-25000J0D01*
G01*
X13575000Y-9450000D02*
G75*
G03*
X13575000Y-9450000I-25000J0D01*
G01*
X14050000Y-7050000D02*
G75*
G03*
X14050000Y-7050000I-25000J0D01*
G01*
X14050000Y-7200000D02*
G75*
G03*
X14050000Y-7200000I-25000J0D01*
G01*
X14050000Y-11300000D02*
G75*
G03*
X14050000Y-11300000I-25000J0D01*
G01*
X14050000Y-11450000D02*
G75*
G03*
X14050000Y-11450000I-25000J0D01*
G01*
X14605000Y-6590000D02*
G75*
G03*
X14605000Y-6590000I-25000J0D01*
G01*
X16395000Y-12130000D02*
G75*
G03*
X16395000Y-12130000I-25000J0D01*
G01*
X16445000Y-6470000D02*
G75*
G03*
X16445000Y-6470000I-25000J0D01*
G01*
X16875000Y-9820000D02*
G75*
G03*
X16875000Y-9820000I-25000J0D01*
G01*
X16975000Y-9020000D02*
G75*
G03*
X16975000Y-9020000I-25000J0D01*
G01*
X17155000Y-9660000D02*
G75*
G03*
X17155000Y-9660000I-25000J0D01*
G01*
X17335000Y-9250000D02*
G75*
G03*
X17335000Y-9250000I-25000J0D01*
G01*
X17445000Y-9680000D02*
G75*
G03*
X17445000Y-9680000I-25000J0D01*
G01*
X17725000Y-8990000D02*
G75*
G03*
X17725000Y-8990000I-25000J0D01*
G01*
X17725000Y-9510000D02*
G75*
G03*
X17725000Y-9510000I-25000J0D01*
G01*
D14*
X15005000Y-7930000D02*
X15005000Y-8010000D01*
X14965000Y-7970000D02*
X15045000Y-7970000D01*
X15493000Y-7930000D02*
X15493000Y-8010000D01*
X15453000Y-7970000D02*
X15533000Y-7970000D01*
D15*
X14932527Y-6330277D02*
X14932527Y-6265223D01*
X14867473Y-6265223D01*
X14867473Y-6330277D01*
X14932527Y-6330277D01*
X14932527Y-12234777D02*
X14932527Y-12169723D01*
X14867473Y-12169723D01*
X14867473Y-12234777D01*
X14932527Y-12234777D01*
X15182527Y-6330277D02*
X15182527Y-6265223D01*
X15117473Y-6265223D01*
X15117473Y-6330277D01*
X15182527Y-6330277D01*
X15182527Y-12234777D02*
X15182527Y-12169723D01*
X15117473Y-12169723D01*
X15117473Y-12234777D01*
X15182527Y-12234777D01*
X15382527Y-6330277D02*
X15382527Y-6265223D01*
X15317473Y-6265223D01*
X15317473Y-6330277D01*
X15382527Y-6330277D01*
X15382527Y-12234777D02*
X15382527Y-12169723D01*
X15317473Y-12169723D01*
X15317473Y-12234777D01*
X15382527Y-12234777D01*
X15632527Y-6330277D02*
X15632527Y-6265223D01*
X15567473Y-6265223D01*
X15567473Y-6330277D01*
X15632527Y-6330277D01*
X15632527Y-12234777D02*
X15632527Y-12169723D01*
X15567473Y-12169723D01*
X15567473Y-12234777D01*
X15632527Y-12234777D01*
X16734777Y-6807527D02*
X16734777Y-6742473D01*
X16669723Y-6742473D01*
X16669723Y-6807527D01*
X16734777Y-6807527D01*
X16734777Y-7057527D02*
X16734777Y-6992473D01*
X16669723Y-6992473D01*
X16669723Y-7057527D01*
X16734777Y-7057527D01*
X16734777Y-7257527D02*
X16734777Y-7192473D01*
X16669723Y-7192473D01*
X16669723Y-7257527D01*
X16734777Y-7257527D01*
X16734777Y-7507527D02*
X16734777Y-7442473D01*
X16669723Y-7442473D01*
X16669723Y-7507527D01*
X16734777Y-7507527D01*
X16734777Y-11057527D02*
X16734777Y-10992473D01*
X16669723Y-10992473D01*
X16669723Y-11057527D01*
X16734777Y-11057527D01*
X16734777Y-11307527D02*
X16734777Y-11242473D01*
X16669723Y-11242473D01*
X16669723Y-11307527D01*
X16734777Y-11307527D01*
X16734777Y-11507527D02*
X16734777Y-11442473D01*
X16669723Y-11442473D01*
X16669723Y-11507527D01*
X16734777Y-11507527D01*
X16734777Y-11757527D02*
X16734777Y-11692473D01*
X16669723Y-11692473D01*
X16669723Y-11757527D01*
X16734777Y-11757527D01*
D16*
X14680000Y-11106000D02*
X14730000Y-11056000D01*
X14680000Y-11006000D01*
X14630000Y-11056000D01*
X14680000Y-11106000D01*
X14680000Y-11360000D02*
X14730000Y-11310000D01*
X14680000Y-11260000D01*
X14630000Y-11310000D01*
X14680000Y-11360000D01*
X14680000Y-11614000D02*
X14730000Y-11564000D01*
X14680000Y-11514000D01*
X14630000Y-11564000D01*
X14680000Y-11614000D01*
X15720000Y-6886000D02*
X15770000Y-6836000D01*
X15720000Y-6786000D01*
X15670000Y-6836000D01*
X15720000Y-6886000D01*
X15720000Y-7140000D02*
X15770000Y-7090000D01*
X15720000Y-7040000D01*
X15670000Y-7090000D01*
X15720000Y-7140000D01*
X15720000Y-7394000D02*
X15770000Y-7344000D01*
X15720000Y-7294000D01*
X15670000Y-7344000D01*
X15720000Y-7394000D01*
X16080000Y-10747500D02*
X16130000Y-10697500D01*
X16080000Y-10647500D01*
X16030000Y-10697500D01*
X16080000Y-10747500D01*
X16080000Y-11001500D02*
X16130000Y-10951500D01*
X16080000Y-10901500D01*
X16030000Y-10951500D01*
X16080000Y-11001500D01*
X16080000Y-11255500D02*
X16130000Y-11205500D01*
X16080000Y-11155500D01*
X16030000Y-11205500D01*
X16080000Y-11255500D01*
X17240000Y-8246000D02*
X17290000Y-8196000D01*
X17240000Y-8146000D01*
X17190000Y-8196000D01*
X17240000Y-8246000D01*
X17240000Y-8500000D02*
X17290000Y-8450000D01*
X17240000Y-8400000D01*
X17190000Y-8450000D01*
X17240000Y-8500000D01*
X17240000Y-8754000D02*
X17290000Y-8704000D01*
X17240000Y-8654000D01*
X17190000Y-8704000D01*
X17240000Y-8754000D01*
D17*
X14478000Y-5911750D02*
X14708000Y-6141750D01*
X14708000Y-5911750D02*
X14478000Y-6141750D01*
X14708000Y-6026750D02*
G75*
G03*
X14708000Y-6026750I-115000J0D01*
G01*
X14478000Y-12358250D02*
X14708000Y-12588250D01*
X14708000Y-12358250D02*
X14478000Y-12588250D01*
X14708000Y-12473250D02*
G75*
G03*
X14708000Y-12473250I-115000J0D01*
G01*
X15792000Y-5911750D02*
X16022000Y-6141750D01*
X16022000Y-5911750D02*
X15792000Y-6141750D01*
X16022000Y-6026750D02*
G75*
G03*
X16022000Y-6026750I-115000J0D01*
G01*
X15792000Y-12358250D02*
X16022000Y-12588250D01*
X16022000Y-12358250D02*
X15792000Y-12588250D01*
X16022000Y-12473250D02*
G75*
G03*
X16022000Y-12473250I-115000J0D01*
G01*
X16858250Y-6353000D02*
X17088250Y-6583000D01*
X17088250Y-6353000D02*
X16858250Y-6583000D01*
X17088250Y-6468000D02*
G75*
G03*
X17088250Y-6468000I-115000J0D01*
G01*
X16858250Y-7667000D02*
X17088250Y-7897000D01*
X17088250Y-7667000D02*
X16858250Y-7897000D01*
X17088250Y-7782000D02*
G75*
G03*
X17088250Y-7782000I-115000J0D01*
G01*
X16858250Y-10603000D02*
X17088250Y-10833000D01*
X17088250Y-10603000D02*
X16858250Y-10833000D01*
X17088250Y-10718000D02*
G75*
G03*
X17088250Y-10718000I-115000J0D01*
G01*
X16858250Y-11917000D02*
X17088250Y-12147000D01*
X17088250Y-11917000D02*
X16858250Y-12147000D01*
X17088250Y-12032000D02*
G75*
G03*
X17088250Y-12032000I-115000J0D01*
G01*
D18*
X12740000Y-5240000D02*
X13060000Y-5560000D01*
X13060000Y-5240000D02*
X12740000Y-5560000D01*
X12900000Y-5240000D02*
X12900000Y-5560000D01*
X12740000Y-5400000D02*
X13060000Y-5400000D01*
X12740000Y-12940000D02*
X13060000Y-13260000D01*
X13060000Y-12940000D02*
X12740000Y-13260000D01*
X12900000Y-12940000D02*
X12900000Y-13260000D01*
X12740000Y-13100000D02*
X13060000Y-13100000D01*
X17440000Y-5240000D02*
X17760000Y-5560000D01*
X17760000Y-5240000D02*
X17440000Y-5560000D01*
X17600000Y-5240000D02*
X17600000Y-5560000D01*
X17440000Y-5400000D02*
X17760000Y-5400000D01*
X17440000Y-12940000D02*
X17760000Y-13260000D01*
X17760000Y-12940000D02*
X17440000Y-13260000D01*
X17600000Y-12940000D02*
X17600000Y-13260000D01*
X17440000Y-13100000D02*
X17760000Y-13100000D01*
D11*
X12752619Y-13815476D02*
X12752619Y-13615476D01*
X12800238Y-13615476D01*
X12828809Y-13625000D01*
X12847857Y-13644048D01*
X12857381Y-13663095D01*
X12866905Y-13701190D01*
X12866905Y-13729762D01*
X12857381Y-13767857D01*
X12847857Y-13786905D01*
X12828809Y-13805952D01*
X12800238Y-13815476D01*
X12752619Y-13815476D01*
X12952619Y-13815476D02*
X12952619Y-13682143D01*
X12952619Y-13720238D02*
X12962143Y-13701190D01*
X12971667Y-13691667D01*
X12990714Y-13682143D01*
X13009762Y-13682143D01*
X13076428Y-13815476D02*
X13076428Y-13682143D01*
X13076428Y-13615476D02*
X13066905Y-13625000D01*
X13076428Y-13634524D01*
X13085952Y-13625000D01*
X13076428Y-13615476D01*
X13076428Y-13634524D01*
X13200238Y-13815476D02*
X13181190Y-13805952D01*
X13171667Y-13786905D01*
X13171667Y-13615476D01*
X13305000Y-13815476D02*
X13285952Y-13805952D01*
X13276428Y-13786905D01*
X13276428Y-13615476D01*
X13533571Y-13815476D02*
X13533571Y-13615476D01*
X13600238Y-13758333D01*
X13666905Y-13615476D01*
X13666905Y-13815476D01*
X13847857Y-13815476D02*
X13847857Y-13710714D01*
X13838333Y-13691667D01*
X13819286Y-13682143D01*
X13781190Y-13682143D01*
X13762143Y-13691667D01*
X13847857Y-13805952D02*
X13828809Y-13815476D01*
X13781190Y-13815476D01*
X13762143Y-13805952D01*
X13752619Y-13786905D01*
X13752619Y-13767857D01*
X13762143Y-13748809D01*
X13781190Y-13739286D01*
X13828809Y-13739286D01*
X13847857Y-13729762D01*
X13943095Y-13682143D02*
X13943095Y-13882143D01*
X13943095Y-13691667D02*
X13962143Y-13682143D01*
X14000238Y-13682143D01*
X14019286Y-13691667D01*
X14028809Y-13701190D01*
X14038333Y-13720238D01*
X14038333Y-13777381D01*
X14028809Y-13796428D01*
X14019286Y-13805952D01*
X14000238Y-13815476D01*
X13962143Y-13815476D01*
X13943095Y-13805952D01*
X14124048Y-13796428D02*
X14133571Y-13805952D01*
X14124048Y-13815476D01*
X14114524Y-13805952D01*
X14124048Y-13796428D01*
X14124048Y-13815476D01*
X14124048Y-13691667D02*
X14133571Y-13701190D01*
X14124048Y-13710714D01*
X14114524Y-13701190D01*
X14124048Y-13691667D01*
X14124048Y-13710714D01*
D12*
X12465000Y-14130000D02*
X12495000Y-14160000D01*
X12495000Y-14130000D02*
X12465000Y-14160000D01*
D11*
X12790714Y-14035476D02*
X12809762Y-14035476D01*
X12828809Y-14045000D01*
X12838333Y-14054524D01*
X12847857Y-14073571D01*
X12857381Y-14111667D01*
X12857381Y-14159286D01*
X12847857Y-14197381D01*
X12838333Y-14216428D01*
X12828809Y-14225952D01*
X12809762Y-14235476D01*
X12790714Y-14235476D01*
X12771667Y-14225952D01*
X12762143Y-14216428D01*
X12752619Y-14197381D01*
X12743095Y-14159286D01*
X12743095Y-14111667D01*
X12752619Y-14073571D01*
X12762143Y-14054524D01*
X12771667Y-14045000D01*
X12790714Y-14035476D01*
X12943095Y-14216428D02*
X12952619Y-14225952D01*
X12943095Y-14235476D01*
X12933571Y-14225952D01*
X12943095Y-14216428D01*
X12943095Y-14235476D01*
X13019286Y-14035476D02*
X13143095Y-14035476D01*
X13076428Y-14111667D01*
X13105000Y-14111667D01*
X13124048Y-14121190D01*
X13133571Y-14130714D01*
X13143095Y-14149762D01*
X13143095Y-14197381D01*
X13133571Y-14216428D01*
X13124048Y-14225952D01*
X13105000Y-14235476D01*
X13047857Y-14235476D01*
X13028809Y-14225952D01*
X13019286Y-14216428D01*
X13266905Y-14035476D02*
X13285952Y-14035476D01*
X13305000Y-14045000D01*
X13314524Y-14054524D01*
X13324048Y-14073571D01*
X13333571Y-14111667D01*
X13333571Y-14159286D01*
X13324048Y-14197381D01*
X13314524Y-14216428D01*
X13305000Y-14225952D01*
X13285952Y-14235476D01*
X13266905Y-14235476D01*
X13247857Y-14225952D01*
X13238333Y-14216428D01*
X13228809Y-14197381D01*
X13219286Y-14159286D01*
X13219286Y-14111667D01*
X13228809Y-14073571D01*
X13238333Y-14054524D01*
X13247857Y-14045000D01*
X13266905Y-14035476D01*
X13457381Y-14035476D02*
X13476428Y-14035476D01*
X13495476Y-14045000D01*
X13505000Y-14054524D01*
X13514524Y-14073571D01*
X13524048Y-14111667D01*
X13524048Y-14159286D01*
X13514524Y-14197381D01*
X13505000Y-14216428D01*
X13495476Y-14225952D01*
X13476428Y-14235476D01*
X13457381Y-14235476D01*
X13438333Y-14225952D01*
X13428809Y-14216428D01*
X13419286Y-14197381D01*
X13409762Y-14159286D01*
X13409762Y-14111667D01*
X13419286Y-14073571D01*
X13428809Y-14054524D01*
X13438333Y-14045000D01*
X13457381Y-14035476D01*
X13609762Y-14235476D02*
X13609762Y-14102143D01*
X13609762Y-14121190D02*
X13619286Y-14111667D01*
X13638333Y-14102143D01*
X13666905Y-14102143D01*
X13685952Y-14111667D01*
X13695476Y-14130714D01*
X13695476Y-14235476D01*
X13695476Y-14130714D02*
X13705000Y-14111667D01*
X13724048Y-14102143D01*
X13752619Y-14102143D01*
X13771667Y-14111667D01*
X13781190Y-14130714D01*
X13781190Y-14235476D01*
X13876428Y-14235476D02*
X13876428Y-14102143D01*
X13876428Y-14121190D02*
X13885952Y-14111667D01*
X13905000Y-14102143D01*
X13933571Y-14102143D01*
X13952619Y-14111667D01*
X13962143Y-14130714D01*
X13962143Y-14235476D01*
X13962143Y-14130714D02*
X13971667Y-14111667D01*
X13990714Y-14102143D01*
X14019286Y-14102143D01*
X14038333Y-14111667D01*
X14047857Y-14130714D01*
X14047857Y-14235476D01*
X14438333Y-14025952D02*
X14266905Y-14283095D01*
X14695476Y-14035476D02*
X14714524Y-14035476D01*
X14733571Y-14045000D01*
X14743095Y-14054524D01*
X14752619Y-14073571D01*
X14762143Y-14111667D01*
X14762143Y-14159286D01*
X14752619Y-14197381D01*
X14743095Y-14216428D01*
X14733571Y-14225952D01*
X14714524Y-14235476D01*
X14695476Y-14235476D01*
X14676428Y-14225952D01*
X14666905Y-14216428D01*
X14657381Y-14197381D01*
X14647857Y-14159286D01*
X14647857Y-14111667D01*
X14657381Y-14073571D01*
X14666905Y-14054524D01*
X14676428Y-14045000D01*
X14695476Y-14035476D01*
X14847857Y-14216428D02*
X14857381Y-14225952D01*
X14847857Y-14235476D01*
X14838333Y-14225952D01*
X14847857Y-14216428D01*
X14847857Y-14235476D01*
X14981190Y-14035476D02*
X15000238Y-14035476D01*
X15019286Y-14045000D01*
X15028809Y-14054524D01*
X15038333Y-14073571D01*
X15047857Y-14111667D01*
X15047857Y-14159286D01*
X15038333Y-14197381D01*
X15028809Y-14216428D01*
X15019286Y-14225952D01*
X15000238Y-14235476D01*
X14981190Y-14235476D01*
X14962143Y-14225952D01*
X14952619Y-14216428D01*
X14943095Y-14197381D01*
X14933571Y-14159286D01*
X14933571Y-14111667D01*
X14943095Y-14073571D01*
X14952619Y-14054524D01*
X14962143Y-14045000D01*
X14981190Y-14035476D01*
X15238333Y-14235476D02*
X15124048Y-14235476D01*
X15181190Y-14235476D02*
X15181190Y-14035476D01*
X15162143Y-14064048D01*
X15143095Y-14083095D01*
X15124048Y-14092619D01*
X15428809Y-14235476D02*
X15314524Y-14235476D01*
X15371667Y-14235476D02*
X15371667Y-14035476D01*
X15352619Y-14064048D01*
X15333571Y-14083095D01*
X15314524Y-14092619D01*
X15543095Y-14121190D02*
X15524048Y-14111667D01*
X15514524Y-14102143D01*
X15505000Y-14083095D01*
X15505000Y-14073571D01*
X15514524Y-14054524D01*
X15524048Y-14045000D01*
X15543095Y-14035476D01*
X15581190Y-14035476D01*
X15600238Y-14045000D01*
X15609762Y-14054524D01*
X15619286Y-14073571D01*
X15619286Y-14083095D01*
X15609762Y-14102143D01*
X15600238Y-14111667D01*
X15581190Y-14121190D01*
X15543095Y-14121190D01*
X15524048Y-14130714D01*
X15514524Y-14140238D01*
X15505000Y-14159286D01*
X15505000Y-14197381D01*
X15514524Y-14216428D01*
X15524048Y-14225952D01*
X15543095Y-14235476D01*
X15581190Y-14235476D01*
X15600238Y-14225952D01*
X15609762Y-14216428D01*
X15619286Y-14197381D01*
X15619286Y-14159286D01*
X15609762Y-14140238D01*
X15600238Y-14130714D01*
X15581190Y-14121190D01*
X15695476Y-14035476D02*
X15695476Y-14073571D01*
X15771667Y-14035476D02*
X15771667Y-14073571D01*
X16066905Y-14311667D02*
X16057381Y-14302143D01*
X16038333Y-14273571D01*
X16028809Y-14254524D01*
X16019286Y-14225952D01*
X16009762Y-14178333D01*
X16009762Y-14140238D01*
X16019286Y-14092619D01*
X16028809Y-14064048D01*
X16038333Y-14045000D01*
X16057381Y-14016428D01*
X16066905Y-14006905D01*
X16133571Y-14054524D02*
X16143095Y-14045000D01*
X16162143Y-14035476D01*
X16209762Y-14035476D01*
X16228809Y-14045000D01*
X16238333Y-14054524D01*
X16247857Y-14073571D01*
X16247857Y-14092619D01*
X16238333Y-14121190D01*
X16124048Y-14235476D01*
X16247857Y-14235476D01*
X16314524Y-14035476D02*
X16438333Y-14035476D01*
X16371667Y-14111667D01*
X16400238Y-14111667D01*
X16419286Y-14121190D01*
X16428809Y-14130714D01*
X16438333Y-14149762D01*
X16438333Y-14197381D01*
X16428809Y-14216428D01*
X16419286Y-14225952D01*
X16400238Y-14235476D01*
X16343095Y-14235476D01*
X16324048Y-14225952D01*
X16314524Y-14216428D01*
X16676428Y-14235476D02*
X16676428Y-14035476D01*
X16762143Y-14235476D02*
X16762143Y-14130714D01*
X16752619Y-14111667D01*
X16733571Y-14102143D01*
X16705000Y-14102143D01*
X16685952Y-14111667D01*
X16676428Y-14121190D01*
X16885952Y-14235476D02*
X16866905Y-14225952D01*
X16857381Y-14216428D01*
X16847857Y-14197381D01*
X16847857Y-14140238D01*
X16857381Y-14121190D01*
X16866905Y-14111667D01*
X16885952Y-14102143D01*
X16914524Y-14102143D01*
X16933571Y-14111667D01*
X16943095Y-14121190D01*
X16952619Y-14140238D01*
X16952619Y-14197381D01*
X16943095Y-14216428D01*
X16933571Y-14225952D01*
X16914524Y-14235476D01*
X16885952Y-14235476D01*
X17066905Y-14235476D02*
X17047857Y-14225952D01*
X17038333Y-14206905D01*
X17038333Y-14035476D01*
X17219286Y-14225952D02*
X17200238Y-14235476D01*
X17162143Y-14235476D01*
X17143095Y-14225952D01*
X17133571Y-14206905D01*
X17133571Y-14130714D01*
X17143095Y-14111667D01*
X17162143Y-14102143D01*
X17200238Y-14102143D01*
X17219286Y-14111667D01*
X17228810Y-14130714D01*
X17228810Y-14149762D01*
X17133571Y-14168809D01*
X17305000Y-14225952D02*
X17324048Y-14235476D01*
X17362143Y-14235476D01*
X17381190Y-14225952D01*
X17390714Y-14206905D01*
X17390714Y-14197381D01*
X17381190Y-14178333D01*
X17362143Y-14168809D01*
X17333571Y-14168809D01*
X17314524Y-14159286D01*
X17305000Y-14140238D01*
X17305000Y-14130714D01*
X17314524Y-14111667D01*
X17333571Y-14102143D01*
X17362143Y-14102143D01*
X17381190Y-14111667D01*
X17457381Y-14311667D02*
X17466905Y-14302143D01*
X17485952Y-14273571D01*
X17495476Y-14254524D01*
X17505000Y-14225952D01*
X17514524Y-14178333D01*
X17514524Y-14140238D01*
X17505000Y-14092619D01*
X17495476Y-14064048D01*
X17485952Y-14045000D01*
X17466905Y-14016428D01*
X17457381Y-14006905D01*
D13*
X12495000Y-14409000D02*
G75*
G03*
X12495000Y-14409000I-25000J0D01*
G01*
D11*
X12790714Y-14299476D02*
X12809762Y-14299476D01*
X12828809Y-14309000D01*
X12838333Y-14318524D01*
X12847857Y-14337571D01*
X12857381Y-14375667D01*
X12857381Y-14423286D01*
X12847857Y-14461381D01*
X12838333Y-14480428D01*
X12828809Y-14489952D01*
X12809762Y-14499476D01*
X12790714Y-14499476D01*
X12771667Y-14489952D01*
X12762143Y-14480428D01*
X12752619Y-14461381D01*
X12743095Y-14423286D01*
X12743095Y-14375667D01*
X12752619Y-14337571D01*
X12762143Y-14318524D01*
X12771667Y-14309000D01*
X12790714Y-14299476D01*
X12943095Y-14480428D02*
X12952619Y-14489952D01*
X12943095Y-14499476D01*
X12933571Y-14489952D01*
X12943095Y-14480428D01*
X12943095Y-14499476D01*
X13133571Y-14299476D02*
X13038333Y-14299476D01*
X13028809Y-14394714D01*
X13038333Y-14385190D01*
X13057381Y-14375667D01*
X13105000Y-14375667D01*
X13124048Y-14385190D01*
X13133571Y-14394714D01*
X13143095Y-14413762D01*
X13143095Y-14461381D01*
X13133571Y-14480428D01*
X13124048Y-14489952D01*
X13105000Y-14499476D01*
X13057381Y-14499476D01*
X13038333Y-14489952D01*
X13028809Y-14480428D01*
X13266905Y-14299476D02*
X13285952Y-14299476D01*
X13305000Y-14309000D01*
X13314524Y-14318524D01*
X13324048Y-14337571D01*
X13333571Y-14375667D01*
X13333571Y-14423286D01*
X13324048Y-14461381D01*
X13314524Y-14480428D01*
X13305000Y-14489952D01*
X13285952Y-14499476D01*
X13266905Y-14499476D01*
X13247857Y-14489952D01*
X13238333Y-14480428D01*
X13228809Y-14461381D01*
X13219286Y-14423286D01*
X13219286Y-14375667D01*
X13228809Y-14337571D01*
X13238333Y-14318524D01*
X13247857Y-14309000D01*
X13266905Y-14299476D01*
X13457381Y-14299476D02*
X13476428Y-14299476D01*
X13495476Y-14309000D01*
X13505000Y-14318524D01*
X13514524Y-14337571D01*
X13524048Y-14375667D01*
X13524048Y-14423286D01*
X13514524Y-14461381D01*
X13505000Y-14480428D01*
X13495476Y-14489952D01*
X13476428Y-14499476D01*
X13457381Y-14499476D01*
X13438333Y-14489952D01*
X13428809Y-14480428D01*
X13419286Y-14461381D01*
X13409762Y-14423286D01*
X13409762Y-14375667D01*
X13419286Y-14337571D01*
X13428809Y-14318524D01*
X13438333Y-14309000D01*
X13457381Y-14299476D01*
X13609762Y-14499476D02*
X13609762Y-14366143D01*
X13609762Y-14385190D02*
X13619286Y-14375667D01*
X13638333Y-14366143D01*
X13666905Y-14366143D01*
X13685952Y-14375667D01*
X13695476Y-14394714D01*
X13695476Y-14499476D01*
X13695476Y-14394714D02*
X13705000Y-14375667D01*
X13724048Y-14366143D01*
X13752619Y-14366143D01*
X13771667Y-14375667D01*
X13781190Y-14394714D01*
X13781190Y-14499476D01*
X13876428Y-14499476D02*
X13876428Y-14366143D01*
X13876428Y-14385190D02*
X13885952Y-14375667D01*
X13905000Y-14366143D01*
X13933571Y-14366143D01*
X13952619Y-14375667D01*
X13962143Y-14394714D01*
X13962143Y-14499476D01*
X13962143Y-14394714D02*
X13971667Y-14375667D01*
X13990714Y-14366143D01*
X14019286Y-14366143D01*
X14038333Y-14375667D01*
X14047857Y-14394714D01*
X14047857Y-14499476D01*
X14438333Y-14289952D02*
X14266905Y-14547095D01*
X14695476Y-14299476D02*
X14714524Y-14299476D01*
X14733571Y-14309000D01*
X14743095Y-14318524D01*
X14752619Y-14337571D01*
X14762143Y-14375667D01*
X14762143Y-14423286D01*
X14752619Y-14461381D01*
X14743095Y-14480428D01*
X14733571Y-14489952D01*
X14714524Y-14499476D01*
X14695476Y-14499476D01*
X14676428Y-14489952D01*
X14666905Y-14480428D01*
X14657381Y-14461381D01*
X14647857Y-14423286D01*
X14647857Y-14375667D01*
X14657381Y-14337571D01*
X14666905Y-14318524D01*
X14676428Y-14309000D01*
X14695476Y-14299476D01*
X14847857Y-14480428D02*
X14857381Y-14489952D01*
X14847857Y-14499476D01*
X14838333Y-14489952D01*
X14847857Y-14480428D01*
X14847857Y-14499476D01*
X14981190Y-14299476D02*
X15000238Y-14299476D01*
X15019286Y-14309000D01*
X15028809Y-14318524D01*
X15038333Y-14337571D01*
X15047857Y-14375667D01*
X15047857Y-14423286D01*
X15038333Y-14461381D01*
X15028809Y-14480428D01*
X15019286Y-14489952D01*
X15000238Y-14499476D01*
X14981190Y-14499476D01*
X14962143Y-14489952D01*
X14952619Y-14480428D01*
X14943095Y-14461381D01*
X14933571Y-14423286D01*
X14933571Y-14375667D01*
X14943095Y-14337571D01*
X14952619Y-14318524D01*
X14962143Y-14309000D01*
X14981190Y-14299476D01*
X15238333Y-14499476D02*
X15124048Y-14499476D01*
X15181190Y-14499476D02*
X15181190Y-14299476D01*
X15162143Y-14328048D01*
X15143095Y-14347095D01*
X15124048Y-14356619D01*
X15333571Y-14499476D02*
X15371667Y-14499476D01*
X15390714Y-14489952D01*
X15400238Y-14480428D01*
X15419286Y-14451857D01*
X15428809Y-14413762D01*
X15428809Y-14337571D01*
X15419286Y-14318524D01*
X15409762Y-14309000D01*
X15390714Y-14299476D01*
X15352619Y-14299476D01*
X15333571Y-14309000D01*
X15324048Y-14318524D01*
X15314524Y-14337571D01*
X15314524Y-14385190D01*
X15324048Y-14404238D01*
X15333571Y-14413762D01*
X15352619Y-14423286D01*
X15390714Y-14423286D01*
X15409762Y-14413762D01*
X15419286Y-14404238D01*
X15428809Y-14385190D01*
X15495476Y-14299476D02*
X15628809Y-14299476D01*
X15543095Y-14499476D01*
X15695476Y-14299476D02*
X15695476Y-14337571D01*
X15771667Y-14299476D02*
X15771667Y-14337571D01*
X16066905Y-14575667D02*
X16057381Y-14566143D01*
X16038333Y-14537571D01*
X16028809Y-14518524D01*
X16019286Y-14489952D01*
X16009762Y-14442333D01*
X16009762Y-14404238D01*
X16019286Y-14356619D01*
X16028809Y-14328048D01*
X16038333Y-14309000D01*
X16057381Y-14280428D01*
X16066905Y-14270905D01*
X16133571Y-14318524D02*
X16143095Y-14309000D01*
X16162143Y-14299476D01*
X16209762Y-14299476D01*
X16228809Y-14309000D01*
X16238333Y-14318524D01*
X16247857Y-14337571D01*
X16247857Y-14356619D01*
X16238333Y-14385190D01*
X16124048Y-14499476D01*
X16247857Y-14499476D01*
X16419286Y-14366143D02*
X16419286Y-14499476D01*
X16371667Y-14289952D02*
X16324048Y-14432809D01*
X16447857Y-14432809D01*
X16676428Y-14499476D02*
X16676428Y-14299476D01*
X16762143Y-14499476D02*
X16762143Y-14394714D01*
X16752619Y-14375667D01*
X16733571Y-14366143D01*
X16705000Y-14366143D01*
X16685952Y-14375667D01*
X16676428Y-14385190D01*
X16885952Y-14499476D02*
X16866905Y-14489952D01*
X16857381Y-14480428D01*
X16847857Y-14461381D01*
X16847857Y-14404238D01*
X16857381Y-14385190D01*
X16866905Y-14375667D01*
X16885952Y-14366143D01*
X16914524Y-14366143D01*
X16933571Y-14375667D01*
X16943095Y-14385190D01*
X16952619Y-14404238D01*
X16952619Y-14461381D01*
X16943095Y-14480428D01*
X16933571Y-14489952D01*
X16914524Y-14499476D01*
X16885952Y-14499476D01*
X17066905Y-14499476D02*
X17047857Y-14489952D01*
X17038333Y-14470905D01*
X17038333Y-14299476D01*
X17219286Y-14489952D02*
X17200238Y-14499476D01*
X17162143Y-14499476D01*
X17143095Y-14489952D01*
X17133571Y-14470905D01*
X17133571Y-14394714D01*
X17143095Y-14375667D01*
X17162143Y-14366143D01*
X17200238Y-14366143D01*
X17219286Y-14375667D01*
X17228810Y-14394714D01*
X17228810Y-14413762D01*
X17133571Y-14432809D01*
X17305000Y-14489952D02*
X17324048Y-14499476D01*
X17362143Y-14499476D01*
X17381190Y-14489952D01*
X17390714Y-14470905D01*
X17390714Y-14461381D01*
X17381190Y-14442333D01*
X17362143Y-14432809D01*
X17333571Y-14432809D01*
X17314524Y-14423286D01*
X17305000Y-14404238D01*
X17305000Y-14394714D01*
X17314524Y-14375667D01*
X17333571Y-14366143D01*
X17362143Y-14366143D01*
X17381190Y-14375667D01*
X17457381Y-14575667D02*
X17466905Y-14566143D01*
X17485952Y-14537571D01*
X17495476Y-14518524D01*
X17505000Y-14489952D01*
X17514524Y-14442333D01*
X17514524Y-14404238D01*
X17505000Y-14356619D01*
X17495476Y-14328048D01*
X17485952Y-14309000D01*
X17466905Y-14280428D01*
X17457381Y-14270905D01*
D14*
X12455000Y-14633000D02*
X12455000Y-14713000D01*
X12415000Y-14673000D02*
X12495000Y-14673000D01*
D11*
X12790714Y-14563476D02*
X12809762Y-14563476D01*
X12828809Y-14573000D01*
X12838333Y-14582524D01*
X12847857Y-14601571D01*
X12857381Y-14639667D01*
X12857381Y-14687286D01*
X12847857Y-14725381D01*
X12838333Y-14744428D01*
X12828809Y-14753952D01*
X12809762Y-14763476D01*
X12790714Y-14763476D01*
X12771667Y-14753952D01*
X12762143Y-14744428D01*
X12752619Y-14725381D01*
X12743095Y-14687286D01*
X12743095Y-14639667D01*
X12752619Y-14601571D01*
X12762143Y-14582524D01*
X12771667Y-14573000D01*
X12790714Y-14563476D01*
X12943095Y-14744428D02*
X12952619Y-14753952D01*
X12943095Y-14763476D01*
X12933571Y-14753952D01*
X12943095Y-14744428D01*
X12943095Y-14763476D01*
X13066905Y-14649190D02*
X13047857Y-14639667D01*
X13038333Y-14630143D01*
X13028809Y-14611095D01*
X13028809Y-14601571D01*
X13038333Y-14582524D01*
X13047857Y-14573000D01*
X13066905Y-14563476D01*
X13105000Y-14563476D01*
X13124048Y-14573000D01*
X13133571Y-14582524D01*
X13143095Y-14601571D01*
X13143095Y-14611095D01*
X13133571Y-14630143D01*
X13124048Y-14639667D01*
X13105000Y-14649190D01*
X13066905Y-14649190D01*
X13047857Y-14658714D01*
X13038333Y-14668238D01*
X13028809Y-14687286D01*
X13028809Y-14725381D01*
X13038333Y-14744428D01*
X13047857Y-14753952D01*
X13066905Y-14763476D01*
X13105000Y-14763476D01*
X13124048Y-14753952D01*
X13133571Y-14744428D01*
X13143095Y-14725381D01*
X13143095Y-14687286D01*
X13133571Y-14668238D01*
X13124048Y-14658714D01*
X13105000Y-14649190D01*
X13266905Y-14563476D02*
X13285952Y-14563476D01*
X13305000Y-14573000D01*
X13314524Y-14582524D01*
X13324048Y-14601571D01*
X13333571Y-14639667D01*
X13333571Y-14687286D01*
X13324048Y-14725381D01*
X13314524Y-14744428D01*
X13305000Y-14753952D01*
X13285952Y-14763476D01*
X13266905Y-14763476D01*
X13247857Y-14753952D01*
X13238333Y-14744428D01*
X13228809Y-14725381D01*
X13219286Y-14687286D01*
X13219286Y-14639667D01*
X13228809Y-14601571D01*
X13238333Y-14582524D01*
X13247857Y-14573000D01*
X13266905Y-14563476D01*
X13457381Y-14563476D02*
X13476428Y-14563476D01*
X13495476Y-14573000D01*
X13505000Y-14582524D01*
X13514524Y-14601571D01*
X13524048Y-14639667D01*
X13524048Y-14687286D01*
X13514524Y-14725381D01*
X13505000Y-14744428D01*
X13495476Y-14753952D01*
X13476428Y-14763476D01*
X13457381Y-14763476D01*
X13438333Y-14753952D01*
X13428809Y-14744428D01*
X13419286Y-14725381D01*
X13409762Y-14687286D01*
X13409762Y-14639667D01*
X13419286Y-14601571D01*
X13428809Y-14582524D01*
X13438333Y-14573000D01*
X13457381Y-14563476D01*
X13609762Y-14763476D02*
X13609762Y-14630143D01*
X13609762Y-14649190D02*
X13619286Y-14639667D01*
X13638333Y-14630143D01*
X13666905Y-14630143D01*
X13685952Y-14639667D01*
X13695476Y-14658714D01*
X13695476Y-14763476D01*
X13695476Y-14658714D02*
X13705000Y-14639667D01*
X13724048Y-14630143D01*
X13752619Y-14630143D01*
X13771667Y-14639667D01*
X13781190Y-14658714D01*
X13781190Y-14763476D01*
X13876428Y-14763476D02*
X13876428Y-14630143D01*
X13876428Y-14649190D02*
X13885952Y-14639667D01*
X13905000Y-14630143D01*
X13933571Y-14630143D01*
X13952619Y-14639667D01*
X13962143Y-14658714D01*
X13962143Y-14763476D01*
X13962143Y-14658714D02*
X13971667Y-14639667D01*
X13990714Y-14630143D01*
X14019286Y-14630143D01*
X14038333Y-14639667D01*
X14047857Y-14658714D01*
X14047857Y-14763476D01*
X14438333Y-14553952D02*
X14266905Y-14811095D01*
X14695476Y-14563476D02*
X14714524Y-14563476D01*
X14733571Y-14573000D01*
X14743095Y-14582524D01*
X14752619Y-14601571D01*
X14762143Y-14639667D01*
X14762143Y-14687286D01*
X14752619Y-14725381D01*
X14743095Y-14744428D01*
X14733571Y-14753952D01*
X14714524Y-14763476D01*
X14695476Y-14763476D01*
X14676428Y-14753952D01*
X14666905Y-14744428D01*
X14657381Y-14725381D01*
X14647857Y-14687286D01*
X14647857Y-14639667D01*
X14657381Y-14601571D01*
X14666905Y-14582524D01*
X14676428Y-14573000D01*
X14695476Y-14563476D01*
X14847857Y-14744428D02*
X14857381Y-14753952D01*
X14847857Y-14763476D01*
X14838333Y-14753952D01*
X14847857Y-14744428D01*
X14847857Y-14763476D01*
X14981190Y-14563476D02*
X15000238Y-14563476D01*
X15019286Y-14573000D01*
X15028809Y-14582524D01*
X15038333Y-14601571D01*
X15047857Y-14639667D01*
X15047857Y-14687286D01*
X15038333Y-14725381D01*
X15028809Y-14744428D01*
X15019286Y-14753952D01*
X15000238Y-14763476D01*
X14981190Y-14763476D01*
X14962143Y-14753952D01*
X14952619Y-14744428D01*
X14943095Y-14725381D01*
X14933571Y-14687286D01*
X14933571Y-14639667D01*
X14943095Y-14601571D01*
X14952619Y-14582524D01*
X14962143Y-14573000D01*
X14981190Y-14563476D01*
X15114524Y-14563476D02*
X15238333Y-14563476D01*
X15171667Y-14639667D01*
X15200238Y-14639667D01*
X15219286Y-14649190D01*
X15228809Y-14658714D01*
X15238333Y-14677762D01*
X15238333Y-14725381D01*
X15228809Y-14744428D01*
X15219286Y-14753952D01*
X15200238Y-14763476D01*
X15143095Y-14763476D01*
X15124048Y-14753952D01*
X15114524Y-14744428D01*
X15428809Y-14763476D02*
X15314524Y-14763476D01*
X15371667Y-14763476D02*
X15371667Y-14563476D01*
X15352619Y-14592048D01*
X15333571Y-14611095D01*
X15314524Y-14620619D01*
X15609762Y-14563476D02*
X15514524Y-14563476D01*
X15505000Y-14658714D01*
X15514524Y-14649190D01*
X15533571Y-14639667D01*
X15581190Y-14639667D01*
X15600238Y-14649190D01*
X15609762Y-14658714D01*
X15619286Y-14677762D01*
X15619286Y-14725381D01*
X15609762Y-14744428D01*
X15600238Y-14753952D01*
X15581190Y-14763476D01*
X15533571Y-14763476D01*
X15514524Y-14753952D01*
X15505000Y-14744428D01*
X15695476Y-14563476D02*
X15695476Y-14601571D01*
X15771667Y-14563476D02*
X15771667Y-14601571D01*
X16066905Y-14839667D02*
X16057381Y-14830143D01*
X16038333Y-14801571D01*
X16028809Y-14782524D01*
X16019286Y-14753952D01*
X16009762Y-14706333D01*
X16009762Y-14668238D01*
X16019286Y-14620619D01*
X16028809Y-14592048D01*
X16038333Y-14573000D01*
X16057381Y-14544428D01*
X16066905Y-14534905D01*
X16133571Y-14582524D02*
X16143095Y-14573000D01*
X16162143Y-14563476D01*
X16209762Y-14563476D01*
X16228809Y-14573000D01*
X16238333Y-14582524D01*
X16247857Y-14601571D01*
X16247857Y-14620619D01*
X16238333Y-14649190D01*
X16124048Y-14763476D01*
X16247857Y-14763476D01*
X16485952Y-14763476D02*
X16485952Y-14563476D01*
X16571667Y-14763476D02*
X16571667Y-14658714D01*
X16562143Y-14639667D01*
X16543095Y-14630143D01*
X16514524Y-14630143D01*
X16495476Y-14639667D01*
X16485952Y-14649190D01*
X16695476Y-14763476D02*
X16676428Y-14753952D01*
X16666905Y-14744428D01*
X16657381Y-14725381D01*
X16657381Y-14668238D01*
X16666905Y-14649190D01*
X16676428Y-14639667D01*
X16695476Y-14630143D01*
X16724048Y-14630143D01*
X16743095Y-14639667D01*
X16752619Y-14649190D01*
X16762143Y-14668238D01*
X16762143Y-14725381D01*
X16752619Y-14744428D01*
X16743095Y-14753952D01*
X16724048Y-14763476D01*
X16695476Y-14763476D01*
X16876429Y-14763476D02*
X16857381Y-14753952D01*
X16847857Y-14734905D01*
X16847857Y-14563476D01*
X17028810Y-14753952D02*
X17009762Y-14763476D01*
X16971667Y-14763476D01*
X16952619Y-14753952D01*
X16943095Y-14734905D01*
X16943095Y-14658714D01*
X16952619Y-14639667D01*
X16971667Y-14630143D01*
X17009762Y-14630143D01*
X17028810Y-14639667D01*
X17038333Y-14658714D01*
X17038333Y-14677762D01*
X16943095Y-14696809D01*
X17114524Y-14753952D02*
X17133571Y-14763476D01*
X17171667Y-14763476D01*
X17190714Y-14753952D01*
X17200238Y-14734905D01*
X17200238Y-14725381D01*
X17190714Y-14706333D01*
X17171667Y-14696809D01*
X17143095Y-14696809D01*
X17124048Y-14687286D01*
X17114524Y-14668238D01*
X17114524Y-14658714D01*
X17124048Y-14639667D01*
X17143095Y-14630143D01*
X17171667Y-14630143D01*
X17190714Y-14639667D01*
X17266905Y-14839667D02*
X17276429Y-14830143D01*
X17295476Y-14801571D01*
X17305000Y-14782524D01*
X17314524Y-14753952D01*
X17324048Y-14706333D01*
X17324048Y-14668238D01*
X17314524Y-14620619D01*
X17305000Y-14592048D01*
X17295476Y-14573000D01*
X17276429Y-14544428D01*
X17266905Y-14534905D01*
D15*
X12481527Y-14969527D02*
X12481527Y-14904473D01*
X12416473Y-14904473D01*
X12416473Y-14969527D01*
X12481527Y-14969527D01*
D11*
X12790714Y-14827476D02*
X12809762Y-14827476D01*
X12828809Y-14837000D01*
X12838333Y-14846524D01*
X12847857Y-14865571D01*
X12857381Y-14903667D01*
X12857381Y-14951286D01*
X12847857Y-14989381D01*
X12838333Y-15008428D01*
X12828809Y-15017952D01*
X12809762Y-15027476D01*
X12790714Y-15027476D01*
X12771667Y-15017952D01*
X12762143Y-15008428D01*
X12752619Y-14989381D01*
X12743095Y-14951286D01*
X12743095Y-14903667D01*
X12752619Y-14865571D01*
X12762143Y-14846524D01*
X12771667Y-14837000D01*
X12790714Y-14827476D01*
X12943095Y-15008428D02*
X12952619Y-15017952D01*
X12943095Y-15027476D01*
X12933571Y-15017952D01*
X12943095Y-15008428D01*
X12943095Y-15027476D01*
X13047857Y-15027476D02*
X13085952Y-15027476D01*
X13105000Y-15017952D01*
X13114524Y-15008428D01*
X13133571Y-14979857D01*
X13143095Y-14941762D01*
X13143095Y-14865571D01*
X13133571Y-14846524D01*
X13124048Y-14837000D01*
X13105000Y-14827476D01*
X13066905Y-14827476D01*
X13047857Y-14837000D01*
X13038333Y-14846524D01*
X13028809Y-14865571D01*
X13028809Y-14913190D01*
X13038333Y-14932238D01*
X13047857Y-14941762D01*
X13066905Y-14951286D01*
X13105000Y-14951286D01*
X13124048Y-14941762D01*
X13133571Y-14932238D01*
X13143095Y-14913190D01*
X13219286Y-14846524D02*
X13228809Y-14837000D01*
X13247857Y-14827476D01*
X13295476Y-14827476D01*
X13314524Y-14837000D01*
X13324048Y-14846524D01*
X13333571Y-14865571D01*
X13333571Y-14884619D01*
X13324048Y-14913190D01*
X13209762Y-15027476D01*
X13333571Y-15027476D01*
X13457381Y-14827476D02*
X13476428Y-14827476D01*
X13495476Y-14837000D01*
X13505000Y-14846524D01*
X13514524Y-14865571D01*
X13524048Y-14903667D01*
X13524048Y-14951286D01*
X13514524Y-14989381D01*
X13505000Y-15008428D01*
X13495476Y-15017952D01*
X13476428Y-15027476D01*
X13457381Y-15027476D01*
X13438333Y-15017952D01*
X13428809Y-15008428D01*
X13419286Y-14989381D01*
X13409762Y-14951286D01*
X13409762Y-14903667D01*
X13419286Y-14865571D01*
X13428809Y-14846524D01*
X13438333Y-14837000D01*
X13457381Y-14827476D01*
X13609762Y-15027476D02*
X13609762Y-14894143D01*
X13609762Y-14913190D02*
X13619286Y-14903667D01*
X13638333Y-14894143D01*
X13666905Y-14894143D01*
X13685952Y-14903667D01*
X13695476Y-14922714D01*
X13695476Y-15027476D01*
X13695476Y-14922714D02*
X13705000Y-14903667D01*
X13724048Y-14894143D01*
X13752619Y-14894143D01*
X13771667Y-14903667D01*
X13781190Y-14922714D01*
X13781190Y-15027476D01*
X13876428Y-15027476D02*
X13876428Y-14894143D01*
X13876428Y-14913190D02*
X13885952Y-14903667D01*
X13905000Y-14894143D01*
X13933571Y-14894143D01*
X13952619Y-14903667D01*
X13962143Y-14922714D01*
X13962143Y-15027476D01*
X13962143Y-14922714D02*
X13971667Y-14903667D01*
X13990714Y-14894143D01*
X14019286Y-14894143D01*
X14038333Y-14903667D01*
X14047857Y-14922714D01*
X14047857Y-15027476D01*
X14438333Y-14817952D02*
X14266905Y-15075095D01*
X14695476Y-14827476D02*
X14714524Y-14827476D01*
X14733571Y-14837000D01*
X14743095Y-14846524D01*
X14752619Y-14865571D01*
X14762143Y-14903667D01*
X14762143Y-14951286D01*
X14752619Y-14989381D01*
X14743095Y-15008428D01*
X14733571Y-15017952D01*
X14714524Y-15027476D01*
X14695476Y-15027476D01*
X14676428Y-15017952D01*
X14666905Y-15008428D01*
X14657381Y-14989381D01*
X14647857Y-14951286D01*
X14647857Y-14903667D01*
X14657381Y-14865571D01*
X14666905Y-14846524D01*
X14676428Y-14837000D01*
X14695476Y-14827476D01*
X14847857Y-15008428D02*
X14857381Y-15017952D01*
X14847857Y-15027476D01*
X14838333Y-15017952D01*
X14847857Y-15008428D01*
X14847857Y-15027476D01*
X14981190Y-14827476D02*
X15000238Y-14827476D01*
X15019286Y-14837000D01*
X15028809Y-14846524D01*
X15038333Y-14865571D01*
X15047857Y-14903667D01*
X15047857Y-14951286D01*
X15038333Y-14989381D01*
X15028809Y-15008428D01*
X15019286Y-15017952D01*
X15000238Y-15027476D01*
X14981190Y-15027476D01*
X14962143Y-15017952D01*
X14952619Y-15008428D01*
X14943095Y-14989381D01*
X14933571Y-14951286D01*
X14933571Y-14903667D01*
X14943095Y-14865571D01*
X14952619Y-14846524D01*
X14962143Y-14837000D01*
X14981190Y-14827476D01*
X15114524Y-14827476D02*
X15238333Y-14827476D01*
X15171667Y-14903667D01*
X15200238Y-14903667D01*
X15219286Y-14913190D01*
X15228809Y-14922714D01*
X15238333Y-14941762D01*
X15238333Y-14989381D01*
X15228809Y-15008428D01*
X15219286Y-15017952D01*
X15200238Y-15027476D01*
X15143095Y-15027476D01*
X15124048Y-15017952D01*
X15114524Y-15008428D01*
X15409762Y-14827476D02*
X15371667Y-14827476D01*
X15352619Y-14837000D01*
X15343095Y-14846524D01*
X15324048Y-14875095D01*
X15314524Y-14913190D01*
X15314524Y-14989381D01*
X15324048Y-15008428D01*
X15333571Y-15017952D01*
X15352619Y-15027476D01*
X15390714Y-15027476D01*
X15409762Y-15017952D01*
X15419286Y-15008428D01*
X15428809Y-14989381D01*
X15428809Y-14941762D01*
X15419286Y-14922714D01*
X15409762Y-14913190D01*
X15390714Y-14903667D01*
X15352619Y-14903667D01*
X15333571Y-14913190D01*
X15324048Y-14922714D01*
X15314524Y-14941762D01*
X15505000Y-14846524D02*
X15514524Y-14837000D01*
X15533571Y-14827476D01*
X15581190Y-14827476D01*
X15600238Y-14837000D01*
X15609762Y-14846524D01*
X15619286Y-14865571D01*
X15619286Y-14884619D01*
X15609762Y-14913190D01*
X15495476Y-15027476D01*
X15619286Y-15027476D01*
X15695476Y-14827476D02*
X15695476Y-14865571D01*
X15771667Y-14827476D02*
X15771667Y-14865571D01*
X16066905Y-15103667D02*
X16057381Y-15094143D01*
X16038333Y-15065571D01*
X16028809Y-15046524D01*
X16019286Y-15017952D01*
X16009762Y-14970333D01*
X16009762Y-14932238D01*
X16019286Y-14884619D01*
X16028809Y-14856048D01*
X16038333Y-14837000D01*
X16057381Y-14808428D01*
X16066905Y-14798905D01*
X16247857Y-15027476D02*
X16133571Y-15027476D01*
X16190714Y-15027476D02*
X16190714Y-14827476D01*
X16171667Y-14856048D01*
X16152619Y-14875095D01*
X16133571Y-14884619D01*
X16419286Y-14827476D02*
X16381190Y-14827476D01*
X16362143Y-14837000D01*
X16352619Y-14846524D01*
X16333571Y-14875095D01*
X16324048Y-14913190D01*
X16324048Y-14989381D01*
X16333571Y-15008428D01*
X16343095Y-15017952D01*
X16362143Y-15027476D01*
X16400238Y-15027476D01*
X16419286Y-15017952D01*
X16428809Y-15008428D01*
X16438333Y-14989381D01*
X16438333Y-14941762D01*
X16428809Y-14922714D01*
X16419286Y-14913190D01*
X16400238Y-14903667D01*
X16362143Y-14903667D01*
X16343095Y-14913190D01*
X16333571Y-14922714D01*
X16324048Y-14941762D01*
X16676428Y-15027476D02*
X16676428Y-14827476D01*
X16762143Y-15027476D02*
X16762143Y-14922714D01*
X16752619Y-14903667D01*
X16733571Y-14894143D01*
X16705000Y-14894143D01*
X16685952Y-14903667D01*
X16676428Y-14913190D01*
X16885952Y-15027476D02*
X16866905Y-15017952D01*
X16857381Y-15008428D01*
X16847857Y-14989381D01*
X16847857Y-14932238D01*
X16857381Y-14913190D01*
X16866905Y-14903667D01*
X16885952Y-14894143D01*
X16914524Y-14894143D01*
X16933571Y-14903667D01*
X16943095Y-14913190D01*
X16952619Y-14932238D01*
X16952619Y-14989381D01*
X16943095Y-15008428D01*
X16933571Y-15017952D01*
X16914524Y-15027476D01*
X16885952Y-15027476D01*
X17066905Y-15027476D02*
X17047857Y-15017952D01*
X17038333Y-14998905D01*
X17038333Y-14827476D01*
X17219286Y-15017952D02*
X17200238Y-15027476D01*
X17162143Y-15027476D01*
X17143095Y-15017952D01*
X17133571Y-14998905D01*
X17133571Y-14922714D01*
X17143095Y-14903667D01*
X17162143Y-14894143D01*
X17200238Y-14894143D01*
X17219286Y-14903667D01*
X17228810Y-14922714D01*
X17228810Y-14941762D01*
X17133571Y-14960809D01*
X17305000Y-15017952D02*
X17324048Y-15027476D01*
X17362143Y-15027476D01*
X17381190Y-15017952D01*
X17390714Y-14998905D01*
X17390714Y-14989381D01*
X17381190Y-14970333D01*
X17362143Y-14960809D01*
X17333571Y-14960809D01*
X17314524Y-14951286D01*
X17305000Y-14932238D01*
X17305000Y-14922714D01*
X17314524Y-14903667D01*
X17333571Y-14894143D01*
X17362143Y-14894143D01*
X17381190Y-14903667D01*
X17457381Y-15103667D02*
X17466905Y-15094143D01*
X17485952Y-15065571D01*
X17495476Y-15046524D01*
X17505000Y-15017952D01*
X17514524Y-14970333D01*
X17514524Y-14932238D01*
X17505000Y-14884619D01*
X17495476Y-14856048D01*
X17485952Y-14837000D01*
X17466905Y-14808428D01*
X17457381Y-14798905D01*
D16*
X12445000Y-15251000D02*
X12495000Y-15201000D01*
X12445000Y-15151000D01*
X12395000Y-15201000D01*
X12445000Y-15251000D01*
D11*
X12857381Y-15291476D02*
X12743095Y-15291476D01*
X12800238Y-15291476D02*
X12800238Y-15091476D01*
X12781190Y-15120048D01*
X12762143Y-15139095D01*
X12743095Y-15148619D01*
X12943095Y-15272428D02*
X12952619Y-15281952D01*
X12943095Y-15291476D01*
X12933571Y-15281952D01*
X12943095Y-15272428D01*
X12943095Y-15291476D01*
X13076428Y-15091476D02*
X13095476Y-15091476D01*
X13114524Y-15101000D01*
X13124048Y-15110524D01*
X13133571Y-15129571D01*
X13143095Y-15167667D01*
X13143095Y-15215286D01*
X13133571Y-15253381D01*
X13124048Y-15272428D01*
X13114524Y-15281952D01*
X13095476Y-15291476D01*
X13076428Y-15291476D01*
X13057381Y-15281952D01*
X13047857Y-15272428D01*
X13038333Y-15253381D01*
X13028809Y-15215286D01*
X13028809Y-15167667D01*
X13038333Y-15129571D01*
X13047857Y-15110524D01*
X13057381Y-15101000D01*
X13076428Y-15091476D01*
X13266905Y-15091476D02*
X13285952Y-15091476D01*
X13305000Y-15101000D01*
X13314524Y-15110524D01*
X13324048Y-15129571D01*
X13333571Y-15167667D01*
X13333571Y-15215286D01*
X13324048Y-15253381D01*
X13314524Y-15272428D01*
X13305000Y-15281952D01*
X13285952Y-15291476D01*
X13266905Y-15291476D01*
X13247857Y-15281952D01*
X13238333Y-15272428D01*
X13228809Y-15253381D01*
X13219286Y-15215286D01*
X13219286Y-15167667D01*
X13228809Y-15129571D01*
X13238333Y-15110524D01*
X13247857Y-15101000D01*
X13266905Y-15091476D01*
X13457381Y-15091476D02*
X13476428Y-15091476D01*
X13495476Y-15101000D01*
X13505000Y-15110524D01*
X13514524Y-15129571D01*
X13524048Y-15167667D01*
X13524048Y-15215286D01*
X13514524Y-15253381D01*
X13505000Y-15272428D01*
X13495476Y-15281952D01*
X13476428Y-15291476D01*
X13457381Y-15291476D01*
X13438333Y-15281952D01*
X13428809Y-15272428D01*
X13419286Y-15253381D01*
X13409762Y-15215286D01*
X13409762Y-15167667D01*
X13419286Y-15129571D01*
X13428809Y-15110524D01*
X13438333Y-15101000D01*
X13457381Y-15091476D01*
X13609762Y-15291476D02*
X13609762Y-15158143D01*
X13609762Y-15177190D02*
X13619286Y-15167667D01*
X13638333Y-15158143D01*
X13666905Y-15158143D01*
X13685952Y-15167667D01*
X13695476Y-15186714D01*
X13695476Y-15291476D01*
X13695476Y-15186714D02*
X13705000Y-15167667D01*
X13724048Y-15158143D01*
X13752619Y-15158143D01*
X13771667Y-15167667D01*
X13781190Y-15186714D01*
X13781190Y-15291476D01*
X13876428Y-15291476D02*
X13876428Y-15158143D01*
X13876428Y-15177190D02*
X13885952Y-15167667D01*
X13905000Y-15158143D01*
X13933571Y-15158143D01*
X13952619Y-15167667D01*
X13962143Y-15186714D01*
X13962143Y-15291476D01*
X13962143Y-15186714D02*
X13971667Y-15167667D01*
X13990714Y-15158143D01*
X14019286Y-15158143D01*
X14038333Y-15167667D01*
X14047857Y-15186714D01*
X14047857Y-15291476D01*
X14438333Y-15081952D02*
X14266905Y-15339095D01*
X14695476Y-15091476D02*
X14714524Y-15091476D01*
X14733571Y-15101000D01*
X14743095Y-15110524D01*
X14752619Y-15129571D01*
X14762143Y-15167667D01*
X14762143Y-15215286D01*
X14752619Y-15253381D01*
X14743095Y-15272428D01*
X14733571Y-15281952D01*
X14714524Y-15291476D01*
X14695476Y-15291476D01*
X14676428Y-15281952D01*
X14666905Y-15272428D01*
X14657381Y-15253381D01*
X14647857Y-15215286D01*
X14647857Y-15167667D01*
X14657381Y-15129571D01*
X14666905Y-15110524D01*
X14676428Y-15101000D01*
X14695476Y-15091476D01*
X14847857Y-15272428D02*
X14857381Y-15281952D01*
X14847857Y-15291476D01*
X14838333Y-15281952D01*
X14847857Y-15272428D01*
X14847857Y-15291476D01*
X14981190Y-15091476D02*
X15000238Y-15091476D01*
X15019286Y-15101000D01*
X15028809Y-15110524D01*
X15038333Y-15129571D01*
X15047857Y-15167667D01*
X15047857Y-15215286D01*
X15038333Y-15253381D01*
X15028809Y-15272428D01*
X15019286Y-15281952D01*
X15000238Y-15291476D01*
X14981190Y-15291476D01*
X14962143Y-15281952D01*
X14952619Y-15272428D01*
X14943095Y-15253381D01*
X14933571Y-15215286D01*
X14933571Y-15167667D01*
X14943095Y-15129571D01*
X14952619Y-15110524D01*
X14962143Y-15101000D01*
X14981190Y-15091476D01*
X15114524Y-15091476D02*
X15238333Y-15091476D01*
X15171667Y-15167667D01*
X15200238Y-15167667D01*
X15219286Y-15177190D01*
X15228809Y-15186714D01*
X15238333Y-15205762D01*
X15238333Y-15253381D01*
X15228809Y-15272428D01*
X15219286Y-15281952D01*
X15200238Y-15291476D01*
X15143095Y-15291476D01*
X15124048Y-15281952D01*
X15114524Y-15272428D01*
X15333571Y-15291476D02*
X15371667Y-15291476D01*
X15390714Y-15281952D01*
X15400238Y-15272428D01*
X15419286Y-15243857D01*
X15428809Y-15205762D01*
X15428809Y-15129571D01*
X15419286Y-15110524D01*
X15409762Y-15101000D01*
X15390714Y-15091476D01*
X15352619Y-15091476D01*
X15333571Y-15101000D01*
X15324048Y-15110524D01*
X15314524Y-15129571D01*
X15314524Y-15177190D01*
X15324048Y-15196238D01*
X15333571Y-15205762D01*
X15352619Y-15215286D01*
X15390714Y-15215286D01*
X15409762Y-15205762D01*
X15419286Y-15196238D01*
X15428809Y-15177190D01*
X15600238Y-15158143D02*
X15600238Y-15291476D01*
X15552619Y-15081952D02*
X15505000Y-15224809D01*
X15628809Y-15224809D01*
X15695476Y-15091476D02*
X15695476Y-15129571D01*
X15771667Y-15091476D02*
X15771667Y-15129571D01*
X16066905Y-15367667D02*
X16057381Y-15358143D01*
X16038333Y-15329571D01*
X16028809Y-15310524D01*
X16019286Y-15281952D01*
X16009762Y-15234333D01*
X16009762Y-15196238D01*
X16019286Y-15148619D01*
X16028809Y-15120048D01*
X16038333Y-15101000D01*
X16057381Y-15072428D01*
X16066905Y-15062905D01*
X16247857Y-15291476D02*
X16133571Y-15291476D01*
X16190714Y-15291476D02*
X16190714Y-15091476D01*
X16171667Y-15120048D01*
X16152619Y-15139095D01*
X16133571Y-15148619D01*
X16324048Y-15110524D02*
X16333571Y-15101000D01*
X16352619Y-15091476D01*
X16400238Y-15091476D01*
X16419286Y-15101000D01*
X16428809Y-15110524D01*
X16438333Y-15129571D01*
X16438333Y-15148619D01*
X16428809Y-15177190D01*
X16314524Y-15291476D01*
X16438333Y-15291476D01*
X16676428Y-15291476D02*
X16676428Y-15091476D01*
X16762143Y-15291476D02*
X16762143Y-15186714D01*
X16752619Y-15167667D01*
X16733571Y-15158143D01*
X16705000Y-15158143D01*
X16685952Y-15167667D01*
X16676428Y-15177190D01*
X16885952Y-15291476D02*
X16866905Y-15281952D01*
X16857381Y-15272428D01*
X16847857Y-15253381D01*
X16847857Y-15196238D01*
X16857381Y-15177190D01*
X16866905Y-15167667D01*
X16885952Y-15158143D01*
X16914524Y-15158143D01*
X16933571Y-15167667D01*
X16943095Y-15177190D01*
X16952619Y-15196238D01*
X16952619Y-15253381D01*
X16943095Y-15272428D01*
X16933571Y-15281952D01*
X16914524Y-15291476D01*
X16885952Y-15291476D01*
X17066905Y-15291476D02*
X17047857Y-15281952D01*
X17038333Y-15262905D01*
X17038333Y-15091476D01*
X17219286Y-15281952D02*
X17200238Y-15291476D01*
X17162143Y-15291476D01*
X17143095Y-15281952D01*
X17133571Y-15262905D01*
X17133571Y-15186714D01*
X17143095Y-15167667D01*
X17162143Y-15158143D01*
X17200238Y-15158143D01*
X17219286Y-15167667D01*
X17228810Y-15186714D01*
X17228810Y-15205762D01*
X17133571Y-15224809D01*
X17305000Y-15281952D02*
X17324048Y-15291476D01*
X17362143Y-15291476D01*
X17381190Y-15281952D01*
X17390714Y-15262905D01*
X17390714Y-15253381D01*
X17381190Y-15234333D01*
X17362143Y-15224809D01*
X17333571Y-15224809D01*
X17314524Y-15215286D01*
X17305000Y-15196238D01*
X17305000Y-15186714D01*
X17314524Y-15167667D01*
X17333571Y-15158143D01*
X17362143Y-15158143D01*
X17381190Y-15167667D01*
X17457381Y-15367667D02*
X17466905Y-15358143D01*
X17485952Y-15329571D01*
X17495476Y-15310524D01*
X17505000Y-15281952D01*
X17514524Y-15234333D01*
X17514524Y-15196238D01*
X17505000Y-15148619D01*
X17495476Y-15120048D01*
X17485952Y-15101000D01*
X17466905Y-15072428D01*
X17457381Y-15062905D01*
X12295000Y-15365000D02*
X12495000Y-15565000D01*
X12495000Y-15365000D02*
X12295000Y-15565000D01*
X12495000Y-15465000D02*
G75*
G03*
X12495000Y-15465000I-100000J0D01*
G01*
X12743095Y-15374524D02*
X12752619Y-15365000D01*
X12771667Y-15355476D01*
X12819286Y-15355476D01*
X12838333Y-15365000D01*
X12847857Y-15374524D01*
X12857381Y-15393571D01*
X12857381Y-15412619D01*
X12847857Y-15441190D01*
X12733571Y-15555476D01*
X12857381Y-15555476D01*
X12943095Y-15536428D02*
X12952619Y-15545952D01*
X12943095Y-15555476D01*
X12933571Y-15545952D01*
X12943095Y-15536428D01*
X12943095Y-15555476D01*
X13019286Y-15355476D02*
X13143095Y-15355476D01*
X13076428Y-15431667D01*
X13105000Y-15431667D01*
X13124048Y-15441190D01*
X13133571Y-15450714D01*
X13143095Y-15469762D01*
X13143095Y-15517381D01*
X13133571Y-15536428D01*
X13124048Y-15545952D01*
X13105000Y-15555476D01*
X13047857Y-15555476D01*
X13028809Y-15545952D01*
X13019286Y-15536428D01*
X13266905Y-15355476D02*
X13285952Y-15355476D01*
X13305000Y-15365000D01*
X13314524Y-15374524D01*
X13324048Y-15393571D01*
X13333571Y-15431667D01*
X13333571Y-15479286D01*
X13324048Y-15517381D01*
X13314524Y-15536428D01*
X13305000Y-15545952D01*
X13285952Y-15555476D01*
X13266905Y-15555476D01*
X13247857Y-15545952D01*
X13238333Y-15536428D01*
X13228809Y-15517381D01*
X13219286Y-15479286D01*
X13219286Y-15431667D01*
X13228809Y-15393571D01*
X13238333Y-15374524D01*
X13247857Y-15365000D01*
X13266905Y-15355476D01*
X13457381Y-15355476D02*
X13476428Y-15355476D01*
X13495476Y-15365000D01*
X13505000Y-15374524D01*
X13514524Y-15393571D01*
X13524048Y-15431667D01*
X13524048Y-15479286D01*
X13514524Y-15517381D01*
X13505000Y-15536428D01*
X13495476Y-15545952D01*
X13476428Y-15555476D01*
X13457381Y-15555476D01*
X13438333Y-15545952D01*
X13428809Y-15536428D01*
X13419286Y-15517381D01*
X13409762Y-15479286D01*
X13409762Y-15431667D01*
X13419286Y-15393571D01*
X13428809Y-15374524D01*
X13438333Y-15365000D01*
X13457381Y-15355476D01*
X13609762Y-15555476D02*
X13609762Y-15422143D01*
X13609762Y-15441190D02*
X13619286Y-15431667D01*
X13638333Y-15422143D01*
X13666905Y-15422143D01*
X13685952Y-15431667D01*
X13695476Y-15450714D01*
X13695476Y-15555476D01*
X13695476Y-15450714D02*
X13705000Y-15431667D01*
X13724048Y-15422143D01*
X13752619Y-15422143D01*
X13771667Y-15431667D01*
X13781190Y-15450714D01*
X13781190Y-15555476D01*
X13876428Y-15555476D02*
X13876428Y-15422143D01*
X13876428Y-15441190D02*
X13885952Y-15431667D01*
X13905000Y-15422143D01*
X13933571Y-15422143D01*
X13952619Y-15431667D01*
X13962143Y-15450714D01*
X13962143Y-15555476D01*
X13962143Y-15450714D02*
X13971667Y-15431667D01*
X13990714Y-15422143D01*
X14019286Y-15422143D01*
X14038333Y-15431667D01*
X14047857Y-15450714D01*
X14047857Y-15555476D01*
X14438333Y-15345952D02*
X14266905Y-15603095D01*
X14695476Y-15355476D02*
X14714524Y-15355476D01*
X14733571Y-15365000D01*
X14743095Y-15374524D01*
X14752619Y-15393571D01*
X14762143Y-15431667D01*
X14762143Y-15479286D01*
X14752619Y-15517381D01*
X14743095Y-15536428D01*
X14733571Y-15545952D01*
X14714524Y-15555476D01*
X14695476Y-15555476D01*
X14676428Y-15545952D01*
X14666905Y-15536428D01*
X14657381Y-15517381D01*
X14647857Y-15479286D01*
X14647857Y-15431667D01*
X14657381Y-15393571D01*
X14666905Y-15374524D01*
X14676428Y-15365000D01*
X14695476Y-15355476D01*
X14847857Y-15536428D02*
X14857381Y-15545952D01*
X14847857Y-15555476D01*
X14838333Y-15545952D01*
X14847857Y-15536428D01*
X14847857Y-15555476D01*
X14981190Y-15355476D02*
X15000238Y-15355476D01*
X15019286Y-15365000D01*
X15028809Y-15374524D01*
X15038333Y-15393571D01*
X15047857Y-15431667D01*
X15047857Y-15479286D01*
X15038333Y-15517381D01*
X15028809Y-15536428D01*
X15019286Y-15545952D01*
X15000238Y-15555476D01*
X14981190Y-15555476D01*
X14962143Y-15545952D01*
X14952619Y-15536428D01*
X14943095Y-15517381D01*
X14933571Y-15479286D01*
X14933571Y-15431667D01*
X14943095Y-15393571D01*
X14952619Y-15374524D01*
X14962143Y-15365000D01*
X14981190Y-15355476D01*
X15143095Y-15555476D02*
X15181190Y-15555476D01*
X15200238Y-15545952D01*
X15209762Y-15536428D01*
X15228809Y-15507857D01*
X15238333Y-15469762D01*
X15238333Y-15393571D01*
X15228809Y-15374524D01*
X15219286Y-15365000D01*
X15200238Y-15355476D01*
X15162143Y-15355476D01*
X15143095Y-15365000D01*
X15133571Y-15374524D01*
X15124048Y-15393571D01*
X15124048Y-15441190D01*
X15133571Y-15460238D01*
X15143095Y-15469762D01*
X15162143Y-15479286D01*
X15200238Y-15479286D01*
X15219286Y-15469762D01*
X15228809Y-15460238D01*
X15238333Y-15441190D01*
X15362143Y-15355476D02*
X15381190Y-15355476D01*
X15400238Y-15365000D01*
X15409762Y-15374524D01*
X15419286Y-15393571D01*
X15428809Y-15431667D01*
X15428809Y-15479286D01*
X15419286Y-15517381D01*
X15409762Y-15536428D01*
X15400238Y-15545952D01*
X15381190Y-15555476D01*
X15362143Y-15555476D01*
X15343095Y-15545952D01*
X15333571Y-15536428D01*
X15324048Y-15517381D01*
X15314524Y-15479286D01*
X15314524Y-15431667D01*
X15324048Y-15393571D01*
X15333571Y-15374524D01*
X15343095Y-15365000D01*
X15362143Y-15355476D01*
X15600238Y-15355476D02*
X15562143Y-15355476D01*
X15543095Y-15365000D01*
X15533571Y-15374524D01*
X15514524Y-15403095D01*
X15505000Y-15441190D01*
X15505000Y-15517381D01*
X15514524Y-15536428D01*
X15524048Y-15545952D01*
X15543095Y-15555476D01*
X15581190Y-15555476D01*
X15600238Y-15545952D01*
X15609762Y-15536428D01*
X15619286Y-15517381D01*
X15619286Y-15469762D01*
X15609762Y-15450714D01*
X15600238Y-15441190D01*
X15581190Y-15431667D01*
X15543095Y-15431667D01*
X15524048Y-15441190D01*
X15514524Y-15450714D01*
X15505000Y-15469762D01*
X15695476Y-15355476D02*
X15695476Y-15393571D01*
X15771667Y-15355476D02*
X15771667Y-15393571D01*
X16066905Y-15631667D02*
X16057381Y-15622143D01*
X16038333Y-15593571D01*
X16028809Y-15574524D01*
X16019286Y-15545952D01*
X16009762Y-15498333D01*
X16009762Y-15460238D01*
X16019286Y-15412619D01*
X16028809Y-15384048D01*
X16038333Y-15365000D01*
X16057381Y-15336428D01*
X16066905Y-15326905D01*
X16171667Y-15441190D02*
X16152619Y-15431667D01*
X16143095Y-15422143D01*
X16133571Y-15403095D01*
X16133571Y-15393571D01*
X16143095Y-15374524D01*
X16152619Y-15365000D01*
X16171667Y-15355476D01*
X16209762Y-15355476D01*
X16228809Y-15365000D01*
X16238333Y-15374524D01*
X16247857Y-15393571D01*
X16247857Y-15403095D01*
X16238333Y-15422143D01*
X16228809Y-15431667D01*
X16209762Y-15441190D01*
X16171667Y-15441190D01*
X16152619Y-15450714D01*
X16143095Y-15460238D01*
X16133571Y-15479286D01*
X16133571Y-15517381D01*
X16143095Y-15536428D01*
X16152619Y-15545952D01*
X16171667Y-15555476D01*
X16209762Y-15555476D01*
X16228809Y-15545952D01*
X16238333Y-15536428D01*
X16247857Y-15517381D01*
X16247857Y-15479286D01*
X16238333Y-15460238D01*
X16228809Y-15450714D01*
X16209762Y-15441190D01*
X16485952Y-15555476D02*
X16485952Y-15355476D01*
X16571667Y-15555476D02*
X16571667Y-15450714D01*
X16562143Y-15431667D01*
X16543095Y-15422143D01*
X16514524Y-15422143D01*
X16495476Y-15431667D01*
X16485952Y-15441190D01*
X16695476Y-15555476D02*
X16676428Y-15545952D01*
X16666905Y-15536428D01*
X16657381Y-15517381D01*
X16657381Y-15460238D01*
X16666905Y-15441190D01*
X16676428Y-15431667D01*
X16695476Y-15422143D01*
X16724048Y-15422143D01*
X16743095Y-15431667D01*
X16752619Y-15441190D01*
X16762143Y-15460238D01*
X16762143Y-15517381D01*
X16752619Y-15536428D01*
X16743095Y-15545952D01*
X16724048Y-15555476D01*
X16695476Y-15555476D01*
X16876429Y-15555476D02*
X16857381Y-15545952D01*
X16847857Y-15526905D01*
X16847857Y-15355476D01*
X17028810Y-15545952D02*
X17009762Y-15555476D01*
X16971667Y-15555476D01*
X16952619Y-15545952D01*
X16943095Y-15526905D01*
X16943095Y-15450714D01*
X16952619Y-15431667D01*
X16971667Y-15422143D01*
X17009762Y-15422143D01*
X17028810Y-15431667D01*
X17038333Y-15450714D01*
X17038333Y-15469762D01*
X16943095Y-15488809D01*
X17114524Y-15545952D02*
X17133571Y-15555476D01*
X17171667Y-15555476D01*
X17190714Y-15545952D01*
X17200238Y-15526905D01*
X17200238Y-15517381D01*
X17190714Y-15498333D01*
X17171667Y-15488809D01*
X17143095Y-15488809D01*
X17124048Y-15479286D01*
X17114524Y-15460238D01*
X17114524Y-15450714D01*
X17124048Y-15431667D01*
X17143095Y-15422143D01*
X17171667Y-15422143D01*
X17190714Y-15431667D01*
X17266905Y-15631667D02*
X17276429Y-15622143D01*
X17295476Y-15593571D01*
X17305000Y-15574524D01*
X17314524Y-15545952D01*
X17324048Y-15498333D01*
X17324048Y-15460238D01*
X17314524Y-15412619D01*
X17305000Y-15384048D01*
X17295476Y-15365000D01*
X17276429Y-15336428D01*
X17266905Y-15326905D01*
X12295000Y-15685000D02*
X12495000Y-15885000D01*
X12495000Y-15685000D02*
X12295000Y-15885000D01*
X12395000Y-15685000D02*
X12395000Y-15885000D01*
X12295000Y-15785000D02*
X12495000Y-15785000D01*
X12733571Y-15675476D02*
X12857381Y-15675476D01*
X12790714Y-15751667D01*
X12819286Y-15751667D01*
X12838333Y-15761190D01*
X12847857Y-15770714D01*
X12857381Y-15789762D01*
X12857381Y-15837381D01*
X12847857Y-15856428D01*
X12838333Y-15865952D01*
X12819286Y-15875476D01*
X12762143Y-15875476D01*
X12743095Y-15865952D01*
X12733571Y-15856428D01*
X12943095Y-15856428D02*
X12952619Y-15865952D01*
X12943095Y-15875476D01*
X12933571Y-15865952D01*
X12943095Y-15856428D01*
X12943095Y-15875476D01*
X13028809Y-15694524D02*
X13038333Y-15685000D01*
X13057381Y-15675476D01*
X13105000Y-15675476D01*
X13124048Y-15685000D01*
X13133571Y-15694524D01*
X13143095Y-15713571D01*
X13143095Y-15732619D01*
X13133571Y-15761190D01*
X13019286Y-15875476D01*
X13143095Y-15875476D01*
X13266905Y-15675476D02*
X13285952Y-15675476D01*
X13305000Y-15685000D01*
X13314524Y-15694524D01*
X13324048Y-15713571D01*
X13333571Y-15751667D01*
X13333571Y-15799286D01*
X13324048Y-15837381D01*
X13314524Y-15856428D01*
X13305000Y-15865952D01*
X13285952Y-15875476D01*
X13266905Y-15875476D01*
X13247857Y-15865952D01*
X13238333Y-15856428D01*
X13228809Y-15837381D01*
X13219286Y-15799286D01*
X13219286Y-15751667D01*
X13228809Y-15713571D01*
X13238333Y-15694524D01*
X13247857Y-15685000D01*
X13266905Y-15675476D01*
X13457381Y-15675476D02*
X13476428Y-15675476D01*
X13495476Y-15685000D01*
X13505000Y-15694524D01*
X13514524Y-15713571D01*
X13524048Y-15751667D01*
X13524048Y-15799286D01*
X13514524Y-15837381D01*
X13505000Y-15856428D01*
X13495476Y-15865952D01*
X13476428Y-15875476D01*
X13457381Y-15875476D01*
X13438333Y-15865952D01*
X13428809Y-15856428D01*
X13419286Y-15837381D01*
X13409762Y-15799286D01*
X13409762Y-15751667D01*
X13419286Y-15713571D01*
X13428809Y-15694524D01*
X13438333Y-15685000D01*
X13457381Y-15675476D01*
X13609762Y-15875476D02*
X13609762Y-15742143D01*
X13609762Y-15761190D02*
X13619286Y-15751667D01*
X13638333Y-15742143D01*
X13666905Y-15742143D01*
X13685952Y-15751667D01*
X13695476Y-15770714D01*
X13695476Y-15875476D01*
X13695476Y-15770714D02*
X13705000Y-15751667D01*
X13724048Y-15742143D01*
X13752619Y-15742143D01*
X13771667Y-15751667D01*
X13781190Y-15770714D01*
X13781190Y-15875476D01*
X13876428Y-15875476D02*
X13876428Y-15742143D01*
X13876428Y-15761190D02*
X13885952Y-15751667D01*
X13905000Y-15742143D01*
X13933571Y-15742143D01*
X13952619Y-15751667D01*
X13962143Y-15770714D01*
X13962143Y-15875476D01*
X13962143Y-15770714D02*
X13971667Y-15751667D01*
X13990714Y-15742143D01*
X14019286Y-15742143D01*
X14038333Y-15751667D01*
X14047857Y-15770714D01*
X14047857Y-15875476D01*
X14438333Y-15665952D02*
X14266905Y-15923095D01*
X14695476Y-15675476D02*
X14714524Y-15675476D01*
X14733571Y-15685000D01*
X14743095Y-15694524D01*
X14752619Y-15713571D01*
X14762143Y-15751667D01*
X14762143Y-15799286D01*
X14752619Y-15837381D01*
X14743095Y-15856428D01*
X14733571Y-15865952D01*
X14714524Y-15875476D01*
X14695476Y-15875476D01*
X14676428Y-15865952D01*
X14666905Y-15856428D01*
X14657381Y-15837381D01*
X14647857Y-15799286D01*
X14647857Y-15751667D01*
X14657381Y-15713571D01*
X14666905Y-15694524D01*
X14676428Y-15685000D01*
X14695476Y-15675476D01*
X14847857Y-15856428D02*
X14857381Y-15865952D01*
X14847857Y-15875476D01*
X14838333Y-15865952D01*
X14847857Y-15856428D01*
X14847857Y-15875476D01*
X15047857Y-15875476D02*
X14933571Y-15875476D01*
X14990714Y-15875476D02*
X14990714Y-15675476D01*
X14971667Y-15704048D01*
X14952619Y-15723095D01*
X14933571Y-15732619D01*
X15124048Y-15694524D02*
X15133571Y-15685000D01*
X15152619Y-15675476D01*
X15200238Y-15675476D01*
X15219286Y-15685000D01*
X15228809Y-15694524D01*
X15238333Y-15713571D01*
X15238333Y-15732619D01*
X15228809Y-15761190D01*
X15114524Y-15875476D01*
X15238333Y-15875476D01*
X15409762Y-15675476D02*
X15371667Y-15675476D01*
X15352619Y-15685000D01*
X15343095Y-15694524D01*
X15324048Y-15723095D01*
X15314524Y-15761190D01*
X15314524Y-15837381D01*
X15324048Y-15856428D01*
X15333571Y-15865952D01*
X15352619Y-15875476D01*
X15390714Y-15875476D01*
X15409762Y-15865952D01*
X15419286Y-15856428D01*
X15428809Y-15837381D01*
X15428809Y-15789762D01*
X15419286Y-15770714D01*
X15409762Y-15761190D01*
X15390714Y-15751667D01*
X15352619Y-15751667D01*
X15333571Y-15761190D01*
X15324048Y-15770714D01*
X15314524Y-15789762D01*
X15552619Y-15675476D02*
X15571667Y-15675476D01*
X15590714Y-15685000D01*
X15600238Y-15694524D01*
X15609762Y-15713571D01*
X15619286Y-15751667D01*
X15619286Y-15799286D01*
X15609762Y-15837381D01*
X15600238Y-15856428D01*
X15590714Y-15865952D01*
X15571667Y-15875476D01*
X15552619Y-15875476D01*
X15533571Y-15865952D01*
X15524048Y-15856428D01*
X15514524Y-15837381D01*
X15505000Y-15799286D01*
X15505000Y-15751667D01*
X15514524Y-15713571D01*
X15524048Y-15694524D01*
X15533571Y-15685000D01*
X15552619Y-15675476D01*
X15695476Y-15675476D02*
X15695476Y-15713571D01*
X15771667Y-15675476D02*
X15771667Y-15713571D01*
X16066905Y-15951667D02*
X16057381Y-15942143D01*
X16038333Y-15913571D01*
X16028809Y-15894524D01*
X16019286Y-15865952D01*
X16009762Y-15818333D01*
X16009762Y-15780238D01*
X16019286Y-15732619D01*
X16028809Y-15704048D01*
X16038333Y-15685000D01*
X16057381Y-15656428D01*
X16066905Y-15646905D01*
X16228809Y-15742143D02*
X16228809Y-15875476D01*
X16181190Y-15665952D02*
X16133571Y-15808809D01*
X16257381Y-15808809D01*
X16485952Y-15875476D02*
X16485952Y-15675476D01*
X16571667Y-15875476D02*
X16571667Y-15770714D01*
X16562143Y-15751667D01*
X16543095Y-15742143D01*
X16514524Y-15742143D01*
X16495476Y-15751667D01*
X16485952Y-15761190D01*
X16695476Y-15875476D02*
X16676428Y-15865952D01*
X16666905Y-15856428D01*
X16657381Y-15837381D01*
X16657381Y-15780238D01*
X16666905Y-15761190D01*
X16676428Y-15751667D01*
X16695476Y-15742143D01*
X16724048Y-15742143D01*
X16743095Y-15751667D01*
X16752619Y-15761190D01*
X16762143Y-15780238D01*
X16762143Y-15837381D01*
X16752619Y-15856428D01*
X16743095Y-15865952D01*
X16724048Y-15875476D01*
X16695476Y-15875476D01*
X16876429Y-15875476D02*
X16857381Y-15865952D01*
X16847857Y-15846905D01*
X16847857Y-15675476D01*
X17028810Y-15865952D02*
X17009762Y-15875476D01*
X16971667Y-15875476D01*
X16952619Y-15865952D01*
X16943095Y-15846905D01*
X16943095Y-15770714D01*
X16952619Y-15751667D01*
X16971667Y-15742143D01*
X17009762Y-15742143D01*
X17028810Y-15751667D01*
X17038333Y-15770714D01*
X17038333Y-15789762D01*
X16943095Y-15808809D01*
X17114524Y-15865952D02*
X17133571Y-15875476D01*
X17171667Y-15875476D01*
X17190714Y-15865952D01*
X17200238Y-15846905D01*
X17200238Y-15837381D01*
X17190714Y-15818333D01*
X17171667Y-15808809D01*
X17143095Y-15808809D01*
X17124048Y-15799286D01*
X17114524Y-15780238D01*
X17114524Y-15770714D01*
X17124048Y-15751667D01*
X17143095Y-15742143D01*
X17171667Y-15742143D01*
X17190714Y-15751667D01*
X17266905Y-15951667D02*
X17276429Y-15942143D01*
X17295476Y-15913571D01*
X17305000Y-15894524D01*
X17314524Y-15865952D01*
X17324048Y-15818333D01*
X17324048Y-15780238D01*
X17314524Y-15732619D01*
X17305000Y-15704048D01*
X17295476Y-15685000D01*
X17276429Y-15656428D01*
X17266905Y-15646905D01*
M02*
