%TF.GenerationSoftware,KiCad,Pcbnew,(6.0.5)*%
%TF.CreationDate,2024-04-30T20:25:27+02:00*%
%TF.ProjectId,TUSB2046-FS-HUB,54555342-3230-4343-962d-46532d485542,rev?*%
%TF.SameCoordinates,Original*%
%TF.FileFunction,Copper,L2,Inr*%
%TF.FilePolarity,Positive*%
%FSLAX46Y46*%
G04 Gerber Fmt 4.6, Leading zero omitted, Abs format (unit mm)*
G04 Created by KiCad (PCBNEW (6.0.5)) date 2024-04-30 20:25:27*
%MOMM*%
%LPD*%
G01*
G04 APERTURE LIST*
%TA.AperFunction,ComponentPad*%
%ADD10R,1.524000X1.524000*%
%TD*%
%TA.AperFunction,ComponentPad*%
%ADD11C,1.524000*%
%TD*%
%TA.AperFunction,ComponentPad*%
%ADD12C,3.500000*%
%TD*%
%TA.AperFunction,ComponentPad*%
%ADD13C,6.400000*%
%TD*%
%TA.AperFunction,ComponentPad*%
%ADD14C,1.500000*%
%TD*%
%TA.AperFunction,ComponentPad*%
%ADD15R,1.700000X1.700000*%
%TD*%
%TA.AperFunction,ComponentPad*%
%ADD16O,1.700000X1.700000*%
%TD*%
%TA.AperFunction,ViaPad*%
%ADD17C,0.800000*%
%TD*%
%TA.AperFunction,ViaPad*%
%ADD18C,0.760000*%
%TD*%
%TA.AperFunction,ViaPad*%
%ADD19C,0.560000*%
%TD*%
G04 APERTURE END LIST*
D10*
%TO.N,+5V*%
%TO.C,J5*%
X149000000Y-122022500D03*
D11*
%TO.N,Net-(J5-Pad2)*%
X151500000Y-122022500D03*
%TO.N,Net-(J5-Pad3)*%
X153500000Y-122022500D03*
%TO.N,GND*%
X156000000Y-122022500D03*
D12*
X159070000Y-124732500D03*
X145930000Y-124732500D03*
%TD*%
D13*
%TO.N,GND*%
%TO.C,H1*%
X176000000Y-54000000D03*
%TD*%
%TO.N,GND*%
%TO.C,H4*%
X129000000Y-54000000D03*
%TD*%
%TO.N,GND*%
%TO.C,H3*%
X129000000Y-131000000D03*
%TD*%
D14*
%TO.N,/XTAL1*%
%TO.C,Y1*%
X150050000Y-79700000D03*
%TO.N,Net-(C13-Pad1)*%
X154930000Y-79700000D03*
%TD*%
D10*
%TO.N,+5V*%
%TO.C,J4*%
X167022500Y-117250000D03*
D11*
%TO.N,Net-(J4-Pad2)*%
X167022500Y-114750000D03*
%TO.N,Net-(J4-Pad3)*%
X167022500Y-112750000D03*
%TO.N,GND*%
X167022500Y-110250000D03*
D12*
X169732500Y-107180000D03*
X169732500Y-120320000D03*
%TD*%
D13*
%TO.N,GND*%
%TO.C,H2*%
X176000000Y-131000000D03*
%TD*%
D15*
%TO.N,Net-(J6-Pad1)*%
%TO.C,J6*%
X160800000Y-106975000D03*
D16*
%TO.N,Net-(J6-Pad2)*%
X160800000Y-109515000D03*
%TO.N,GND*%
X160800000Y-112055000D03*
%TD*%
D10*
%TO.N,+5V*%
%TO.C,J2*%
X156000000Y-62977500D03*
D11*
%TO.N,Net-(J2-Pad2)*%
X153500000Y-62977500D03*
%TO.N,Net-(J2-Pad3)*%
X151500000Y-62977500D03*
%TO.N,GND*%
X149000000Y-62977500D03*
D12*
X145930000Y-60267500D03*
X159070000Y-60267500D03*
%TD*%
D15*
%TO.N,Net-(J7-Pad1)*%
%TO.C,J7*%
X146800000Y-110560000D03*
D16*
%TO.N,Net-(J7-Pad2)*%
X146800000Y-113100000D03*
%TO.N,GND*%
X146800000Y-115640000D03*
%TD*%
D10*
%TO.N,+5V*%
%TO.C,J3*%
X167022500Y-74750000D03*
D11*
%TO.N,Net-(J3-Pad2)*%
X167022500Y-72250000D03*
%TO.N,Net-(J3-Pad3)*%
X167022500Y-70250000D03*
%TO.N,GND*%
X167022500Y-67750000D03*
D12*
X169732500Y-77820000D03*
X169732500Y-64680000D03*
%TD*%
D15*
%TO.N,Net-(J9-Pad1)*%
%TO.C,J9*%
X172400000Y-81960000D03*
D16*
%TO.N,Net-(J9-Pad2)*%
X172400000Y-84500000D03*
%TO.N,GND*%
X172400000Y-87040000D03*
%TD*%
D15*
%TO.N,Net-(J8-Pad1)*%
%TO.C,J8*%
X157200000Y-68360000D03*
D16*
%TO.N,Net-(J8-Pad2)*%
X157200000Y-70900000D03*
%TO.N,GND*%
X157200000Y-73440000D03*
%TD*%
D17*
%TO.N,+3V3*%
X144750000Y-102500000D03*
%TO.N,GND*%
X142750000Y-102500000D03*
D18*
X129750000Y-114500000D03*
X174200000Y-96800000D03*
D19*
X163800000Y-72700000D03*
D18*
X135500000Y-94500000D03*
D19*
X142300000Y-93600000D03*
X147750000Y-98250000D03*
X157000000Y-96750000D03*
X149500000Y-94100000D03*
D18*
X129750000Y-113000000D03*
X133500000Y-86250000D03*
X163700000Y-121300000D03*
D19*
X153500000Y-116000000D03*
X153500000Y-107750000D03*
X152500000Y-83600000D03*
X163000000Y-82750000D03*
D18*
X169500000Y-90200000D03*
X128000000Y-98750000D03*
X129750000Y-70500000D03*
D19*
X150500000Y-107500000D03*
D18*
X128000000Y-86250000D03*
X168500000Y-98200000D03*
D19*
X158600000Y-86100000D03*
X142500000Y-91750000D03*
X152900000Y-89600000D03*
X150500000Y-86900000D03*
D18*
X133500000Y-98750000D03*
X129750000Y-72000000D03*
D19*
X164800000Y-79800000D03*
D18*
%TO.N,+5V*%
X164200000Y-64700000D03*
X140250000Y-72000000D03*
X140250000Y-114500000D03*
X171300000Y-96600000D03*
X135000000Y-90000000D03*
X145800000Y-65900000D03*
X140250000Y-113000000D03*
X140250000Y-70500000D03*
D19*
%TO.N,+3V3*%
X146800000Y-91300000D03*
D18*
X177000000Y-95100000D03*
X173100000Y-92500000D03*
D19*
X153500000Y-105800000D03*
X165900000Y-91300000D03*
X144100000Y-87500000D03*
X149800000Y-102000000D03*
X140800000Y-94500000D03*
X154500000Y-87000000D03*
D18*
X177000000Y-89900000D03*
%TD*%
%TA.AperFunction,Conductor*%
%TO.N,GND*%
G36*
X174228176Y-50528502D02*
G01*
X174274669Y-50582158D01*
X174284773Y-50652432D01*
X174255279Y-50717012D01*
X174217258Y-50746767D01*
X174146397Y-50782872D01*
X174140687Y-50786169D01*
X173820276Y-50994246D01*
X173814925Y-50998134D01*
X173631650Y-51146548D01*
X173623182Y-51158806D01*
X173629515Y-51169896D01*
X178829238Y-56369619D01*
X178842314Y-56376759D01*
X178852683Y-56369300D01*
X179001866Y-56185075D01*
X179005754Y-56179724D01*
X179213831Y-55859313D01*
X179217128Y-55853603D01*
X179253233Y-55782742D01*
X179301981Y-55731127D01*
X179370896Y-55714061D01*
X179438098Y-55736962D01*
X179482250Y-55792559D01*
X179491500Y-55839945D01*
X179491500Y-129160055D01*
X179471498Y-129228176D01*
X179417842Y-129274669D01*
X179347568Y-129284773D01*
X179282988Y-129255279D01*
X179253233Y-129217258D01*
X179217128Y-129146397D01*
X179213831Y-129140687D01*
X179005754Y-128820276D01*
X179001866Y-128814925D01*
X178853452Y-128631650D01*
X178841194Y-128623182D01*
X178830104Y-128629515D01*
X173630381Y-133829238D01*
X173623241Y-133842314D01*
X173630700Y-133852683D01*
X173814930Y-134001870D01*
X173820273Y-134005752D01*
X174140685Y-134213830D01*
X174146394Y-134217126D01*
X174217257Y-134253233D01*
X174268872Y-134301981D01*
X174285938Y-134370896D01*
X174263037Y-134438098D01*
X174207440Y-134482250D01*
X174160054Y-134491500D01*
X130839946Y-134491500D01*
X130771825Y-134471498D01*
X130725332Y-134417842D01*
X130715228Y-134347568D01*
X130744722Y-134282988D01*
X130782743Y-134253233D01*
X130853606Y-134217126D01*
X130859315Y-134213830D01*
X131179727Y-134005752D01*
X131185070Y-134001870D01*
X131368350Y-133853452D01*
X131376818Y-133841194D01*
X131370485Y-133830104D01*
X128541513Y-131001132D01*
X129464817Y-131001132D01*
X129464948Y-131002965D01*
X129469199Y-131009580D01*
X131829238Y-133369619D01*
X131842314Y-133376759D01*
X131852683Y-133369300D01*
X132001866Y-133185075D01*
X132005754Y-133179724D01*
X132213831Y-132859313D01*
X132217128Y-132853603D01*
X132390578Y-132513189D01*
X132393260Y-132507164D01*
X132530171Y-132150498D01*
X132532212Y-132144216D01*
X132631094Y-131775184D01*
X132632465Y-131768734D01*
X132692234Y-131391371D01*
X132692920Y-131384833D01*
X132712916Y-131003301D01*
X172287084Y-131003301D01*
X172307080Y-131384833D01*
X172307766Y-131391371D01*
X172367535Y-131768734D01*
X172368906Y-131775184D01*
X172467788Y-132144216D01*
X172469829Y-132150498D01*
X172606740Y-132507164D01*
X172609422Y-132513189D01*
X172782872Y-132853603D01*
X172786169Y-132859313D01*
X172994246Y-133179724D01*
X172998134Y-133185075D01*
X173146548Y-133368350D01*
X173158806Y-133376818D01*
X173169896Y-133370485D01*
X175527569Y-131012812D01*
X175535183Y-130998868D01*
X175535052Y-130997035D01*
X175530801Y-130990420D01*
X173170762Y-128630381D01*
X173157686Y-128623241D01*
X173147317Y-128630700D01*
X172998134Y-128814925D01*
X172994246Y-128820276D01*
X172786169Y-129140687D01*
X172782872Y-129146397D01*
X172609422Y-129486811D01*
X172606740Y-129492836D01*
X172469829Y-129849502D01*
X172467788Y-129855784D01*
X172368906Y-130224816D01*
X172367535Y-130231266D01*
X172307766Y-130608629D01*
X172307080Y-130615167D01*
X172287084Y-130996699D01*
X172287084Y-131003301D01*
X132712916Y-131003301D01*
X132712916Y-130996699D01*
X132692920Y-130615167D01*
X132692234Y-130608629D01*
X132632465Y-130231266D01*
X132631094Y-130224816D01*
X132532212Y-129855784D01*
X132530171Y-129849502D01*
X132393260Y-129492836D01*
X132390578Y-129486811D01*
X132217128Y-129146397D01*
X132213831Y-129140687D01*
X132005754Y-128820276D01*
X132001866Y-128814925D01*
X131853452Y-128631650D01*
X131841194Y-128623182D01*
X131830104Y-128629515D01*
X129472431Y-130987188D01*
X129464817Y-131001132D01*
X128541513Y-131001132D01*
X126170762Y-128630381D01*
X126157686Y-128623241D01*
X126147317Y-128630700D01*
X125998134Y-128814925D01*
X125994246Y-128820276D01*
X125786169Y-129140687D01*
X125782872Y-129146397D01*
X125746767Y-129217258D01*
X125698019Y-129268873D01*
X125629104Y-129285939D01*
X125561902Y-129263038D01*
X125517750Y-129207441D01*
X125508500Y-129160055D01*
X125508500Y-128158806D01*
X126623182Y-128158806D01*
X126629515Y-128169896D01*
X128987188Y-130527569D01*
X129001132Y-130535183D01*
X129002965Y-130535052D01*
X129009580Y-130530801D01*
X131369619Y-128170762D01*
X131376147Y-128158806D01*
X173623182Y-128158806D01*
X173629515Y-128169896D01*
X175987188Y-130527569D01*
X176001132Y-130535183D01*
X176002965Y-130535052D01*
X176009580Y-130530801D01*
X178369619Y-128170762D01*
X178376759Y-128157686D01*
X178369300Y-128147317D01*
X178185070Y-127998130D01*
X178179727Y-127994248D01*
X177859315Y-127786170D01*
X177853606Y-127782873D01*
X177513189Y-127609422D01*
X177507164Y-127606740D01*
X177150498Y-127469829D01*
X177144216Y-127467788D01*
X176775184Y-127368906D01*
X176768734Y-127367535D01*
X176391371Y-127307766D01*
X176384833Y-127307080D01*
X176003301Y-127287084D01*
X175996699Y-127287084D01*
X175615167Y-127307080D01*
X175608629Y-127307766D01*
X175231266Y-127367535D01*
X175224816Y-127368906D01*
X174855784Y-127467788D01*
X174849502Y-127469829D01*
X174492836Y-127606740D01*
X174486811Y-127609422D01*
X174146397Y-127782872D01*
X174140687Y-127786169D01*
X173820276Y-127994246D01*
X173814925Y-127998134D01*
X173631650Y-128146548D01*
X173623182Y-128158806D01*
X131376147Y-128158806D01*
X131376759Y-128157686D01*
X131369300Y-128147317D01*
X131185070Y-127998130D01*
X131179727Y-127994248D01*
X130859315Y-127786170D01*
X130853606Y-127782873D01*
X130513189Y-127609422D01*
X130507164Y-127606740D01*
X130150498Y-127469829D01*
X130144216Y-127467788D01*
X129775184Y-127368906D01*
X129768734Y-127367535D01*
X129391371Y-127307766D01*
X129384833Y-127307080D01*
X129003301Y-127287084D01*
X128996699Y-127287084D01*
X128615167Y-127307080D01*
X128608629Y-127307766D01*
X128231266Y-127367535D01*
X128224816Y-127368906D01*
X127855784Y-127467788D01*
X127849502Y-127469829D01*
X127492836Y-127606740D01*
X127486811Y-127609422D01*
X127146397Y-127782872D01*
X127140687Y-127786169D01*
X126820276Y-127994246D01*
X126814925Y-127998134D01*
X126631650Y-128146548D01*
X126623182Y-128158806D01*
X125508500Y-128158806D01*
X125508500Y-126543059D01*
X144584210Y-126543059D01*
X144594092Y-126555548D01*
X144795144Y-126689887D01*
X144802281Y-126694008D01*
X145060349Y-126821272D01*
X145067953Y-126824422D01*
X145340420Y-126916912D01*
X145348383Y-126919046D01*
X145630600Y-126975183D01*
X145638751Y-126976256D01*
X145925881Y-126995075D01*
X145934119Y-126995075D01*
X146221249Y-126976256D01*
X146229400Y-126975183D01*
X146511617Y-126919046D01*
X146519580Y-126916912D01*
X146792047Y-126824422D01*
X146799651Y-126821272D01*
X147057719Y-126694008D01*
X147064856Y-126689887D01*
X147267343Y-126554590D01*
X147275631Y-126544672D01*
X147274805Y-126543059D01*
X157724210Y-126543059D01*
X157734092Y-126555548D01*
X157935144Y-126689887D01*
X157942281Y-126694008D01*
X158200349Y-126821272D01*
X158207953Y-126824422D01*
X158480420Y-126916912D01*
X158488383Y-126919046D01*
X158770600Y-126975183D01*
X158778751Y-126976256D01*
X159065881Y-126995075D01*
X159074119Y-126995075D01*
X159361249Y-126976256D01*
X159369400Y-126975183D01*
X159651617Y-126919046D01*
X159659580Y-126916912D01*
X159932047Y-126824422D01*
X159939651Y-126821272D01*
X160197719Y-126694008D01*
X160204856Y-126689887D01*
X160407343Y-126554590D01*
X160415631Y-126544672D01*
X160408374Y-126530493D01*
X159082812Y-125204931D01*
X159068868Y-125197317D01*
X159067035Y-125197448D01*
X159060420Y-125201699D01*
X157730406Y-126531713D01*
X157724210Y-126543059D01*
X147274805Y-126543059D01*
X147268374Y-126530493D01*
X145942812Y-125204931D01*
X145928868Y-125197317D01*
X145927035Y-125197448D01*
X145920420Y-125201699D01*
X144590406Y-126531713D01*
X144584210Y-126543059D01*
X125508500Y-126543059D01*
X125508500Y-124736619D01*
X143667425Y-124736619D01*
X143686244Y-125023749D01*
X143687317Y-125031900D01*
X143743454Y-125314117D01*
X143745588Y-125322080D01*
X143838078Y-125594547D01*
X143841228Y-125602151D01*
X143968492Y-125860218D01*
X143972613Y-125867355D01*
X144107910Y-126069843D01*
X144117828Y-126078131D01*
X144132007Y-126070874D01*
X145457569Y-124745312D01*
X145463947Y-124733632D01*
X146394817Y-124733632D01*
X146394948Y-124735465D01*
X146399199Y-124742080D01*
X147729213Y-126072094D01*
X147740559Y-126078290D01*
X147753048Y-126068408D01*
X147887387Y-125867355D01*
X147891508Y-125860218D01*
X148018772Y-125602151D01*
X148021922Y-125594547D01*
X148114412Y-125322080D01*
X148116546Y-125314117D01*
X148172683Y-125031900D01*
X148173756Y-125023749D01*
X148192575Y-124736619D01*
X156807425Y-124736619D01*
X156826244Y-125023749D01*
X156827317Y-125031900D01*
X156883454Y-125314117D01*
X156885588Y-125322080D01*
X156978078Y-125594547D01*
X156981228Y-125602151D01*
X157108492Y-125860218D01*
X157112613Y-125867355D01*
X157247910Y-126069843D01*
X157257828Y-126078131D01*
X157272007Y-126070874D01*
X158597569Y-124745312D01*
X158603947Y-124733632D01*
X159534817Y-124733632D01*
X159534948Y-124735465D01*
X159539199Y-124742080D01*
X160869213Y-126072094D01*
X160880559Y-126078290D01*
X160893048Y-126068408D01*
X161027387Y-125867355D01*
X161031508Y-125860218D01*
X161158772Y-125602151D01*
X161161922Y-125594547D01*
X161254412Y-125322080D01*
X161256546Y-125314117D01*
X161312683Y-125031900D01*
X161313756Y-125023749D01*
X161332575Y-124736619D01*
X161332575Y-124728381D01*
X161313756Y-124441251D01*
X161312683Y-124433100D01*
X161256546Y-124150883D01*
X161254412Y-124142920D01*
X161161922Y-123870453D01*
X161158772Y-123862849D01*
X161031508Y-123604782D01*
X161027387Y-123597645D01*
X160892090Y-123395157D01*
X160882172Y-123386869D01*
X160867993Y-123394126D01*
X159542431Y-124719688D01*
X159534817Y-124733632D01*
X158603947Y-124733632D01*
X158605183Y-124731368D01*
X158605052Y-124729535D01*
X158600801Y-124722920D01*
X157270787Y-123392906D01*
X157259441Y-123386710D01*
X157246952Y-123396592D01*
X157112613Y-123597645D01*
X157108492Y-123604782D01*
X156981228Y-123862849D01*
X156978078Y-123870453D01*
X156885588Y-124142920D01*
X156883454Y-124150883D01*
X156827317Y-124433100D01*
X156826244Y-124441251D01*
X156807425Y-124728381D01*
X156807425Y-124736619D01*
X148192575Y-124736619D01*
X148192575Y-124728381D01*
X148173756Y-124441251D01*
X148172683Y-124433100D01*
X148116546Y-124150883D01*
X148114412Y-124142920D01*
X148021922Y-123870453D01*
X148018772Y-123862849D01*
X147891508Y-123604782D01*
X147887387Y-123597645D01*
X147752090Y-123395157D01*
X147742172Y-123386869D01*
X147727993Y-123394126D01*
X146402431Y-124719688D01*
X146394817Y-124733632D01*
X145463947Y-124733632D01*
X145465183Y-124731368D01*
X145465052Y-124729535D01*
X145460801Y-124722920D01*
X144130787Y-123392906D01*
X144119441Y-123386710D01*
X144106952Y-123396592D01*
X143972613Y-123597645D01*
X143968492Y-123604782D01*
X143841228Y-123862849D01*
X143838078Y-123870453D01*
X143745588Y-124142920D01*
X143743454Y-124150883D01*
X143687317Y-124433100D01*
X143686244Y-124441251D01*
X143667425Y-124728381D01*
X143667425Y-124736619D01*
X125508500Y-124736619D01*
X125508500Y-122920328D01*
X144584369Y-122920328D01*
X144591626Y-122934507D01*
X145917188Y-124260069D01*
X145931132Y-124267683D01*
X145932965Y-124267552D01*
X145939580Y-124263301D01*
X147269594Y-122933287D01*
X147275790Y-122921941D01*
X147265908Y-122909452D01*
X147150942Y-122832634D01*
X147729500Y-122832634D01*
X147736255Y-122894816D01*
X147787385Y-123031205D01*
X147874739Y-123147761D01*
X147991295Y-123235115D01*
X148127684Y-123286245D01*
X148189866Y-123293000D01*
X149810134Y-123293000D01*
X149872316Y-123286245D01*
X150008705Y-123235115D01*
X150125261Y-123147761D01*
X150212615Y-123031205D01*
X150263745Y-122894816D01*
X150267306Y-122862038D01*
X150294549Y-122796476D01*
X150352912Y-122756050D01*
X150423866Y-122753596D01*
X150484884Y-122789892D01*
X150495777Y-122803369D01*
X150523023Y-122842281D01*
X150680219Y-122999477D01*
X150684727Y-123002634D01*
X150684730Y-123002636D01*
X150713523Y-123022797D01*
X150862323Y-123126988D01*
X150867305Y-123129311D01*
X150867310Y-123129314D01*
X151057810Y-123218145D01*
X151063804Y-123220940D01*
X151069112Y-123222362D01*
X151069114Y-123222363D01*
X151116705Y-123235115D01*
X151278537Y-123278478D01*
X151500000Y-123297853D01*
X151721463Y-123278478D01*
X151883295Y-123235115D01*
X151930886Y-123222363D01*
X151930888Y-123222362D01*
X151936196Y-123220940D01*
X151942190Y-123218145D01*
X152132690Y-123129314D01*
X152132695Y-123129311D01*
X152137677Y-123126988D01*
X152286477Y-123022797D01*
X152315270Y-123002636D01*
X152315273Y-123002634D01*
X152319781Y-122999477D01*
X152410905Y-122908353D01*
X152473217Y-122874327D01*
X152544032Y-122879392D01*
X152589095Y-122908353D01*
X152680219Y-122999477D01*
X152684727Y-123002634D01*
X152684730Y-123002636D01*
X152713523Y-123022797D01*
X152862323Y-123126988D01*
X152867305Y-123129311D01*
X152867310Y-123129314D01*
X153057810Y-123218145D01*
X153063804Y-123220940D01*
X153069112Y-123222362D01*
X153069114Y-123222363D01*
X153116705Y-123235115D01*
X153278537Y-123278478D01*
X153500000Y-123297853D01*
X153721463Y-123278478D01*
X153883295Y-123235115D01*
X153930886Y-123222363D01*
X153930888Y-123222362D01*
X153936196Y-123220940D01*
X153942190Y-123218145D01*
X154132690Y-123129314D01*
X154132695Y-123129311D01*
X154137677Y-123126988D01*
X154143901Y-123122630D01*
X155364833Y-123122630D01*
X155370856Y-123130415D01*
X155558993Y-123218145D01*
X155569285Y-123221891D01*
X155773309Y-123276559D01*
X155784104Y-123278462D01*
X155994525Y-123296872D01*
X156005475Y-123296872D01*
X156215896Y-123278462D01*
X156226691Y-123276559D01*
X156430715Y-123221891D01*
X156441007Y-123218145D01*
X156629903Y-123130061D01*
X156635083Y-123123580D01*
X156628016Y-123110136D01*
X156438208Y-122920328D01*
X157724369Y-122920328D01*
X157731626Y-122934507D01*
X159057188Y-124260069D01*
X159071132Y-124267683D01*
X159072965Y-124267552D01*
X159079580Y-124263301D01*
X160409594Y-122933287D01*
X160415790Y-122921941D01*
X160405908Y-122909452D01*
X160204856Y-122775113D01*
X160197719Y-122770992D01*
X159939651Y-122643728D01*
X159932047Y-122640578D01*
X159659580Y-122548088D01*
X159651617Y-122545954D01*
X159369400Y-122489817D01*
X159361249Y-122488744D01*
X159074119Y-122469925D01*
X159065881Y-122469925D01*
X158778751Y-122488744D01*
X158770600Y-122489817D01*
X158488383Y-122545954D01*
X158480420Y-122548088D01*
X158207953Y-122640578D01*
X158200349Y-122643728D01*
X157942282Y-122770992D01*
X157935145Y-122775113D01*
X157732657Y-122910410D01*
X157724369Y-122920328D01*
X156438208Y-122920328D01*
X156012811Y-122494930D01*
X155998868Y-122487317D01*
X155997034Y-122487448D01*
X155990420Y-122491699D01*
X155371261Y-123110859D01*
X155364833Y-123122630D01*
X154143901Y-123122630D01*
X154286477Y-123022797D01*
X154315270Y-123002636D01*
X154315273Y-123002634D01*
X154319781Y-122999477D01*
X154476977Y-122842281D01*
X154481354Y-122836031D01*
X154601331Y-122664685D01*
X154601332Y-122664683D01*
X154604488Y-122660176D01*
X154606811Y-122655194D01*
X154606814Y-122655189D01*
X154636081Y-122592425D01*
X154682999Y-122539140D01*
X154751276Y-122519679D01*
X154819236Y-122540221D01*
X154864471Y-122592425D01*
X154892438Y-122652400D01*
X154898920Y-122657582D01*
X154912365Y-122650515D01*
X155527570Y-122035311D01*
X155533947Y-122023632D01*
X156464817Y-122023632D01*
X156464948Y-122025466D01*
X156469199Y-122032080D01*
X157088359Y-122651239D01*
X157100128Y-122657666D01*
X157107917Y-122651639D01*
X157195645Y-122463507D01*
X157199391Y-122453215D01*
X157254059Y-122249191D01*
X157255962Y-122238396D01*
X157265397Y-122130559D01*
X168386710Y-122130559D01*
X168396592Y-122143048D01*
X168597644Y-122277387D01*
X168604781Y-122281508D01*
X168862849Y-122408772D01*
X168870453Y-122411922D01*
X169142920Y-122504412D01*
X169150883Y-122506546D01*
X169433100Y-122562683D01*
X169441251Y-122563756D01*
X169728381Y-122582575D01*
X169736619Y-122582575D01*
X170023749Y-122563756D01*
X170031900Y-122562683D01*
X170314117Y-122506546D01*
X170322080Y-122504412D01*
X170594547Y-122411922D01*
X170602151Y-122408772D01*
X170860219Y-122281508D01*
X170867356Y-122277387D01*
X171069843Y-122142090D01*
X171078131Y-122132172D01*
X171070874Y-122117993D01*
X169745312Y-120792431D01*
X169731368Y-120784817D01*
X169729535Y-120784948D01*
X169722920Y-120789199D01*
X168392906Y-122119213D01*
X168386710Y-122130559D01*
X157265397Y-122130559D01*
X157274372Y-122027975D01*
X157274372Y-122017025D01*
X157255962Y-121806604D01*
X157254059Y-121795809D01*
X157199391Y-121591785D01*
X157195645Y-121581493D01*
X157107562Y-121392600D01*
X157101080Y-121387418D01*
X157087635Y-121394485D01*
X156472430Y-122009689D01*
X156464817Y-122023632D01*
X155533947Y-122023632D01*
X155535183Y-122021368D01*
X155535052Y-122019534D01*
X155530801Y-122012920D01*
X154911641Y-121393761D01*
X154899872Y-121387334D01*
X154892083Y-121393361D01*
X154864471Y-121452575D01*
X154817553Y-121505860D01*
X154749276Y-121525321D01*
X154681316Y-121504779D01*
X154636081Y-121452575D01*
X154606814Y-121389811D01*
X154606811Y-121389806D01*
X154604488Y-121384824D01*
X154540376Y-121293262D01*
X154480136Y-121207230D01*
X154480134Y-121207227D01*
X154476977Y-121202719D01*
X154319781Y-121045523D01*
X154315273Y-121042366D01*
X154315270Y-121042364D01*
X154239505Y-120989313D01*
X154142544Y-120921420D01*
X155364918Y-120921420D01*
X155371985Y-120934865D01*
X155987189Y-121550070D01*
X156001132Y-121557683D01*
X156002966Y-121557552D01*
X156009580Y-121553301D01*
X156628739Y-120934141D01*
X156635167Y-120922370D01*
X156629144Y-120914585D01*
X156441007Y-120826855D01*
X156430715Y-120823109D01*
X156226691Y-120768441D01*
X156215896Y-120766538D01*
X156005475Y-120748128D01*
X155994525Y-120748128D01*
X155784104Y-120766538D01*
X155773309Y-120768441D01*
X155569285Y-120823109D01*
X155558993Y-120826855D01*
X155370100Y-120914938D01*
X155364918Y-120921420D01*
X154142544Y-120921420D01*
X154137677Y-120918012D01*
X154132695Y-120915689D01*
X154132690Y-120915686D01*
X153941178Y-120826383D01*
X153941177Y-120826382D01*
X153936196Y-120824060D01*
X153930888Y-120822638D01*
X153930886Y-120822637D01*
X153865051Y-120804997D01*
X153721463Y-120766522D01*
X153500000Y-120747147D01*
X153278537Y-120766522D01*
X153134949Y-120804997D01*
X153069114Y-120822637D01*
X153069112Y-120822638D01*
X153063804Y-120824060D01*
X153058823Y-120826382D01*
X153058822Y-120826383D01*
X152867311Y-120915686D01*
X152867306Y-120915689D01*
X152862324Y-120918012D01*
X152857817Y-120921168D01*
X152857815Y-120921169D01*
X152684730Y-121042364D01*
X152684727Y-121042366D01*
X152680219Y-121045523D01*
X152589095Y-121136647D01*
X152526783Y-121170673D01*
X152455968Y-121165608D01*
X152410905Y-121136647D01*
X152319781Y-121045523D01*
X152315273Y-121042366D01*
X152315270Y-121042364D01*
X152239505Y-120989313D01*
X152137677Y-120918012D01*
X152132695Y-120915689D01*
X152132690Y-120915686D01*
X151941178Y-120826383D01*
X151941177Y-120826382D01*
X151936196Y-120824060D01*
X151930888Y-120822638D01*
X151930886Y-120822637D01*
X151865051Y-120804997D01*
X151721463Y-120766522D01*
X151500000Y-120747147D01*
X151278537Y-120766522D01*
X151134949Y-120804997D01*
X151069114Y-120822637D01*
X151069112Y-120822638D01*
X151063804Y-120824060D01*
X151058823Y-120826382D01*
X151058822Y-120826383D01*
X150867311Y-120915686D01*
X150867306Y-120915689D01*
X150862324Y-120918012D01*
X150857817Y-120921168D01*
X150857815Y-120921169D01*
X150684730Y-121042364D01*
X150684727Y-121042366D01*
X150680219Y-121045523D01*
X150523023Y-121202719D01*
X150495781Y-121241624D01*
X150440326Y-121285952D01*
X150369707Y-121293262D01*
X150306346Y-121261231D01*
X150270361Y-121200030D01*
X150267306Y-121182962D01*
X150265971Y-121170673D01*
X150263745Y-121150184D01*
X150212615Y-121013795D01*
X150125261Y-120897239D01*
X150008705Y-120809885D01*
X149872316Y-120758755D01*
X149810134Y-120752000D01*
X148189866Y-120752000D01*
X148127684Y-120758755D01*
X147991295Y-120809885D01*
X147874739Y-120897239D01*
X147787385Y-121013795D01*
X147736255Y-121150184D01*
X147729500Y-121212366D01*
X147729500Y-122832634D01*
X147150942Y-122832634D01*
X147064856Y-122775113D01*
X147057719Y-122770992D01*
X146799651Y-122643728D01*
X146792047Y-122640578D01*
X146519580Y-122548088D01*
X146511617Y-122545954D01*
X146229400Y-122489817D01*
X146221249Y-122488744D01*
X145934119Y-122469925D01*
X145925881Y-122469925D01*
X145638751Y-122488744D01*
X145630600Y-122489817D01*
X145348383Y-122545954D01*
X145340420Y-122548088D01*
X145067953Y-122640578D01*
X145060349Y-122643728D01*
X144802282Y-122770992D01*
X144795145Y-122775113D01*
X144592657Y-122910410D01*
X144584369Y-122920328D01*
X125508500Y-122920328D01*
X125508500Y-120324119D01*
X167469925Y-120324119D01*
X167488744Y-120611249D01*
X167489817Y-120619400D01*
X167545954Y-120901617D01*
X167548088Y-120909580D01*
X167640578Y-121182047D01*
X167643728Y-121189651D01*
X167770992Y-121447718D01*
X167775113Y-121454855D01*
X167910410Y-121657343D01*
X167920328Y-121665631D01*
X167934507Y-121658374D01*
X169260069Y-120332812D01*
X169266447Y-120321132D01*
X170197317Y-120321132D01*
X170197448Y-120322965D01*
X170201699Y-120329580D01*
X171531713Y-121659594D01*
X171543059Y-121665790D01*
X171555548Y-121655908D01*
X171689887Y-121454855D01*
X171694008Y-121447718D01*
X171821272Y-121189651D01*
X171824422Y-121182047D01*
X171916912Y-120909580D01*
X171919046Y-120901617D01*
X171975183Y-120619400D01*
X171976256Y-120611249D01*
X171995075Y-120324119D01*
X171995075Y-120315881D01*
X171976256Y-120028751D01*
X171975183Y-120020600D01*
X171919046Y-119738383D01*
X171916912Y-119730420D01*
X171824422Y-119457953D01*
X171821272Y-119450349D01*
X171694008Y-119192282D01*
X171689887Y-119185145D01*
X171554590Y-118982657D01*
X171544672Y-118974369D01*
X171530493Y-118981626D01*
X170204931Y-120307188D01*
X170197317Y-120321132D01*
X169266447Y-120321132D01*
X169267683Y-120318868D01*
X169267552Y-120317035D01*
X169263301Y-120310420D01*
X167933287Y-118980406D01*
X167921941Y-118974210D01*
X167909452Y-118984092D01*
X167775113Y-119185145D01*
X167770992Y-119192282D01*
X167643728Y-119450349D01*
X167640578Y-119457953D01*
X167548088Y-119730420D01*
X167545954Y-119738383D01*
X167489817Y-120020600D01*
X167488744Y-120028751D01*
X167469925Y-120315881D01*
X167469925Y-120324119D01*
X125508500Y-120324119D01*
X125508500Y-115978966D01*
X145484258Y-115978966D01*
X145498565Y-116042446D01*
X145501645Y-116052275D01*
X145581770Y-116249603D01*
X145586413Y-116258794D01*
X145697694Y-116440388D01*
X145703777Y-116448699D01*
X145843213Y-116609667D01*
X145850580Y-116616883D01*
X146014434Y-116752916D01*
X146022881Y-116758831D01*
X146206756Y-116866279D01*
X146216042Y-116870729D01*
X146415001Y-116946703D01*
X146424899Y-116949579D01*
X146457250Y-116956161D01*
X146471299Y-116954965D01*
X146475000Y-116944620D01*
X146475000Y-116942255D01*
X147125000Y-116942255D01*
X147128973Y-116955786D01*
X147136617Y-116956885D01*
X147292255Y-116910191D01*
X147301842Y-116906433D01*
X147493095Y-116812739D01*
X147501945Y-116807464D01*
X147675328Y-116683792D01*
X147683200Y-116677139D01*
X147834052Y-116526812D01*
X147840730Y-116518965D01*
X147965003Y-116346020D01*
X147970313Y-116337183D01*
X148064670Y-116146268D01*
X148068468Y-116136675D01*
X148115361Y-115982331D01*
X148115493Y-115968233D01*
X148108587Y-115965000D01*
X147143115Y-115965000D01*
X147127876Y-115969475D01*
X147126671Y-115970865D01*
X147125000Y-115978548D01*
X147125000Y-116942255D01*
X146475000Y-116942255D01*
X146475000Y-115983115D01*
X146470525Y-115967876D01*
X146469135Y-115966671D01*
X146461452Y-115965000D01*
X145499226Y-115965000D01*
X145485695Y-115968973D01*
X145484258Y-115978966D01*
X125508500Y-115978966D01*
X125508500Y-114500000D01*
X139356606Y-114500000D01*
X139376129Y-114685747D01*
X139433844Y-114863376D01*
X139527229Y-115025124D01*
X139652203Y-115163921D01*
X139657542Y-115167800D01*
X139709948Y-115205875D01*
X139803303Y-115273702D01*
X139809331Y-115276386D01*
X139809333Y-115276387D01*
X139888522Y-115311644D01*
X139973926Y-115349668D01*
X140065271Y-115369084D01*
X140150158Y-115387128D01*
X140150163Y-115387128D01*
X140156615Y-115388500D01*
X140343385Y-115388500D01*
X140349837Y-115387128D01*
X140349842Y-115387128D01*
X140434729Y-115369084D01*
X140526074Y-115349668D01*
X140611478Y-115311644D01*
X140690667Y-115276387D01*
X140690669Y-115276386D01*
X140696697Y-115273702D01*
X140790053Y-115205875D01*
X140842458Y-115167800D01*
X140847797Y-115163921D01*
X140972771Y-115025124D01*
X141066156Y-114863376D01*
X141123871Y-114685747D01*
X141143394Y-114500000D01*
X141130907Y-114381195D01*
X141124561Y-114320817D01*
X141124561Y-114320816D01*
X141123871Y-114314253D01*
X141109784Y-114270896D01*
X141068198Y-114142909D01*
X141066156Y-114136624D01*
X141052127Y-114112324D01*
X140976074Y-113980597D01*
X140972771Y-113974876D01*
X140932562Y-113930219D01*
X140847797Y-113836079D01*
X140849539Y-113834510D01*
X140817923Y-113783204D01*
X140819266Y-113712220D01*
X140849386Y-113665352D01*
X140847797Y-113663921D01*
X140968352Y-113530032D01*
X140968353Y-113530031D01*
X140972771Y-113525124D01*
X141051900Y-113388069D01*
X141062852Y-113369099D01*
X141062853Y-113369098D01*
X141066156Y-113363376D01*
X141123871Y-113185747D01*
X141125124Y-113173831D01*
X141136384Y-113066695D01*
X145437251Y-113066695D01*
X145437548Y-113071848D01*
X145437548Y-113071851D01*
X145449624Y-113281279D01*
X145450110Y-113289715D01*
X145451247Y-113294761D01*
X145451248Y-113294767D01*
X145468000Y-113369099D01*
X145499222Y-113507639D01*
X145583266Y-113714616D01*
X145585965Y-113719020D01*
X145659547Y-113839095D01*
X145699987Y-113905088D01*
X145846250Y-114073938D01*
X146018126Y-114216632D01*
X146091955Y-114259774D01*
X146140679Y-114311412D01*
X146153750Y-114381195D01*
X146127019Y-114446967D01*
X146086562Y-114480327D01*
X146078457Y-114484546D01*
X146069738Y-114490036D01*
X145899433Y-114617905D01*
X145891726Y-114624748D01*
X145744590Y-114778717D01*
X145738104Y-114786727D01*
X145618098Y-114962649D01*
X145613000Y-114971623D01*
X145523338Y-115164783D01*
X145519775Y-115174470D01*
X145485644Y-115297540D01*
X145485857Y-115311644D01*
X145493508Y-115315000D01*
X148100510Y-115315000D01*
X148114041Y-115311027D01*
X148115346Y-115301947D01*
X148091214Y-115205875D01*
X148087894Y-115196124D01*
X148002972Y-115000814D01*
X147998105Y-114991739D01*
X147882426Y-114812926D01*
X147876136Y-114804757D01*
X147826311Y-114750000D01*
X165747147Y-114750000D01*
X165766522Y-114971463D01*
X165767946Y-114976776D01*
X165816778Y-115159018D01*
X165824060Y-115186196D01*
X165826382Y-115191177D01*
X165826383Y-115191178D01*
X165915686Y-115382689D01*
X165915689Y-115382694D01*
X165918012Y-115387676D01*
X166045523Y-115569781D01*
X166202719Y-115726977D01*
X166241625Y-115754219D01*
X166285952Y-115809674D01*
X166293262Y-115880293D01*
X166261231Y-115943654D01*
X166200030Y-115979639D01*
X166182962Y-115982694D01*
X166173964Y-115983672D01*
X166150184Y-115986255D01*
X166013795Y-116037385D01*
X165897239Y-116124739D01*
X165809885Y-116241295D01*
X165758755Y-116377684D01*
X165752000Y-116439866D01*
X165752000Y-118060134D01*
X165758755Y-118122316D01*
X165809885Y-118258705D01*
X165897239Y-118375261D01*
X166013795Y-118462615D01*
X166150184Y-118513745D01*
X166212366Y-118520500D01*
X167832634Y-118520500D01*
X167894816Y-118513745D01*
X167910600Y-118507828D01*
X168386869Y-118507828D01*
X168394126Y-118522007D01*
X169719688Y-119847569D01*
X169733632Y-119855183D01*
X169735465Y-119855052D01*
X169742080Y-119850801D01*
X171072094Y-118520787D01*
X171078290Y-118509441D01*
X171068408Y-118496952D01*
X170867356Y-118362613D01*
X170860219Y-118358492D01*
X170602151Y-118231228D01*
X170594547Y-118228078D01*
X170322080Y-118135588D01*
X170314117Y-118133454D01*
X170031900Y-118077317D01*
X170023749Y-118076244D01*
X169736619Y-118057425D01*
X169728381Y-118057425D01*
X169441251Y-118076244D01*
X169433100Y-118077317D01*
X169150883Y-118133454D01*
X169142920Y-118135588D01*
X168870453Y-118228078D01*
X168862849Y-118231228D01*
X168604782Y-118358492D01*
X168597645Y-118362613D01*
X168395157Y-118497910D01*
X168386869Y-118507828D01*
X167910600Y-118507828D01*
X168031205Y-118462615D01*
X168147761Y-118375261D01*
X168235115Y-118258705D01*
X168286245Y-118122316D01*
X168293000Y-118060134D01*
X168293000Y-116439866D01*
X168286245Y-116377684D01*
X168235115Y-116241295D01*
X168147761Y-116124739D01*
X168031205Y-116037385D01*
X167894816Y-115986255D01*
X167871036Y-115983672D01*
X167862038Y-115982694D01*
X167796476Y-115955451D01*
X167756050Y-115897088D01*
X167753596Y-115826134D01*
X167789892Y-115765116D01*
X167803368Y-115754224D01*
X167842281Y-115726977D01*
X167999477Y-115569781D01*
X168126988Y-115387676D01*
X168129311Y-115382694D01*
X168129314Y-115382689D01*
X168218617Y-115191178D01*
X168218618Y-115191177D01*
X168220940Y-115186196D01*
X168228223Y-115159018D01*
X168277054Y-114976776D01*
X168278478Y-114971463D01*
X168297853Y-114750000D01*
X168278478Y-114528537D01*
X168238998Y-114381195D01*
X168222363Y-114319114D01*
X168222362Y-114319112D01*
X168220940Y-114313804D01*
X168218617Y-114308822D01*
X168129314Y-114117311D01*
X168129311Y-114117306D01*
X168126988Y-114112324D01*
X168097374Y-114070031D01*
X168002636Y-113934730D01*
X168002634Y-113934727D01*
X167999477Y-113930219D01*
X167908353Y-113839095D01*
X167874327Y-113776783D01*
X167879392Y-113705968D01*
X167908353Y-113660905D01*
X167999477Y-113569781D01*
X168027310Y-113530032D01*
X168123831Y-113392185D01*
X168123832Y-113392183D01*
X168126988Y-113387676D01*
X168129311Y-113382694D01*
X168129314Y-113382689D01*
X168218617Y-113191178D01*
X168218618Y-113191177D01*
X168220940Y-113186196D01*
X168225305Y-113169908D01*
X168270831Y-113000000D01*
X168278478Y-112971463D01*
X168297853Y-112750000D01*
X168278478Y-112528537D01*
X168238677Y-112380000D01*
X168222363Y-112319114D01*
X168222362Y-112319112D01*
X168220940Y-112313804D01*
X168201734Y-112272617D01*
X168129314Y-112117311D01*
X168129311Y-112117306D01*
X168126988Y-112112324D01*
X168104799Y-112080635D01*
X168002636Y-111934730D01*
X168002634Y-111934727D01*
X167999477Y-111930219D01*
X167842281Y-111773023D01*
X167837773Y-111769866D01*
X167837770Y-111769864D01*
X167755903Y-111712540D01*
X167660177Y-111645512D01*
X167655195Y-111643189D01*
X167655190Y-111643186D01*
X167592426Y-111613919D01*
X167539141Y-111567001D01*
X167519680Y-111498724D01*
X167540222Y-111430764D01*
X167592426Y-111385529D01*
X167652403Y-111357561D01*
X167657583Y-111351080D01*
X167650516Y-111337636D01*
X167035311Y-110722430D01*
X167021368Y-110714817D01*
X167019534Y-110714948D01*
X167012920Y-110719199D01*
X166393761Y-111338359D01*
X166387333Y-111350130D01*
X166393355Y-111357915D01*
X166452575Y-111385529D01*
X166505860Y-111432446D01*
X166525321Y-111500723D01*
X166504779Y-111568683D01*
X166452575Y-111613919D01*
X166389811Y-111643186D01*
X166389806Y-111643189D01*
X166384824Y-111645512D01*
X166380317Y-111648668D01*
X166380315Y-111648669D01*
X166207230Y-111769864D01*
X166207227Y-111769866D01*
X166202719Y-111773023D01*
X166045523Y-111930219D01*
X166042366Y-111934727D01*
X166042364Y-111934730D01*
X165940201Y-112080635D01*
X165918012Y-112112324D01*
X165915689Y-112117306D01*
X165915686Y-112117311D01*
X165843266Y-112272617D01*
X165824060Y-112313804D01*
X165822638Y-112319112D01*
X165822637Y-112319114D01*
X165806323Y-112380000D01*
X165766522Y-112528537D01*
X165747147Y-112750000D01*
X165766522Y-112971463D01*
X165774169Y-113000000D01*
X165819696Y-113169908D01*
X165824060Y-113186196D01*
X165826382Y-113191177D01*
X165826383Y-113191178D01*
X165915686Y-113382689D01*
X165915689Y-113382694D01*
X165918012Y-113387676D01*
X165921168Y-113392183D01*
X165921169Y-113392185D01*
X166017691Y-113530032D01*
X166045523Y-113569781D01*
X166136647Y-113660905D01*
X166170673Y-113723217D01*
X166165608Y-113794032D01*
X166136647Y-113839095D01*
X166045523Y-113930219D01*
X166042366Y-113934727D01*
X166042364Y-113934730D01*
X165947626Y-114070031D01*
X165918012Y-114112324D01*
X165915689Y-114117306D01*
X165915686Y-114117311D01*
X165826383Y-114308822D01*
X165824060Y-114313804D01*
X165822638Y-114319112D01*
X165822637Y-114319114D01*
X165806002Y-114381195D01*
X165766522Y-114528537D01*
X165747147Y-114750000D01*
X147826311Y-114750000D01*
X147732806Y-114647240D01*
X147725273Y-114640215D01*
X147558139Y-114508222D01*
X147549556Y-114502520D01*
X147512602Y-114482120D01*
X147462631Y-114431687D01*
X147447859Y-114362245D01*
X147472975Y-114295839D01*
X147500327Y-114269232D01*
X147523797Y-114252491D01*
X147679860Y-114141173D01*
X147838096Y-113983489D01*
X147879175Y-113926322D01*
X147965435Y-113806277D01*
X147968453Y-113802077D01*
X147982813Y-113773023D01*
X148065136Y-113606453D01*
X148065137Y-113606451D01*
X148067430Y-113601811D01*
X148132370Y-113388069D01*
X148161529Y-113166590D01*
X148163156Y-113100000D01*
X148144852Y-112877361D01*
X148090431Y-112660702D01*
X148001354Y-112455840D01*
X147961326Y-112393966D01*
X159484258Y-112393966D01*
X159498565Y-112457446D01*
X159501645Y-112467275D01*
X159581770Y-112664603D01*
X159586413Y-112673794D01*
X159697694Y-112855388D01*
X159703777Y-112863699D01*
X159843213Y-113024667D01*
X159850580Y-113031883D01*
X160014434Y-113167916D01*
X160022881Y-113173831D01*
X160206756Y-113281279D01*
X160216042Y-113285729D01*
X160415001Y-113361703D01*
X160424899Y-113364579D01*
X160457250Y-113371161D01*
X160471299Y-113369965D01*
X160475000Y-113359620D01*
X160475000Y-113357255D01*
X161125000Y-113357255D01*
X161128973Y-113370786D01*
X161136617Y-113371885D01*
X161292255Y-113325191D01*
X161301842Y-113321433D01*
X161493095Y-113227739D01*
X161501945Y-113222464D01*
X161675328Y-113098792D01*
X161683200Y-113092139D01*
X161834052Y-112941812D01*
X161840730Y-112933965D01*
X161965003Y-112761020D01*
X161970313Y-112752183D01*
X162064670Y-112561268D01*
X162068468Y-112551675D01*
X162115361Y-112397331D01*
X162115493Y-112383233D01*
X162108587Y-112380000D01*
X161143115Y-112380000D01*
X161127876Y-112384475D01*
X161126671Y-112385865D01*
X161125000Y-112393548D01*
X161125000Y-113357255D01*
X160475000Y-113357255D01*
X160475000Y-112398115D01*
X160470525Y-112382876D01*
X160469135Y-112381671D01*
X160461452Y-112380000D01*
X159499226Y-112380000D01*
X159485695Y-112383973D01*
X159484258Y-112393966D01*
X147961326Y-112393966D01*
X147880014Y-112268277D01*
X147876532Y-112264450D01*
X147732798Y-112106488D01*
X147701746Y-112042642D01*
X147710141Y-111972143D01*
X147755317Y-111917375D01*
X147781761Y-111903706D01*
X147888297Y-111863767D01*
X147896705Y-111860615D01*
X148013261Y-111773261D01*
X148100615Y-111656705D01*
X148151745Y-111520316D01*
X148158500Y-111458134D01*
X148158500Y-109661866D01*
X148151745Y-109599684D01*
X148107513Y-109481695D01*
X159437251Y-109481695D01*
X159437548Y-109486848D01*
X159437548Y-109486851D01*
X159447639Y-109661866D01*
X159450110Y-109704715D01*
X159451247Y-109709761D01*
X159451248Y-109709767D01*
X159471119Y-109797939D01*
X159499222Y-109922639D01*
X159583266Y-110129616D01*
X159585965Y-110134020D01*
X159651167Y-110240420D01*
X159699987Y-110320088D01*
X159846250Y-110488938D01*
X160018126Y-110631632D01*
X160091955Y-110674774D01*
X160140679Y-110726412D01*
X160153750Y-110796195D01*
X160127019Y-110861967D01*
X160086562Y-110895327D01*
X160078457Y-110899546D01*
X160069738Y-110905036D01*
X159899433Y-111032905D01*
X159891726Y-111039748D01*
X159744590Y-111193717D01*
X159738104Y-111201727D01*
X159618098Y-111377649D01*
X159613000Y-111386623D01*
X159523338Y-111579783D01*
X159519775Y-111589470D01*
X159485644Y-111712540D01*
X159485857Y-111726644D01*
X159493508Y-111730000D01*
X162100510Y-111730000D01*
X162114041Y-111726027D01*
X162115346Y-111716947D01*
X162091214Y-111620875D01*
X162087894Y-111611124D01*
X162002972Y-111415814D01*
X161998105Y-111406739D01*
X161882426Y-111227926D01*
X161876136Y-111219757D01*
X161732806Y-111062240D01*
X161725273Y-111055215D01*
X161558139Y-110923222D01*
X161549556Y-110917520D01*
X161512602Y-110897120D01*
X161462631Y-110846687D01*
X161447859Y-110777245D01*
X161472975Y-110710839D01*
X161500327Y-110684232D01*
X161523797Y-110667491D01*
X161679860Y-110556173D01*
X161838096Y-110398489D01*
X161897594Y-110315689D01*
X161940862Y-110255475D01*
X165748128Y-110255475D01*
X165766538Y-110465896D01*
X165768441Y-110476691D01*
X165823109Y-110680715D01*
X165826855Y-110691007D01*
X165914938Y-110879900D01*
X165921420Y-110885082D01*
X165934865Y-110878015D01*
X166550070Y-110262811D01*
X166556447Y-110251132D01*
X167487317Y-110251132D01*
X167487448Y-110252966D01*
X167491699Y-110259580D01*
X168110859Y-110878739D01*
X168122628Y-110885166D01*
X168130417Y-110879139D01*
X168218145Y-110691007D01*
X168221891Y-110680715D01*
X168276559Y-110476691D01*
X168278462Y-110465896D01*
X168296872Y-110255475D01*
X168296872Y-110244525D01*
X168278462Y-110034104D01*
X168276559Y-110023309D01*
X168221891Y-109819285D01*
X168218145Y-109808993D01*
X168130062Y-109620100D01*
X168123580Y-109614918D01*
X168110135Y-109621985D01*
X167494930Y-110237189D01*
X167487317Y-110251132D01*
X166556447Y-110251132D01*
X166557683Y-110248868D01*
X166557552Y-110247034D01*
X166553301Y-110240420D01*
X165934141Y-109621261D01*
X165922372Y-109614834D01*
X165914583Y-109620861D01*
X165826855Y-109808993D01*
X165823109Y-109819285D01*
X165768441Y-110023309D01*
X165766538Y-110034104D01*
X165748128Y-110244525D01*
X165748128Y-110255475D01*
X161940862Y-110255475D01*
X161965435Y-110221277D01*
X161968453Y-110217077D01*
X162058884Y-110034104D01*
X162065136Y-110021453D01*
X162065137Y-110021451D01*
X162067430Y-110016811D01*
X162132370Y-109803069D01*
X162161529Y-109581590D01*
X162163156Y-109515000D01*
X162144852Y-109292361D01*
X162108822Y-109148920D01*
X166387418Y-109148920D01*
X166394485Y-109162365D01*
X167009689Y-109777570D01*
X167023632Y-109785183D01*
X167025466Y-109785052D01*
X167032080Y-109780801D01*
X167651239Y-109161641D01*
X167657667Y-109149870D01*
X167651644Y-109142085D01*
X167463507Y-109054355D01*
X167453215Y-109050609D01*
X167249191Y-108995941D01*
X167238396Y-108994038D01*
X167198632Y-108990559D01*
X168386710Y-108990559D01*
X168396592Y-109003048D01*
X168597644Y-109137387D01*
X168604781Y-109141508D01*
X168862849Y-109268772D01*
X168870453Y-109271922D01*
X169142920Y-109364412D01*
X169150883Y-109366546D01*
X169433100Y-109422683D01*
X169441251Y-109423756D01*
X169728381Y-109442575D01*
X169736619Y-109442575D01*
X170023749Y-109423756D01*
X170031900Y-109422683D01*
X170314117Y-109366546D01*
X170322080Y-109364412D01*
X170594547Y-109271922D01*
X170602151Y-109268772D01*
X170860219Y-109141508D01*
X170867356Y-109137387D01*
X171069843Y-109002090D01*
X171078131Y-108992172D01*
X171070874Y-108977993D01*
X169745312Y-107652431D01*
X169731368Y-107644817D01*
X169729535Y-107644948D01*
X169722920Y-107649199D01*
X168392906Y-108979213D01*
X168386710Y-108990559D01*
X167198632Y-108990559D01*
X167027975Y-108975628D01*
X167017025Y-108975628D01*
X166806604Y-108994038D01*
X166795809Y-108995941D01*
X166591785Y-109050609D01*
X166581493Y-109054355D01*
X166392600Y-109142438D01*
X166387418Y-109148920D01*
X162108822Y-109148920D01*
X162090431Y-109075702D01*
X162001354Y-108870840D01*
X161880014Y-108683277D01*
X161876532Y-108679450D01*
X161732798Y-108521488D01*
X161701746Y-108457642D01*
X161710141Y-108387143D01*
X161755317Y-108332375D01*
X161781761Y-108318706D01*
X161888297Y-108278767D01*
X161896705Y-108275615D01*
X162013261Y-108188261D01*
X162100615Y-108071705D01*
X162151745Y-107935316D01*
X162158500Y-107873134D01*
X162158500Y-107184119D01*
X167469925Y-107184119D01*
X167488744Y-107471249D01*
X167489817Y-107479400D01*
X167545954Y-107761617D01*
X167548088Y-107769580D01*
X167640578Y-108042047D01*
X167643728Y-108049651D01*
X167770992Y-108307718D01*
X167775113Y-108314855D01*
X167910410Y-108517343D01*
X167920328Y-108525631D01*
X167934507Y-108518374D01*
X169260069Y-107192812D01*
X169266447Y-107181132D01*
X170197317Y-107181132D01*
X170197448Y-107182965D01*
X170201699Y-107189580D01*
X171531713Y-108519594D01*
X171543059Y-108525790D01*
X171555548Y-108515908D01*
X171689887Y-108314855D01*
X171694008Y-108307718D01*
X171821272Y-108049651D01*
X171824422Y-108042047D01*
X171916912Y-107769580D01*
X171919046Y-107761617D01*
X171975183Y-107479400D01*
X171976256Y-107471249D01*
X171995075Y-107184119D01*
X171995075Y-107175881D01*
X171976256Y-106888751D01*
X171975183Y-106880600D01*
X171919046Y-106598383D01*
X171916912Y-106590420D01*
X171824422Y-106317953D01*
X171821272Y-106310349D01*
X171694008Y-106052282D01*
X171689887Y-106045145D01*
X171554590Y-105842657D01*
X171544672Y-105834369D01*
X171530493Y-105841626D01*
X170204931Y-107167188D01*
X170197317Y-107181132D01*
X169266447Y-107181132D01*
X169267683Y-107178868D01*
X169267552Y-107177035D01*
X169263301Y-107170420D01*
X167933287Y-105840406D01*
X167921941Y-105834210D01*
X167909452Y-105844092D01*
X167775113Y-106045145D01*
X167770992Y-106052282D01*
X167643728Y-106310349D01*
X167640578Y-106317953D01*
X167548088Y-106590420D01*
X167545954Y-106598383D01*
X167489817Y-106880600D01*
X167488744Y-106888751D01*
X167469925Y-107175881D01*
X167469925Y-107184119D01*
X162158500Y-107184119D01*
X162158500Y-106076866D01*
X162151745Y-106014684D01*
X162100615Y-105878295D01*
X162013261Y-105761739D01*
X161896705Y-105674385D01*
X161760316Y-105623255D01*
X161698134Y-105616500D01*
X159901866Y-105616500D01*
X159839684Y-105623255D01*
X159703295Y-105674385D01*
X159586739Y-105761739D01*
X159499385Y-105878295D01*
X159448255Y-106014684D01*
X159441500Y-106076866D01*
X159441500Y-107873134D01*
X159448255Y-107935316D01*
X159499385Y-108071705D01*
X159586739Y-108188261D01*
X159703295Y-108275615D01*
X159711704Y-108278767D01*
X159711705Y-108278768D01*
X159820451Y-108319535D01*
X159877216Y-108362176D01*
X159901916Y-108428738D01*
X159886709Y-108498087D01*
X159867316Y-108524568D01*
X159740629Y-108657138D01*
X159614743Y-108841680D01*
X159599003Y-108875590D01*
X159550903Y-108979213D01*
X159520688Y-109044305D01*
X159460989Y-109259570D01*
X159437251Y-109481695D01*
X148107513Y-109481695D01*
X148100615Y-109463295D01*
X148013261Y-109346739D01*
X147896705Y-109259385D01*
X147760316Y-109208255D01*
X147698134Y-109201500D01*
X145901866Y-109201500D01*
X145839684Y-109208255D01*
X145703295Y-109259385D01*
X145586739Y-109346739D01*
X145499385Y-109463295D01*
X145448255Y-109599684D01*
X145441500Y-109661866D01*
X145441500Y-111458134D01*
X145448255Y-111520316D01*
X145499385Y-111656705D01*
X145586739Y-111773261D01*
X145703295Y-111860615D01*
X145711704Y-111863767D01*
X145711705Y-111863768D01*
X145820451Y-111904535D01*
X145877216Y-111947176D01*
X145901916Y-112013738D01*
X145886709Y-112083087D01*
X145867316Y-112109568D01*
X145740629Y-112242138D01*
X145737715Y-112246410D01*
X145737714Y-112246411D01*
X145679193Y-112332200D01*
X145614743Y-112426680D01*
X145592371Y-112474876D01*
X145552270Y-112561268D01*
X145520688Y-112629305D01*
X145460989Y-112844570D01*
X145437251Y-113066695D01*
X141136384Y-113066695D01*
X141142704Y-113006565D01*
X141143394Y-113000000D01*
X141130504Y-112877361D01*
X141124561Y-112820817D01*
X141124561Y-112820816D01*
X141123871Y-112814253D01*
X141066156Y-112636624D01*
X141061931Y-112629305D01*
X140976074Y-112480597D01*
X140972771Y-112474876D01*
X140951716Y-112451492D01*
X140852212Y-112340982D01*
X140852210Y-112340981D01*
X140847797Y-112336079D01*
X140810281Y-112308822D01*
X140702039Y-112230179D01*
X140702038Y-112230178D01*
X140696697Y-112226298D01*
X140690669Y-112223614D01*
X140690667Y-112223613D01*
X140532105Y-112153017D01*
X140532104Y-112153017D01*
X140526074Y-112150332D01*
X140434729Y-112130916D01*
X140349842Y-112112872D01*
X140349837Y-112112872D01*
X140343385Y-112111500D01*
X140156615Y-112111500D01*
X140150163Y-112112872D01*
X140150158Y-112112872D01*
X140065271Y-112130916D01*
X139973926Y-112150332D01*
X139967896Y-112153017D01*
X139967895Y-112153017D01*
X139809333Y-112223613D01*
X139809331Y-112223614D01*
X139803303Y-112226298D01*
X139797962Y-112230178D01*
X139797961Y-112230179D01*
X139689719Y-112308822D01*
X139652203Y-112336079D01*
X139647790Y-112340981D01*
X139647788Y-112340982D01*
X139548284Y-112451492D01*
X139527229Y-112474876D01*
X139523926Y-112480597D01*
X139438070Y-112629305D01*
X139433844Y-112636624D01*
X139376129Y-112814253D01*
X139375439Y-112820816D01*
X139375439Y-112820817D01*
X139369496Y-112877361D01*
X139356606Y-113000000D01*
X139357296Y-113006565D01*
X139374877Y-113173831D01*
X139376129Y-113185747D01*
X139433844Y-113363376D01*
X139437147Y-113369098D01*
X139437148Y-113369099D01*
X139448100Y-113388069D01*
X139527229Y-113525124D01*
X139531647Y-113530031D01*
X139531648Y-113530032D01*
X139652203Y-113663921D01*
X139650461Y-113665490D01*
X139682077Y-113716796D01*
X139680734Y-113787780D01*
X139650614Y-113834648D01*
X139652203Y-113836079D01*
X139567439Y-113930219D01*
X139527229Y-113974876D01*
X139523926Y-113980597D01*
X139447874Y-114112324D01*
X139433844Y-114136624D01*
X139431802Y-114142909D01*
X139390217Y-114270896D01*
X139376129Y-114314253D01*
X139375439Y-114320816D01*
X139375439Y-114320817D01*
X139369093Y-114381195D01*
X139356606Y-114500000D01*
X125508500Y-114500000D01*
X125508500Y-105788921D01*
X152706588Y-105788921D01*
X152723851Y-105964976D01*
X152779689Y-106132831D01*
X152871327Y-106284143D01*
X152876218Y-106289208D01*
X152876219Y-106289209D01*
X152896340Y-106310045D01*
X152994211Y-106411394D01*
X153142234Y-106508257D01*
X153308038Y-106569919D01*
X153315019Y-106570850D01*
X153315021Y-106570851D01*
X153363221Y-106577282D01*
X153483382Y-106593315D01*
X153490393Y-106592677D01*
X153490397Y-106592677D01*
X153652532Y-106577921D01*
X153659553Y-106577282D01*
X153666255Y-106575104D01*
X153666257Y-106575104D01*
X153821095Y-106524794D01*
X153821098Y-106524793D01*
X153827794Y-106522617D01*
X153833845Y-106519010D01*
X153973691Y-106435646D01*
X153973693Y-106435645D01*
X153979743Y-106432038D01*
X154107848Y-106310045D01*
X154205742Y-106162702D01*
X154258985Y-106022540D01*
X154266060Y-106003916D01*
X154266061Y-106003911D01*
X154268560Y-105997333D01*
X154274093Y-105957967D01*
X154292629Y-105826079D01*
X154292629Y-105826073D01*
X154293180Y-105822156D01*
X154293489Y-105800000D01*
X154273770Y-105624204D01*
X154215594Y-105457145D01*
X154159783Y-105367828D01*
X168386869Y-105367828D01*
X168394126Y-105382007D01*
X169719688Y-106707569D01*
X169733632Y-106715183D01*
X169735465Y-106715052D01*
X169742080Y-106710801D01*
X171072094Y-105380787D01*
X171078290Y-105369441D01*
X171068408Y-105356952D01*
X170867356Y-105222613D01*
X170860219Y-105218492D01*
X170602151Y-105091228D01*
X170594547Y-105088078D01*
X170322080Y-104995588D01*
X170314117Y-104993454D01*
X170031900Y-104937317D01*
X170023749Y-104936244D01*
X169736619Y-104917425D01*
X169728381Y-104917425D01*
X169441251Y-104936244D01*
X169433100Y-104937317D01*
X169150883Y-104993454D01*
X169142920Y-104995588D01*
X168870453Y-105088078D01*
X168862849Y-105091228D01*
X168604782Y-105218492D01*
X168597645Y-105222613D01*
X168395157Y-105357910D01*
X168386869Y-105367828D01*
X154159783Y-105367828D01*
X154121852Y-105307126D01*
X154037927Y-105222613D01*
X154002166Y-105186601D01*
X154002162Y-105186598D01*
X153997203Y-105181604D01*
X153986359Y-105174722D01*
X153853797Y-105090595D01*
X153853793Y-105090593D01*
X153847843Y-105086817D01*
X153818269Y-105076286D01*
X153687829Y-105029838D01*
X153687824Y-105029837D01*
X153681194Y-105027476D01*
X153674206Y-105026643D01*
X153674203Y-105026642D01*
X153576922Y-105015042D01*
X153505540Y-105006530D01*
X153498537Y-105007266D01*
X153498536Y-105007266D01*
X153450862Y-105012277D01*
X153329610Y-105025021D01*
X153322944Y-105027290D01*
X153322941Y-105027291D01*
X153168816Y-105079760D01*
X153168813Y-105079761D01*
X153162149Y-105082030D01*
X153011479Y-105174722D01*
X152885090Y-105298492D01*
X152789263Y-105447187D01*
X152786854Y-105453807D01*
X152786853Y-105453808D01*
X152731169Y-105606798D01*
X152728760Y-105613417D01*
X152706588Y-105788921D01*
X125508500Y-105788921D01*
X125508500Y-102500000D01*
X143836496Y-102500000D01*
X143837186Y-102506565D01*
X143850374Y-102632038D01*
X143856458Y-102689928D01*
X143915473Y-102871556D01*
X144010960Y-103036944D01*
X144138747Y-103178866D01*
X144293248Y-103291118D01*
X144299276Y-103293802D01*
X144299278Y-103293803D01*
X144461681Y-103366109D01*
X144467712Y-103368794D01*
X144561113Y-103388647D01*
X144648056Y-103407128D01*
X144648061Y-103407128D01*
X144654513Y-103408500D01*
X144845487Y-103408500D01*
X144851939Y-103407128D01*
X144851944Y-103407128D01*
X144938888Y-103388647D01*
X145032288Y-103368794D01*
X145038319Y-103366109D01*
X145200722Y-103293803D01*
X145200724Y-103293802D01*
X145206752Y-103291118D01*
X145361253Y-103178866D01*
X145489040Y-103036944D01*
X145584527Y-102871556D01*
X145643542Y-102689928D01*
X145649627Y-102632038D01*
X145662814Y-102506565D01*
X145663504Y-102500000D01*
X145645934Y-102332831D01*
X145644232Y-102316635D01*
X145644232Y-102316633D01*
X145643542Y-102310072D01*
X145584527Y-102128444D01*
X145503973Y-101988921D01*
X149006588Y-101988921D01*
X149023851Y-102164976D01*
X149079689Y-102332831D01*
X149171327Y-102484143D01*
X149176218Y-102489208D01*
X149176219Y-102489209D01*
X149196340Y-102510045D01*
X149294211Y-102611394D01*
X149442234Y-102708257D01*
X149608038Y-102769919D01*
X149615019Y-102770850D01*
X149615021Y-102770851D01*
X149663221Y-102777282D01*
X149783382Y-102793315D01*
X149790393Y-102792677D01*
X149790397Y-102792677D01*
X149952532Y-102777921D01*
X149959553Y-102777282D01*
X149966255Y-102775104D01*
X149966257Y-102775104D01*
X150121095Y-102724794D01*
X150121098Y-102724793D01*
X150127794Y-102722617D01*
X150133845Y-102719010D01*
X150273691Y-102635646D01*
X150273693Y-102635645D01*
X150279743Y-102632038D01*
X150407848Y-102510045D01*
X150505742Y-102362702D01*
X150534747Y-102286345D01*
X150566060Y-102203916D01*
X150566061Y-102203911D01*
X150568560Y-102197333D01*
X150593180Y-102022156D01*
X150593489Y-102000000D01*
X150573770Y-101824204D01*
X150515594Y-101657145D01*
X150421852Y-101507126D01*
X150359264Y-101444099D01*
X150302166Y-101386601D01*
X150302162Y-101386598D01*
X150297203Y-101381604D01*
X150286359Y-101374722D01*
X150153797Y-101290595D01*
X150153793Y-101290593D01*
X150147843Y-101286817D01*
X150118269Y-101276286D01*
X149987829Y-101229838D01*
X149987824Y-101229837D01*
X149981194Y-101227476D01*
X149974206Y-101226643D01*
X149974203Y-101226642D01*
X149876922Y-101215042D01*
X149805540Y-101206530D01*
X149798537Y-101207266D01*
X149798536Y-101207266D01*
X149750862Y-101212277D01*
X149629610Y-101225021D01*
X149622944Y-101227290D01*
X149622941Y-101227291D01*
X149468816Y-101279760D01*
X149468813Y-101279761D01*
X149462149Y-101282030D01*
X149311479Y-101374722D01*
X149185090Y-101498492D01*
X149089263Y-101647187D01*
X149086854Y-101653807D01*
X149086853Y-101653808D01*
X149067785Y-101706197D01*
X149028760Y-101813417D01*
X149006588Y-101988921D01*
X145503973Y-101988921D01*
X145489040Y-101963056D01*
X145361253Y-101821134D01*
X145206752Y-101708882D01*
X145200724Y-101706198D01*
X145200722Y-101706197D01*
X145038319Y-101633891D01*
X145038318Y-101633891D01*
X145032288Y-101631206D01*
X144938887Y-101611353D01*
X144851944Y-101592872D01*
X144851939Y-101592872D01*
X144845487Y-101591500D01*
X144654513Y-101591500D01*
X144648061Y-101592872D01*
X144648056Y-101592872D01*
X144561113Y-101611353D01*
X144467712Y-101631206D01*
X144461682Y-101633891D01*
X144461681Y-101633891D01*
X144299278Y-101706197D01*
X144299276Y-101706198D01*
X144293248Y-101708882D01*
X144138747Y-101821134D01*
X144010960Y-101963056D01*
X143915473Y-102128444D01*
X143856458Y-102310072D01*
X143855768Y-102316633D01*
X143855768Y-102316635D01*
X143854066Y-102332831D01*
X143836496Y-102500000D01*
X125508500Y-102500000D01*
X125508500Y-96600000D01*
X170406606Y-96600000D01*
X170426129Y-96785747D01*
X170483844Y-96963376D01*
X170577229Y-97125124D01*
X170702203Y-97263921D01*
X170853303Y-97373702D01*
X170859331Y-97376386D01*
X170859333Y-97376387D01*
X171017895Y-97446983D01*
X171023926Y-97449668D01*
X171115270Y-97469084D01*
X171200158Y-97487128D01*
X171200163Y-97487128D01*
X171206615Y-97488500D01*
X171393385Y-97488500D01*
X171399837Y-97487128D01*
X171399842Y-97487128D01*
X171484730Y-97469084D01*
X171576074Y-97449668D01*
X171582105Y-97446983D01*
X171740667Y-97376387D01*
X171740669Y-97376386D01*
X171746697Y-97373702D01*
X171897797Y-97263921D01*
X172022771Y-97125124D01*
X172116156Y-96963376D01*
X172173871Y-96785747D01*
X172193394Y-96600000D01*
X172173871Y-96414253D01*
X172116156Y-96236624D01*
X172022771Y-96074876D01*
X172018352Y-96069968D01*
X171902212Y-95940982D01*
X171902210Y-95940981D01*
X171897797Y-95936079D01*
X171746697Y-95826298D01*
X171740669Y-95823614D01*
X171740667Y-95823613D01*
X171582105Y-95753017D01*
X171582104Y-95753017D01*
X171576074Y-95750332D01*
X171484729Y-95730916D01*
X171399842Y-95712872D01*
X171399837Y-95712872D01*
X171393385Y-95711500D01*
X171206615Y-95711500D01*
X171200163Y-95712872D01*
X171200158Y-95712872D01*
X171115271Y-95730916D01*
X171023926Y-95750332D01*
X171017896Y-95753017D01*
X171017895Y-95753017D01*
X170859333Y-95823613D01*
X170859331Y-95823614D01*
X170853303Y-95826298D01*
X170702203Y-95936079D01*
X170697790Y-95940981D01*
X170697788Y-95940982D01*
X170581648Y-96069968D01*
X170577229Y-96074876D01*
X170483844Y-96236624D01*
X170426129Y-96414253D01*
X170406606Y-96600000D01*
X125508500Y-96600000D01*
X125508500Y-94747064D01*
X129962707Y-94747064D01*
X129986201Y-94902413D01*
X129988985Y-94920817D01*
X129991825Y-94939599D01*
X129994028Y-94945585D01*
X129994029Y-94945591D01*
X130056860Y-95116360D01*
X130056862Y-95116365D01*
X130059063Y-95122346D01*
X130161674Y-95287840D01*
X130295466Y-95429322D01*
X130300696Y-95432984D01*
X130300697Y-95432985D01*
X130377808Y-95486978D01*
X130454975Y-95541011D01*
X130460838Y-95543548D01*
X130627825Y-95615810D01*
X130627829Y-95615811D01*
X130633684Y-95618345D01*
X130639931Y-95619650D01*
X130639934Y-95619651D01*
X130819557Y-95657176D01*
X130819562Y-95657177D01*
X130824293Y-95658165D01*
X130830685Y-95658500D01*
X130973663Y-95658500D01*
X131042951Y-95651462D01*
X131112378Y-95644410D01*
X131112379Y-95644410D01*
X131118727Y-95643765D01*
X131199843Y-95618345D01*
X131298451Y-95587444D01*
X131298456Y-95587442D01*
X131304541Y-95585535D01*
X131391475Y-95537346D01*
X131469271Y-95494223D01*
X131469274Y-95494221D01*
X131474850Y-95491130D01*
X131479691Y-95486981D01*
X131479695Y-95486978D01*
X131617855Y-95368560D01*
X131622698Y-95364409D01*
X131742046Y-95210547D01*
X131745073Y-95204397D01*
X131825200Y-95041556D01*
X131828018Y-95035829D01*
X131843050Y-94978120D01*
X131875492Y-94853575D01*
X131875492Y-94853572D01*
X131877102Y-94847393D01*
X131883207Y-94730901D01*
X131886959Y-94659317D01*
X131886959Y-94659313D01*
X131887293Y-94652936D01*
X131862488Y-94488921D01*
X140006588Y-94488921D01*
X140023851Y-94664976D01*
X140079689Y-94832831D01*
X140171327Y-94984143D01*
X140176218Y-94989208D01*
X140176219Y-94989209D01*
X140196340Y-95010045D01*
X140294211Y-95111394D01*
X140442234Y-95208257D01*
X140608038Y-95269919D01*
X140615019Y-95270850D01*
X140615021Y-95270851D01*
X140663221Y-95277282D01*
X140783382Y-95293315D01*
X140790393Y-95292677D01*
X140790397Y-95292677D01*
X140952532Y-95277921D01*
X140959553Y-95277282D01*
X140966255Y-95275104D01*
X140966257Y-95275104D01*
X141121095Y-95224794D01*
X141121098Y-95224793D01*
X141127794Y-95222617D01*
X141139575Y-95215594D01*
X141273691Y-95135646D01*
X141273693Y-95135645D01*
X141279743Y-95132038D01*
X141313386Y-95100000D01*
X176106606Y-95100000D01*
X176107296Y-95106565D01*
X176119723Y-95224794D01*
X176126129Y-95285747D01*
X176183844Y-95463376D01*
X176187147Y-95469098D01*
X176187148Y-95469099D01*
X176268099Y-95609310D01*
X176277229Y-95625124D01*
X176281647Y-95630031D01*
X176281648Y-95630032D01*
X176355003Y-95711500D01*
X176402203Y-95763921D01*
X176553303Y-95873702D01*
X176559331Y-95876386D01*
X176559333Y-95876387D01*
X176717895Y-95946983D01*
X176723926Y-95949668D01*
X176815271Y-95969084D01*
X176900158Y-95987128D01*
X176900163Y-95987128D01*
X176906615Y-95988500D01*
X177093385Y-95988500D01*
X177099837Y-95987128D01*
X177099842Y-95987128D01*
X177184730Y-95969084D01*
X177276074Y-95949668D01*
X177282105Y-95946983D01*
X177440667Y-95876387D01*
X177440669Y-95876386D01*
X177446697Y-95873702D01*
X177597797Y-95763921D01*
X177644998Y-95711500D01*
X177718352Y-95630032D01*
X177718353Y-95630031D01*
X177722771Y-95625124D01*
X177731901Y-95609310D01*
X177812852Y-95469099D01*
X177812853Y-95469098D01*
X177816156Y-95463376D01*
X177873871Y-95285747D01*
X177880278Y-95224794D01*
X177892704Y-95106565D01*
X177893394Y-95100000D01*
X177873871Y-94914253D01*
X177816156Y-94736624D01*
X177793472Y-94697333D01*
X177726074Y-94580597D01*
X177722771Y-94574876D01*
X177702720Y-94552607D01*
X177602212Y-94440982D01*
X177602210Y-94440981D01*
X177597797Y-94436079D01*
X177446697Y-94326298D01*
X177440669Y-94323614D01*
X177440667Y-94323613D01*
X177282105Y-94253017D01*
X177282104Y-94253017D01*
X177276074Y-94250332D01*
X177184729Y-94230916D01*
X177099842Y-94212872D01*
X177099837Y-94212872D01*
X177093385Y-94211500D01*
X176906615Y-94211500D01*
X176900163Y-94212872D01*
X176900158Y-94212872D01*
X176815271Y-94230916D01*
X176723926Y-94250332D01*
X176717896Y-94253017D01*
X176717895Y-94253017D01*
X176559333Y-94323613D01*
X176559331Y-94323614D01*
X176553303Y-94326298D01*
X176402203Y-94436079D01*
X176397790Y-94440981D01*
X176397788Y-94440982D01*
X176297280Y-94552607D01*
X176277229Y-94574876D01*
X176273926Y-94580597D01*
X176206529Y-94697333D01*
X176183844Y-94736624D01*
X176126129Y-94914253D01*
X176106606Y-95100000D01*
X141313386Y-95100000D01*
X141407848Y-95010045D01*
X141505742Y-94862702D01*
X141549669Y-94747064D01*
X141566060Y-94703916D01*
X141566061Y-94703911D01*
X141568560Y-94697333D01*
X141575688Y-94646618D01*
X141592629Y-94526079D01*
X141592629Y-94526073D01*
X141593180Y-94522156D01*
X141593489Y-94500000D01*
X141573770Y-94324204D01*
X141555672Y-94272232D01*
X141517912Y-94163802D01*
X141515594Y-94157145D01*
X141421852Y-94007126D01*
X141359264Y-93944099D01*
X141302166Y-93886601D01*
X141302162Y-93886598D01*
X141297203Y-93881604D01*
X141286359Y-93874722D01*
X141153797Y-93790595D01*
X141153793Y-93790593D01*
X141147843Y-93786817D01*
X141061959Y-93756235D01*
X140987829Y-93729838D01*
X140987824Y-93729837D01*
X140981194Y-93727476D01*
X140974206Y-93726643D01*
X140974203Y-93726642D01*
X140876922Y-93715042D01*
X140805540Y-93706530D01*
X140798537Y-93707266D01*
X140798536Y-93707266D01*
X140750862Y-93712277D01*
X140629610Y-93725021D01*
X140622944Y-93727290D01*
X140622941Y-93727291D01*
X140468816Y-93779760D01*
X140468813Y-93779761D01*
X140462149Y-93782030D01*
X140311479Y-93874722D01*
X140272369Y-93913022D01*
X140213493Y-93970678D01*
X140185090Y-93998492D01*
X140089263Y-94147187D01*
X140086854Y-94153807D01*
X140086853Y-94153808D01*
X140051721Y-94250332D01*
X140028760Y-94313417D01*
X140006588Y-94488921D01*
X131862488Y-94488921D01*
X131859130Y-94466715D01*
X131859130Y-94466714D01*
X131858175Y-94460401D01*
X131855972Y-94454415D01*
X131855971Y-94454409D01*
X131793140Y-94283640D01*
X131793138Y-94283635D01*
X131790937Y-94277654D01*
X131688326Y-94112160D01*
X131586435Y-94004412D01*
X131558919Y-93975315D01*
X131554534Y-93970678D01*
X131395025Y-93858989D01*
X131347013Y-93838212D01*
X131222175Y-93784190D01*
X131222171Y-93784189D01*
X131216316Y-93781655D01*
X131210069Y-93780350D01*
X131210066Y-93780349D01*
X131030443Y-93742824D01*
X131030438Y-93742823D01*
X131025707Y-93741835D01*
X131019315Y-93741500D01*
X130876337Y-93741500D01*
X130807049Y-93748538D01*
X130737622Y-93755590D01*
X130737621Y-93755590D01*
X130731273Y-93756235D01*
X130674939Y-93773889D01*
X130551549Y-93812556D01*
X130551544Y-93812558D01*
X130545459Y-93814465D01*
X130469713Y-93856452D01*
X130380729Y-93905777D01*
X130380726Y-93905779D01*
X130375150Y-93908870D01*
X130370309Y-93913019D01*
X130370305Y-93913022D01*
X130253543Y-94013100D01*
X130227302Y-94035591D01*
X130107954Y-94189453D01*
X130105138Y-94195176D01*
X130105136Y-94195179D01*
X130041939Y-94323613D01*
X130021982Y-94364171D01*
X130020373Y-94370349D01*
X130020372Y-94370351D01*
X129981862Y-94518195D01*
X129972898Y-94552607D01*
X129972564Y-94558986D01*
X129965679Y-94690361D01*
X129962707Y-94747064D01*
X125508500Y-94747064D01*
X125508500Y-92500000D01*
X172206606Y-92500000D01*
X172226129Y-92685747D01*
X172283844Y-92863376D01*
X172377229Y-93025124D01*
X172502203Y-93163921D01*
X172653303Y-93273702D01*
X172659331Y-93276386D01*
X172659333Y-93276387D01*
X172817895Y-93346983D01*
X172823926Y-93349668D01*
X172915270Y-93369084D01*
X173000158Y-93387128D01*
X173000163Y-93387128D01*
X173006615Y-93388500D01*
X173193385Y-93388500D01*
X173199837Y-93387128D01*
X173199842Y-93387128D01*
X173284730Y-93369084D01*
X173376074Y-93349668D01*
X173382105Y-93346983D01*
X173540667Y-93276387D01*
X173540669Y-93276386D01*
X173546697Y-93273702D01*
X173697797Y-93163921D01*
X173822771Y-93025124D01*
X173916156Y-92863376D01*
X173973871Y-92685747D01*
X173993394Y-92500000D01*
X173973871Y-92314253D01*
X173916156Y-92136624D01*
X173822771Y-91974876D01*
X173787448Y-91935646D01*
X173702212Y-91840982D01*
X173702210Y-91840981D01*
X173697797Y-91836079D01*
X173546697Y-91726298D01*
X173540669Y-91723614D01*
X173540667Y-91723613D01*
X173382105Y-91653017D01*
X173382104Y-91653017D01*
X173376074Y-91650332D01*
X173262284Y-91626145D01*
X173199842Y-91612872D01*
X173199837Y-91612872D01*
X173193385Y-91611500D01*
X173006615Y-91611500D01*
X173000163Y-91612872D01*
X173000158Y-91612872D01*
X172937716Y-91626145D01*
X172823926Y-91650332D01*
X172817896Y-91653017D01*
X172817895Y-91653017D01*
X172659333Y-91723613D01*
X172659331Y-91723614D01*
X172653303Y-91726298D01*
X172502203Y-91836079D01*
X172497790Y-91840981D01*
X172497788Y-91840982D01*
X172412552Y-91935646D01*
X172377229Y-91974876D01*
X172283844Y-92136624D01*
X172226129Y-92314253D01*
X172206606Y-92500000D01*
X125508500Y-92500000D01*
X125508500Y-91288921D01*
X146006588Y-91288921D01*
X146023851Y-91464976D01*
X146079689Y-91632831D01*
X146083338Y-91638856D01*
X146134669Y-91723613D01*
X146171327Y-91784143D01*
X146176218Y-91789208D01*
X146176219Y-91789209D01*
X146196340Y-91810045D01*
X146294211Y-91911394D01*
X146442234Y-92008257D01*
X146608038Y-92069919D01*
X146615019Y-92070850D01*
X146615021Y-92070851D01*
X146663221Y-92077282D01*
X146783382Y-92093315D01*
X146790393Y-92092677D01*
X146790397Y-92092677D01*
X146952532Y-92077921D01*
X146959553Y-92077282D01*
X146966255Y-92075104D01*
X146966257Y-92075104D01*
X147121095Y-92024794D01*
X147121098Y-92024793D01*
X147127794Y-92022617D01*
X147133845Y-92019010D01*
X147273691Y-91935646D01*
X147273693Y-91935645D01*
X147279743Y-91932038D01*
X147407848Y-91810045D01*
X147505742Y-91662702D01*
X147534747Y-91586345D01*
X147566060Y-91503916D01*
X147566061Y-91503911D01*
X147568560Y-91497333D01*
X147593180Y-91322156D01*
X147593489Y-91300000D01*
X147592246Y-91288921D01*
X165106588Y-91288921D01*
X165123851Y-91464976D01*
X165179689Y-91632831D01*
X165183338Y-91638856D01*
X165234669Y-91723613D01*
X165271327Y-91784143D01*
X165276218Y-91789208D01*
X165276219Y-91789209D01*
X165296340Y-91810045D01*
X165394211Y-91911394D01*
X165542234Y-92008257D01*
X165708038Y-92069919D01*
X165715019Y-92070850D01*
X165715021Y-92070851D01*
X165763221Y-92077282D01*
X165883382Y-92093315D01*
X165890393Y-92092677D01*
X165890397Y-92092677D01*
X166052532Y-92077921D01*
X166059553Y-92077282D01*
X166066255Y-92075104D01*
X166066257Y-92075104D01*
X166221095Y-92024794D01*
X166221098Y-92024793D01*
X166227794Y-92022617D01*
X166233845Y-92019010D01*
X166373691Y-91935646D01*
X166373693Y-91935645D01*
X166379743Y-91932038D01*
X166507848Y-91810045D01*
X166605742Y-91662702D01*
X166634747Y-91586345D01*
X166666060Y-91503916D01*
X166666061Y-91503911D01*
X166668560Y-91497333D01*
X166693180Y-91322156D01*
X166693489Y-91300000D01*
X166673770Y-91124204D01*
X166662253Y-91091130D01*
X166619569Y-90968560D01*
X166615594Y-90957145D01*
X166521852Y-90807126D01*
X166437662Y-90722346D01*
X166402166Y-90686601D01*
X166402162Y-90686598D01*
X166397203Y-90681604D01*
X166391255Y-90677829D01*
X166253797Y-90590595D01*
X166253793Y-90590593D01*
X166247843Y-90586817D01*
X166183544Y-90563921D01*
X166087829Y-90529838D01*
X166087824Y-90529837D01*
X166081194Y-90527476D01*
X166074206Y-90526643D01*
X166074203Y-90526642D01*
X165976922Y-90515042D01*
X165905540Y-90506530D01*
X165898537Y-90507266D01*
X165898536Y-90507266D01*
X165850862Y-90512277D01*
X165729610Y-90525021D01*
X165722944Y-90527290D01*
X165722941Y-90527291D01*
X165568816Y-90579760D01*
X165568813Y-90579761D01*
X165562149Y-90582030D01*
X165411479Y-90674722D01*
X165399349Y-90686601D01*
X165310405Y-90773702D01*
X165285090Y-90798492D01*
X165189263Y-90947187D01*
X165186854Y-90953807D01*
X165186853Y-90953808D01*
X165182995Y-90964409D01*
X165128760Y-91113417D01*
X165106588Y-91288921D01*
X147592246Y-91288921D01*
X147573770Y-91124204D01*
X147562253Y-91091130D01*
X147519569Y-90968560D01*
X147515594Y-90957145D01*
X147421852Y-90807126D01*
X147337662Y-90722346D01*
X147302166Y-90686601D01*
X147302162Y-90686598D01*
X147297203Y-90681604D01*
X147291255Y-90677829D01*
X147153797Y-90590595D01*
X147153793Y-90590593D01*
X147147843Y-90586817D01*
X147083544Y-90563921D01*
X146987829Y-90529838D01*
X146987824Y-90529837D01*
X146981194Y-90527476D01*
X146974206Y-90526643D01*
X146974203Y-90526642D01*
X146876922Y-90515042D01*
X146805540Y-90506530D01*
X146798537Y-90507266D01*
X146798536Y-90507266D01*
X146750862Y-90512277D01*
X146629610Y-90525021D01*
X146622944Y-90527290D01*
X146622941Y-90527291D01*
X146468816Y-90579760D01*
X146468813Y-90579761D01*
X146462149Y-90582030D01*
X146311479Y-90674722D01*
X146299349Y-90686601D01*
X146210405Y-90773702D01*
X146185090Y-90798492D01*
X146089263Y-90947187D01*
X146086854Y-90953807D01*
X146086853Y-90953808D01*
X146082995Y-90964409D01*
X146028760Y-91113417D01*
X146006588Y-91288921D01*
X125508500Y-91288921D01*
X125508500Y-90347064D01*
X129962707Y-90347064D01*
X129975255Y-90430032D01*
X129989992Y-90527476D01*
X129991825Y-90539599D01*
X129994028Y-90545585D01*
X129994029Y-90545591D01*
X130056860Y-90716360D01*
X130056862Y-90716365D01*
X130059063Y-90722346D01*
X130161674Y-90887840D01*
X130295466Y-91029322D01*
X130454975Y-91141011D01*
X130460838Y-91143548D01*
X130627825Y-91215810D01*
X130627829Y-91215811D01*
X130633684Y-91218345D01*
X130639931Y-91219650D01*
X130639934Y-91219651D01*
X130819557Y-91257176D01*
X130819562Y-91257177D01*
X130824293Y-91258165D01*
X130830685Y-91258500D01*
X130973663Y-91258500D01*
X131042951Y-91251462D01*
X131112378Y-91244410D01*
X131112379Y-91244410D01*
X131118727Y-91243765D01*
X131199843Y-91218345D01*
X131298451Y-91187444D01*
X131298456Y-91187442D01*
X131304541Y-91185535D01*
X131446585Y-91106798D01*
X131469271Y-91094223D01*
X131469274Y-91094221D01*
X131474850Y-91091130D01*
X131479691Y-91086981D01*
X131479695Y-91086978D01*
X131617855Y-90968560D01*
X131622698Y-90964409D01*
X131682644Y-90887128D01*
X131710636Y-90851040D01*
X131742046Y-90810547D01*
X131750404Y-90793563D01*
X131825200Y-90641556D01*
X131828018Y-90635829D01*
X131842623Y-90579760D01*
X131875492Y-90453575D01*
X131875492Y-90453572D01*
X131877102Y-90447393D01*
X131881505Y-90363376D01*
X131886959Y-90259317D01*
X131886959Y-90259313D01*
X131887293Y-90252936D01*
X131862008Y-90085747D01*
X131859130Y-90066715D01*
X131859130Y-90066714D01*
X131858175Y-90060401D01*
X131855972Y-90054415D01*
X131855971Y-90054409D01*
X131835952Y-90000000D01*
X134106606Y-90000000D01*
X134126129Y-90185747D01*
X134183844Y-90363376D01*
X134277229Y-90525124D01*
X134281647Y-90530031D01*
X134281648Y-90530032D01*
X134376909Y-90635829D01*
X134402203Y-90663921D01*
X134407542Y-90667800D01*
X134522112Y-90751040D01*
X134553303Y-90773702D01*
X134559331Y-90776386D01*
X134559333Y-90776387D01*
X134647394Y-90815594D01*
X134723926Y-90849668D01*
X134815271Y-90869084D01*
X134900158Y-90887128D01*
X134900163Y-90887128D01*
X134906615Y-90888500D01*
X135093385Y-90888500D01*
X135099837Y-90887128D01*
X135099842Y-90887128D01*
X135184729Y-90869084D01*
X135276074Y-90849668D01*
X135352606Y-90815594D01*
X135440667Y-90776387D01*
X135440669Y-90776386D01*
X135446697Y-90773702D01*
X135477889Y-90751040D01*
X135592458Y-90667800D01*
X135597797Y-90663921D01*
X135623092Y-90635829D01*
X135718352Y-90530032D01*
X135718353Y-90530031D01*
X135722771Y-90525124D01*
X135816156Y-90363376D01*
X135873871Y-90185747D01*
X135893394Y-90000000D01*
X135889026Y-89958444D01*
X135882883Y-89900000D01*
X176106606Y-89900000D01*
X176107296Y-89906565D01*
X176117807Y-90006565D01*
X176126129Y-90085747D01*
X176183844Y-90263376D01*
X176277229Y-90425124D01*
X176281647Y-90430031D01*
X176281648Y-90430032D01*
X176385699Y-90545591D01*
X176402203Y-90563921D01*
X176407542Y-90567800D01*
X176545180Y-90667800D01*
X176553303Y-90673702D01*
X176559331Y-90676386D01*
X176559333Y-90676387D01*
X176717895Y-90746983D01*
X176723926Y-90749668D01*
X176815271Y-90769084D01*
X176900158Y-90787128D01*
X176900163Y-90787128D01*
X176906615Y-90788500D01*
X177093385Y-90788500D01*
X177099837Y-90787128D01*
X177099842Y-90787128D01*
X177184729Y-90769084D01*
X177276074Y-90749668D01*
X177282105Y-90746983D01*
X177440667Y-90676387D01*
X177440669Y-90676386D01*
X177446697Y-90673702D01*
X177454821Y-90667800D01*
X177592458Y-90567800D01*
X177597797Y-90563921D01*
X177614302Y-90545591D01*
X177718352Y-90430032D01*
X177718353Y-90430031D01*
X177722771Y-90425124D01*
X177816156Y-90263376D01*
X177873871Y-90085747D01*
X177882194Y-90006565D01*
X177892704Y-89906565D01*
X177893394Y-89900000D01*
X177881775Y-89789453D01*
X177874561Y-89720817D01*
X177874561Y-89720816D01*
X177873871Y-89714253D01*
X177816156Y-89536624D01*
X177802530Y-89513022D01*
X177726074Y-89380597D01*
X177722771Y-89374876D01*
X177718352Y-89369968D01*
X177602212Y-89240982D01*
X177602210Y-89240981D01*
X177597797Y-89236079D01*
X177576914Y-89220907D01*
X177452039Y-89130179D01*
X177452038Y-89130178D01*
X177446697Y-89126298D01*
X177440669Y-89123614D01*
X177440667Y-89123613D01*
X177282105Y-89053017D01*
X177282104Y-89053017D01*
X177276074Y-89050332D01*
X177184730Y-89030916D01*
X177099842Y-89012872D01*
X177099837Y-89012872D01*
X177093385Y-89011500D01*
X176906615Y-89011500D01*
X176900163Y-89012872D01*
X176900158Y-89012872D01*
X176815270Y-89030916D01*
X176723926Y-89050332D01*
X176717896Y-89053017D01*
X176717895Y-89053017D01*
X176559333Y-89123613D01*
X176559331Y-89123614D01*
X176553303Y-89126298D01*
X176547962Y-89130178D01*
X176547961Y-89130179D01*
X176423086Y-89220907D01*
X176402203Y-89236079D01*
X176397790Y-89240981D01*
X176397788Y-89240982D01*
X176281648Y-89369968D01*
X176277229Y-89374876D01*
X176273926Y-89380597D01*
X176197471Y-89513022D01*
X176183844Y-89536624D01*
X176126129Y-89714253D01*
X176125439Y-89720816D01*
X176125439Y-89720817D01*
X176118225Y-89789453D01*
X176106606Y-89900000D01*
X135882883Y-89900000D01*
X135874561Y-89820817D01*
X135874561Y-89820816D01*
X135873871Y-89814253D01*
X135867674Y-89795179D01*
X135818198Y-89642909D01*
X135816156Y-89636624D01*
X135722771Y-89474876D01*
X135706182Y-89456452D01*
X135602212Y-89340982D01*
X135602210Y-89340981D01*
X135597797Y-89336079D01*
X135466908Y-89240982D01*
X135452039Y-89230179D01*
X135452038Y-89230178D01*
X135446697Y-89226298D01*
X135440669Y-89223614D01*
X135440667Y-89223613D01*
X135282105Y-89153017D01*
X135282104Y-89153017D01*
X135276074Y-89150332D01*
X135163004Y-89126298D01*
X135099842Y-89112872D01*
X135099837Y-89112872D01*
X135093385Y-89111500D01*
X134906615Y-89111500D01*
X134900163Y-89112872D01*
X134900158Y-89112872D01*
X134836996Y-89126298D01*
X134723926Y-89150332D01*
X134717896Y-89153017D01*
X134717895Y-89153017D01*
X134559333Y-89223613D01*
X134559331Y-89223614D01*
X134553303Y-89226298D01*
X134547962Y-89230178D01*
X134547961Y-89230179D01*
X134533092Y-89240982D01*
X134402203Y-89336079D01*
X134397790Y-89340981D01*
X134397788Y-89340982D01*
X134293818Y-89456452D01*
X134277229Y-89474876D01*
X134183844Y-89636624D01*
X134181802Y-89642909D01*
X134132327Y-89795179D01*
X134126129Y-89814253D01*
X134125439Y-89820816D01*
X134125439Y-89820817D01*
X134110974Y-89958444D01*
X134106606Y-90000000D01*
X131835952Y-90000000D01*
X131793140Y-89883640D01*
X131793138Y-89883635D01*
X131790937Y-89877654D01*
X131688326Y-89712160D01*
X131554534Y-89570678D01*
X131497727Y-89530901D01*
X131453638Y-89500030D01*
X131395025Y-89458989D01*
X131347013Y-89438212D01*
X131222175Y-89384190D01*
X131222171Y-89384189D01*
X131216316Y-89381655D01*
X131210069Y-89380350D01*
X131210066Y-89380349D01*
X131030443Y-89342824D01*
X131030438Y-89342823D01*
X131025707Y-89341835D01*
X131019315Y-89341500D01*
X130876337Y-89341500D01*
X130807049Y-89348538D01*
X130737622Y-89355590D01*
X130737621Y-89355590D01*
X130731273Y-89356235D01*
X130687451Y-89369968D01*
X130551549Y-89412556D01*
X130551544Y-89412558D01*
X130545459Y-89414465D01*
X130469713Y-89456452D01*
X130380729Y-89505777D01*
X130380726Y-89505779D01*
X130375150Y-89508870D01*
X130370309Y-89513019D01*
X130370305Y-89513022D01*
X130307311Y-89567015D01*
X130227302Y-89635591D01*
X130223391Y-89640633D01*
X130223390Y-89640634D01*
X130171503Y-89707526D01*
X130107954Y-89789453D01*
X130105138Y-89795176D01*
X130105136Y-89795179D01*
X130061608Y-89883640D01*
X130021982Y-89964171D01*
X130020373Y-89970349D01*
X130020372Y-89970351D01*
X129990314Y-90085747D01*
X129972898Y-90152607D01*
X129962707Y-90347064D01*
X125508500Y-90347064D01*
X125508500Y-87488921D01*
X143306588Y-87488921D01*
X143323851Y-87664976D01*
X143379689Y-87832831D01*
X143471327Y-87984143D01*
X143476218Y-87989208D01*
X143476219Y-87989209D01*
X143495975Y-88009667D01*
X143594211Y-88111394D01*
X143742234Y-88208257D01*
X143908038Y-88269919D01*
X143915019Y-88270850D01*
X143915021Y-88270851D01*
X143963221Y-88277282D01*
X144083382Y-88293315D01*
X144090393Y-88292677D01*
X144090397Y-88292677D01*
X144252532Y-88277921D01*
X144259553Y-88277282D01*
X144266255Y-88275104D01*
X144266257Y-88275104D01*
X144421095Y-88224794D01*
X144421098Y-88224793D01*
X144427794Y-88222617D01*
X144444365Y-88212739D01*
X144573691Y-88135646D01*
X144573693Y-88135645D01*
X144579743Y-88132038D01*
X144707848Y-88010045D01*
X144805742Y-87862702D01*
X144838190Y-87777282D01*
X144866060Y-87703916D01*
X144866061Y-87703911D01*
X144868560Y-87697333D01*
X144873108Y-87664976D01*
X144892629Y-87526079D01*
X144892629Y-87526073D01*
X144893180Y-87522156D01*
X144893489Y-87500000D01*
X144873770Y-87324204D01*
X144815594Y-87157145D01*
X144721852Y-87007126D01*
X144703774Y-86988921D01*
X153706588Y-86988921D01*
X153723851Y-87164976D01*
X153779689Y-87332831D01*
X153871327Y-87484143D01*
X153876218Y-87489208D01*
X153876219Y-87489209D01*
X153896340Y-87510045D01*
X153994211Y-87611394D01*
X154142234Y-87708257D01*
X154308038Y-87769919D01*
X154315019Y-87770850D01*
X154315021Y-87770851D01*
X154363221Y-87777282D01*
X154483382Y-87793315D01*
X154490393Y-87792677D01*
X154490397Y-87792677D01*
X154652532Y-87777921D01*
X154659553Y-87777282D01*
X154666255Y-87775104D01*
X154666257Y-87775104D01*
X154821095Y-87724794D01*
X154821098Y-87724793D01*
X154827794Y-87722617D01*
X154833845Y-87719010D01*
X154973691Y-87635646D01*
X154973693Y-87635645D01*
X154979743Y-87632038D01*
X155107848Y-87510045D01*
X155194936Y-87378966D01*
X171084258Y-87378966D01*
X171098565Y-87442446D01*
X171101645Y-87452275D01*
X171181770Y-87649603D01*
X171186413Y-87658794D01*
X171297694Y-87840388D01*
X171303777Y-87848699D01*
X171443213Y-88009667D01*
X171450580Y-88016883D01*
X171614434Y-88152916D01*
X171622881Y-88158831D01*
X171806756Y-88266279D01*
X171816042Y-88270729D01*
X172015001Y-88346703D01*
X172024899Y-88349579D01*
X172057250Y-88356161D01*
X172071299Y-88354965D01*
X172075000Y-88344620D01*
X172075000Y-88342255D01*
X172725000Y-88342255D01*
X172728973Y-88355786D01*
X172736617Y-88356885D01*
X172892255Y-88310191D01*
X172901842Y-88306433D01*
X173093095Y-88212739D01*
X173101945Y-88207464D01*
X173275328Y-88083792D01*
X173283200Y-88077139D01*
X173434052Y-87926812D01*
X173440730Y-87918965D01*
X173565003Y-87746020D01*
X173570313Y-87737183D01*
X173664670Y-87546268D01*
X173668468Y-87536675D01*
X173715361Y-87382331D01*
X173715493Y-87368233D01*
X173708587Y-87365000D01*
X172743115Y-87365000D01*
X172727876Y-87369475D01*
X172726671Y-87370865D01*
X172725000Y-87378548D01*
X172725000Y-88342255D01*
X172075000Y-88342255D01*
X172075000Y-87383115D01*
X172070525Y-87367876D01*
X172069135Y-87366671D01*
X172061452Y-87365000D01*
X171099226Y-87365000D01*
X171085695Y-87368973D01*
X171084258Y-87378966D01*
X155194936Y-87378966D01*
X155205742Y-87362702D01*
X155234747Y-87286345D01*
X155266060Y-87203916D01*
X155266061Y-87203911D01*
X155268560Y-87197333D01*
X155293180Y-87022156D01*
X155293390Y-87007126D01*
X155293434Y-87003962D01*
X155293434Y-87003958D01*
X155293489Y-87000000D01*
X155273770Y-86824204D01*
X155260751Y-86786817D01*
X155235741Y-86715000D01*
X155215594Y-86657145D01*
X155121852Y-86507126D01*
X155059264Y-86444099D01*
X155002166Y-86386601D01*
X155002162Y-86386598D01*
X154997203Y-86381604D01*
X154981476Y-86371623D01*
X154853797Y-86290595D01*
X154853793Y-86290593D01*
X154847843Y-86286817D01*
X154818269Y-86276286D01*
X154687829Y-86229838D01*
X154687824Y-86229837D01*
X154681194Y-86227476D01*
X154674206Y-86226643D01*
X154674203Y-86226642D01*
X154559177Y-86212926D01*
X154505540Y-86206530D01*
X154498537Y-86207266D01*
X154498536Y-86207266D01*
X154450862Y-86212277D01*
X154329610Y-86225021D01*
X154322944Y-86227290D01*
X154322941Y-86227291D01*
X154168816Y-86279760D01*
X154168813Y-86279761D01*
X154162149Y-86282030D01*
X154011479Y-86374722D01*
X153885090Y-86498492D01*
X153789263Y-86647187D01*
X153786854Y-86653807D01*
X153786853Y-86653808D01*
X153731169Y-86806798D01*
X153728760Y-86813417D01*
X153706588Y-86988921D01*
X144703774Y-86988921D01*
X144659264Y-86944099D01*
X144602166Y-86886601D01*
X144602162Y-86886598D01*
X144597203Y-86881604D01*
X144586359Y-86874722D01*
X144453797Y-86790595D01*
X144453793Y-86790593D01*
X144447843Y-86786817D01*
X144418269Y-86776286D01*
X144287829Y-86729838D01*
X144287824Y-86729837D01*
X144281194Y-86727476D01*
X144274206Y-86726643D01*
X144274203Y-86726642D01*
X144176570Y-86715000D01*
X144105540Y-86706530D01*
X144098537Y-86707266D01*
X144098536Y-86707266D01*
X144050862Y-86712277D01*
X143929610Y-86725021D01*
X143922944Y-86727290D01*
X143922941Y-86727291D01*
X143768816Y-86779760D01*
X143768813Y-86779761D01*
X143762149Y-86782030D01*
X143611479Y-86874722D01*
X143599349Y-86886601D01*
X143494864Y-86988921D01*
X143485090Y-86998492D01*
X143389263Y-87147187D01*
X143386854Y-87153807D01*
X143386853Y-87153808D01*
X143382788Y-87164976D01*
X143328760Y-87313417D01*
X143306588Y-87488921D01*
X125508500Y-87488921D01*
X125508500Y-84466695D01*
X171037251Y-84466695D01*
X171037548Y-84471848D01*
X171037548Y-84471851D01*
X171043011Y-84566590D01*
X171050110Y-84689715D01*
X171051247Y-84694761D01*
X171051248Y-84694767D01*
X171071119Y-84782939D01*
X171099222Y-84907639D01*
X171183266Y-85114616D01*
X171299987Y-85305088D01*
X171446250Y-85473938D01*
X171618126Y-85616632D01*
X171691955Y-85659774D01*
X171740679Y-85711412D01*
X171753750Y-85781195D01*
X171727019Y-85846967D01*
X171686562Y-85880327D01*
X171678457Y-85884546D01*
X171669738Y-85890036D01*
X171499433Y-86017905D01*
X171491726Y-86024748D01*
X171344590Y-86178717D01*
X171338104Y-86186727D01*
X171218098Y-86362649D01*
X171213000Y-86371623D01*
X171123338Y-86564783D01*
X171119775Y-86574470D01*
X171085644Y-86697540D01*
X171085857Y-86711644D01*
X171093508Y-86715000D01*
X173700510Y-86715000D01*
X173714041Y-86711027D01*
X173715346Y-86701947D01*
X173691214Y-86605875D01*
X173687894Y-86596124D01*
X173602972Y-86400814D01*
X173598105Y-86391739D01*
X173482426Y-86212926D01*
X173476136Y-86204757D01*
X173332806Y-86047240D01*
X173325273Y-86040215D01*
X173158139Y-85908222D01*
X173149556Y-85902520D01*
X173112602Y-85882120D01*
X173062631Y-85831687D01*
X173047859Y-85762245D01*
X173072975Y-85695839D01*
X173100327Y-85669232D01*
X173123797Y-85652491D01*
X173279860Y-85541173D01*
X173438096Y-85383489D01*
X173497594Y-85300689D01*
X173565435Y-85206277D01*
X173568453Y-85202077D01*
X173667430Y-85001811D01*
X173732370Y-84788069D01*
X173761529Y-84566590D01*
X173763156Y-84500000D01*
X173744852Y-84277361D01*
X173690431Y-84060702D01*
X173601354Y-83855840D01*
X173480014Y-83668277D01*
X173476532Y-83664450D01*
X173332798Y-83506488D01*
X173301746Y-83442642D01*
X173310141Y-83372143D01*
X173355317Y-83317375D01*
X173381761Y-83303706D01*
X173488297Y-83263767D01*
X173496705Y-83260615D01*
X173613261Y-83173261D01*
X173700615Y-83056705D01*
X173751745Y-82920316D01*
X173758500Y-82858134D01*
X173758500Y-81061866D01*
X173751745Y-80999684D01*
X173700615Y-80863295D01*
X173613261Y-80746739D01*
X173496705Y-80659385D01*
X173360316Y-80608255D01*
X173298134Y-80601500D01*
X171501866Y-80601500D01*
X171439684Y-80608255D01*
X171303295Y-80659385D01*
X171186739Y-80746739D01*
X171099385Y-80863295D01*
X171048255Y-80999684D01*
X171041500Y-81061866D01*
X171041500Y-82858134D01*
X171048255Y-82920316D01*
X171099385Y-83056705D01*
X171186739Y-83173261D01*
X171303295Y-83260615D01*
X171311704Y-83263767D01*
X171311705Y-83263768D01*
X171420451Y-83304535D01*
X171477216Y-83347176D01*
X171501916Y-83413738D01*
X171486709Y-83483087D01*
X171467316Y-83509568D01*
X171340629Y-83642138D01*
X171214743Y-83826680D01*
X171120688Y-84029305D01*
X171060989Y-84244570D01*
X171037251Y-84466695D01*
X125508500Y-84466695D01*
X125508500Y-79700000D01*
X148786693Y-79700000D01*
X148805885Y-79919371D01*
X148862880Y-80132076D01*
X148865205Y-80137061D01*
X148953618Y-80326666D01*
X148953621Y-80326671D01*
X148955944Y-80331653D01*
X149082251Y-80512038D01*
X149237962Y-80667749D01*
X149418346Y-80794056D01*
X149617924Y-80887120D01*
X149830629Y-80944115D01*
X150050000Y-80963307D01*
X150269371Y-80944115D01*
X150482076Y-80887120D01*
X150681654Y-80794056D01*
X150862038Y-80667749D01*
X151017749Y-80512038D01*
X151144056Y-80331653D01*
X151146379Y-80326671D01*
X151146382Y-80326666D01*
X151234795Y-80137061D01*
X151237120Y-80132076D01*
X151294115Y-79919371D01*
X151313307Y-79700000D01*
X153666693Y-79700000D01*
X153685885Y-79919371D01*
X153742880Y-80132076D01*
X153745205Y-80137061D01*
X153833618Y-80326666D01*
X153833621Y-80326671D01*
X153835944Y-80331653D01*
X153962251Y-80512038D01*
X154117962Y-80667749D01*
X154298346Y-80794056D01*
X154497924Y-80887120D01*
X154710629Y-80944115D01*
X154930000Y-80963307D01*
X155149371Y-80944115D01*
X155362076Y-80887120D01*
X155561654Y-80794056D01*
X155742038Y-80667749D01*
X155897749Y-80512038D01*
X156024056Y-80331653D01*
X156026379Y-80326671D01*
X156026382Y-80326666D01*
X156114795Y-80137061D01*
X156117120Y-80132076D01*
X156174115Y-79919371D01*
X156193307Y-79700000D01*
X156187232Y-79630559D01*
X168386710Y-79630559D01*
X168396592Y-79643048D01*
X168597644Y-79777387D01*
X168604781Y-79781508D01*
X168862849Y-79908772D01*
X168870453Y-79911922D01*
X169142920Y-80004412D01*
X169150883Y-80006546D01*
X169433100Y-80062683D01*
X169441251Y-80063756D01*
X169728381Y-80082575D01*
X169736619Y-80082575D01*
X170023749Y-80063756D01*
X170031900Y-80062683D01*
X170314117Y-80006546D01*
X170322080Y-80004412D01*
X170594547Y-79911922D01*
X170602151Y-79908772D01*
X170860219Y-79781508D01*
X170867356Y-79777387D01*
X171069843Y-79642090D01*
X171078131Y-79632172D01*
X171070874Y-79617993D01*
X169745312Y-78292431D01*
X169731368Y-78284817D01*
X169729535Y-78284948D01*
X169722920Y-78289199D01*
X168392906Y-79619213D01*
X168386710Y-79630559D01*
X156187232Y-79630559D01*
X156174115Y-79480629D01*
X156117120Y-79267924D01*
X156064886Y-79155908D01*
X156026382Y-79073334D01*
X156026379Y-79073329D01*
X156024056Y-79068347D01*
X155897749Y-78887962D01*
X155742038Y-78732251D01*
X155561654Y-78605944D01*
X155362076Y-78512880D01*
X155149371Y-78455885D01*
X154930000Y-78436693D01*
X154710629Y-78455885D01*
X154497924Y-78512880D01*
X154404562Y-78556415D01*
X154303334Y-78603618D01*
X154303329Y-78603621D01*
X154298347Y-78605944D01*
X154293840Y-78609100D01*
X154293838Y-78609101D01*
X154122473Y-78729092D01*
X154122470Y-78729094D01*
X154117962Y-78732251D01*
X153962251Y-78887962D01*
X153835944Y-79068347D01*
X153833621Y-79073329D01*
X153833618Y-79073334D01*
X153795114Y-79155908D01*
X153742880Y-79267924D01*
X153685885Y-79480629D01*
X153666693Y-79700000D01*
X151313307Y-79700000D01*
X151294115Y-79480629D01*
X151237120Y-79267924D01*
X151184886Y-79155908D01*
X151146382Y-79073334D01*
X151146379Y-79073329D01*
X151144056Y-79068347D01*
X151017749Y-78887962D01*
X150862038Y-78732251D01*
X150681654Y-78605944D01*
X150482076Y-78512880D01*
X150269371Y-78455885D01*
X150050000Y-78436693D01*
X149830629Y-78455885D01*
X149617924Y-78512880D01*
X149524562Y-78556415D01*
X149423334Y-78603618D01*
X149423329Y-78603621D01*
X149418347Y-78605944D01*
X149413840Y-78609100D01*
X149413838Y-78609101D01*
X149242473Y-78729092D01*
X149242470Y-78729094D01*
X149237962Y-78732251D01*
X149082251Y-78887962D01*
X148955944Y-79068347D01*
X148953621Y-79073329D01*
X148953618Y-79073334D01*
X148915114Y-79155908D01*
X148862880Y-79267924D01*
X148805885Y-79480629D01*
X148786693Y-79700000D01*
X125508500Y-79700000D01*
X125508500Y-77824119D01*
X167469925Y-77824119D01*
X167488744Y-78111249D01*
X167489817Y-78119400D01*
X167545954Y-78401617D01*
X167548088Y-78409580D01*
X167640578Y-78682047D01*
X167643728Y-78689651D01*
X167770992Y-78947718D01*
X167775113Y-78954855D01*
X167910410Y-79157343D01*
X167920328Y-79165631D01*
X167934507Y-79158374D01*
X169260069Y-77832812D01*
X169266447Y-77821132D01*
X170197317Y-77821132D01*
X170197448Y-77822965D01*
X170201699Y-77829580D01*
X171531713Y-79159594D01*
X171543059Y-79165790D01*
X171555548Y-79155908D01*
X171689887Y-78954855D01*
X171694008Y-78947718D01*
X171821272Y-78689651D01*
X171824422Y-78682047D01*
X171916912Y-78409580D01*
X171919046Y-78401617D01*
X171975183Y-78119400D01*
X171976256Y-78111249D01*
X171995075Y-77824119D01*
X171995075Y-77815881D01*
X171976256Y-77528751D01*
X171975183Y-77520600D01*
X171919046Y-77238383D01*
X171916912Y-77230420D01*
X171824422Y-76957953D01*
X171821272Y-76950349D01*
X171694008Y-76692282D01*
X171689887Y-76685145D01*
X171554590Y-76482657D01*
X171544672Y-76474369D01*
X171530493Y-76481626D01*
X170204931Y-77807188D01*
X170197317Y-77821132D01*
X169266447Y-77821132D01*
X169267683Y-77818868D01*
X169267552Y-77817035D01*
X169263301Y-77810420D01*
X167933287Y-76480406D01*
X167921941Y-76474210D01*
X167909452Y-76484092D01*
X167775113Y-76685145D01*
X167770992Y-76692282D01*
X167643728Y-76950349D01*
X167640578Y-76957953D01*
X167548088Y-77230420D01*
X167545954Y-77238383D01*
X167489817Y-77520600D01*
X167488744Y-77528751D01*
X167469925Y-77815881D01*
X167469925Y-77824119D01*
X125508500Y-77824119D01*
X125508500Y-73778966D01*
X155884258Y-73778966D01*
X155898565Y-73842446D01*
X155901645Y-73852275D01*
X155981770Y-74049603D01*
X155986413Y-74058794D01*
X156097694Y-74240388D01*
X156103777Y-74248699D01*
X156243213Y-74409667D01*
X156250580Y-74416883D01*
X156414434Y-74552916D01*
X156422881Y-74558831D01*
X156606756Y-74666279D01*
X156616042Y-74670729D01*
X156815001Y-74746703D01*
X156824899Y-74749579D01*
X156857250Y-74756161D01*
X156871299Y-74754965D01*
X156875000Y-74744620D01*
X156875000Y-74742255D01*
X157525000Y-74742255D01*
X157528973Y-74755786D01*
X157536617Y-74756885D01*
X157692255Y-74710191D01*
X157701842Y-74706433D01*
X157893095Y-74612739D01*
X157901945Y-74607464D01*
X158075328Y-74483792D01*
X158083200Y-74477139D01*
X158234052Y-74326812D01*
X158240730Y-74318965D01*
X158365003Y-74146020D01*
X158370313Y-74137183D01*
X158464670Y-73946268D01*
X158468468Y-73936675D01*
X158515361Y-73782331D01*
X158515493Y-73768233D01*
X158508587Y-73765000D01*
X157543115Y-73765000D01*
X157527876Y-73769475D01*
X157526671Y-73770865D01*
X157525000Y-73778548D01*
X157525000Y-74742255D01*
X156875000Y-74742255D01*
X156875000Y-73783115D01*
X156870525Y-73767876D01*
X156869135Y-73766671D01*
X156861452Y-73765000D01*
X155899226Y-73765000D01*
X155885695Y-73768973D01*
X155884258Y-73778966D01*
X125508500Y-73778966D01*
X125508500Y-72000000D01*
X139356606Y-72000000D01*
X139376129Y-72185747D01*
X139378169Y-72192025D01*
X139378169Y-72192026D01*
X139397006Y-72250000D01*
X139433844Y-72363376D01*
X139527229Y-72525124D01*
X139531647Y-72530031D01*
X139531648Y-72530032D01*
X139606287Y-72612926D01*
X139652203Y-72663921D01*
X139803303Y-72773702D01*
X139809331Y-72776386D01*
X139809333Y-72776387D01*
X139967895Y-72846983D01*
X139973926Y-72849668D01*
X140065270Y-72869084D01*
X140150158Y-72887128D01*
X140150163Y-72887128D01*
X140156615Y-72888500D01*
X140343385Y-72888500D01*
X140349837Y-72887128D01*
X140349842Y-72887128D01*
X140434730Y-72869084D01*
X140526074Y-72849668D01*
X140532105Y-72846983D01*
X140690667Y-72776387D01*
X140690669Y-72776386D01*
X140696697Y-72773702D01*
X140847797Y-72663921D01*
X140893714Y-72612926D01*
X140968352Y-72530032D01*
X140968353Y-72530031D01*
X140972771Y-72525124D01*
X141066156Y-72363376D01*
X141102994Y-72250000D01*
X141121831Y-72192026D01*
X141121831Y-72192025D01*
X141123871Y-72185747D01*
X141143394Y-72000000D01*
X141123871Y-71814253D01*
X141066156Y-71636624D01*
X141052127Y-71612324D01*
X140976074Y-71480597D01*
X140972771Y-71474876D01*
X140932562Y-71430219D01*
X140847797Y-71336079D01*
X140849539Y-71334510D01*
X140817923Y-71283204D01*
X140819266Y-71212220D01*
X140849386Y-71165352D01*
X140847797Y-71163921D01*
X140968352Y-71030032D01*
X140968353Y-71030031D01*
X140972771Y-71025124D01*
X141008500Y-70963240D01*
X141062852Y-70869099D01*
X141062853Y-70869098D01*
X141064240Y-70866695D01*
X155837251Y-70866695D01*
X155837548Y-70871848D01*
X155837548Y-70871851D01*
X155848961Y-71069781D01*
X155850110Y-71089715D01*
X155851247Y-71094761D01*
X155851248Y-71094767D01*
X155866833Y-71163921D01*
X155899222Y-71307639D01*
X155983266Y-71514616D01*
X156099987Y-71705088D01*
X156246250Y-71873938D01*
X156418126Y-72016632D01*
X156491955Y-72059774D01*
X156540679Y-72111412D01*
X156553750Y-72181195D01*
X156527019Y-72246967D01*
X156486562Y-72280327D01*
X156478457Y-72284546D01*
X156469738Y-72290036D01*
X156299433Y-72417905D01*
X156291726Y-72424748D01*
X156144590Y-72578717D01*
X156138104Y-72586727D01*
X156018098Y-72762649D01*
X156013000Y-72771623D01*
X155923338Y-72964783D01*
X155919775Y-72974470D01*
X155885644Y-73097540D01*
X155885857Y-73111644D01*
X155893508Y-73115000D01*
X158500510Y-73115000D01*
X158514041Y-73111027D01*
X158515346Y-73101947D01*
X158491214Y-73005875D01*
X158487894Y-72996124D01*
X158402972Y-72800814D01*
X158398105Y-72791739D01*
X158282426Y-72612926D01*
X158276136Y-72604757D01*
X158132806Y-72447240D01*
X158125273Y-72440215D01*
X157958139Y-72308222D01*
X157949556Y-72302520D01*
X157912602Y-72282120D01*
X157880776Y-72250000D01*
X165747147Y-72250000D01*
X165766522Y-72471463D01*
X165767946Y-72476776D01*
X165816778Y-72659018D01*
X165824060Y-72686196D01*
X165826382Y-72691177D01*
X165826383Y-72691178D01*
X165915686Y-72882689D01*
X165915689Y-72882694D01*
X165918012Y-72887676D01*
X165921168Y-72892183D01*
X165921169Y-72892185D01*
X166000776Y-73005875D01*
X166045523Y-73069781D01*
X166202719Y-73226977D01*
X166241625Y-73254219D01*
X166285952Y-73309674D01*
X166293262Y-73380293D01*
X166261231Y-73443654D01*
X166200030Y-73479639D01*
X166182962Y-73482694D01*
X166173964Y-73483672D01*
X166150184Y-73486255D01*
X166013795Y-73537385D01*
X165897239Y-73624739D01*
X165809885Y-73741295D01*
X165758755Y-73877684D01*
X165752000Y-73939866D01*
X165752000Y-75560134D01*
X165758755Y-75622316D01*
X165809885Y-75758705D01*
X165897239Y-75875261D01*
X166013795Y-75962615D01*
X166150184Y-76013745D01*
X166212366Y-76020500D01*
X167832634Y-76020500D01*
X167894816Y-76013745D01*
X167910600Y-76007828D01*
X168386869Y-76007828D01*
X168394126Y-76022007D01*
X169719688Y-77347569D01*
X169733632Y-77355183D01*
X169735465Y-77355052D01*
X169742080Y-77350801D01*
X171072094Y-76020787D01*
X171078290Y-76009441D01*
X171068408Y-75996952D01*
X170867356Y-75862613D01*
X170860219Y-75858492D01*
X170602151Y-75731228D01*
X170594547Y-75728078D01*
X170322080Y-75635588D01*
X170314117Y-75633454D01*
X170031900Y-75577317D01*
X170023749Y-75576244D01*
X169736619Y-75557425D01*
X169728381Y-75557425D01*
X169441251Y-75576244D01*
X169433100Y-75577317D01*
X169150883Y-75633454D01*
X169142920Y-75635588D01*
X168870453Y-75728078D01*
X168862849Y-75731228D01*
X168604782Y-75858492D01*
X168597645Y-75862613D01*
X168395157Y-75997910D01*
X168386869Y-76007828D01*
X167910600Y-76007828D01*
X168031205Y-75962615D01*
X168147761Y-75875261D01*
X168235115Y-75758705D01*
X168286245Y-75622316D01*
X168293000Y-75560134D01*
X168293000Y-73939866D01*
X168286245Y-73877684D01*
X168235115Y-73741295D01*
X168147761Y-73624739D01*
X168031205Y-73537385D01*
X167894816Y-73486255D01*
X167871036Y-73483672D01*
X167862038Y-73482694D01*
X167796476Y-73455451D01*
X167756050Y-73397088D01*
X167753596Y-73326134D01*
X167789892Y-73265116D01*
X167803368Y-73254224D01*
X167842281Y-73226977D01*
X167999477Y-73069781D01*
X168044225Y-73005875D01*
X168123831Y-72892185D01*
X168123832Y-72892183D01*
X168126988Y-72887676D01*
X168129311Y-72882694D01*
X168129314Y-72882689D01*
X168218617Y-72691178D01*
X168218618Y-72691177D01*
X168220940Y-72686196D01*
X168228223Y-72659018D01*
X168277054Y-72476776D01*
X168278478Y-72471463D01*
X168297853Y-72250000D01*
X168278478Y-72028537D01*
X168220940Y-71813804D01*
X168218617Y-71808822D01*
X168129314Y-71617311D01*
X168129311Y-71617306D01*
X168126988Y-71612324D01*
X168061656Y-71519020D01*
X168002636Y-71434730D01*
X168002634Y-71434727D01*
X167999477Y-71430219D01*
X167908353Y-71339095D01*
X167874327Y-71276783D01*
X167879392Y-71205968D01*
X167908353Y-71160905D01*
X167999477Y-71069781D01*
X168027310Y-71030032D01*
X168123831Y-70892185D01*
X168123832Y-70892183D01*
X168126988Y-70887676D01*
X168129311Y-70882694D01*
X168129314Y-70882689D01*
X168218617Y-70691178D01*
X168218618Y-70691177D01*
X168220940Y-70686196D01*
X168223308Y-70677361D01*
X168270831Y-70500000D01*
X168278478Y-70471463D01*
X168297853Y-70250000D01*
X168278478Y-70028537D01*
X168228667Y-69842642D01*
X168222363Y-69819114D01*
X168222362Y-69819112D01*
X168220940Y-69813804D01*
X168176499Y-69718500D01*
X168129314Y-69617311D01*
X168129311Y-69617306D01*
X168126988Y-69612324D01*
X168099636Y-69573261D01*
X168002636Y-69434730D01*
X168002634Y-69434727D01*
X167999477Y-69430219D01*
X167842281Y-69273023D01*
X167837773Y-69269866D01*
X167837770Y-69269864D01*
X167762005Y-69216813D01*
X167660177Y-69145512D01*
X167655195Y-69143189D01*
X167655190Y-69143186D01*
X167592426Y-69113919D01*
X167539141Y-69067001D01*
X167519680Y-68998724D01*
X167540222Y-68930764D01*
X167592426Y-68885529D01*
X167652403Y-68857561D01*
X167657583Y-68851080D01*
X167650516Y-68837636D01*
X167035311Y-68222430D01*
X167021368Y-68214817D01*
X167019534Y-68214948D01*
X167012920Y-68219199D01*
X166393761Y-68838359D01*
X166387333Y-68850130D01*
X166393355Y-68857915D01*
X166452575Y-68885529D01*
X166505860Y-68932446D01*
X166525321Y-69000723D01*
X166504779Y-69068683D01*
X166452575Y-69113919D01*
X166389811Y-69143186D01*
X166389806Y-69143189D01*
X166384824Y-69145512D01*
X166380317Y-69148668D01*
X166380315Y-69148669D01*
X166207230Y-69269864D01*
X166207227Y-69269866D01*
X166202719Y-69273023D01*
X166045523Y-69430219D01*
X166042366Y-69434727D01*
X166042364Y-69434730D01*
X165945364Y-69573261D01*
X165918012Y-69612324D01*
X165915689Y-69617306D01*
X165915686Y-69617311D01*
X165868501Y-69718500D01*
X165824060Y-69813804D01*
X165822638Y-69819112D01*
X165822637Y-69819114D01*
X165816333Y-69842642D01*
X165766522Y-70028537D01*
X165747147Y-70250000D01*
X165766522Y-70471463D01*
X165774169Y-70500000D01*
X165821693Y-70677361D01*
X165824060Y-70686196D01*
X165826382Y-70691177D01*
X165826383Y-70691178D01*
X165915686Y-70882689D01*
X165915689Y-70882694D01*
X165918012Y-70887676D01*
X165921168Y-70892183D01*
X165921169Y-70892185D01*
X166017691Y-71030032D01*
X166045523Y-71069781D01*
X166136647Y-71160905D01*
X166170673Y-71223217D01*
X166165608Y-71294032D01*
X166136647Y-71339095D01*
X166045523Y-71430219D01*
X166042366Y-71434727D01*
X166042364Y-71434730D01*
X165983344Y-71519020D01*
X165918012Y-71612324D01*
X165915689Y-71617306D01*
X165915686Y-71617311D01*
X165826383Y-71808822D01*
X165824060Y-71813804D01*
X165766522Y-72028537D01*
X165747147Y-72250000D01*
X157880776Y-72250000D01*
X157862631Y-72231687D01*
X157847859Y-72162245D01*
X157872975Y-72095839D01*
X157900327Y-72069232D01*
X157964828Y-72023224D01*
X158079860Y-71941173D01*
X158238096Y-71783489D01*
X158297594Y-71700689D01*
X158365435Y-71606277D01*
X158368453Y-71602077D01*
X158467430Y-71401811D01*
X158532370Y-71188069D01*
X158561529Y-70966590D01*
X158563156Y-70900000D01*
X158544852Y-70677361D01*
X158490431Y-70460702D01*
X158401354Y-70255840D01*
X158280014Y-70068277D01*
X158276532Y-70064450D01*
X158132798Y-69906488D01*
X158101746Y-69842642D01*
X158110141Y-69772143D01*
X158155317Y-69717375D01*
X158181761Y-69703706D01*
X158288297Y-69663767D01*
X158296705Y-69660615D01*
X158413261Y-69573261D01*
X158500615Y-69456705D01*
X158551745Y-69320316D01*
X158558500Y-69258134D01*
X158558500Y-67755475D01*
X165748128Y-67755475D01*
X165766538Y-67965896D01*
X165768441Y-67976691D01*
X165823109Y-68180715D01*
X165826855Y-68191007D01*
X165914938Y-68379900D01*
X165921420Y-68385082D01*
X165934865Y-68378015D01*
X166550070Y-67762811D01*
X166556447Y-67751132D01*
X167487317Y-67751132D01*
X167487448Y-67752966D01*
X167491699Y-67759580D01*
X168110859Y-68378739D01*
X168122628Y-68385166D01*
X168130417Y-68379139D01*
X168218145Y-68191007D01*
X168221891Y-68180715D01*
X168276559Y-67976691D01*
X168278462Y-67965896D01*
X168296872Y-67755475D01*
X168296872Y-67744525D01*
X168278462Y-67534104D01*
X168276559Y-67523309D01*
X168221891Y-67319285D01*
X168218145Y-67308993D01*
X168130062Y-67120100D01*
X168123580Y-67114918D01*
X168110135Y-67121985D01*
X167494930Y-67737189D01*
X167487317Y-67751132D01*
X166556447Y-67751132D01*
X166557683Y-67748868D01*
X166557552Y-67747034D01*
X166553301Y-67740420D01*
X165934141Y-67121261D01*
X165922372Y-67114834D01*
X165914583Y-67120861D01*
X165826855Y-67308993D01*
X165823109Y-67319285D01*
X165768441Y-67523309D01*
X165766538Y-67534104D01*
X165748128Y-67744525D01*
X165748128Y-67755475D01*
X158558500Y-67755475D01*
X158558500Y-67461866D01*
X158551745Y-67399684D01*
X158500615Y-67263295D01*
X158413261Y-67146739D01*
X158296705Y-67059385D01*
X158160316Y-67008255D01*
X158098134Y-67001500D01*
X156301866Y-67001500D01*
X156239684Y-67008255D01*
X156103295Y-67059385D01*
X155986739Y-67146739D01*
X155899385Y-67263295D01*
X155848255Y-67399684D01*
X155841500Y-67461866D01*
X155841500Y-69258134D01*
X155848255Y-69320316D01*
X155899385Y-69456705D01*
X155986739Y-69573261D01*
X156103295Y-69660615D01*
X156111704Y-69663767D01*
X156111705Y-69663768D01*
X156220451Y-69704535D01*
X156277216Y-69747176D01*
X156301916Y-69813738D01*
X156286709Y-69883087D01*
X156267316Y-69909568D01*
X156148391Y-70034016D01*
X156140629Y-70042138D01*
X156014743Y-70226680D01*
X155920688Y-70429305D01*
X155860989Y-70644570D01*
X155837251Y-70866695D01*
X141064240Y-70866695D01*
X141066156Y-70863376D01*
X141123871Y-70685747D01*
X141124753Y-70677361D01*
X141142704Y-70506565D01*
X141143394Y-70500000D01*
X141123871Y-70314253D01*
X141066156Y-70136624D01*
X141024487Y-70064450D01*
X140976074Y-69980597D01*
X140972771Y-69974876D01*
X140908099Y-69903051D01*
X140852212Y-69840982D01*
X140852210Y-69840981D01*
X140847797Y-69836079D01*
X140696697Y-69726298D01*
X140690669Y-69723614D01*
X140690667Y-69723613D01*
X140532105Y-69653017D01*
X140532104Y-69653017D01*
X140526074Y-69650332D01*
X140434729Y-69630916D01*
X140349842Y-69612872D01*
X140349837Y-69612872D01*
X140343385Y-69611500D01*
X140156615Y-69611500D01*
X140150163Y-69612872D01*
X140150158Y-69612872D01*
X140065271Y-69630916D01*
X139973926Y-69650332D01*
X139967896Y-69653017D01*
X139967895Y-69653017D01*
X139809333Y-69723613D01*
X139809331Y-69723614D01*
X139803303Y-69726298D01*
X139652203Y-69836079D01*
X139647790Y-69840981D01*
X139647788Y-69840982D01*
X139591901Y-69903051D01*
X139527229Y-69974876D01*
X139523926Y-69980597D01*
X139475514Y-70064450D01*
X139433844Y-70136624D01*
X139376129Y-70314253D01*
X139356606Y-70500000D01*
X139357296Y-70506565D01*
X139375248Y-70677361D01*
X139376129Y-70685747D01*
X139433844Y-70863376D01*
X139437147Y-70869098D01*
X139437148Y-70869099D01*
X139491500Y-70963240D01*
X139527229Y-71025124D01*
X139531647Y-71030031D01*
X139531648Y-71030032D01*
X139652203Y-71163921D01*
X139650461Y-71165490D01*
X139682077Y-71216796D01*
X139680734Y-71287780D01*
X139650614Y-71334648D01*
X139652203Y-71336079D01*
X139567439Y-71430219D01*
X139527229Y-71474876D01*
X139523926Y-71480597D01*
X139447874Y-71612324D01*
X139433844Y-71636624D01*
X139376129Y-71814253D01*
X139356606Y-72000000D01*
X125508500Y-72000000D01*
X125508500Y-65900000D01*
X144906606Y-65900000D01*
X144907296Y-65906565D01*
X144918789Y-66015908D01*
X144926129Y-66085747D01*
X144983844Y-66263376D01*
X145077229Y-66425124D01*
X145081647Y-66430031D01*
X145081648Y-66430032D01*
X145193590Y-66554355D01*
X145202203Y-66563921D01*
X145207542Y-66567800D01*
X145336703Y-66661641D01*
X145353303Y-66673702D01*
X145359331Y-66676386D01*
X145359333Y-66676387D01*
X145517895Y-66746983D01*
X145523926Y-66749668D01*
X145613803Y-66768772D01*
X145700158Y-66787128D01*
X145700163Y-66787128D01*
X145706615Y-66788500D01*
X145893385Y-66788500D01*
X145899837Y-66787128D01*
X145899842Y-66787128D01*
X145986197Y-66768772D01*
X146076074Y-66749668D01*
X146082105Y-66746983D01*
X146240667Y-66676387D01*
X146240669Y-66676386D01*
X146246697Y-66673702D01*
X146263298Y-66661641D01*
X146280807Y-66648920D01*
X166387418Y-66648920D01*
X166394485Y-66662365D01*
X167009689Y-67277570D01*
X167023632Y-67285183D01*
X167025466Y-67285052D01*
X167032080Y-67280801D01*
X167651239Y-66661641D01*
X167657667Y-66649870D01*
X167651644Y-66642085D01*
X167463507Y-66554355D01*
X167453215Y-66550609D01*
X167249191Y-66495941D01*
X167238396Y-66494038D01*
X167198632Y-66490559D01*
X168386710Y-66490559D01*
X168396592Y-66503048D01*
X168597644Y-66637387D01*
X168604781Y-66641508D01*
X168862849Y-66768772D01*
X168870453Y-66771922D01*
X169142920Y-66864412D01*
X169150883Y-66866546D01*
X169433100Y-66922683D01*
X169441251Y-66923756D01*
X169728381Y-66942575D01*
X169736619Y-66942575D01*
X170023749Y-66923756D01*
X170031900Y-66922683D01*
X170314117Y-66866546D01*
X170322080Y-66864412D01*
X170594547Y-66771922D01*
X170602151Y-66768772D01*
X170860219Y-66641508D01*
X170867356Y-66637387D01*
X171069843Y-66502090D01*
X171078131Y-66492172D01*
X171070874Y-66477993D01*
X169745312Y-65152431D01*
X169731368Y-65144817D01*
X169729535Y-65144948D01*
X169722920Y-65149199D01*
X168392906Y-66479213D01*
X168386710Y-66490559D01*
X167198632Y-66490559D01*
X167027975Y-66475628D01*
X167017025Y-66475628D01*
X166806604Y-66494038D01*
X166795809Y-66495941D01*
X166591785Y-66550609D01*
X166581493Y-66554355D01*
X166392600Y-66642438D01*
X166387418Y-66648920D01*
X146280807Y-66648920D01*
X146392458Y-66567800D01*
X146397797Y-66563921D01*
X146406411Y-66554355D01*
X146518352Y-66430032D01*
X146518353Y-66430031D01*
X146522771Y-66425124D01*
X146616156Y-66263376D01*
X146673871Y-66085747D01*
X146681212Y-66015908D01*
X146692704Y-65906565D01*
X146693394Y-65900000D01*
X146673871Y-65714253D01*
X146616156Y-65536624D01*
X146522771Y-65374876D01*
X146512907Y-65363921D01*
X146402212Y-65240982D01*
X146402210Y-65240981D01*
X146397797Y-65236079D01*
X146282666Y-65152431D01*
X146252039Y-65130179D01*
X146252038Y-65130178D01*
X146246697Y-65126298D01*
X146240669Y-65123614D01*
X146240667Y-65123613D01*
X146082105Y-65053017D01*
X146082104Y-65053017D01*
X146076074Y-65050332D01*
X145984730Y-65030916D01*
X145899842Y-65012872D01*
X145899837Y-65012872D01*
X145893385Y-65011500D01*
X145706615Y-65011500D01*
X145700163Y-65012872D01*
X145700158Y-65012872D01*
X145615270Y-65030916D01*
X145523926Y-65050332D01*
X145517896Y-65053017D01*
X145517895Y-65053017D01*
X145359333Y-65123613D01*
X145359331Y-65123614D01*
X145353303Y-65126298D01*
X145347962Y-65130178D01*
X145347961Y-65130179D01*
X145317334Y-65152431D01*
X145202203Y-65236079D01*
X145197790Y-65240981D01*
X145197788Y-65240982D01*
X145087093Y-65363921D01*
X145077229Y-65374876D01*
X144983844Y-65536624D01*
X144926129Y-65714253D01*
X144906606Y-65900000D01*
X125508500Y-65900000D01*
X125508500Y-64700000D01*
X163306606Y-64700000D01*
X163326129Y-64885747D01*
X163383844Y-65063376D01*
X163477229Y-65225124D01*
X163481647Y-65230031D01*
X163481648Y-65230032D01*
X163517258Y-65269580D01*
X163602203Y-65363921D01*
X163753303Y-65473702D01*
X163759331Y-65476386D01*
X163759333Y-65476387D01*
X163906809Y-65542047D01*
X163923926Y-65549668D01*
X164015271Y-65569084D01*
X164100158Y-65587128D01*
X164100163Y-65587128D01*
X164106615Y-65588500D01*
X164293385Y-65588500D01*
X164299837Y-65587128D01*
X164299842Y-65587128D01*
X164384729Y-65569084D01*
X164476074Y-65549668D01*
X164493191Y-65542047D01*
X164640667Y-65476387D01*
X164640669Y-65476386D01*
X164646697Y-65473702D01*
X164797797Y-65363921D01*
X164882743Y-65269580D01*
X164918352Y-65230032D01*
X164918353Y-65230031D01*
X164922771Y-65225124D01*
X165016156Y-65063376D01*
X165073871Y-64885747D01*
X165093394Y-64700000D01*
X165091725Y-64684119D01*
X167469925Y-64684119D01*
X167488744Y-64971249D01*
X167489817Y-64979400D01*
X167545954Y-65261617D01*
X167548088Y-65269580D01*
X167640578Y-65542047D01*
X167643728Y-65549651D01*
X167770992Y-65807718D01*
X167775113Y-65814855D01*
X167910410Y-66017343D01*
X167920328Y-66025631D01*
X167934507Y-66018374D01*
X169260069Y-64692812D01*
X169266447Y-64681132D01*
X170197317Y-64681132D01*
X170197448Y-64682965D01*
X170201699Y-64689580D01*
X171531713Y-66019594D01*
X171543059Y-66025790D01*
X171555548Y-66015908D01*
X171689887Y-65814855D01*
X171694008Y-65807718D01*
X171821272Y-65549651D01*
X171824422Y-65542047D01*
X171916912Y-65269580D01*
X171919046Y-65261617D01*
X171975183Y-64979400D01*
X171976256Y-64971249D01*
X171995075Y-64684119D01*
X171995075Y-64675881D01*
X171976256Y-64388751D01*
X171975183Y-64380600D01*
X171919046Y-64098383D01*
X171916912Y-64090420D01*
X171824422Y-63817953D01*
X171821272Y-63810349D01*
X171694008Y-63552282D01*
X171689887Y-63545145D01*
X171554590Y-63342657D01*
X171544672Y-63334369D01*
X171530493Y-63341626D01*
X170204931Y-64667188D01*
X170197317Y-64681132D01*
X169266447Y-64681132D01*
X169267683Y-64678868D01*
X169267552Y-64677035D01*
X169263301Y-64670420D01*
X167933287Y-63340406D01*
X167921941Y-63334210D01*
X167909452Y-63344092D01*
X167775113Y-63545145D01*
X167770992Y-63552282D01*
X167643728Y-63810349D01*
X167640578Y-63817953D01*
X167548088Y-64090420D01*
X167545954Y-64098383D01*
X167489817Y-64380600D01*
X167488744Y-64388751D01*
X167469925Y-64675881D01*
X167469925Y-64684119D01*
X165091725Y-64684119D01*
X165073871Y-64514253D01*
X165016156Y-64336624D01*
X164959488Y-64238471D01*
X164926074Y-64180597D01*
X164922771Y-64174876D01*
X164839134Y-64081988D01*
X164802212Y-64040982D01*
X164802210Y-64040981D01*
X164797797Y-64036079D01*
X164646697Y-63926298D01*
X164640669Y-63923614D01*
X164640667Y-63923613D01*
X164482105Y-63853017D01*
X164482104Y-63853017D01*
X164476074Y-63850332D01*
X164377254Y-63829327D01*
X164299842Y-63812872D01*
X164299837Y-63812872D01*
X164293385Y-63811500D01*
X164106615Y-63811500D01*
X164100163Y-63812872D01*
X164100158Y-63812872D01*
X164022746Y-63829327D01*
X163923926Y-63850332D01*
X163917896Y-63853017D01*
X163917895Y-63853017D01*
X163759333Y-63923613D01*
X163759331Y-63923614D01*
X163753303Y-63926298D01*
X163602203Y-64036079D01*
X163597790Y-64040981D01*
X163597788Y-64040982D01*
X163560866Y-64081988D01*
X163477229Y-64174876D01*
X163473926Y-64180597D01*
X163440513Y-64238471D01*
X163383844Y-64336624D01*
X163326129Y-64514253D01*
X163306606Y-64700000D01*
X125508500Y-64700000D01*
X125508500Y-64077630D01*
X148364833Y-64077630D01*
X148370856Y-64085415D01*
X148558993Y-64173145D01*
X148569285Y-64176891D01*
X148773309Y-64231559D01*
X148784104Y-64233462D01*
X148994525Y-64251872D01*
X149005475Y-64251872D01*
X149215896Y-64233462D01*
X149226691Y-64231559D01*
X149430715Y-64176891D01*
X149441007Y-64173145D01*
X149629903Y-64085061D01*
X149635083Y-64078580D01*
X149628016Y-64065136D01*
X149012811Y-63449930D01*
X148998868Y-63442317D01*
X148997034Y-63442448D01*
X148990420Y-63446699D01*
X148371261Y-64065859D01*
X148364833Y-64077630D01*
X125508500Y-64077630D01*
X125508500Y-62982975D01*
X147725628Y-62982975D01*
X147744038Y-63193396D01*
X147745941Y-63204191D01*
X147800609Y-63408215D01*
X147804355Y-63418507D01*
X147892438Y-63607400D01*
X147898920Y-63612582D01*
X147912365Y-63605515D01*
X148527570Y-62990311D01*
X148533947Y-62978632D01*
X149464817Y-62978632D01*
X149464948Y-62980466D01*
X149469199Y-62987080D01*
X150088359Y-63606239D01*
X150100128Y-63612666D01*
X150107917Y-63606639D01*
X150135529Y-63547425D01*
X150182447Y-63494140D01*
X150250724Y-63474679D01*
X150318684Y-63495221D01*
X150363919Y-63547425D01*
X150393186Y-63610189D01*
X150393189Y-63610194D01*
X150395512Y-63615176D01*
X150398668Y-63619683D01*
X150398669Y-63619685D01*
X150518647Y-63791031D01*
X150523023Y-63797281D01*
X150680219Y-63954477D01*
X150684727Y-63957634D01*
X150684730Y-63957636D01*
X150713523Y-63977797D01*
X150862323Y-64081988D01*
X150867305Y-64084311D01*
X150867310Y-64084314D01*
X151050997Y-64169968D01*
X151063804Y-64175940D01*
X151069112Y-64177362D01*
X151069114Y-64177363D01*
X151116705Y-64190115D01*
X151278537Y-64233478D01*
X151500000Y-64252853D01*
X151721463Y-64233478D01*
X151883295Y-64190115D01*
X151930886Y-64177363D01*
X151930888Y-64177362D01*
X151936196Y-64175940D01*
X151949003Y-64169968D01*
X152132690Y-64084314D01*
X152132695Y-64084311D01*
X152137677Y-64081988D01*
X152286477Y-63977797D01*
X152315270Y-63957636D01*
X152315273Y-63957634D01*
X152319781Y-63954477D01*
X152410905Y-63863353D01*
X152473217Y-63829327D01*
X152544032Y-63834392D01*
X152589095Y-63863353D01*
X152680219Y-63954477D01*
X152684727Y-63957634D01*
X152684730Y-63957636D01*
X152713523Y-63977797D01*
X152862323Y-64081988D01*
X152867305Y-64084311D01*
X152867310Y-64084314D01*
X153050997Y-64169968D01*
X153063804Y-64175940D01*
X153069112Y-64177362D01*
X153069114Y-64177363D01*
X153116705Y-64190115D01*
X153278537Y-64233478D01*
X153500000Y-64252853D01*
X153721463Y-64233478D01*
X153883295Y-64190115D01*
X153930886Y-64177363D01*
X153930888Y-64177362D01*
X153936196Y-64175940D01*
X153949003Y-64169968D01*
X154132690Y-64084314D01*
X154132695Y-64084311D01*
X154137677Y-64081988D01*
X154286477Y-63977797D01*
X154315270Y-63957636D01*
X154315273Y-63957634D01*
X154319781Y-63954477D01*
X154476977Y-63797281D01*
X154504219Y-63758376D01*
X154559674Y-63714048D01*
X154630293Y-63706738D01*
X154693654Y-63738769D01*
X154729639Y-63799970D01*
X154732694Y-63817038D01*
X154733672Y-63826036D01*
X154736255Y-63849816D01*
X154787385Y-63986205D01*
X154874739Y-64102761D01*
X154991295Y-64190115D01*
X155127684Y-64241245D01*
X155189866Y-64248000D01*
X156810134Y-64248000D01*
X156872316Y-64241245D01*
X157008705Y-64190115D01*
X157125261Y-64102761D01*
X157212615Y-63986205D01*
X157263745Y-63849816D01*
X157270500Y-63787634D01*
X157270500Y-62867828D01*
X168386869Y-62867828D01*
X168394126Y-62882007D01*
X169719688Y-64207569D01*
X169733632Y-64215183D01*
X169735465Y-64215052D01*
X169742080Y-64210801D01*
X171072094Y-62880787D01*
X171078290Y-62869441D01*
X171068408Y-62856952D01*
X170867356Y-62722613D01*
X170860219Y-62718492D01*
X170602151Y-62591228D01*
X170594547Y-62588078D01*
X170322080Y-62495588D01*
X170314117Y-62493454D01*
X170031900Y-62437317D01*
X170023749Y-62436244D01*
X169736619Y-62417425D01*
X169728381Y-62417425D01*
X169441251Y-62436244D01*
X169433100Y-62437317D01*
X169150883Y-62493454D01*
X169142920Y-62495588D01*
X168870453Y-62588078D01*
X168862849Y-62591228D01*
X168604782Y-62718492D01*
X168597645Y-62722613D01*
X168395157Y-62857910D01*
X168386869Y-62867828D01*
X157270500Y-62867828D01*
X157270500Y-62167366D01*
X157263745Y-62105184D01*
X157253576Y-62078059D01*
X157724210Y-62078059D01*
X157734092Y-62090548D01*
X157935144Y-62224887D01*
X157942281Y-62229008D01*
X158200349Y-62356272D01*
X158207953Y-62359422D01*
X158480420Y-62451912D01*
X158488383Y-62454046D01*
X158770600Y-62510183D01*
X158778751Y-62511256D01*
X159065881Y-62530075D01*
X159074119Y-62530075D01*
X159361249Y-62511256D01*
X159369400Y-62510183D01*
X159651617Y-62454046D01*
X159659580Y-62451912D01*
X159932047Y-62359422D01*
X159939651Y-62356272D01*
X160197719Y-62229008D01*
X160204856Y-62224887D01*
X160407343Y-62089590D01*
X160415631Y-62079672D01*
X160408374Y-62065493D01*
X159082812Y-60739931D01*
X159068868Y-60732317D01*
X159067035Y-60732448D01*
X159060420Y-60736699D01*
X157730406Y-62066713D01*
X157724210Y-62078059D01*
X157253576Y-62078059D01*
X157212615Y-61968795D01*
X157125261Y-61852239D01*
X157008705Y-61764885D01*
X156872316Y-61713755D01*
X156810134Y-61707000D01*
X155189866Y-61707000D01*
X155127684Y-61713755D01*
X154991295Y-61764885D01*
X154874739Y-61852239D01*
X154787385Y-61968795D01*
X154736255Y-62105184D01*
X154734029Y-62125673D01*
X154732694Y-62137962D01*
X154705451Y-62203524D01*
X154647088Y-62243950D01*
X154576134Y-62246404D01*
X154515116Y-62210108D01*
X154504223Y-62196631D01*
X154476977Y-62157719D01*
X154319781Y-62000523D01*
X154315273Y-61997366D01*
X154315270Y-61997364D01*
X154239505Y-61944313D01*
X154137677Y-61873012D01*
X154132695Y-61870689D01*
X154132690Y-61870686D01*
X153941178Y-61781383D01*
X153941177Y-61781382D01*
X153936196Y-61779060D01*
X153930888Y-61777638D01*
X153930886Y-61777637D01*
X153865051Y-61759997D01*
X153721463Y-61721522D01*
X153500000Y-61702147D01*
X153278537Y-61721522D01*
X153134949Y-61759997D01*
X153069114Y-61777637D01*
X153069112Y-61777638D01*
X153063804Y-61779060D01*
X153058823Y-61781382D01*
X153058822Y-61781383D01*
X152867311Y-61870686D01*
X152867306Y-61870689D01*
X152862324Y-61873012D01*
X152857817Y-61876168D01*
X152857815Y-61876169D01*
X152684730Y-61997364D01*
X152684727Y-61997366D01*
X152680219Y-62000523D01*
X152589095Y-62091647D01*
X152526783Y-62125673D01*
X152455968Y-62120608D01*
X152410905Y-62091647D01*
X152319781Y-62000523D01*
X152315273Y-61997366D01*
X152315270Y-61997364D01*
X152239505Y-61944313D01*
X152137677Y-61873012D01*
X152132695Y-61870689D01*
X152132690Y-61870686D01*
X151941178Y-61781383D01*
X151941177Y-61781382D01*
X151936196Y-61779060D01*
X151930888Y-61777638D01*
X151930886Y-61777637D01*
X151865051Y-61759997D01*
X151721463Y-61721522D01*
X151500000Y-61702147D01*
X151278537Y-61721522D01*
X151134949Y-61759997D01*
X151069114Y-61777637D01*
X151069112Y-61777638D01*
X151063804Y-61779060D01*
X151058823Y-61781382D01*
X151058822Y-61781383D01*
X150867311Y-61870686D01*
X150867306Y-61870689D01*
X150862324Y-61873012D01*
X150857817Y-61876168D01*
X150857815Y-61876169D01*
X150684730Y-61997364D01*
X150684727Y-61997366D01*
X150680219Y-62000523D01*
X150523023Y-62157719D01*
X150519866Y-62162227D01*
X150519864Y-62162230D01*
X150460925Y-62246404D01*
X150395512Y-62339824D01*
X150393189Y-62344806D01*
X150393186Y-62344811D01*
X150363919Y-62407575D01*
X150317001Y-62460860D01*
X150248724Y-62480321D01*
X150180764Y-62459779D01*
X150135529Y-62407575D01*
X150107562Y-62347600D01*
X150101080Y-62342418D01*
X150087635Y-62349485D01*
X149472430Y-62964689D01*
X149464817Y-62978632D01*
X148533947Y-62978632D01*
X148535183Y-62976368D01*
X148535052Y-62974534D01*
X148530801Y-62967920D01*
X147911641Y-62348761D01*
X147899872Y-62342334D01*
X147892083Y-62348361D01*
X147804355Y-62536493D01*
X147800609Y-62546785D01*
X147745941Y-62750809D01*
X147744038Y-62761604D01*
X147725628Y-62972025D01*
X147725628Y-62982975D01*
X125508500Y-62982975D01*
X125508500Y-62078059D01*
X144584210Y-62078059D01*
X144594092Y-62090548D01*
X144795144Y-62224887D01*
X144802281Y-62229008D01*
X145060349Y-62356272D01*
X145067953Y-62359422D01*
X145340420Y-62451912D01*
X145348383Y-62454046D01*
X145630600Y-62510183D01*
X145638751Y-62511256D01*
X145925881Y-62530075D01*
X145934119Y-62530075D01*
X146221249Y-62511256D01*
X146229400Y-62510183D01*
X146511617Y-62454046D01*
X146519580Y-62451912D01*
X146792047Y-62359422D01*
X146799651Y-62356272D01*
X147057719Y-62229008D01*
X147064856Y-62224887D01*
X147267343Y-62089590D01*
X147275631Y-62079672D01*
X147268374Y-62065493D01*
X147079301Y-61876420D01*
X148364918Y-61876420D01*
X148371985Y-61889865D01*
X148987189Y-62505070D01*
X149001132Y-62512683D01*
X149002966Y-62512552D01*
X149009580Y-62508301D01*
X149628739Y-61889141D01*
X149635167Y-61877370D01*
X149629144Y-61869585D01*
X149441007Y-61781855D01*
X149430715Y-61778109D01*
X149226691Y-61723441D01*
X149215896Y-61721538D01*
X149005475Y-61703128D01*
X148994525Y-61703128D01*
X148784104Y-61721538D01*
X148773309Y-61723441D01*
X148569285Y-61778109D01*
X148558993Y-61781855D01*
X148370100Y-61869938D01*
X148364918Y-61876420D01*
X147079301Y-61876420D01*
X145942812Y-60739931D01*
X145928868Y-60732317D01*
X145927035Y-60732448D01*
X145920420Y-60736699D01*
X144590406Y-62066713D01*
X144584210Y-62078059D01*
X125508500Y-62078059D01*
X125508500Y-60271619D01*
X143667425Y-60271619D01*
X143686244Y-60558749D01*
X143687317Y-60566900D01*
X143743454Y-60849117D01*
X143745588Y-60857080D01*
X143838078Y-61129547D01*
X143841228Y-61137151D01*
X143968492Y-61395218D01*
X143972613Y-61402355D01*
X144107910Y-61604843D01*
X144117828Y-61613131D01*
X144132007Y-61605874D01*
X145457569Y-60280312D01*
X145463947Y-60268632D01*
X146394817Y-60268632D01*
X146394948Y-60270465D01*
X146399199Y-60277080D01*
X147729213Y-61607094D01*
X147740559Y-61613290D01*
X147753048Y-61603408D01*
X147887387Y-61402355D01*
X147891508Y-61395218D01*
X148018772Y-61137151D01*
X148021922Y-61129547D01*
X148114412Y-60857080D01*
X148116546Y-60849117D01*
X148172683Y-60566900D01*
X148173756Y-60558749D01*
X148192575Y-60271619D01*
X156807425Y-60271619D01*
X156826244Y-60558749D01*
X156827317Y-60566900D01*
X156883454Y-60849117D01*
X156885588Y-60857080D01*
X156978078Y-61129547D01*
X156981228Y-61137151D01*
X157108492Y-61395218D01*
X157112613Y-61402355D01*
X157247910Y-61604843D01*
X157257828Y-61613131D01*
X157272007Y-61605874D01*
X158597569Y-60280312D01*
X158603947Y-60268632D01*
X159534817Y-60268632D01*
X159534948Y-60270465D01*
X159539199Y-60277080D01*
X160869213Y-61607094D01*
X160880559Y-61613290D01*
X160893048Y-61603408D01*
X161027387Y-61402355D01*
X161031508Y-61395218D01*
X161158772Y-61137151D01*
X161161922Y-61129547D01*
X161254412Y-60857080D01*
X161256546Y-60849117D01*
X161312683Y-60566900D01*
X161313756Y-60558749D01*
X161332575Y-60271619D01*
X161332575Y-60263381D01*
X161313756Y-59976251D01*
X161312683Y-59968100D01*
X161256546Y-59685883D01*
X161254412Y-59677920D01*
X161161922Y-59405453D01*
X161158772Y-59397849D01*
X161031508Y-59139782D01*
X161027387Y-59132645D01*
X160892090Y-58930157D01*
X160882172Y-58921869D01*
X160867993Y-58929126D01*
X159542431Y-60254688D01*
X159534817Y-60268632D01*
X158603947Y-60268632D01*
X158605183Y-60266368D01*
X158605052Y-60264535D01*
X158600801Y-60257920D01*
X157270787Y-58927906D01*
X157259441Y-58921710D01*
X157246952Y-58931592D01*
X157112613Y-59132645D01*
X157108492Y-59139782D01*
X156981228Y-59397849D01*
X156978078Y-59405453D01*
X156885588Y-59677920D01*
X156883454Y-59685883D01*
X156827317Y-59968100D01*
X156826244Y-59976251D01*
X156807425Y-60263381D01*
X156807425Y-60271619D01*
X148192575Y-60271619D01*
X148192575Y-60263381D01*
X148173756Y-59976251D01*
X148172683Y-59968100D01*
X148116546Y-59685883D01*
X148114412Y-59677920D01*
X148021922Y-59405453D01*
X148018772Y-59397849D01*
X147891508Y-59139782D01*
X147887387Y-59132645D01*
X147752090Y-58930157D01*
X147742172Y-58921869D01*
X147727993Y-58929126D01*
X146402431Y-60254688D01*
X146394817Y-60268632D01*
X145463947Y-60268632D01*
X145465183Y-60266368D01*
X145465052Y-60264535D01*
X145460801Y-60257920D01*
X144130787Y-58927906D01*
X144119441Y-58921710D01*
X144106952Y-58931592D01*
X143972613Y-59132645D01*
X143968492Y-59139782D01*
X143841228Y-59397849D01*
X143838078Y-59405453D01*
X143745588Y-59677920D01*
X143743454Y-59685883D01*
X143687317Y-59968100D01*
X143686244Y-59976251D01*
X143667425Y-60263381D01*
X143667425Y-60271619D01*
X125508500Y-60271619D01*
X125508500Y-58455328D01*
X144584369Y-58455328D01*
X144591626Y-58469507D01*
X145917188Y-59795069D01*
X145931132Y-59802683D01*
X145932965Y-59802552D01*
X145939580Y-59798301D01*
X147269594Y-58468287D01*
X147275790Y-58456941D01*
X147274514Y-58455328D01*
X157724369Y-58455328D01*
X157731626Y-58469507D01*
X159057188Y-59795069D01*
X159071132Y-59802683D01*
X159072965Y-59802552D01*
X159079580Y-59798301D01*
X160409594Y-58468287D01*
X160415790Y-58456941D01*
X160405908Y-58444452D01*
X160204856Y-58310113D01*
X160197719Y-58305992D01*
X159939651Y-58178728D01*
X159932047Y-58175578D01*
X159659580Y-58083088D01*
X159651617Y-58080954D01*
X159369400Y-58024817D01*
X159361249Y-58023744D01*
X159074119Y-58004925D01*
X159065881Y-58004925D01*
X158778751Y-58023744D01*
X158770600Y-58024817D01*
X158488383Y-58080954D01*
X158480420Y-58083088D01*
X158207953Y-58175578D01*
X158200349Y-58178728D01*
X157942282Y-58305992D01*
X157935145Y-58310113D01*
X157732657Y-58445410D01*
X157724369Y-58455328D01*
X147274514Y-58455328D01*
X147265908Y-58444452D01*
X147064856Y-58310113D01*
X147057719Y-58305992D01*
X146799651Y-58178728D01*
X146792047Y-58175578D01*
X146519580Y-58083088D01*
X146511617Y-58080954D01*
X146229400Y-58024817D01*
X146221249Y-58023744D01*
X145934119Y-58004925D01*
X145925881Y-58004925D01*
X145638751Y-58023744D01*
X145630600Y-58024817D01*
X145348383Y-58080954D01*
X145340420Y-58083088D01*
X145067953Y-58175578D01*
X145060349Y-58178728D01*
X144802282Y-58305992D01*
X144795145Y-58310113D01*
X144592657Y-58445410D01*
X144584369Y-58455328D01*
X125508500Y-58455328D01*
X125508500Y-56842314D01*
X126623241Y-56842314D01*
X126630700Y-56852683D01*
X126814930Y-57001870D01*
X126820273Y-57005752D01*
X127140685Y-57213830D01*
X127146394Y-57217127D01*
X127486811Y-57390578D01*
X127492836Y-57393260D01*
X127849502Y-57530171D01*
X127855784Y-57532212D01*
X128224816Y-57631094D01*
X128231266Y-57632465D01*
X128608629Y-57692234D01*
X128615167Y-57692920D01*
X128996699Y-57712916D01*
X129003301Y-57712916D01*
X129384833Y-57692920D01*
X129391371Y-57692234D01*
X129768734Y-57632465D01*
X129775184Y-57631094D01*
X130144216Y-57532212D01*
X130150498Y-57530171D01*
X130507164Y-57393260D01*
X130513189Y-57390578D01*
X130853606Y-57217127D01*
X130859315Y-57213830D01*
X131179727Y-57005752D01*
X131185070Y-57001870D01*
X131368350Y-56853452D01*
X131376044Y-56842314D01*
X173623241Y-56842314D01*
X173630700Y-56852683D01*
X173814930Y-57001870D01*
X173820273Y-57005752D01*
X174140685Y-57213830D01*
X174146394Y-57217127D01*
X174486811Y-57390578D01*
X174492836Y-57393260D01*
X174849502Y-57530171D01*
X174855784Y-57532212D01*
X175224816Y-57631094D01*
X175231266Y-57632465D01*
X175608629Y-57692234D01*
X175615167Y-57692920D01*
X175996699Y-57712916D01*
X176003301Y-57712916D01*
X176384833Y-57692920D01*
X176391371Y-57692234D01*
X176768734Y-57632465D01*
X176775184Y-57631094D01*
X177144216Y-57532212D01*
X177150498Y-57530171D01*
X177507164Y-57393260D01*
X177513189Y-57390578D01*
X177853606Y-57217127D01*
X177859315Y-57213830D01*
X178179727Y-57005752D01*
X178185070Y-57001870D01*
X178368350Y-56853452D01*
X178376818Y-56841194D01*
X178370485Y-56830104D01*
X176012812Y-54472431D01*
X175998868Y-54464817D01*
X175997035Y-54464948D01*
X175990420Y-54469199D01*
X173630381Y-56829238D01*
X173623241Y-56842314D01*
X131376044Y-56842314D01*
X131376818Y-56841194D01*
X131370485Y-56830104D01*
X129012812Y-54472431D01*
X128998868Y-54464817D01*
X128997035Y-54464948D01*
X128990420Y-54469199D01*
X126630381Y-56829238D01*
X126623241Y-56842314D01*
X125508500Y-56842314D01*
X125508500Y-55839945D01*
X125528502Y-55771824D01*
X125582158Y-55725331D01*
X125652432Y-55715227D01*
X125717012Y-55744721D01*
X125746767Y-55782742D01*
X125782872Y-55853603D01*
X125786169Y-55859313D01*
X125994246Y-56179724D01*
X125998134Y-56185075D01*
X126146548Y-56368350D01*
X126158806Y-56376818D01*
X126169896Y-56370485D01*
X128539249Y-54001132D01*
X129464817Y-54001132D01*
X129464948Y-54002965D01*
X129469199Y-54009580D01*
X131829238Y-56369619D01*
X131842314Y-56376759D01*
X131852683Y-56369300D01*
X132001866Y-56185075D01*
X132005754Y-56179724D01*
X132213831Y-55859313D01*
X132217128Y-55853603D01*
X132390578Y-55513189D01*
X132393260Y-55507164D01*
X132530171Y-55150498D01*
X132532212Y-55144216D01*
X132631094Y-54775184D01*
X132632465Y-54768734D01*
X132692234Y-54391371D01*
X132692920Y-54384833D01*
X132712916Y-54003301D01*
X172287084Y-54003301D01*
X172307080Y-54384833D01*
X172307766Y-54391371D01*
X172367535Y-54768734D01*
X172368906Y-54775184D01*
X172467788Y-55144216D01*
X172469829Y-55150498D01*
X172606740Y-55507164D01*
X172609422Y-55513189D01*
X172782872Y-55853603D01*
X172786169Y-55859313D01*
X172994246Y-56179724D01*
X172998134Y-56185075D01*
X173146548Y-56368350D01*
X173158806Y-56376818D01*
X173169896Y-56370485D01*
X175527569Y-54012812D01*
X175535183Y-53998868D01*
X175535052Y-53997035D01*
X175530801Y-53990420D01*
X173170762Y-51630381D01*
X173157686Y-51623241D01*
X173147317Y-51630700D01*
X172998134Y-51814925D01*
X172994246Y-51820276D01*
X172786169Y-52140687D01*
X172782872Y-52146397D01*
X172609422Y-52486811D01*
X172606740Y-52492836D01*
X172469829Y-52849502D01*
X172467788Y-52855784D01*
X172368906Y-53224816D01*
X172367535Y-53231266D01*
X172307766Y-53608629D01*
X172307080Y-53615167D01*
X172287084Y-53996699D01*
X172287084Y-54003301D01*
X132712916Y-54003301D01*
X132712916Y-53996699D01*
X132692920Y-53615167D01*
X132692234Y-53608629D01*
X132632465Y-53231266D01*
X132631094Y-53224816D01*
X132532212Y-52855784D01*
X132530171Y-52849502D01*
X132393260Y-52492836D01*
X132390578Y-52486811D01*
X132217128Y-52146397D01*
X132213831Y-52140687D01*
X132005754Y-51820276D01*
X132001866Y-51814925D01*
X131853452Y-51631650D01*
X131841194Y-51623182D01*
X131830104Y-51629515D01*
X129472431Y-53987188D01*
X129464817Y-54001132D01*
X128539249Y-54001132D01*
X131369619Y-51170762D01*
X131376759Y-51157686D01*
X131369300Y-51147317D01*
X131185070Y-50998130D01*
X131179727Y-50994248D01*
X130859315Y-50786170D01*
X130853606Y-50782874D01*
X130782743Y-50746767D01*
X130731128Y-50698019D01*
X130714062Y-50629104D01*
X130736963Y-50561902D01*
X130792560Y-50517750D01*
X130839946Y-50508500D01*
X174160055Y-50508500D01*
X174228176Y-50528502D01*
G37*
%TD.AperFunction*%
%TD*%
M02*
